<svg xmlns="http://www.w3.org/2000/svg" viewBox="0 0 21.56 66.45"><defs><style>.cls-1{fill:#1c1c21;}.cls-2{fill:#fff;}</style></defs><title>Datový zdroj 1</title><g id="Vrstva_2" data-name="Vrstva 2"><g id="lahev_pikto"><path class="cls-1" d="M14.67,0a3,3,0,0,1,.92,2.38c0,6.35,0,12.71,0,19.07a.94.94,0,0,0,.55,1,10.32,10.32,0,0,1,5.42,9.38c0,10,0,20,0,30a4.38,4.38,0,0,1-4.64,4.62H4.65A4.39,4.39,0,0,1,0,61.83q0-15,0-30a10.4,10.4,0,0,1,5.45-9.44.88.88,0,0,0,.52-.9C6,15.09,6,8.73,6,2.37A3,3,0,0,1,6.89,0Z"/><path class="cls-2" d="M19.13,46.46V61.64c0,1.7-.7,2.39-2.41,2.39H4.79c-1.66,0-2.36-.71-2.36-2.37,0-1.19,0-2.38,0-3.57,0-.53.17-.62.65-.61,1.47,0,2.94,0,4.41,0,.75,0,.94-.17.94-.9V38a2.59,2.59,0,0,0-.25-1.13,1.33,1.33,0,0,0-1.38-.93c-1.26.05-2.51,0-3.77,0-.42,0-.62-.07-.59-.55a40.91,40.91,0,0,1,.17-5.31A8.36,8.36,0,0,1,19,30.31a11.41,11.41,0,0,1,.1,1.75Q19.13,39.26,19.13,46.46Z"/><path class="cls-2" d="M13.14,14.21c0,2.14,0,4.28,0,6.43,0,.46-.11.6-.57.5a9.19,9.19,0,0,0-3.73,0c-.35.08-.44,0-.44-.38q0-6.56,0-13.11c0-.41.16-.45.5-.45,1.21,0,2.42,0,3.63,0,.48,0,.62.11.62.61C13.13,9.93,13.14,12.07,13.14,14.21Z"/><path class="cls-2" d="M6,46.72c0,2.6,0,5.19,0,7.78,0,.47-.13.58-.57.56q-1.2-.06-2.4,0c-.48,0-.61-.1-.61-.6,0-3.76,0-7.51,0-11.27,0-1.45,0-2.9,0-4.34,0-.44.13-.56.55-.54.81,0,1.64,0,2.46,0,.46,0,.56.13.56.57C6,41.5,6,44.11,6,46.72Z"/><path class="cls-2" d="M10.75,4.79c-.63,0-1.26,0-1.88,0-.39,0-.49-.12-.46-.48s0-1,0-1.43.07-.49.45-.48c1.28,0,2.55,0,3.83,0,.38,0,.48.12.46.48a9.62,9.62,0,0,0,0,1.42c0,.44-.15.51-.52.49C12,4.77,11.38,4.79,10.75,4.79Z"/></g></g></svg>