<svg xmlns="http://www.w3.org/2000/svg" viewBox="0 0 78.82 78.42"><defs><style>.cls-1{fill:#020203;}.cls-2{fill:#fff;}.cls-3{fill:#fefefe;}.cls-4{fill:#fdfdfd;}.cls-5{fill:#f9f8f9;}.cls-6{fill:#1e1d20;}.cls-7{fill:#1f1e21;}.cls-8{fill:#1a191c;}.cls-9{fill:#222023;}.cls-10{fill:#0d0c0f;}.cls-11{fill:#242325;}.cls-12{fill:#1c1b1e;}.cls-13{fill:#1d1c1f;}.cls-14{fill:#272528;}</style></defs><title>Datový zdroj 2</title><g id="Vrstva_2" data-name="Vrstva 2"><g id="box_pikto"><path class="cls-1" d="M39.33,78.42H5.84c-4.77,0-5.71-1-5.71-5.81,0-3.9,0-7.79,0-11.69,0-1.27-.12-2.55.79-3.64.17-.21.37-.62.28-.79C-1,52.23.62,47.67.16,43.27a39.54,39.54,0,0,1,0-4.49,3.14,3.14,0,0,1,1.95-3.24c1.45-.49,1.56-1.39,1.44-2.56C3.1,28.59,4.32,24.92,7.87,22a7.59,7.59,0,0,0,2.69-6.38c-.08-4.42,0-8.84,0-13.26,0-1.66.32-2.4,2.22-2.4,6.69,0,6.69,0,6.69,6.66,0,3,.06,6,0,9A7.42,7.42,0,0,0,22,21.86a12.31,12.31,0,0,1,4.6,11.32c-.06.58-.53,1.74.77,1.64,1-.07.66-1.07.59-1.63A12,12,0,0,1,32.56,21.7C34.39,20.2,35,18,34.93,15.64c0-4.35.07-8.7,0-13,0-1.9.42-2.63,2.49-2.6,6.36.1,6.36,0,6.36,6.27,0,3.07,0,6.14,0,9.22a7.83,7.83,0,0,0,2.65,6.41A12,12,0,0,1,50.9,33a6.67,6.67,0,0,0,0,1.34c0,.49.42.55.82.51s.54-.43.54-.81c0-1.12.07-2.25,0-3.37a8.43,8.43,0,0,1,3.09-7.36c3.09-2.57,4.21-5.79,4-9.72s0-7.64-.07-11.46C59.3.43,59.91-.11,61.56,0a33.79,33.79,0,0,0,4.72,0c1.38-.08,1.83.44,1.81,1.81-.06,4.42,0,8.84,0,13.26,0,2.66.62,5.1,2.71,6.85a11.55,11.55,0,0,1,4.44,10.9c-.15,1.21-.06,2.17,1.46,2.72s2,2.14,2,3.72c0,4.65.4,9.34-.14,13.92a37.38,37.38,0,0,0,.06,7.1c.3,4.47.12,9,.07,13.48,0,3.25-1.42,4.61-4.71,4.62Q56.64,78.44,39.33,78.42Z"/><path class="cls-2" d="M39.35,76.52H5.41C2.46,76.52,2,76.07,2,73.2,2,69.08,2,65,2,60.84c0-2.6.61-3.23,3.1-3.23H73.65c2.56,0,3,.43,3,3,0,4.35-.07,8.7,0,13,0,2.15-.81,2.9-2.93,2.89C62.29,76.49,50.82,76.52,39.35,76.52Z"/><path class="cls-2" d="M39.41,36.88q17.09,0,34.17,0c2.83,0,3.06.23,3.07,3.1q0,6.41,0,12.82c0,2.47-.52,3-3.06,3H5c-2.37,0-3-.7-3.05-3.09q0-6.4,0-12.81c0-2.51.51-3,3-3Q22.21,36.86,39.41,36.88Z"/><path class="cls-2" d="M63.76,30.18c-1.87,0-3.75.09-5.61,0-1.64-.12-2.16.57-2,2.08.05.52,0,1.05,0,1.57.05.75-.25,1.09-1,1.11s-1-.32-1-1.07c-.23-3.86.12-7.45,3.5-10.11a8.3,8.3,0,0,0,3.31-5.43c.19-1.46,1-1.58,2.24-1.68,2.12-.15,3.34.21,3.69,2.69.28,2,1.87,3.58,3.45,4.84,3.28,2.63,3.15,6.22,3,9.84,0,.7-.38.89-1,.91s-1.06-.25-1.1-1c-.06-1.16.58-2.67-.41-3.41s-2.61-.2-3.94-.26C65.86,30.13,64.81,30.18,63.76,30.18Z"/><path class="cls-2" d="M29.8,31.25c-.42-2.75.85-5.14,3.12-7.16a10.16,10.16,0,0,0,3.74-6.19,1.24,1.24,0,0,1,1.45-1.26c2.11,0,4.15-.41,4.43,2.82.16,1.85,1.7,3.34,3.18,4.48,3.39,2.64,3.32,6.28,3.18,10,0,.81-.44,1-1.15,1s-.81-.4-.87-1c-.1-1.16.58-2.66-.36-3.42s-2.6-.28-3.92-.3c-2.92-.05-5.85.08-8.76-.05-1.74-.08-2.31.6-2.13,2.21.05.52,0,1,0,1.57s-.18,1-.89,1-1.06-.29-1-1S29.8,32.36,29.8,31.25Z"/><path class="cls-2" d="M24.49,31c0,1.33,0,2.08,0,2.83s-.17,1.13-1,1.07-.81-.41-.86-1c-.09-1.17.58-2.67-.38-3.42s-2.6-.25-3.93-.28c-2.69-.05-5.39.11-8.07-.06-2.09-.12-3.13.45-2.78,2.69a10.41,10.41,0,0,1,0,1.12c0,.81-.44,1-1.14,1s-.83-.41-.86-1c-.2-3.8-.14-7.43,3.34-10.11a8.61,8.61,0,0,0,3.47-6.05c.08-.87.58-1.28,1.34-1,1.32.43,3.42-1.18,3.95,1a12.11,12.11,0,0,0,3.68,6.24C23.53,26,25.11,28.31,24.49,31Z"/><path class="cls-3" d="M41.91,8.33a37.63,37.63,0,0,0,0,4.25c.23,1.89-.47,2.27-2.3,2.36-2.31.1-2.91-.59-2.75-2.82a77.92,77.92,0,0,0,0-8.51c0-1.36.32-1.93,1.73-1.73a8.53,8.53,0,0,0,2,0c1-.1,1.3.33,1.27,1.29C41.87,4.9,41.91,6.61,41.91,8.33Z"/><path class="cls-2" d="M66.24,8.42c0,1.64-.06,3.29,0,4.94.06,1.13-.25,1.68-1.47,1.5a5.51,5.51,0,0,0-1.57,0c-1.55.25-2.06-.3-2-1.92.14-3.13.09-6.28,0-9.42,0-1.24.29-1.81,1.6-1.64a8.53,8.53,0,0,0,2,0c1.07-.12,1.45.27,1.4,1.36C66.18,5,66.24,6.7,66.24,8.42Z"/><path class="cls-4" d="M12.58,8.44V5.07c0-3.2.91-3.88,4.09-3.19a.91.91,0,0,1,.84,1.06c0,3.59,0,7.18,0,10.77,0,.89-.34,1.2-1.2,1.15a18.51,18.51,0,0,0-2.47,0c-1,.08-1.32-.28-1.29-1.26C12.62,11.88,12.58,10.16,12.58,8.44Z"/><path class="cls-5" d="M15.2,32c1.41,0,2.83.05,4.24,0,1-.05,1.49.18,1.41,1.33-.06,1,0,1.7-1.35,1.65-2.9-.09-5.81-.07-8.72,0-1.18,0-1.32-.54-1.31-1.5s0-1.57,1.26-1.49C12.21,32.06,13.71,32,15.2,32Z"/><path class="cls-5" d="M39.46,34.92c-1.35,0-2.69-.06-4,0-1.17.07-1.7-.19-1.73-1.55,0-1.56.8-1.42,1.8-1.41,2.69,0,5.38,0,8.06,0,1,0,1.61.06,1.6,1.39s-.45,1.67-1.68,1.59S40.8,34.92,39.46,34.92Z"/><path class="cls-5" d="M63.75,32c1.34,0,2.68.06,4,0,1.15-.07,1.73.13,1.69,1.51S69,35,67.89,34.94c-2.75-.07-5.51-.1-8.26,0-1.37,0-1.53-.52-1.58-1.69C58,31.81,58.82,32,59.73,32,61.07,32,62.41,32,63.75,32Z"/><path class="cls-6" d="M8.67,62.38a1.34,1.34,0,0,1-1.32,1.49A1.24,1.24,0,0,1,6,62.5a1.15,1.15,0,0,1,1.17-1.33A1.27,1.27,0,0,1,8.67,62.38Z"/><path class="cls-7" d="M73,62.56a1.38,1.38,0,0,1-1.51,1.31,1.25,1.25,0,0,1-1.23-1.54,1.16,1.16,0,0,1,1.34-1.17A1.29,1.29,0,0,1,73,62.56Z"/><path class="cls-8" d="M71.52,70.25c.77.13,1.39.5,1.43,1.39A1.26,1.26,0,0,1,71.56,73a1.19,1.19,0,0,1-1.32-1.21A1.38,1.38,0,0,1,71.52,70.25Z"/><path class="cls-9" d="M8.69,71.54c-.08,1.07-.62,1.52-1.47,1.49a1.2,1.2,0,0,1-1.28-1.26,1.28,1.28,0,0,1,1.31-1.48A1.38,1.38,0,0,1,8.69,71.54Z"/><path class="cls-10" d="M39.46,42.35c2.55,0,5.09,0,7.63,0S51,43.72,51,46.2s-1.21,3.92-3.78,4q-7.84.12-15.7,0a3.62,3.62,0,0,1-3.9-3.94,3.7,3.7,0,0,1,4-3.86C34.23,42.31,36.85,42.35,39.46,42.35Z"/><path class="cls-11" d="M71.57,43.14c-.82-.2-1.37-.6-1.35-1.49a1.24,1.24,0,0,1,1.39-1.34A1.28,1.28,0,0,1,73,41.72C72.93,42.59,72.29,42.94,71.57,43.14Z"/><path class="cls-12" d="M7.42,52.22c-1,0-1.45-.4-1.47-1.32A1.19,1.19,0,0,1,7.1,49.53a1.26,1.26,0,0,1,1.55,1.21A1.24,1.24,0,0,1,7.42,52.22Z"/><path class="cls-13" d="M71.67,52.24c-1.08-.07-1.47-.59-1.43-1.48a1.18,1.18,0,0,1,1.29-1.24,1.36,1.36,0,0,1,.14,2.72Z"/><path class="cls-14" d="M8.68,41.74a1.37,1.37,0,0,1-1.45,1.35,1.31,1.31,0,0,1-1.29-1.53,1.24,1.24,0,0,1,1.31-1.25A1.32,1.32,0,0,1,8.68,41.74Z"/><path class="cls-4" d="M39.29,48.2c-2.54,0-5.09,0-7.63,0-1.29,0-2-.46-2-1.8s.56-2.12,2-2.12h15.5c1.34,0,2.11.61,2,2.06s-.91,1.88-2.23,1.86C44.39,48.18,41.84,48.21,39.29,48.2Z"/></g></g></svg>