<svg xmlns="http://www.w3.org/2000/svg" viewBox="0 0 78.82 74.61"><defs><style>.cls-1{fill:#010101;}.cls-2{fill:#fdfdfd;}.cls-3{fill:#fefdfe;}.cls-4{fill:#f9f8f8;}.cls-5{fill:#fff;}.cls-6{fill:#fcfcfc;}.cls-7{fill:#f4f4f4;}.cls-8{fill:#1d1d1b;}.cls-9{fill:#020203;}.cls-10{fill:#f9f8f9;}.cls-11{fill:#1e1d20;}.cls-12{fill:#1f1e21;}.cls-13{fill:#1a191c;}.cls-14{fill:#222023;}.cls-15{fill:#0d0c0f;}.cls-16{fill:#242325;}.cls-17{fill:#1c1b1e;}.cls-18{fill:#1d1c1f;}.cls-19{fill:#272528;}</style></defs><title>Datový zdroj 19</title><g id="Vrstva_2" data-name="Vrstva 2"><g id="box_pikto"><path class="cls-1" d="M6.71,66.14a10.38,10.38,0,0,1-1.81-.87A6.19,6.19,0,0,1,2.59,61a14.64,14.64,0,0,1,.72-6.79,5.13,5.13,0,0,0,.24-1.51c0-7.53,0-15.06,0-22.59A14.31,14.31,0,0,0,3,26.88,13.05,13.05,0,0,1,5.21,15.79c.72-1,1.42-2,2.09-3A10.38,10.38,0,0,0,9.05,6.89a17.45,17.45,0,0,1,.1-3.54,4.09,4.09,0,0,1,4-3.32,30,30,0,0,1,3.42,0,4.13,4.13,0,0,1,3.53,4.05c0,1.44-.07,2.88.1,4.32a10.77,10.77,0,0,0,1.92,4.77c.78,1.14,1.6,2.24,2.36,3.39a12.71,12.71,0,0,1,1.62,10.65,17.59,17.59,0,0,0-.51,4.38q0,10.59,0,21.17a13.3,13.3,0,0,0,.66,2.87,12.34,12.34,0,0,1-.05,6.79A5,5,0,0,1,22.52,66s0,.06-.06.1H20.4a3.64,3.64,0,0,1-1.93-.74.43.43,0,0,0-.59,0,4.55,4.55,0,0,1-2.13.75H13.42a4.55,4.55,0,0,1-2.13-.75.42.42,0,0,0-.58,0,3.71,3.71,0,0,1-1.93.74Z"/><path class="cls-2" d="M8.78,66.14a5.29,5.29,0,0,0,2.05-1.06.2.2,0,0,1,.33,0,6.72,6.72,0,0,0,2.26,1.07Z"/><path class="cls-3" d="M15.75,66.14A6.72,6.72,0,0,0,18,65.07a.21.21,0,0,1,.33,0,5.26,5.26,0,0,0,2.06,1.06Z"/><path class="cls-4" d="M14.6,27.55c-2.69,0-5.38,0-8.07,0-.41,0-.59-.11-.7-.51a10.76,10.76,0,0,1,1.75-9.81A27.25,27.25,0,0,0,10.42,13a12.44,12.44,0,0,0,1.31-4.28c0-.31.13-.38.42-.38,1.64,0,3.27,0,4.91,0,.21,0,.35,0,.37.3a14.52,14.52,0,0,0,3,7.07,19.75,19.75,0,0,1,2.83,4.65,11.56,11.56,0,0,1,0,7c-.11.42-.39.27-.61.27Z"/><path class="cls-2" d="M14.6,55.15h8.12c.25,0,.51-.06.61.3a11,11,0,0,1,.28,6,2.21,2.21,0,0,1-2.71,1.84c-.65-.09-.85-.33-.81-1a1.43,1.43,0,0,0-2.61-1c-.21.27-.4.56-.59.85a2.7,2.7,0,0,1-4.61,0,8.45,8.45,0,0,0-.81-1.08A1.27,1.27,0,0,0,10,60.7,1.4,1.4,0,0,0,9.06,62c-.05.44.22,1-.39,1.23a2.32,2.32,0,0,1-2-.09,2.6,2.6,0,0,1-1.13-1.66,11.11,11.11,0,0,1,.3-6c.11-.37.39-.26.63-.26Z"/><path class="cls-2" d="M22.83,36.57q0,6.12,0,12.24c0,1,0,2.07,0,3.1,0,.25,0,.43-.35.43-5.13,0-10.27,0-15.4,0-.06-.32.2-.46.37-.63Q14.82,44.3,22.2,37C22.37,36.77,22.51,36.52,22.83,36.57Z"/><path class="cls-2" d="M6.35,44.57l0-12.24a13.45,13.45,0,0,0,0-1.42c0-.44.09-.57.56-.56,3.69,0,7.38,0,11.08,0l2.57,0c.06.32-.19.46-.37.64L7,44.2C6.8,44.37,6.66,44.62,6.35,44.57Z"/><path class="cls-5" d="M6.35,49.74V47.8a1.87,1.87,0,0,1,.54-.71q7.61-7.61,15.22-15.22c.2-.2.35-.5.72-.46v1.93a2.1,2.1,0,0,1-.54.71L7.07,49.27C6.87,49.47,6.71,49.77,6.35,49.74Z"/><path class="cls-5" d="M6.45,52.31a5.22,5.22,0,0,1-.1-1.93,1.87,1.87,0,0,1,.54-.71L22.11,34.46c.2-.2.35-.51.72-.47v1.93a2.13,2.13,0,0,1-.54.72L7.16,51.76A2.12,2.12,0,0,1,6.45,52.31Z"/><path class="cls-5" d="M21.17,30.38c.44,0,.88,0,1.32,0s.41.12.34.41a2.1,2.1,0,0,1-.54.71L7.07,46.69c-.2.2-.36.5-.72.46V45.22a1.87,1.87,0,0,1,.54-.71L20.46,30.93A2.55,2.55,0,0,1,21.17,30.38Z"/><path class="cls-6" d="M14.53,5.51c-.71,0-1.42,0-2.13,0-.4,0-.61-.07-.55-.52a4.93,4.93,0,0,0,0-.77,1.31,1.31,0,0,1,1.33-1.42c.93,0,1.85,0,2.78,0a1.31,1.31,0,0,1,1.34,1.41c0,1.29,0,1.29-1.24,1.29Z"/><path class="cls-7" d="M6.35,47.15l.52-.47L22.31,31.24c.16-.17.34-.32.52-.48v.65c-.18.16-.36.31-.52.47L6.87,47.32c-.17.17-.35.32-.52.48Z"/><path class="cls-7" d="M22.83,34c-.18.16-.36.31-.52.48L6.87,49.91l-.52.47v-.64c.17-.16.35-.31.52-.48L22.31,33.82c.16-.17.34-.32.52-.48Z"/><path class="cls-7" d="M6.45,52.31c.1-.12.19-.24.29-.34l15.79-15.8c.09-.09.2-.16.3-.25v.65a3.61,3.61,0,0,0-.3.25L7.39,52c-.1.1-.19.22-.29.34Z"/><path class="cls-7" d="M21.17,30.38a3.24,3.24,0,0,1-.29.34L6.64,45c-.09.09-.2.17-.29.25v-.65c.17-.16.35-.31.52-.48L20.05,30.91c.17-.17.32-.35.47-.53Z"/><rect class="cls-2" x="6.44" y="30.48" width="16.32" height="21.74"/><path class="cls-8" d="M10.71,35.25h1.57a.16.16,0,0,1,.11,0,.14.14,0,0,1,0,.11v8.74a.14.14,0,0,1,0,.11.16.16,0,0,1-.11.05H10.76a.16.16,0,0,1-.11-.05.14.14,0,0,1,0-.11V37.06s0,0,0-.05,0,0-.05,0l-1.28.35H9.2c-.08,0-.12,0-.12-.14L9,36.1a.19.19,0,0,1,.12-.18l1.36-.63A.34.34,0,0,1,10.71,35.25Z"/><path class="cls-8" d="M14,44.26a.14.14,0,0,1,0-.11V35.41a.14.14,0,0,1,0-.11.16.16,0,0,1,.11,0h1.52a.16.16,0,0,1,.11,0,.14.14,0,0,1,0,.11v7.27s0,.06.07.06h4.23a.16.16,0,0,1,.11,0,.14.14,0,0,1,0,.11v1.25a.14.14,0,0,1,0,.11.16.16,0,0,1-.11.05h-6A.16.16,0,0,1,14,44.26Z"/><path class="cls-1" d="M31.59,66.14a10.47,10.47,0,0,1-1.82-.87A6.27,6.27,0,0,1,27.46,61a14.9,14.9,0,0,1,.72-6.79,4.82,4.82,0,0,0,.24-1.51c0-7.53,0-15.06,0-22.59a14.32,14.32,0,0,0-.62-3.27,13.05,13.05,0,0,1,2.26-11.09c.72-1,1.43-2,2.1-3a10.46,10.46,0,0,0,1.75-5.88A17.45,17.45,0,0,1,34,3.35a4.07,4.07,0,0,1,4-3.32,29.82,29.82,0,0,1,3.41,0A4.13,4.13,0,0,1,45,4.12c0,1.44-.08,2.88.1,4.32A10.66,10.66,0,0,0,47,13.21c.77,1.14,1.59,2.24,2.35,3.39A12.68,12.68,0,0,1,51,27.25a17.14,17.14,0,0,0-.51,4.38q0,10.59,0,21.17a13.9,13.9,0,0,0,.65,2.87,12.43,12.43,0,0,1,0,6.79A5,5,0,0,1,47.4,66s0,.06-.06.1H45.27a3.67,3.67,0,0,1-1.93-.74.42.42,0,0,0-.58,0,4.55,4.55,0,0,1-2.14.75H38.3a4.51,4.51,0,0,1-2.13-.75.43.43,0,0,0-.59,0,3.64,3.64,0,0,1-1.93.74Z"/><path class="cls-2" d="M33.65,66.14a5.33,5.33,0,0,0,2.06-1.06c.11-.12.2-.12.32,0a6.86,6.86,0,0,0,2.27,1.07Z"/><path class="cls-3" d="M40.62,66.14a6.86,6.86,0,0,0,2.27-1.07.2.2,0,0,1,.32,0,5.4,5.4,0,0,0,2.06,1.06Z"/><path class="cls-4" d="M39.47,27.55c-2.69,0-5.38,0-8.07,0-.41,0-.59-.11-.7-.51a10.77,10.77,0,0,1,1.76-9.81A28.72,28.72,0,0,0,35.3,13a12.89,12.89,0,0,0,1.31-4.28c0-.31.13-.38.42-.38,1.63,0,3.27,0,4.9,0,.22,0,.35,0,.38.3a14.51,14.51,0,0,0,3,7.07,19.75,19.75,0,0,1,2.83,4.65,11.41,11.41,0,0,1,0,7c-.11.42-.39.27-.6.27Z"/><path class="cls-2" d="M39.47,55.15H47.6c.25,0,.51-.06.6.3a11,11,0,0,1,.29,6,2.21,2.21,0,0,1-2.71,1.84c-.66-.09-.86-.33-.81-1A1.43,1.43,0,0,0,44,60.69a1.41,1.41,0,0,0-1.68.6c-.21.27-.4.56-.59.85a2.7,2.7,0,0,1-4.61,0,10.86,10.86,0,0,0-.81-1.08,1.29,1.29,0,0,0-1.47-.36,1.41,1.41,0,0,0-1,1.26c0,.44.23,1-.38,1.23a2.31,2.31,0,0,1-2-.09,2.58,2.58,0,0,1-1.14-1.66,11,11,0,0,1,.31-6c.1-.37.38-.26.62-.26Z"/><path class="cls-2" d="M47.7,36.57q0,6.12,0,12.24v3.1c0,.25,0,.43-.35.43-5.13,0-10.26,0-15.39,0-.06-.32.19-.46.36-.63Q39.71,44.3,47.07,37C47.24,36.77,47.39,36.52,47.7,36.57Z"/><path class="cls-2" d="M31.22,44.57q0-6.12,0-12.24c0-.47,0-.95,0-1.42s.09-.57.55-.56c3.7,0,7.39,0,11.08,0l2.58,0c.06.32-.2.46-.37.64L31.85,44.2C31.68,44.37,31.53,44.62,31.22,44.57Z"/><path class="cls-5" d="M31.22,49.74V47.8a2.1,2.1,0,0,1,.54-.71Q39.36,39.49,47,31.87c.2-.2.36-.5.72-.46v1.93a2,2,0,0,1-.54.71q-7.6,7.62-15.22,15.22C31.74,49.47,31.59,49.77,31.22,49.74Z"/><path class="cls-5" d="M31.33,52.31a5,5,0,0,1-.11-1.93,2.1,2.1,0,0,1,.54-.71L47,34.46c.2-.2.36-.51.72-.47v1.93a2,2,0,0,1-.54.72L32,51.76A2.34,2.34,0,0,1,31.33,52.31Z"/><path class="cls-5" d="M46.05,30.38c.44,0,.88,0,1.32,0s.41.12.33.41a2,2,0,0,1-.54.71q-7.6,7.61-15.22,15.22c-.2.2-.35.5-.72.46V45.22a2.1,2.1,0,0,1,.54-.71L45.34,30.93A2.42,2.42,0,0,1,46.05,30.38Z"/><path class="cls-6" d="M39.4,5.51c-.71,0-1.42,0-2.13,0-.39,0-.6-.07-.54-.52,0-.25,0-.51,0-.77a1.3,1.3,0,0,1,1.33-1.42c.92,0,1.85,0,2.77,0a1.31,1.31,0,0,1,1.35,1.41c0,1.29,0,1.29-1.24,1.29Z"/><path class="cls-7" d="M31.22,47.15l.52-.47L47.18,31.24c.17-.17.35-.32.52-.48v.65l-.52.47L31.74,47.32c-.17.17-.35.32-.52.48Z"/><path class="cls-7" d="M47.7,34c-.17.16-.35.31-.52.48L31.74,49.91l-.52.47v-.64c.17-.16.35-.31.52-.48L47.18,33.82c.17-.17.35-.32.52-.48Z"/><path class="cls-7" d="M31.33,52.31a3.24,3.24,0,0,1,.29-.34l15.79-15.8c.09-.09.19-.16.29-.25v.65a3.47,3.47,0,0,0-.29.25L32.27,52a2.37,2.37,0,0,0-.29.34Z"/><path class="cls-7" d="M46.05,30.38c-.1.12-.19.24-.29.34L31.51,45a3.47,3.47,0,0,1-.29.25v-.65c.17-.16.36-.31.52-.48L44.93,30.91c.16-.17.31-.35.47-.53Z"/><rect class="cls-2" x="31.31" y="30.48" width="16.32" height="21.74"/><path class="cls-8" d="M35.59,35.25h1.56a.17.17,0,0,1,.16.16v8.74a.17.17,0,0,1-.16.16H35.64a.16.16,0,0,1-.11-.05.14.14,0,0,1-.05-.11V37.06a.06.06,0,0,0,0-.05s0,0-.05,0l-1.28.35h-.06c-.07,0-.11,0-.11-.14l0-1.12a.2.2,0,0,1,.11-.18l1.36-.63A.37.37,0,0,1,35.59,35.25Z"/><path class="cls-8" d="M38.87,44.26a.14.14,0,0,1,0-.11V35.41a.17.17,0,0,1,.16-.16h1.51a.16.16,0,0,1,.11,0,.14.14,0,0,1,0,.11v7.27a.05.05,0,0,0,.06.06h4.23a.17.17,0,0,1,.16.16v1.25a.17.17,0,0,1-.16.16H39A.14.14,0,0,1,38.87,44.26Z"/><path class="cls-1" d="M56.46,66.14a10.38,10.38,0,0,1-1.81-.87A6.19,6.19,0,0,1,52.34,61a14.64,14.64,0,0,1,.72-6.79,5.13,5.13,0,0,0,.24-1.51c0-7.53,0-15.06,0-22.59a14.31,14.31,0,0,0-.61-3.27A13.05,13.05,0,0,1,55,15.79c.72-1,1.42-2,2.09-3A10.38,10.38,0,0,0,58.8,6.89a17.45,17.45,0,0,1,.1-3.54,4.09,4.09,0,0,1,4-3.32,30,30,0,0,1,3.42,0,4.13,4.13,0,0,1,3.53,4.05c0,1.44-.07,2.88.1,4.32a10.77,10.77,0,0,0,1.92,4.77c.78,1.14,1.59,2.24,2.36,3.39a12.71,12.71,0,0,1,1.62,10.65,17.59,17.59,0,0,0-.51,4.38q0,10.59,0,21.17A13.3,13.3,0,0,0,76,55.67a12.43,12.43,0,0,1,0,6.79A5,5,0,0,1,72.27,66s0,.06-.06.1H70.15a3.64,3.64,0,0,1-1.93-.74.43.43,0,0,0-.59,0,4.55,4.55,0,0,1-2.13.75H63.17A4.55,4.55,0,0,1,61,65.39a.42.42,0,0,0-.58,0,3.71,3.71,0,0,1-1.93.74Z"/><path class="cls-2" d="M58.53,66.14a5.29,5.29,0,0,0,2-1.06.2.2,0,0,1,.33,0,6.72,6.72,0,0,0,2.26,1.07Z"/><path class="cls-3" d="M65.5,66.14a6.72,6.72,0,0,0,2.26-1.07.21.21,0,0,1,.33,0,5.26,5.26,0,0,0,2.06,1.06Z"/><path class="cls-4" d="M64.35,27.55c-2.69,0-5.38,0-8.07,0-.41,0-.59-.11-.7-.51a10.76,10.76,0,0,1,1.75-9.81A27.25,27.25,0,0,0,60.17,13a12.44,12.44,0,0,0,1.31-4.28c0-.31.13-.38.42-.38,1.64,0,3.27,0,4.91,0,.21,0,.35,0,.37.3a14.52,14.52,0,0,0,3,7.07A19.75,19.75,0,0,1,73,20.31a11.56,11.56,0,0,1,0,7c-.11.42-.39.27-.61.27Z"/><path class="cls-2" d="M64.35,55.15h8.12c.25,0,.51-.06.61.3a11,11,0,0,1,.28,6,2.21,2.21,0,0,1-2.71,1.84c-.65-.09-.85-.33-.81-1a1.43,1.43,0,0,0-2.61-1c-.21.27-.4.56-.59.85a2.7,2.7,0,0,1-4.61,0,8.45,8.45,0,0,0-.81-1.08,1.27,1.27,0,0,0-1.46-.36A1.4,1.4,0,0,0,58.81,62c-.05.44.22,1-.39,1.23a2.32,2.32,0,0,1-2-.09,2.6,2.6,0,0,1-1.13-1.66,11.11,11.11,0,0,1,.3-6c.11-.37.39-.26.63-.26Z"/><path class="cls-2" d="M72.58,36.57q0,6.12,0,12.24c0,1,0,2.07,0,3.1,0,.25,0,.43-.35.43-5.13,0-10.27,0-15.4,0-.06-.32.2-.46.37-.63Q64.57,44.3,72,37C72.12,36.77,72.26,36.52,72.58,36.57Z"/><path class="cls-2" d="M56.1,44.57l0-12.24a13.45,13.45,0,0,0,0-1.42c0-.44.09-.57.56-.56,3.69,0,7.38,0,11.08,0l2.57,0c.06.32-.19.46-.37.64L56.73,44.2C56.55,44.37,56.41,44.62,56.1,44.57Z"/><path class="cls-5" d="M56.1,49.74V47.8a1.87,1.87,0,0,1,.54-.71q7.61-7.61,15.22-15.22c.2-.2.35-.5.72-.46v1.93a2.1,2.1,0,0,1-.54.71L56.82,49.27C56.62,49.47,56.46,49.77,56.1,49.74Z"/><path class="cls-5" d="M56.2,52.31a5.22,5.22,0,0,1-.1-1.93,1.87,1.87,0,0,1,.54-.71L71.86,34.46c.2-.2.35-.51.72-.47v1.93a2.13,2.13,0,0,1-.54.72L56.91,51.76A2.12,2.12,0,0,1,56.2,52.31Z"/><path class="cls-5" d="M70.92,30.38c.44,0,.88,0,1.32,0s.41.12.34.41a2.1,2.1,0,0,1-.54.71q-7.62,7.61-15.22,15.22c-.2.2-.36.5-.72.46V45.22a1.87,1.87,0,0,1,.54-.71L70.21,30.93A2.55,2.55,0,0,1,70.92,30.38Z"/><path class="cls-6" d="M64.28,5.51c-.71,0-1.42,0-2.13,0-.4,0-.61-.07-.55-.52a4.93,4.93,0,0,0,0-.77,1.31,1.31,0,0,1,1.33-1.42c.93,0,1.85,0,2.78,0a1.31,1.31,0,0,1,1.34,1.41c0,1.29,0,1.29-1.24,1.29Z"/><path class="cls-7" d="M56.1,47.15l.52-.47L72.06,31.24c.16-.17.34-.32.52-.48v.65c-.18.16-.36.31-.52.47L56.62,47.32c-.17.17-.35.32-.52.48Z"/><path class="cls-7" d="M72.58,34c-.18.16-.36.31-.52.48q-7.73,7.71-15.44,15.44l-.52.47v-.64c.17-.16.35-.31.52-.48L72.06,33.82c.16-.17.34-.32.52-.48Z"/><path class="cls-7" d="M56.2,52.31c.1-.12.19-.24.29-.34l15.79-15.8c.09-.09.2-.16.3-.25v.65a3.61,3.61,0,0,0-.3.25L57.14,52c-.1.1-.19.22-.29.34Z"/><path class="cls-7" d="M70.92,30.38a3.24,3.24,0,0,1-.29.34L56.39,45c-.09.09-.2.17-.29.25v-.65c.17-.16.35-.31.52-.48L69.8,30.91c.17-.17.32-.35.47-.53Z"/><rect class="cls-2" x="56.19" y="30.48" width="16.32" height="21.74"/><path class="cls-8" d="M60.46,35.25H62a.16.16,0,0,1,.11,0,.14.14,0,0,1,0,.11v8.74a.14.14,0,0,1,0,.11.16.16,0,0,1-.11.05H60.51a.16.16,0,0,1-.11-.05.14.14,0,0,1,0-.11V37.06s0,0,0-.05,0,0,0,0L59,37.35h0c-.08,0-.12,0-.12-.14l0-1.12a.19.19,0,0,1,.12-.18l1.36-.63A.34.34,0,0,1,60.46,35.25Z"/><path class="cls-8" d="M63.74,44.26a.14.14,0,0,1,0-.11V35.41a.14.14,0,0,1,0-.11.16.16,0,0,1,.11,0h1.52a.16.16,0,0,1,.11,0,.14.14,0,0,1,0,.11v7.27s0,.06.07.06h4.23a.16.16,0,0,1,.11,0,.14.14,0,0,1,0,.11v1.25a.14.14,0,0,1,0,.11.16.16,0,0,1-.11.05h-6A.16.16,0,0,1,63.74,44.26Z"/><path class="cls-9" d="M67.89,31.13c-.63,0-1.26,0-1.89,0H61.83c-.73,0-1.47,0-2.2,0a2.69,2.69,0,0,1-.6,0H44.26a3.17,3.17,0,0,1-.78,0c-.21,0-.42,0-.63,0H36.68c-.42,0-.84,0-1.25,0a3.62,3.62,0,0,1-.76,0H20a2.51,2.51,0,0,1-.51,0c-.77,0-1.53,0-2.29,0H12.84l-2.06,0a2.85,2.85,0,0,1-.44,0H3.13a2.34,2.34,0,0,1-1,.63A3.14,3.14,0,0,0,.14,35a39.73,39.73,0,0,0,0,4.5c.46,4.39-1.19,9,1,13.21.09.17-.11.59-.28.8C0,54.56.13,55.84.13,57.11c0,3.9,0,7.8,0,11.69,0,4.85.94,5.81,5.71,5.81H39.33q17.31,0,34.62,0c3.29,0,4.67-1.36,4.71-4.62,0-4.5.23-9-.07-13.48a37.28,37.28,0,0,1-.06-7.09c.54-4.59.17-9.28.14-13.92,0-1.58-.44-3.17-2-3.73a2.5,2.5,0,0,1-1.05-.66H68.45A4.61,4.61,0,0,1,67.89,31.13Zm5.86,41.61c-11.46-.06-22.93,0-34.4,0H5.41C2.46,72.71,2,72.26,2,69.4,2,65.27,2,61.15,2,57c0-2.6.61-3.23,3.1-3.23H73.65c2.56,0,3,.44,3,3,0,4.35-.07,8.7,0,13C76.72,72,75.87,72.75,73.75,72.74Zm2.9-36.56q0,6.41,0,12.81c0,2.47-.52,3-3.06,3H5C2.66,52,2,51.28,2,48.88q0-6.41,0-12.81c0-2.51.51-3,3-3H73.58C76.41,33.07,76.64,33.31,76.65,36.18Z"/><path class="cls-5" d="M76.65,56.81c0-2.57-.44-3-3-3H5.08C2.59,53.8,2,54.43,2,57c0,4.12,0,8.24,0,12.37,0,2.86.48,3.31,3.43,3.31H39.35c11.47,0,22.94,0,34.4,0,2.12,0,3-.74,2.93-2.89C76.58,65.51,76.66,61.16,76.65,56.81Zm-69.53.55a1.28,1.28,0,0,1,1.55,1.22,1.33,1.33,0,0,1-1.32,1.48A1.23,1.23,0,0,1,6,58.7,1.16,1.16,0,0,1,7.12,57.36Zm.1,11.87A1.2,1.2,0,0,1,5.94,68a1.28,1.28,0,0,1,1.31-1.48,1.38,1.38,0,0,1,1.44,1.26C8.61,68.8,8.06,69.25,7.22,69.23Zm64.34,0A1.19,1.19,0,0,1,70.24,68a1.38,1.38,0,0,1,1.28-1.58c.77.13,1.39.5,1.43,1.39A1.25,1.25,0,0,1,71.56,69.22Zm-.09-9.16a1.25,1.25,0,0,1-1.23-1.53,1.16,1.16,0,0,1,1.34-1.18,1.3,1.3,0,0,1,1.4,1.4A1.38,1.38,0,0,1,71.47,60.06Z"/><path class="cls-5" d="M39.41,33.07H5c-2.53,0-3,.49-3,3q0,6.41,0,12.81C2,51.28,2.66,52,5,52H73.59c2.54,0,3-.51,3.06-3q0-6.41,0-12.81c0-2.87-.24-3.11-3.07-3.11Zm-32,15.35C6.47,48.43,6,48,6,47.09A1.19,1.19,0,0,1,7.1,45.72a1.27,1.27,0,0,1,1.55,1.22A1.24,1.24,0,0,1,7.42,48.42Zm-.19-9.14a1.31,1.31,0,0,1-1.29-1.52A1.24,1.24,0,0,1,7.25,36.5a1.32,1.32,0,0,1,1.43,1.43A1.37,1.37,0,0,1,7.23,39.28Zm40,7.07q-7.84.12-15.7,0a3.61,3.61,0,0,1-3.9-3.94,3.7,3.7,0,0,1,4-3.86c2.62,0,5.24,0,7.85,0s5.09,0,7.63,0S51,39.92,51,42.39,49.79,46.31,47.22,46.35Zm24.45,2.08c-1.08-.06-1.47-.59-1.43-1.48a1.18,1.18,0,0,1,1.29-1.24A1.26,1.26,0,0,1,73,47.07,1.24,1.24,0,0,1,71.67,48.43Zm-.1-9.1c-.82-.2-1.37-.6-1.35-1.49a1.24,1.24,0,0,1,1.39-1.34A1.28,1.28,0,0,1,73,37.91C72.93,38.79,72.29,39.13,71.57,39.33Z"/><path class="cls-5" d="M30.83,31.1h0Z"/><path class="cls-10" d="M20,31.1h-2.8c.76,0,1.52,0,2.29,0A2.51,2.51,0,0,0,20,31.1Z"/><path class="cls-10" d="M12.84,31.1h-2.5a2.85,2.85,0,0,0,.44,0Z"/><path class="cls-10" d="M44.26,31.1H42.85c.21,0,.42,0,.63,0A3.17,3.17,0,0,0,44.26,31.1Z"/><path class="cls-10" d="M40,31.1h0Z"/><path class="cls-10" d="M35.43,31.13c.41,0,.83,0,1.25,0h-2A3.62,3.62,0,0,0,35.43,31.13Z"/><path class="cls-10" d="M68.45,31.1H66c.63,0,1.26,0,1.89,0A4.61,4.61,0,0,0,68.45,31.1Z"/><path class="cls-10" d="M61.83,31.1H59a2.69,2.69,0,0,0,.6,0C60.36,31.11,61.1,31.11,61.83,31.1Z"/><path class="cls-11" d="M7.35,60.06a1.33,1.33,0,0,0,1.32-1.48,1.28,1.28,0,0,0-1.55-1.22A1.16,1.16,0,0,0,6,58.7,1.23,1.23,0,0,0,7.35,60.06Z"/><path class="cls-12" d="M71.58,57.35a1.16,1.16,0,0,0-1.34,1.18,1.25,1.25,0,0,0,1.23,1.53A1.38,1.38,0,0,0,73,58.75,1.3,1.3,0,0,0,71.58,57.35Z"/><path class="cls-13" d="M71.52,66.44A1.38,1.38,0,0,0,70.24,68a1.19,1.19,0,0,0,1.32,1.2A1.25,1.25,0,0,0,73,67.83C72.91,66.94,72.29,66.57,71.52,66.44Z"/><path class="cls-14" d="M7.25,66.48A1.28,1.28,0,0,0,5.94,68a1.2,1.2,0,0,0,1.28,1.27c.84,0,1.39-.43,1.47-1.49A1.38,1.38,0,0,0,7.25,66.48Z"/><path class="cls-15" d="M47.09,38.55c-2.54,0-5.08,0-7.63,0s-5.23,0-7.85,0a3.7,3.7,0,0,0-4,3.86,3.61,3.61,0,0,0,3.9,3.94q7.85.12,15.7,0c2.57,0,3.8-1.45,3.78-4S49.66,38.59,47.09,38.55Zm-.16,5.86c-2.54,0-5.09,0-7.64,0s-5.09,0-7.63,0c-1.29,0-2-.45-2-1.8s.56-2.12,2-2.12q7.76,0,15.5,0c1.34,0,2.11.62,2,2.07S48.25,44.43,46.93,44.41Z"/><path class="cls-16" d="M71.61,36.5a1.24,1.24,0,0,0-1.39,1.34c0,.89.53,1.29,1.35,1.49.72-.2,1.36-.54,1.39-1.42A1.28,1.28,0,0,0,71.61,36.5Z"/><path class="cls-17" d="M7.1,45.72A1.19,1.19,0,0,0,6,47.09c0,.92.52,1.34,1.47,1.33a1.24,1.24,0,0,0,1.23-1.48A1.27,1.27,0,0,0,7.1,45.72Z"/><path class="cls-18" d="M71.53,45.71A1.18,1.18,0,0,0,70.24,47c0,.89.35,1.42,1.43,1.48A1.24,1.24,0,0,0,73,47.07,1.26,1.26,0,0,0,71.53,45.71Z"/><path class="cls-19" d="M7.25,36.5a1.24,1.24,0,0,0-1.31,1.26,1.31,1.31,0,0,0,1.29,1.52,1.37,1.37,0,0,0,1.45-1.35A1.32,1.32,0,0,0,7.25,36.5Z"/><path class="cls-2" d="M47.11,40.49q-7.74,0-15.5,0c-1.4,0-2,.72-2,2.12s.72,1.82,2,1.8c2.54,0,5.09,0,7.63,0s5.1,0,7.64,0c1.32,0,2.17-.38,2.23-1.85S48.45,40.5,47.11,40.49Z"/></g></g></svg>