<svg xmlns="http://www.w3.org/2000/svg" viewBox="0 0 78.82 74.69"><defs><style>.cls-1{fill:none;}.cls-2{fill:#0d0c0f;}.cls-3{fill:#020203;}.cls-4{fill:#fdfdfd;}.cls-5{fill:#fff;}.cls-6{fill:#010101;}</style></defs><title>Datový zdroj 20</title><g id="Vrstva_2" data-name="Vrstva 2"><g id="box_pikto"><path class="cls-1" d="M44.23,31.1H42.82c.21,0,.42,0,.63,0A3.19,3.19,0,0,0,44.23,31.1Z"/><path class="cls-1" d="M12.8,31.1H10.3a3,3,0,0,0,.45,0C11.43,31.11,12.11,31.11,12.8,31.1Z"/><path class="cls-1" d="M40,31.1h0Z"/><path class="cls-1" d="M30.8,31.1h0Z"/><path class="cls-1" d="M20,31.1h-2.8c.76,0,1.52,0,2.28,0A2.62,2.62,0,0,0,20,31.1Z"/><path class="cls-1" d="M35.39,31.13c.42,0,.84,0,1.25,0h-2A3.65,3.65,0,0,0,35.39,31.13Z"/><path class="cls-1" d="M68.42,31.1H66c.63,0,1.26,0,1.89,0A4.79,4.79,0,0,0,68.42,31.1Z"/><path class="cls-1" d="M61.8,31.1H59a2.69,2.69,0,0,0,.6,0C60.33,31.11,61.06,31.11,61.8,31.1Z"/><path class="cls-1" d="M51.75,31.15a.53.53,0,0,0,.15,0h-.63A1.23,1.23,0,0,0,51.75,31.15Z"/><path class="cls-1" d="M47.08,40.49q-7.76,0-15.5,0c-1.4,0-2,.72-2,2.12s.73,1.82,2,1.8c2.55,0,5.09,0,7.64,0s5.09,0,7.64,0c1.32,0,2.17-.38,2.22-1.85S48.42,40.5,47.08,40.49Z"/><path class="cls-1" d="M76.61,56.81c0-2.57-.43-3-3-3H5.05c-2.5,0-3.1.63-3.11,3.23q0,6.18,0,12.37c0,2.86.48,3.31,3.43,3.31h34c11.46,0,22.93,0,34.4,0,2.11,0,3-.74,2.92-2.89C76.55,65.51,76.62,61.16,76.61,56.81Zm-69.53.55a1.29,1.29,0,0,1,1.56,1.22,1.33,1.33,0,0,1-1.33,1.48,1.23,1.23,0,0,1-1.4-1.36A1.16,1.16,0,0,1,7.08,57.36Zm.1,11.87A1.21,1.21,0,0,1,5.9,68a1.28,1.28,0,0,1,1.32-1.48,1.36,1.36,0,0,1,1.43,1.26C8.58,68.8,8,69.25,7.18,69.23Zm64.35,0A1.19,1.19,0,0,1,70.2,68a1.39,1.39,0,0,1,1.28-1.58c.77.13,1.4.5,1.44,1.39A1.26,1.26,0,0,1,71.53,69.22Zm-.1-9.16a1.26,1.26,0,0,1-1.23-1.53,1.17,1.17,0,0,1,1.35-1.18,1.3,1.3,0,0,1,1.4,1.4A1.39,1.39,0,0,1,71.43,60.06Z"/><path class="cls-1" d="M39.37,33.07H5c-2.52,0-3,.49-3,3,0,4.27,0,8.54,0,12.81C2,51.28,2.63,52,5,52H73.56c2.54,0,3-.51,3-3q0-6.41,0-12.81c0-2.87-.23-3.11-3.07-3.11Zm-32,15.35c-.95,0-1.46-.41-1.48-1.33a1.2,1.2,0,0,1,1.16-1.37,1.26,1.26,0,0,1,1.54,1.22A1.23,1.23,0,0,1,7.39,48.42Zm-.2-9.14a1.3,1.3,0,0,1-1.28-1.52,1.23,1.23,0,0,1,1.3-1.26,1.32,1.32,0,0,1,1.43,1.43A1.36,1.36,0,0,1,7.19,39.28Zm40,7.07q-7.84.12-15.69,0a3.61,3.61,0,0,1-3.9-3.94,3.69,3.69,0,0,1,4-3.86c2.61,0,5.23,0,7.85,0s5.08,0,7.62,0,3.89,1.37,3.91,3.84S49.76,46.31,47.18,46.35Zm24.46,2.08c-1.08-.06-1.48-.59-1.43-1.48a1.18,1.18,0,0,1,1.28-1.24,1.27,1.27,0,0,1,1.43,1.36A1.25,1.25,0,0,1,71.64,48.43Zm-.11-9.1c-.81-.2-1.36-.6-1.34-1.49a1.24,1.24,0,0,1,1.39-1.34,1.28,1.28,0,0,1,1.35,1.41C72.89,38.79,72.26,39.13,71.53,39.33Z"/><path class="cls-2" d="M7.31,60.06a1.33,1.33,0,0,0,1.33-1.48,1.29,1.29,0,0,0-1.56-1.22A1.16,1.16,0,0,0,5.91,58.7,1.23,1.23,0,0,0,7.31,60.06Z"/><path class="cls-2" d="M71.55,57.35a1.17,1.17,0,0,0-1.35,1.18,1.26,1.26,0,0,0,1.23,1.53A1.39,1.39,0,0,0,73,58.75,1.3,1.3,0,0,0,71.55,57.35Z"/><path class="cls-2" d="M71.48,66.44A1.39,1.39,0,0,0,70.2,68a1.19,1.19,0,0,0,1.33,1.2,1.26,1.26,0,0,0,1.39-1.39C72.88,66.94,72.25,66.57,71.48,66.44Z"/><path class="cls-2" d="M7.22,66.48A1.28,1.28,0,0,0,5.9,68a1.21,1.21,0,0,0,1.28,1.27c.85,0,1.4-.43,1.47-1.49A1.36,1.36,0,0,0,7.22,66.48Z"/><path class="cls-2" d="M71.58,36.5a1.24,1.24,0,0,0-1.39,1.34c0,.89.53,1.29,1.34,1.49.73-.2,1.36-.54,1.4-1.42A1.28,1.28,0,0,0,71.58,36.5Z"/><path class="cls-2" d="M7.07,45.72a1.2,1.2,0,0,0-1.16,1.37c0,.92.53,1.34,1.48,1.33a1.23,1.23,0,0,0,1.22-1.48A1.26,1.26,0,0,0,7.07,45.72Z"/><path class="cls-2" d="M71.49,45.71A1.18,1.18,0,0,0,70.21,47c0,.89.35,1.42,1.43,1.48a1.25,1.25,0,0,0,1.28-1.36A1.27,1.27,0,0,0,71.49,45.71Z"/><path class="cls-2" d="M7.21,36.5a1.23,1.23,0,0,0-1.3,1.26,1.3,1.3,0,0,0,1.28,1.52,1.36,1.36,0,0,0,1.45-1.35A1.32,1.32,0,0,0,7.21,36.5Z"/><path class="cls-3" d="M67.85,31.13c-.63,0-1.26,0-1.89,0H61.8c-.74,0-1.47,0-2.2,0a2.69,2.69,0,0,1-.6,0H51.9a.53.53,0,0,1-.15,0,1.23,1.23,0,0,1-.48,0h-7a3.19,3.19,0,0,1-.78,0c-.21,0-.42,0-.63,0H36.64c-.41,0-.83,0-1.25,0a3.65,3.65,0,0,1-.76,0H20a2.62,2.62,0,0,1-.52,0c-.76,0-1.52,0-2.28,0H12.8c-.69,0-1.37,0-2.05,0a3,3,0,0,1-.45,0H3.21a2.28,2.28,0,0,1-1.12.71A3.14,3.14,0,0,0,.14,35.05a39.72,39.72,0,0,0,0,4.5c.46,4.39-1.19,9,1,13.21.09.17-.11.59-.28.8C0,54.64.13,55.92.13,57.19c0,3.9,0,7.8,0,11.69,0,4.85.94,5.81,5.71,5.81H39.33q17.31,0,34.62,0c3.29,0,4.67-1.36,4.71-4.62,0-4.49.23-9-.07-13.48a37.28,37.28,0,0,1-.06-7.09c.54-4.59.17-9.28.14-13.92,0-1.58-.44-3.16-2-3.73a2.34,2.34,0,0,1-1.13-.74H68.42A4.79,4.79,0,0,1,67.85,31.13Zm5.87,41.61c-11.47-.06-22.94,0-34.4,0H5.37c-2.95,0-3.42-.45-3.43-3.31q0-6.2,0-12.37c0-2.6.61-3.23,3.11-3.23H73.62c2.56,0,3,.44,3,3,0,4.35-.06,8.7,0,13C76.69,72,75.83,72.75,73.72,72.74Zm2.89-36.56q0,6.41,0,12.81c0,2.47-.51,3-3,3H5c-2.37,0-3-.69-3-3.09,0-4.27,0-8.54,0-12.81,0-2.51.51-3,3-3H73.54C76.38,33.07,76.61,33.31,76.61,36.18Z"/><path class="cls-2" d="M47.05,38.55c-2.54,0-5.08,0-7.62,0s-5.24,0-7.85,0a3.69,3.69,0,0,0-4,3.86,3.61,3.61,0,0,0,3.9,3.94q7.85.12,15.69,0c2.58,0,3.81-1.45,3.78-4S49.63,38.59,47.05,38.55Zm-.15,5.86c-2.55,0-5.09,0-7.64,0s-5.09,0-7.64,0c-1.28,0-2-.45-2-1.8s.57-2.12,2-2.12q7.76,0,15.5,0c1.34,0,2.1.62,2,2.07S48.22,44.43,46.9,44.41Z"/><path class="cls-1" d="M63.88,27.55h8.06c.22,0,.5.15.61-.27a11.56,11.56,0,0,0,0-7,19.75,19.75,0,0,0-2.83-4.65,14.43,14.43,0,0,1-3-7.07c0-.28-.16-.3-.37-.3-1.64,0-3.27,0-4.91,0-.29,0-.38.07-.42.38A12.44,12.44,0,0,1,59.7,13a28.46,28.46,0,0,1-2.84,4.29,10.76,10.76,0,0,0-1.75,9.81c.11.4.28.51.7.51C58.5,27.53,61.19,27.55,63.88,27.55Z"/><path class="cls-1" d="M45.7,30.48h-.49c0,.25-.21.38-.36.53l-.56.56h.22l.64-.64A3.38,3.38,0,0,1,45.7,30.48Z"/><path class="cls-1" d="M47.45,31.42v-.55a2.49,2.49,0,0,1-.47.6l-.1.1h.19A.55.55,0,0,1,47.45,31.42Z"/><path class="cls-1" d="M37.09,5.52c.71,0,1.42,0,2.13,0h1.54C42,5.51,42,5.51,42,4.22a1.31,1.31,0,0,0-1.34-1.41c-.93,0-1.85,0-2.78,0a1.31,1.31,0,0,0-1.33,1.42,4.93,4.93,0,0,1,0,.77C36.48,5.45,36.69,5.53,37.09,5.52Z"/><path class="cls-1" d="M72,31.42v-.55a2.49,2.49,0,0,1-.47.6l-.11.1h.2A.55.55,0,0,1,72,31.42Z"/><path class="cls-1" d="M61.68,5.52c.7,0,1.42,0,2.12,0h1.55c1.27,0,1.27,0,1.24-1.29a1.31,1.31,0,0,0-1.34-1.41c-.93,0-1.85,0-2.78,0a1.31,1.31,0,0,0-1.33,1.42,4.93,4.93,0,0,1,0,.77C61.07,5.45,61.28,5.53,61.68,5.52Z"/><path class="cls-1" d="M70.29,30.48H69.8c0,.25-.21.38-.37.53l-.55.56h.22l.64-.64A3.38,3.38,0,0,1,70.29,30.48Z"/><path class="cls-1" d="M39.29,27.55h8.06c.22,0,.5.15.61-.27a11.56,11.56,0,0,0,0-7,19.75,19.75,0,0,0-2.83-4.65,14.52,14.52,0,0,1-3-7.07c0-.28-.16-.3-.37-.3-1.64,0-3.27,0-4.91,0-.29,0-.38.07-.42.38A12.44,12.44,0,0,1,35.11,13a27.72,27.72,0,0,1-2.84,4.29,10.76,10.76,0,0,0-1.75,9.81c.11.4.29.51.7.51C33.91,27.53,36.6,27.55,39.29,27.55Z"/><path class="cls-1" d="M21.11,30.48h-.49c0,.25-.21.38-.36.53l-.56.56h.22l.64-.64A3.38,3.38,0,0,1,21.11,30.48Z"/><path class="cls-1" d="M12.5,5.52c.71,0,1.42,0,2.13,0h1.54c1.27,0,1.27,0,1.24-1.29a1.31,1.31,0,0,0-1.34-1.41c-.92,0-1.85,0-2.77,0A1.31,1.31,0,0,0,12,4.23,6.59,6.59,0,0,1,12,5C11.89,5.45,12.1,5.53,12.5,5.52Z"/><path class="cls-1" d="M14.7,27.55h8.07c.21,0,.49.15.6-.27a11.56,11.56,0,0,0,0-7,19.75,19.75,0,0,0-2.83-4.65,14.51,14.51,0,0,1-3-7.07c0-.28-.17-.3-.38-.3-1.64,0-3.27,0-4.91,0-.29,0-.38.07-.42.38A12.44,12.44,0,0,1,10.52,13a28.4,28.4,0,0,1-2.83,4.29,10.74,10.74,0,0,0-1.76,9.81c.11.4.29.51.7.51C9.32,27.53,12,27.55,14.7,27.55Z"/><path class="cls-1" d="M22.86,31.42v-.55a2.49,2.49,0,0,1-.47.6l-.1.1h.2A.5.5,0,0,1,22.86,31.42Z"/><path class="cls-4" d="M20.62,30.48H6.54v1.09H19.7l.56-.56C20.41,30.86,20.61,30.73,20.62,30.48Z"/><path class="cls-5" d="M22.49,31.57h.37v-.15A.5.5,0,0,0,22.49,31.57Z"/><path class="cls-5" d="M22.86,30.87v-.39H21.11a3.38,3.38,0,0,0-.55.45l-.64.64h2.37l.1-.1A2.49,2.49,0,0,0,22.86,30.87Z"/><path class="cls-6" d="M6.54,31.57V30.48H22.86v1.09h2.85a17.59,17.59,0,0,1,.51-4.32A12.71,12.71,0,0,0,24.6,16.6c-.76-1.15-1.58-2.25-2.35-3.39a10.79,10.79,0,0,1-1.93-4.77c-.17-1.44-.06-2.88-.09-4.32a4.14,4.14,0,0,0-3.54-4,30,30,0,0,0-3.42,0,4.07,4.07,0,0,0-4,3.32,16.76,16.76,0,0,0-.11,3.54A10.3,10.3,0,0,1,7.4,12.77c-.67,1-1.37,2-2.09,3A13.05,13.05,0,0,0,3.05,26.88a14.31,14.31,0,0,1,.61,3.27v1.42ZM12,4.23A1.31,1.31,0,0,1,13.3,2.81c.92,0,1.85,0,2.77,0a1.31,1.31,0,0,1,1.34,1.41c0,1.29,0,1.29-1.24,1.29H14.63c-.71,0-1.42,0-2.13,0-.4,0-.61-.07-.54-.52A6.59,6.59,0,0,0,12,4.23Zm-6,22.82a10.74,10.74,0,0,1,1.76-9.81A28.4,28.4,0,0,0,10.52,13a12.44,12.44,0,0,0,1.31-4.28c0-.31.13-.38.42-.38,1.64,0,3.27,0,4.91,0,.21,0,.35,0,.38.3a14.51,14.51,0,0,0,3,7.07,19.75,19.75,0,0,1,2.83,4.65,11.56,11.56,0,0,1,0,7c-.11.42-.39.27-.6.27H14.7c-2.69,0-5.38,0-8.07,0C6.22,27.56,6,27.45,5.93,27.05Z"/><path class="cls-4" d="M45.21,30.48H31.13v1.09H44.29l.56-.56C45,30.86,45.2,30.73,45.21,30.48Z"/><path class="cls-5" d="M47.07,31.57h.38v-.15A.55.55,0,0,0,47.07,31.57Z"/><path class="cls-5" d="M47.45,30.87v-.39H45.7a3.38,3.38,0,0,0-.55.45l-.64.64h2.37l.1-.1A2.49,2.49,0,0,0,47.45,30.87Z"/><path class="cls-6" d="M31.13,31.57V30.48H47.45v1.09H50.3a17.59,17.59,0,0,1,.51-4.32A12.71,12.71,0,0,0,49.19,16.6c-.76-1.15-1.58-2.25-2.35-3.39a10.67,10.67,0,0,1-1.93-4.77c-.17-1.44-.06-2.88-.1-4.32a4.13,4.13,0,0,0-3.53-4,30,30,0,0,0-3.42,0,4.07,4.07,0,0,0-4,3.32,16.76,16.76,0,0,0-.11,3.54A10.38,10.38,0,0,1,32,12.77c-.67,1-1.37,2-2.09,3a13.05,13.05,0,0,0-2.26,11.09,14.31,14.31,0,0,1,.61,3.27v1.42ZM36.55,4.23a1.31,1.31,0,0,1,1.33-1.42c.93,0,1.85,0,2.78,0A1.31,1.31,0,0,1,42,4.22c0,1.29,0,1.29-1.24,1.29H39.22c-.71,0-1.42,0-2.13,0-.4,0-.61-.07-.55-.52A4.93,4.93,0,0,0,36.55,4.23Zm-6,22.82a10.76,10.76,0,0,1,1.75-9.81A27.72,27.72,0,0,0,35.11,13a12.44,12.44,0,0,0,1.31-4.28c0-.31.13-.38.42-.38,1.64,0,3.27,0,4.91,0,.21,0,.35,0,.37.3a14.52,14.52,0,0,0,3,7.07A19.75,19.75,0,0,1,48,20.31a11.56,11.56,0,0,1,0,7c-.11.42-.39.27-.61.27H39.29c-2.69,0-5.38,0-8.07,0C30.81,27.56,30.63,27.45,30.52,27.05Z"/><path class="cls-4" d="M69.8,30.48H55.72v1.09H68.88l.55-.56C69.59,30.86,69.79,30.73,69.8,30.48Z"/><path class="cls-5" d="M71.66,31.57H72v-.15A.55.55,0,0,0,71.66,31.57Z"/><path class="cls-5" d="M72,30.87v-.39H70.29a3.38,3.38,0,0,0-.55.45l-.64.64h2.36l.11-.1A2.49,2.49,0,0,0,72,30.87Z"/><path class="cls-6" d="M55.72,31.57V30.48H72v1.09h2.85a17.59,17.59,0,0,1,.51-4.32A12.71,12.71,0,0,0,73.78,16.6c-.77-1.15-1.58-2.25-2.36-3.39A10.77,10.77,0,0,1,69.5,8.44c-.17-1.44-.06-2.88-.1-4.32a4.13,4.13,0,0,0-3.53-4,30,30,0,0,0-3.42,0,4.09,4.09,0,0,0-4,3.32,17.45,17.45,0,0,0-.1,3.54,10.46,10.46,0,0,1-1.75,5.88c-.67,1-1.37,2-2.09,3a13.05,13.05,0,0,0-2.26,11.09,14.87,14.87,0,0,1,.61,3.27v1.42ZM61.14,4.23a1.31,1.31,0,0,1,1.33-1.42c.93,0,1.85,0,2.78,0a1.31,1.31,0,0,1,1.34,1.41c0,1.29,0,1.29-1.24,1.29H63.8c-.7,0-1.42,0-2.12,0-.4,0-.61-.07-.55-.52A4.93,4.93,0,0,0,61.14,4.23Zm-6,22.82a10.76,10.76,0,0,1,1.75-9.81A28.46,28.46,0,0,0,59.7,13,12.44,12.44,0,0,0,61,8.67c0-.31.13-.38.42-.38,1.64,0,3.27,0,4.91,0,.21,0,.35,0,.37.3a14.43,14.43,0,0,0,3,7.07,19.75,19.75,0,0,1,2.83,4.65,11.56,11.56,0,0,1,0,7c-.11.42-.39.27-.61.27H63.88c-2.69,0-5.38,0-8.07,0C55.39,27.56,55.22,27.45,55.11,27.05Z"/><rect class="cls-5" x="18.8" y="30.7" width="4.06" height="0.87"/><rect class="cls-5" x="43.39" y="30.7" width="4.06" height="0.87"/><rect class="cls-5" x="67.98" y="30.7" width="4.06" height="0.87"/></g></g></svg>