<?xml version="1.0" encoding="UTF-8" standalone="no"?>
<svg
   xmlns:dc="http://purl.org/dc/elements/1.1/"
   xmlns:cc="http://creativecommons.org/ns#"
   xmlns:rdf="http://www.w3.org/1999/02/22-rdf-syntax-ns#"
   xmlns:svg="http://www.w3.org/2000/svg"
   xmlns="http://www.w3.org/2000/svg"
   id="svg8"
   version="1.1"
   viewBox="0 0 5.0297289 5.0297289"
   height="5.0297289mm"
   width="5.0297289mm">
  <defs
     id="defs2" />
  <metadata
     id="metadata5">
    <rdf:RDF>
      <cc:Work
         rdf:about="">
        <dc:format>image/svg+xml</dc:format>
        <dc:type
           rdf:resource="http://purl.org/dc/dcmitype/StillImage" />
        <dc:title></dc:title>
      </cc:Work>
    </rdf:RDF>
  </metadata>
  <g
     transform="translate(-80.639894,-249.97323)"
     id="layer1">
    <g
       transform="matrix(0.26458333,0,0,0.26458333,-28.302292,173.6674)"
       id="g839">
	<g
   id="g837">
		<path
   class="st0"
   d="m 430.04,289.12 c -0.48,-0.48 -1.05,-0.72 -1.72,-0.72 h -14.13 c -0.67,0 -1.24,0.24 -1.72,0.72 -0.48,0.48 -0.72,1.05 -0.72,1.72 v 14.13 c 0,0.67 0.24,1.24 0.72,1.72 0.48,0.48 1.05,0.72 1.72,0.72 h 14.13 c 0.67,0 1.24,-0.24 1.72,-0.72 0.48,-0.48 0.72,-1.05 0.72,-1.72 v -14.13 c -0.01,-0.67 -0.24,-1.24 -0.72,-1.72 z m -11.48,6.11 c 0.75,-0.72 1.64,-1.08 2.69,-1.08 1.05,0 1.95,0.36 2.7,1.08 0.75,0.72 1.12,1.59 1.12,2.61 0,1.02 -0.37,1.89 -1.12,2.61 -0.75,0.72 -1.65,1.08 -2.7,1.08 -1.05,0 -1.94,-0.36 -2.69,-1.08 -0.75,-0.72 -1.12,-1.59 -1.12,-2.61 0,-1.01 0.37,-1.89 1.12,-2.61 z m 10.03,9.23 c 0,0.21 -0.07,0.38 -0.22,0.52 -0.15,0.14 -0.32,0.21 -0.52,0.21 h -13.23 c -0.21,0 -0.39,-0.07 -0.54,-0.22 -0.14,-0.14 -0.22,-0.32 -0.22,-0.54 v -7.99 h 1.74 c -0.16,0.52 -0.25,1.06 -0.25,1.62 0,1.58 0.58,2.92 1.73,4.04 1.15,1.11 2.54,1.67 4.16,1.67 1.07,0 2.06,-0.25 2.97,-0.76 0.91,-0.51 1.62,-1.2 2.15,-2.08 0.53,-0.88 0.79,-1.83 0.79,-2.87 0,-0.56 -0.08,-1.1 -0.25,-1.62 h 1.67 z m 0,-11.07 c 0,0.24 -0.08,0.44 -0.25,0.61 -0.16,0.17 -0.37,0.25 -0.6,0.25 h -2.15 c -0.24,0 -0.44,-0.08 -0.6,-0.25 -0.16,-0.17 -0.25,-0.37 -0.25,-0.61 v -2.05 c 0,-0.23 0.08,-0.43 0.25,-0.6 0.16,-0.17 0.37,-0.25 0.6,-0.25 h 2.15 c 0.24,0 0.44,0.08 0.6,0.25 0.16,0.17 0.25,0.37 0.25,0.6 z"
   id="path835" />

	</g>

</g>
  </g>
  <style
     type="text/css"
     id="style833">
	.st0{fill:#FFFFFF;}
</style>
</svg>
