<svg xmlns="http://www.w3.org/2000/svg" viewBox="0 0 438.85 94.86"><defs><style>.cls-1{fill:#1d1d1b;}</style></defs><title>Datový zdroj 16</title><g id="Vrstva_2" data-name="Vrstva 2"><g id="box_pikto"><path class="cls-1" d="M-241.81,63.26c-4.35,0-.09-9.17,1.15-11a56.45,56.45,0,0,1,4.72-5.92c.78-.88,1.69-1.51,2.36-2.19l3.21-2.87c2.3-2,5.33-4.1,7.73-5.94.5-.39.3-.44.91-.6a37.3,37.3,0,0,1-1.9,4.17c-.4.94-.6,1.18-1,2s-.63,1.31-1,2c-1.54,2.86-3.86,6.85-5.65,9.54l-1.22,1.83A47.19,47.19,0,0,1-238,61c-.67.62-2.74,2.23-3.84,2.23m-.22,1.35c1.62-.31,3.77-1.61,6.42-4.26l7.3-9.07c.75-1.06,1.47-2.12,2.2-3.21.36-.55.67-1,1.08-1.62l4.16-6.81c.34-.6.71-1.11,1.06-1.81l2.86-5.24c.44-.84.71-.72,1.5-1.19,3.61-2.14,7.93-6.39,10.72-9.71.75-.89,5.08-6.47,5.62-6.87-.14,1.62-1.36,4.12-1.35,8.61a10,10,0,0,0,.62,4.44,3.12,3.12,0,0,0,3.26,1.82,3,3,0,0,0,1.76-.61,24.21,24.21,0,0,0,4.19-3.41c.91-.91,1.56-1.72,2.45-2.61.54-.55,1.9-2.33,2.4-2.67,0,1.14-.43,2.42-.51,3.72a10.42,10.42,0,0,0,.14,3.91c.86,2.79,3.65,1.61,5.51.21A44.67,44.67,0,0,0-176.29,24c.42-.47.55-.7,1-1.18s.62-.75,1-1.19c.71-.81,1.31-1.59,2-2.42s1.24-1.55,1.86-2.36c2-2.63,12.23-16.37,13.35-17.19l-1.59,9c-.86,5.11-1.6,6.06-3.21,10a31.6,31.6,0,0,1-5.2,8.13c-.9.91-2,1.93-3.5,1.22a2.78,2.78,0,0,1,.6-2.78c3-3.57-1.91-5.73-2.87-1.18-.44,2.07,0,4.57,1.54,5.37,2.53,1.27,6.61-.55,8.66-2.09,3.23-2.43,2.79-2.56,4.77-4.51l5.83-7.33c.31-.45.47-.63.79-1.08s.56-.79.26-1.42c-.67.07-.22-.34-1.22,1.15l-3.05,4a30.56,30.56,0,0,1-4.51,4.94,5.91,5.91,0,0,1,.79-1.4c.29-.54.55-1,.78-1.58,1.12-2.65,1.12-5.36,1.13-8.33,0-1-.17-1.49-.17-2.19,0-1.71.64-9.43,1.51-10.3.35-.34,2.05-.71,2.89-1.84s1.09-2.25.33-3.38c-2.73,0-2.34,1.25-4.39,3.88-2.4,3.08-4.68,5.51-7.38,9.16l-7.11,9.43c-1.23,1.63-2.37,3-3.68,4.58-.38.45-.56.66-.94,1.09a33.56,33.56,0,0,1-5.29,5.17c-1,.69-1.69,1.21-2.94.61-.47-2,1.89-6,2.92-7.88,2-3.61,3.91-7.24,6.16-10.72L-169.24,0c.37-.5.45-.32.51-1a24.57,24.57,0,0,1-3.88.34c-1.55.16-2.56,3-3.65,4.8l-1.28,2.25a2.6,2.6,0,0,1-.31.37c0-1.27.63-2.78.69-4.22.3-7.5-8.67-2.54-11.73-.24l-1.33,1A36.49,36.49,0,0,0-194,6.89c-.42.55-.77.8-1.22,1.31-2.63,3-6.38,8.41-9.8,12.48l-2.35,2.54c-2.42,2.42-5,5.18-8.06,6.79a10.53,10.53,0,0,1,1-2l5.54-9.65c.36-.67.74-1.21,1.12-1.92l3.32-5.79c2.08-3.72,4.8-8.11,6.7-11.7-1.17,0-2.76.24-4,.38-2,.22-1.14.36-3.07,3.68-.3.51-.5,1-.82,1.54a23.5,23.5,0,0,1-1.72,2.84c.22-2.65,2.35-7.45-1.25-8.71-4.31-1.51-12,4.65-15.08,7.74-4.11,4.12-7.38,9.07-11.13,13.51L-237,22.21c-2.17,2.17-7.68,7.48-11.09,5.78-2.44-1.22-.47-7.27,0-9.28,2.13-.18,7.32-2.75,9.25-3.92,4.16-2.52,8.19-5.66,9.19-10.72s-2-6.63-6.49-4.8a20.71,20.71,0,0,0-4.22,2.53,35,35,0,0,0-6,5.48l-5.82,7.51c-1.34,1.41-2.46,3-3.73,4.54l-4.63,5.32a15.7,15.7,0,0,1-3.63,3.12c-1.07.65-1.37.69-2.32.05,0-3.34,1.44-5.34,2.9-8.07,4.42-8.28,9.3-16.36,14-24.49L-238.64-24c.54-.9,2.83-4.59,2.91-5.54-1.19.28-4.07-.22-4.8.6-.51.56-12.29,22-13.93,24.89l-4,7.15a11.12,11.12,0,0,1-1.42,2.29c.46-2,1-4.87-.23-6.52-2.24-3-8.6.86-10.85,2.69a50.3,50.3,0,0,0-7.75,8c-1.62,2.06-3.52,4.94-5.09,6.72a14.34,14.34,0,0,1-4.43,3.5,6.08,6.08,0,0,1-3.38.67,4.58,4.58,0,0,1,.87-1.32c2.67-3.53,6.06-9.68,6.06-14.2s-.76-7.8-6.68-5.83c-4.22,1.4-8.82,5.33-11.53,8.72L-305,10.2a33.17,33.17,0,0,0-3.09,3.87c-.46.83.23.71.76.23s.57-.93,1.39-1c-.17,2-2.46,7.06-1.62,12.59a5.57,5.57,0,0,0,1,2.56,2.73,2.73,0,0,0,2.49,1.23c5.72,0,9.59-6.26,10.92-7.49.5-.46,2.33-.31,3.19-.53a11.64,11.64,0,0,0,5.73-3.55,23.24,23.24,0,0,1,2.61-3c0,3-1.28,5.82-1,8.9.22,2.27.49,6.39,4.29,5.55,3.48-.76,8.11-6.05,10.19-9.22a1.62,1.62,0,0,1,.28-.4c.26-.26,0-.13.4-.27-.35,1.47-.75,2.68-1,4.36-1.15,6.7,2.79,7.15,7.32,2.6.9-.89,1.89-1.78,2.7-2.7L-256,21c.85-1,1.63-2,2.4-3l2.36-3c0,1.5-.79,3.89-.85,5.91-.09,2.89.16,6.36,2.24,8.06a3.39,3.39,0,0,0,2.66.72A10.36,10.36,0,0,0-242,28a18.42,18.42,0,0,0,2-1.41,48.07,48.07,0,0,0,5.17-5.12l6.2-7.64c0,3.23-3.32,10.19-.78,14.45a3.42,3.42,0,0,0,4.15,1.24c3.16-1,5.67-4.14,7.81-6.53.46-.52.83-1.06,1.27-1.6s.82-1.05,1.25-1.63l.85-1.17c.24-.28.08-.23.47-.37l-5.32,10.87c-.89,2.14-1.1,3.08-2.7,4.22l-16,12.68A5.58,5.58,0,0,0-239,47.32c-.81,1-1.75,1.82-2.54,2.87-4.87,6.46-5.33,13.61-1.9,14.42ZM-288.39,0c4.6,0,.32,10.84-.41,12.59-1.94,4.68-7.37,13-12.36,15.14-1.42.6-3.29,1.16-3.73-.59-1.16-4.64,4.54-15.44,7.46-19.47,1.75-2.42,5.81-7.67,9-7.67m108,0c5,0-.38,10.38-.9,11.43l-3.2,5.23c-.45.6-.73,1.1-1.18,1.69A44.57,44.57,0,0,1-189.45,23c-.54.54-.78,1-1.35,1.53s-5.82,5.69-6.85,3.05c-.89-2.26,1.1-7.14,1.84-8.91a57.3,57.3,0,0,1,6.05-10.82l2.56-3.18c1.12-1.45,4.53-4.66,6.82-4.66M-227.8,26.64a21.62,21.62,0,0,1,2.64-9.34,61.49,61.49,0,0,1,6.25-10.12C-217,4.58-212.68,0-209.24,0c1.76,0,1.52,1.9,1.52,2.87,0,2.53-2.15,7-3.17,8.64-2,3.29-2.28,3.93-4.59,7.23-1.77,2.51-7.65,9.86-11,9.58a1.59,1.59,0,0,1-1.37-1.65m-50.29,1.52c-2.22,0-2.31-1.06-1.62-4.15a46.14,46.14,0,0,1,5.43-12.8,71.93,71.93,0,0,1,5-7c1.15-1.48,4.83-5,7.19-5,4.1,0-.35,10.16-1.63,12.54a52.1,52.1,0,0,1-5.53,8.48c-.44.56-.78.94-1.23,1.48-.28.34-.28.41-.6.75l-1.06,1.13c-1.13,1.35-4.51,4.48-6,4.48m30.71-11c.65-2.79,5.2-9.83,7.55-12.2,1.64-1.64,1.48-1.94,4.07-3.86.94-.69,4.08-2.46,4.08.36,0,3.57-3.25,7.76-5.61,10.09-2.13,2.11-7.39,5.55-10.09,5.61" transform="translate(367.5 30.25)"/><path class="cls-1" d="M-360.62.82c0,2.36,0,4.12,1.56,6,2.49,3,8.26,1.61,11.1.21C-341.49,3.9-336-3.53-333.09-10c.74-1.63,1.59-3.22,2.19-4.9.84-2.3,2.34-5.77,2.34-8.29,0-.64.06-.06-.16-.5-.77.2-1.11,1.94-1.38,2.67L-332.61-15a74.24,74.24,0,0,1-7.28,11.62,36.28,36.28,0,0,1-7.54,7.31c-2.43,1.79-5.71,4-9,3-6.83-1.93-1.4-13.95.8-17.31l3.54-4.73a21.59,21.59,0,0,1,2-2.08L-345.7-21a45.72,45.72,0,0,1,7.8-4.69A32.68,32.68,0,0,1-324.67-29c3.74,0,7.44,0,10.85,1.47a12.82,12.82,0,0,0,2,.89c-.15.57-.29.52-.69.82a37.12,37.12,0,0,0-5,4.6L-321.42-17a2.43,2.43,0,0,0-.31.38l-7.84,10.88a78.38,78.38,0,0,0-4.22,7.09l-1.74,3.16c-.21.38-.3.61-.51,1l-4.13,7.17c-.44.7-.8,1.29-1.22,2-3.62,6-10,14.52-17.88,14.52-1.92,0-4.22-.86-4.22-2.87,0-1.24,1.52-2.79,1.52-4.56a2.18,2.18,0,0,0-2.19-2.36c-4.22,0-6,11,4.38,11,5.54,0,9.74-3.33,13.51-6.24l3.42-3.17a81.83,81.83,0,0,0,6-7.18,104.72,104.72,0,0,0,7.69-12c2-3.54,3.63-7.18,5.72-10.65s4-7,6.38-10.16c1.58-2.1,4.27-5.31,6.41-6.75.84,1.14,1.41,1.14,1.82,2.91.83,3.52-.16,8.59-1.45,11.8-1.75,4.32-5.14,8.92-10.32,8.92-1.55,0-3.72-1.37-3.72,1.69,0,2.9,3.67-.85,6.85-.11s3.45,5,3.45,8c0,5.09-2.52,10.46-4.49,13.74-6.8,11.38-16.1,9.25-16.1,2.63,0-4.57,1.69-7.83,4.44-11.09,1.54-1.84,4.09-2.87,3.75-3.52-.51-1-3.86,2.37-4.26,2.84-2.37,2.84-4.51,6.08-4.77,10.09-.16,2.52,0,4.14,1.22,5.85,3.74,5,12.09,1.13,15.68-1.78,8.05-6.57,12.09-21,4.23-26.22a6.53,6.53,0,0,0-2.91-1.32c.25-.33,2.76-1.16,4.56-2.36A18.38,18.38,0,0,0-308.86-7c2.12-2.53,4.1-5.58,4.1-10.07,0-6.4-3.53-8.18-4.73-10A20.51,20.51,0,0,0-306-28.82c1.57-.82,1.18-1.86-.4-1.09a38.68,38.68,0,0,0-4.05,2.54,19.48,19.48,0,0,0-9.77-2.87h-3.53a40.55,40.55,0,0,0-10.9,2.13,38,38,0,0,0-9.67,5l-2.44,1.78A42.58,42.58,0,0,0-356-11.4c-2,3.05-4.65,8.33-4.65,12.22" transform="translate(367.5 30.25)"/><path class="cls-1" d="M51.08,20.88A7.59,7.59,0,0,1,49,23.66c-.51.55-.63.74-1,1.21s.2-.09-.61.64l-1.48,1.22c-3.93,3.62-9.41,2.46-2.76-9.41L44,16c.55-2.08,4.85-7.86,6.21-9.78,7-9.83,13.26-6.45,8.14.46L57.4,8.09c-7.19,8.92.43,4-4.72,10.83-1.15,1.52-.37,1.06-1.6,2M13.33,5.78c-.46,1.69-2.38,3-4,4.48-2.46,2.28-6.2,5.24-9.81,4.4L0,13.77c.5-1.86,5.09-7.42,6.38-8.72.88-.9.69-.51,1.6-1.51A8.31,8.31,0,0,1,11.55.89c.78-.68.55-.6,1.78-.89.52-.33-.12-.4,1-.34,3,.16.3,5.18-1,6.12M-17.32-.89c1.54,1,3.84.89,6.21.89C-14,5.4-17.46,10.54-20.63,15.8c-9.8,16.31-14.91,13.46-14.91,11.74,0-7.36,12-12.28,12-23.54A7.3,7.3,0,0,0-24.7.71c-.88-1.45-1.95-1.6-3.73-1.6C-32-.89-33.71,3.81-36,5.33c-1.12-4.81-3-8.66-7.8-4.25-2.87,2.61-4.89,6.29-6.95,9.49-1.11,1.73-2,3.33-3,5-2.08,3.48-4.07,7.05-7,9.94l-.23.22c-1.13,1.09-2.7,2.7-4.4,2.7-3.59,0,.13-5.67.88-7.11,1.31-2.52,3-5,4.54-7.47l8.8-14.74c-5.38,0-5.1.67-8.09,5.69L-69.47,22c-5,7.5-9.6,7.45-9.6,5.06,0-3.64,5.52-12,7.3-14.91C-70.4,9.9-65.26,2.47-64.43.35-63.7-1.54-66-.89-67.52-.89S-72,5-72.77,6.3l-9.81,14.18c-.06.07-.14.17-.21.24-1.64,1.92-5.42,4.46-6,6.82l7.55-5.77c0,3.45.21,8.85,5.06,7.76,3-.68,5-4.4,7.38-6,0,2,.34,6.22,3.11,6.22,3.53,0,6.11-3.76,7.86-5.91a31.21,31.21,0,0,0,2.66-4l7.95-12.93c5.1-7.86,12.54-10,6.76.55C-43,12.11-52.27,24.41-53.3,28.87a13.73,13.73,0,0,0,4.44.45c.41-1.77,1.4-2.69,2.2-4l7.38-11.72C-37.21,10.2-32.3,0-27.54,0c1.69,0,2.22,1.78,2.22,3.11,0,6-12,11.5-12,23.1,0,1.84,1.24,4,3.11,4,5.15,0,7.65-4.65,10.66-6.67,0,9.79,7.23,6,11.21,1.44,1.8-2,3.54-5.34,5.67-6.77,0,3.09-.46,11.91,6.12,11.45,3.88-.27,9-4.52,11.31-6.89,1.58-1.6,2.85-2.86,4.45-4.44.89-.89,1.37-1.38,2.15-2.3l.2-.24.2-.24c2-2.43,9.11-10,9.77-12.44,1.52.8,2.22,1.23,2.22,3.11,0,4.29-9,12.4-9.12,18.21,0,2.77,1.12,5.33,4.24,5.33S35,19.45,38.2,17.33c0,3.36-1.81,12.43,3.56,12.43,6.57,0,11.68-11.69,14.44-12.68,2.35-.84,5.15,1.27,10.26-2.59C73.31,9.31,72.14,1,68-.94c-1.13-.51-1.25-.15-2.22.5,1.13,3.1,4.45,2.26,4.45,7.1S62.91,17,56.86,15.55c.36-4.33,4.44-7.94,4.44-12.88,0-7.1-7.32-3.28-10.22-1.34-4.8,3.2-7.45,6.87-10.84,11.37l-8.07,9.7a16.91,16.91,0,0,1-2.07,2.37c-2.87,2.86-7,5.05-7,2.77,0-2,4.13-8.13,5.24-9.86,5.77-8.91,7.44-11,.09-15.9,1.51-2.86,3.79-5.18,2.22-8.44-4.2.35-7.88,4.42-4,8.88L18.22,13.33C15.3,17.07,4.86,28.43.45,28.43-3.18,28.43-4,27.61-4,24s1.43-5.66,2.67-8c4.91,0,8.81.08,12.33-3.21,3.2-3,6.32-6.24,6.32-11C17.32-7.4.38,3-4.29,11.7A59.87,59.87,0,0,1-10.56,21a34.24,34.24,0,0,1-3.85,4.59l-1.9,1.66c-1.77,1.51-8.42,4.11-1.44-8.11.67-1.18,1.5-2.08,2.18-3.15L-5.33-.44,1.33-.89c-2.84,0-3.67-.44-6.22-.44A38.79,38.79,0,0,0-2.51-5.18c1.95-3.62,5.95-8.38,7-12.14-4.88,0-4.56-.31-10.07,9C-6.3-7.17-6.69-6.69-7.36-5.59a30.09,30.09,0,0,1-1.86,3c-1.12,1.4-1.33,1.26-3.64,1.25a13.16,13.16,0,0,0-4.46.42" transform="translate(367.5 30.25)"/><path class="cls-1" d="M-127.49-17.77a9.1,9.1,0,0,0,2.67.45,11.32,11.32,0,0,1,3.87-8.13c8-7.67,19.23-2.4,19.23,3.24,0,6.31-1.55,8.61-4.92,14.19-.71,1.19-1.33,2.37-2.1,3.67-2.86,4.76-6.75,10.28-6.75,16.79,0,5,3.95,9.33,10.21,9.33,3.63,0,6-2.28,8.44-3.56a12.44,12.44,0,0,1-1.86,3.92c-5,8.26-11.27,19.18-23.46,19.18-5.17,0-9.93-.77-13.66-4.1a14.92,14.92,0,0,1-3.65-3.91c-3.41-5.5-1-10-.9-13.76-3.08-.71-2.67-1-2.67,5.34,0,5.3,2.47,8.91,5.66,12.11,9.5,9.52,26.39,5.25,36.22-4.89,2.28-2.34,4.49-6.39,6.37-9.18C-88.79,14-81.52.68-76-8.9l9.79-18.2c-4.86-.71-3.33-1.65-7.69,5.64-5.53,9.25-14.57,26.12-19.49,33.37-10.3,15.19-19.9,7.6-19.9,2.75S-108.09,2.51-106-1.2c1.92-3.44,7-11.6,7-16.12,0-14.22-16.93-16.81-24.57-7.25-.62.77-1,1.22-1.58,2a9.25,9.25,0,0,0-2.28,4.83" transform="translate(367.5 30.25)"/><polygon class="cls-1" points="380.31 35.95 380.82 36.02 380.82 35.58 380.31 35.95"/><polygon class="cls-1" points="367.5 44.46 368.02 44.09 367.5 44.02 367.5 44.46"/><polygon class="cls-1" points="411.48 46.68 411.99 46.31 411.48 46.24 411.48 46.68"/><polygon class="cls-1" points="418.06 51.05 418.58 51.12 418.58 50.68 418.06 51.05"/><polygon class="cls-1" points="379.05 31.58 379.56 31.21 379.05 31.13 379.05 31.58"/><polygon class="cls-1" points="380.82 30.69 381.34 30.32 380.82 30.25 380.82 30.69"/><path class="cls-1" d="M49.75,21.77l.13-.14s-.17.09-.13.14" transform="translate(367.5 30.25)"/><path class="cls-1" d="M54.19,10.22l.14-.14s-.18.09-.14.14" transform="translate(367.5 30.25)"/></g></g></svg>