<svg id="Vrstva_1" data-name="Vrstva 1" xmlns="http://www.w3.org/2000/svg" viewBox="0 0 838.58 669.11"><defs><style>.cls-1{fill:#fff;}</style></defs><title>montenigo_icon_whitepng</title><path class="cls-1" d="M598.07,610.71c2.61-14.21,12.94-16,21.19-21.59-5.59-6.47-10.79-5-16.1-1.12A280.07,280.07,0,0,1,497,635.44a781.6,781.6,0,0,0-90,25.27c-24.1,8.37-47.63,2.17-71.32,1.88-38.35-.49-74.59-11.56-108.45-28.94-21.3-10.93-41.06-24.87-61.55-37.39-7.88-4.81-15.81-9.54-23.85-14.09-28.19-16-49.08-41.09-75.1-59.78-2.16-1.56-3.66-4.49-1.49-6.27,19.57-16-3.71-17.55-8.75-20.64-13.93-8.55-23.91-17.77-27.45-34.85-2.72-13.18.06-14.82,15.3-6C7.57,414.46,13.46,366.38,1.47,323.87c-3.79-13.44.27-28.49,6.32-40.36,8.81-17.28,6.45-38,20.07-53.74,17.49-20.18,33-42.05,44.91-66.18,10.35-21,31.83-30.12,47.93-44.95,22-20.21,47.9-35.13,72.25-52.17,20.14-14.1,42.72-16.64,64.24-21.9,53.43-13.09,107.6-23.66,161.92-32.45C462,5.18,505.05-7.13,549.23,5.38,560.41,8.55,574.7-.23,582.92,16.3c1.62,3.24,15.23.92,23.26.43,9-.54,17.64,0,24.92,5.57,26.47,20.19,59.07,28.43,87.45,45.05,10,5.84,16.68,14.43,25.49,21.07,45,33.89,81.46,74.41,93.49,131.91a45.12,45.12,0,0,1,.92,12.84,8.18,8.18,0,0,1-4.09,5.73c-4.08,1.81-4.73-2.1-6.07-4.79C818,213.51,808,192.74,797.1,172.48c-3.8-7-6-16.92-19.16-17.45,9.3,25.11,11.67,51.23,23.17,74.61,9.48,19.26-1.62,38.27.37,57.35,3,29.14-10.77,55.37-15.07,83.31-3,19.4-20.76,33.74-32.12,50.15-3.16,4.56-7.23,5.82-4.82,13.14,4,12.31-8.5,17.64-14,25.94-8.66,13.12-11,32-24,40-21,12.89-28.73,44-59.62,42.74-4.24-.18-8.28,4.52-8.53,8.85-.57,9.84-5.73,15.92-14.84,19.93,19,3.69,26.19-13.55,40-19.23-9.08,11.5-4.76,30.83-27.28,34.75C626.78,589.08,614.05,601.35,598.07,610.71ZM440,562.22c-5.37,8.41-3.36,14.09,6.68,15,5.51.52,13.93,2.44,14.8-6,1.1-10.59-8.45-7.57-14.39-8.59a56.34,56.34,0,0,0-7.25-.31c8.72-4,16.49-10.45,26.62-10.85,46.06-1.84,87.82-17.87,127.53-39.7,16.24-8.92,33-14,51.26-13.35,12.89.44,21.67-4.15,25.77-16.47,3.12-9.36,11.35-15.44,19-15.13,8.11.32,9.57-3.87,14.07-7.76,16.89-14.63,19-36.16,28.17-54.35,16.29-32.29,33.25-64,37.23-100.54,3.59-33,8.27-66.33-4.23-98.71-2.34-6.06-3.42-13.32-12.95-13.47-6.36-.09-8.3-6.92-11.47-11.29-15.23-21-32.14-40.31-53.06-56-32.1-24.07-69-37.23-106.78-49-46.73-14.53-94.36-16.72-142.6-14-4.65.25-11.74.25-10.85,6.66.87,6.19,7.12,4.08,12.23,3.77,18.91-1.15,38.08-3.47,56.78-1.61,36.24,3.62,72.12,9.89,107,21.2,59.76,19.34,105.64,56.05,139.3,108.6,4.77,7.44,9,15.4,2.14,28.13-10.49-24.16-23.05-43.3-38.8-59.75C648,107.82,572.78,83.09,492.15,81.53c-75.06-1.45-148.3,10.62-217.52,48.33C189,176.51,134.8,242.8,115.64,337.78c-7.69,38.1,6.92,74.23,27.19,102.48,17.5,24.37,36.1,51,64.2,68,33.6,20.33,67.23,38,106.78,44.16,21.88,3.42,47.24-.52,63.42,22.18,4.59,6.45,13.15,4.65,19.89-.7-.68-4.92-9.61-2.82-7.8-8.64,1.4-4.5,6.22-3.11,9.73-3.14C412.71,562,426.37,562.17,440,562.22ZM271.7,594.62c-2.87-3.11-5.4-8.42-8.37-8.68-34.81-3.05-60.1-28-91.28-39.16-2.2-.8-6-3-5.87-3.57,8.9-27.42-15.83-19.06-25.62-21.41C125.62,518.21,121.31,509.4,119,497c-.88-4.74,1.7-11.1-3.26-13.89-20.81-11.71-30.63-29.61-32.11-52.94-.13-2.07-3.31-3.78-4.09-6C72.35,403.87,57.47,389,60.12,361.82c4.65-47.74,22.71-90.5,34.78-135.44,1.63-6.09,5.21-11.75,11.19-14.33,12.33-5.31,16.75-17.84,23.37-27.32,16.8-24.11,38.68-43.09,61.6-59.62,20.31-14.65,45.61-22.34,63-41.95,3.61-4.06,6.74-2.86,11,.62,8.18,6.74,12.18-5.11,19.18-5.76,2.26-.21,1.33-4.08-.26-6.26-4.51-6.16-10-5.2-16.56-3.49A259.9,259.9,0,0,0,188,104c-33,22.25-65.55,46.53-91.75,77.49C83.07,197,72.32,214.91,62.32,232.06,55,244.71,51.8,262.43,48,278.05c-3.08,12.57-16.9,14.38-19.53,28-2.82,14.66-4.24,28.79-3,43.27,3.34,38.34,3,78.18,38.05,105.14,1.27,1,1.47,3.29,2.25,4.95,10,20.91,18.68,42.56,36.62,58.52,15.77,14,29.81,30.63,47.31,41.9,23.5,15.13,48.47,29.86,74.9,38,24.52,7.53,50.85,10.79,76.12,17,22.29,5.46,45.4,2.63,67.85,9,9.17,2.61,29.36,8.07,28.5-16.19-.1-3,7.15-6.15,10.95-9.3,4-3.28,11.19-3.26,11.19-11.55-13.9-3.76-21.44,6.38-30.3,13.43-3.79,3-7.4,11.18-12.73,3-6.84-10.48-13.75-4.86-18,.3-8.29,10-16.39,8.08-26.35,3.82-12.94-5.53-26.67-9.58-40.75-9.72-5.78-.06-8-.29-7.88-6.13.09-4.32.67-9.93-5.65-9.53C268.67,582.52,277.82,590.67,271.7,594.62ZM458.34,27.68c-12.13-3.89-26.39-.37-39.72,5.94-7.31,3.46-22.35-1.74-21,9.13,1.1,8.82,13.4-.88,21,.55,8.29,1.56,16.89,11.61,24.36,5,19.81-17.54,42.53-3.31,63.38-5.8,21.16-2.53,45.24,5.73,68.18,8.74,19.48,2.55,41.15,5.32,56.93,15.57,29.7,19.28,65.14,30.52,88.36,59.53,2.29,2.87,5.75,8.32,10.37,3.59,3.31-3.38,1.43-8.14-.77-12.13-6-11-15.6-18.24-25.16-26.06-32.92-26.89-72.86-42.07-111.56-53.19C551.15,26.61,505.41,27.87,458.34,27.68ZM359.5,577.62c-7.81-1.65-11.05-12.62-19.71-9.9-14.1,4.43-26.55-.37-39.55-5.22S274,551.41,261,548c-53.78-14-91.56-50.82-123-91.54-19.38-25.12-33.1-58.07-34.15-92.83-.12-4.17.59-9.56-5.88-9.5-5.59,0-7.25,5.36-7.52,9.17-1.81,25.51,2.32,50.08,16.1,71.94,13.13,20.83,29.88,38.05,47.56,55.73,38.41,38.39,80.45,65.77,132.1,80.7C310.44,578.69,334.8,576.65,359.5,577.62Zm287.21-64.71c-21.54.84-34.93,17.38-47.58,28.73-16.55,14.85-33.5,24.08-54.16,28.57-7.52,1.63-13,5.62-19.14,10.12-9.32,6.84-19.65,22.21-32.84,2.83-2.39-3.52-10.61-6.86-17-2.39-5.48,3.84-6.31,8.48-2.87,14.38,1.74,3,.42,7.67-2.81,7.23-11.33-1.53-22.48,10.15-33.71.33-5.79-5.06-11.55-2.89-17.21.19-3.7,2-9.18,3.62-7.41,9s6.64,7,12.18,4.84c10.8-4.21,22.09-1.82,33.14-2.4,19.69-1,42.07,1.82,58-7.75,27.28-16.41,63.06-20.51,80.8-51.84.78-1.37,3.06-2.28,4.8-2.66C622.78,547.29,636.72,533.17,646.71,512.91Zm-320.52-420c-32.25-.33-58.77,13.28-66.67,33.75C279.19,110.44,302.44,106.86,326.19,92.86Zm-215,190.82c5.55-15.17,15.36-27.51,23.5-40.87,1.67-2.73,2.24-6-1.09-8a4.33,4.33,0,0,0-6.29,2C121.56,252.19,103.42,262.73,111.22,283.68ZM554.27,540.87c20.22-2.23,40.7-4.47,58.63-25.12C588.16,520.13,573,534.67,554.27,540.87ZM371.65,81c16.14-6.76,33.13-3.43,51.76-5.13C398.9,65.76,382.82,67.12,371.65,81ZM336.38,56.89c9.38-2.52,14.43-6.9,16.37-14.43.15-.57-2.57-2.81-3.63-2.6C341.25,41.41,336.84,46.17,336.38,56.89Z"/><path class="cls-1" d="M722,533.84c5.2-7-.09-18,9.4-22.41,2.07-.95,8.83,2.26,8.16,5.65C737.76,525.9,730.37,530.4,722,533.84Z"/><path class="cls-1" d="M641.1,644.22c-2.17,3.92-3.12,6-4.41,7.91-4.06,6-5.74,13.82-13.2,17-.75.31-3.64-1.84-3.68-2.91-.3-9.7,6.66-15.36,12.77-21.3C633.56,643.92,636.06,644.53,641.1,644.22Z"/><polygon class="cls-1" points="732.99 501.56 733.4 503.08 732.23 502.89 732.99 501.56"/><path class="cls-1" d="M382,243.86c-23.43,29.63-43.59,61.48-61.75,94.61a227.68,227.68,0,0,1-13.65,22.2c-3.18,4.48-7.49,9.37-13.94,6.1-5.84-2.95-6.21-8.92-5.39-14.7,1.56-10.95,8-21,5.93-36.54-13.54,23.84-25.44,44.85-37.4,65.83-2.14,3.76-4,7.9-6.93,11-8.05,8.44-15.87,19.86-29.44,15.64-15-4.68-17.36-19.44-17.08-32.31.74-33.78,11.3-64.63,32.58-91.36,5.21-6.54,11-12.8,20.27-9.25s7.24,12.36,6.38,19.42c-1.23,10-.87,27.17-11.51,25.79-12.28-1.59,1.71-15-.65-23.24a17.63,17.63,0,0,1-.23-5.5,2.35,2.35,0,0,0-4-1.77c-16,15.69-21.9,34.43-27.09,53-3.83,13.72-3.56,28.31-1.93,42.63.58,5,1.42,10.18,7.26,11.81,5,1.39,8.52-2,11.06-5.36,6.32-8.42,12.9-16.8,17.93-26,31.74-58.14,62.42-116.88,97.69-173a26.86,26.86,0,0,1,1.81-3.25c3.53-4.14,7.24-11,13.18-6.92,5.51,3.79,1.66,11.62-1.3,14.92-17.41,19.41-26.29,43.47-37.09,66.35-10.57,22.38-17.56,46.11-23.29,70.34-.87,3.69,4.13,6,6.15,2.74,1-1.58,1.51-3.51,2.33-4.94,20-35.08,40.74-69.89,65.13-101.93,16.81-22.07,31.14-46.32,51.65-65.52,4.08-3.82,8.82-9.21,14.41-5.15,7.06,5.13-.21,10.09-2.77,14.11C417,210.17,395.65,247.9,370.93,283.67c-18.79,27.2-38.15,55.85-48,86.81-8.1,25.49-21.62,49.95-23.5,77.49-.74,10.79-5.59,23.07,11.28,26.49a5.37,5.37,0,0,1,4.07,7.2c-1.4,4.14-5.08,4.91-9.09,4.75-12.24-.48-23.33-14.19-21.64-27.46,4.93-38.75,20.05-74.16,37.44-108.49C339.94,314.08,361.83,279.57,382,243.86Z"/><path class="cls-1" d="M516,244.81c-24.9,6.44-45.27,11.63-65.59,17-5.81,1.54-12.56,2.05-15-3.47-3.43-7.78,5.65-7.88,9.63-10.47,16.67-10.9,35.05-18.47,53.33-26.2,5.76-2.44,11.32-5,17.63-1.94-1.42,10.8-17.14,11.19-25.64,17.15a2.14,2.14,0,0,0,1.29,3.91c15.67-.71,32-7.11,37.82-21.91q11.22-28.59,23.34-56.8c2.31-5.4,4.87-13.72,12.81-9.79s.42,9.65-1.37,14c-7,17.22-14.76,34.16-22,51.31-1.3,3.08-3.29,5.65.27,9,2.74,2.56,4.63,2.38,8.43,1.21,31.76-9.74,63.34-20.16,96.13-26.22,7-1.3,14-2.94,21.1-2,4,.52,4.71,6.15.91,7.52-1.9.68-4.23.8-6.27,1.3-39,9.69-77.94,19.61-117,28.94-10.8,2.58-16.78,8.48-20.87,18.72-7.13,17.84-15.61,35.14-23.75,52.56-1.77,3.78-4.12,9.18-9.37,6.56-5.5-2.75-1.59-7.75-.12-11.4C499.24,285.07,507.06,266.47,516,244.81Z"/><path class="cls-1" d="M499.24,423.66c-3.7,2.24-7.32,4.61-11.11,6.69-5.37,3-10.74,2.93-15.66-1s-6.42-8.51-4.56-14.82c7.35-25,23.77-43.27,43.12-59.43,3-2.47,7.15-4,10-.34,3.07,4-.65,6.84-3.42,9.15C506,373.58,497,385.52,488.89,398c-2.41,3.73-5.44,7.57-6.6,12.3a4,4,0,0,0,6.55,3.93c14.73-13.07,25.72-28.59,36.45-44.34,2.45-3.6,4.67-7.38,7.42-10.74,3-3.72,6.11-9.14,12-6.18,6.51,3.29,2.83,8.4.75,12.77-17.34,36.36-31.82,74.31-59.62,104.77-9.63,10.54-15.45,24.54-27.46,33.3A4,4,0,0,1,452,500c.57-3.36,4.37-5.54,6.11-8,11.38-16.29,23.13-32.32,35-48.29,4-5.48,7.08-11.19,7.48-18.06a3.76,3.76,0,0,1,.26-1.24l.8-2Z"/><path class="cls-1" d="M399.76,461.4c-4-22.85,11.44-40.73,10-62.1-23,13.86-32,36.1-43.07,56.69-4.4,8.18-8.07,16.77-12.56,24.89-2.1,3.81-5.36,7.33-10.55,4.47-3.91-2.15-3.92-5.68-3-9.66,5.94-25.95,11.7-51.93,17.65-77.86.83-3.62,2.4-7.75,7-7.07,6.35.94,4.08,6.36,4.4,10.39.59,7.29-10.36,17.05-.3,20.92,8.25,3.17,9.95-10.58,15.81-15.66,5.13-4.45,9.24-10.2,14.71-14.11,4.11-2.94,8.41-9,14.34-5.77,6.48,3.56,8.51,10.25,7.41,17.7-2.79,19-9.52,36.76-16.12,57.52A3,3,0,0,1,399.76,461.4Z"/><path class="cls-1" d="M475.6,278.21c-18,11.27-23.42,29.63-32.72,45.08-2.54,4.22-3.79,9.23-6.38,13.42-3.12,5.05-5.88,12.47-13.84,9.29-8.78-3.51-3.49-10.38-2.25-16,2.95-13.32,5.75-26.68,9.28-39.85,1.46-5.41.32-14.68,8.93-13.91,10,.89,2.92,10.74,5.37,16.43,9.92-4.2,11.84-14.85,19.14-20.43,5.84-4.47,11.09-10.61,19.69-6.16,8,4.13,6.9,11.74,5.47,18.06-3.15,13.88-7.74,27.43-11.47,41.18-1.56,5.77-5.81,6.43-10,5.09-5.17-1.64-2.55-6-1.77-9.37C468.2,307.36,475.05,294.54,475.6,278.21Z"/><path class="cls-1" d="M595.23,349.1c-13.94,19.78-33.33,36.69-36.29,65.46a3,3,0,0,0,5.19,2.36c19-20.25,29.67-42.18,38.16-65.49,1.26-3.49-5.51-11.13,4.55-9.82,7.11.92,7.79,6.27,6.56,12.71-4.1,21.43-17.32,38.27-27.9,56.4a91,91,0,0,1-12.58,16.15c-5.11,5.41-12.06,6.94-18.78,3.9-6.08-2.75-8.73-8.86-9.18-15.29-1.6-22.83,23.59-59.44,48.55-68.65A1.49,1.49,0,0,1,595.23,349.1Z"/><path class="cls-1" d="M364.8,348a3.24,3.24,0,0,0,5.08,3.44c13.65-10.16,23.93-23.34,33.19-37.58,2.31-3.55,3.07-11.76,9.67-7.58,4.48,2.83,2.18,9.33-.52,13.59-11.34,17.85-24.37,34.3-40.71,47.93-5.49,4.59-11.16,5.07-17,1-5.52-3.89-8.84-9.27-6.26-16,7.79-20.1,15.65-40.37,35.79-51.89,5.7-3.25,13.54-8.36,17.88-.9,3.83,6.57-5.72,7.67-9.53,11C380.45,321.47,369.07,332.3,364.8,348Z"/><path class="cls-1" d="M571.53,259.22c-5.09-6.73-15.09-5.65-22.27-1-17.2,11.15-27.56,28.09-33.61,46.95-3.23,10.07,11.51,20.22,22.78,16.58a45,45,0,0,0,19.92-12.63,2.59,2.59,0,0,0-1.55-4.34c-6.73-.82-11,3-15.75,4-4.32.91-10.38,5.83-11.44-2.7-.8-6.54.71-17.77,8.25-15.62,14.48,4.13,18.27-7,25.73-13.05C569.29,272.81,577,266.46,571.53,259.22Zm-14.76,14.87c-1.29,1.18-2.94,3.12-4.35,4.14-.33.23-.66.46-1,.7l-.43.32c-.17.15-.66.56-.65.54-.24.22-1.15,1.07-1.38,1.3-2,2-4.38,1.23-6.4-.62a5.05,5.05,0,0,1,0-7.08,36.87,36.87,0,0,1,4-3.24c.59-.42,1.18-.84,1.76-1.27l.13-.1.22-.19c.26-.22.51-.45.76-.68a5.12,5.12,0,0,1,7.07,0C558.46,269.68,558.71,272.33,556.77,274.09Z"/><path class="cls-1" d="M433.8,464.82c-6.92-.37-6.77-5.35-5.65-9.36,6.19-22,12.75-43.84,19.34-65.7.92-3,3.23-5.53,6.71-5.32a5.34,5.34,0,0,1,5,6.54c-4.39,24.35-12.69,47.57-21.3,70.66C437.34,463.08,435.08,463.87,433.8,464.82Z"/><path class="cls-1" d="M465,355.45c-2.22,5.23-5.82,9.39-12.28,8.58-4.09-.51-6.33-3.86-5.78-8.06.87-6.54,6.16-6.85,11.15-7C462,348.91,465.49,349.87,465,355.45Z"/><path class="cls-1" d="M499.24,423.66l2.34-1.28c-.35.86-.7,1.73-1,2.6C500.11,424.56,499.67,424.11,499.24,423.66Z"/></svg>