<svg xmlns="http://www.w3.org/2000/svg" xmlns:xlink="http://www.w3.org/1999/xlink" viewBox="0 0 438.85 94.86"><defs><style>.cls-1{fill:none;}.cls-2{clip-path:url(#clip-path);}.cls-3{fill:#fff;}</style><clipPath id="clip-path" transform="translate(0 0)"><rect class="cls-1" width="438.85" height="94.86"/></clipPath></defs><title>Datový zdroj 7</title><g id="Vrstva_2" data-name="Vrstva 2"><g id="box_pikto"><g class="cls-2"><path class="cls-3" d="M125.69,93.51c-4.35,0-.09-9.18,1.15-11a58.67,58.67,0,0,1,4.71-5.91c.78-.89,1.7-1.52,2.37-2.2l3.21-2.86c2.3-2,5.33-4.1,7.72-5.94.51-.39.31-.44.92-.61a36.5,36.5,0,0,1-1.9,4.17c-.41.95-.6,1.19-1,2s-.62,1.31-1,2c-1.53,2.85-3.85,6.85-5.64,9.54L135,84.56a47.19,47.19,0,0,1-5.44,6.71c-.67.63-2.74,2.24-3.84,2.24m-.22,1.35c1.62-.32,3.77-1.62,6.42-4.27l7.3-9.07c.75-1,1.47-2.11,2.19-3.2l1.08-1.62,4.16-6.81c.35-.61.71-1.12,1.07-1.81l2.86-5.24c.44-.85.71-.73,1.5-1.2,3.61-2.13,7.93-6.38,10.72-9.7.75-.89,5.08-6.48,5.62-6.87-.14,1.61-1.36,4.12-1.35,8.61a9.9,9.9,0,0,0,.62,4.44,3.11,3.11,0,0,0,3.26,1.81,2.91,2.91,0,0,0,1.76-.61,23.67,23.67,0,0,0,4.19-3.41c.9-.91,1.56-1.72,2.45-2.61.54-.54,1.9-2.33,2.4-2.66,0,1.13-.43,2.42-.51,3.71a10.08,10.08,0,0,0,.14,3.92c.86,2.78,3.65,1.6,5.51.21a43.65,43.65,0,0,0,4.35-4.26c.42-.47.55-.69,1-1.17s.62-.75,1-1.19c.71-.81,1.3-1.59,2-2.42s1.24-1.55,1.85-2.37c2-2.62,12.24-16.37,13.36-17.19l-1.59,9c-.86,5.12-1.6,6.07-3.21,10a31.7,31.7,0,0,1-5.2,8.13c-.91.91-2,1.93-3.5,1.22a2.81,2.81,0,0,1,.59-2.78c3-3.56-1.9-5.73-2.86-1.17-.44,2.06-.06,4.56,1.53,5.36,2.54,1.27,6.62-.54,8.67-2.08,3.23-2.43,2.79-2.56,4.77-4.52l5.83-7.33c.31-.45.46-.62.78-1.07s.57-.8.26-1.43c-.66.08-.21-.34-1.21,1.15l-3.05,4a31.43,31.43,0,0,1-4.51,4.94,6.17,6.17,0,0,1,.79-1.41c.28-.53.54-1,.78-1.58,1.12-2.65,1.11-5.35,1.13-8.32,0-1-.17-1.5-.17-2.19,0-1.72.64-9.43,1.51-10.3.34-.34,2-.72,2.89-1.84s1.08-2.26.33-3.39c-2.73,0-2.34,1.25-4.39,3.88-2.4,3.08-4.68,5.52-7.38,9.16l-7.11,9.43c-1.23,1.64-2.37,3-3.69,4.59l-.93,1.09a34.46,34.46,0,0,1-5.29,5.17c-1,.68-1.69,1.21-2.94.6-.47-2,1.89-6,2.92-7.87,2-3.62,3.91-7.25,6.16-10.72l5.94-9.42c.37-.49.44-.31.5-1a25.56,25.56,0,0,1-3.87.34c-1.55.16-2.57,3-3.65,4.79L190,36.6c-.12.17-.22.26-.31.37,0-1.28.63-2.79.68-4.23.31-7.49-8.66-2.54-11.72-.23-.52.39-.84.63-1.33,1a36.49,36.49,0,0,0-3.83,3.6c-.42.55-.77.79-1.22,1.31-2.64,3-6.38,8.41-9.8,12.48l-2.36,2.54c-2.41,2.41-5,5.17-8,6.79a10.24,10.24,0,0,1,1-2l5.54-9.66c.36-.67.73-1.2,1.12-1.91L163,40.9c2.08-3.72,4.8-8.11,6.7-11.69-1.17,0-2.76.24-4,.38-2,.22-1.15.35-3.07,3.67-.3.52-.5,1-.82,1.55a24.15,24.15,0,0,1-1.72,2.83c.22-2.65,2.35-7.44-1.25-8.7-4.32-1.51-12,4.64-15.08,7.73-4.11,4.13-7.38,9.07-11.13,13.51l-2.12,2.27c-2.17,2.18-7.68,7.49-11.1,5.78C117,57,119,51,119.44,49c2.14-.18,7.33-2.74,9.26-3.91,4.16-2.53,8.19-5.67,9.19-10.72s-2-6.63-6.49-4.8A20.57,20.57,0,0,0,127.17,32a35.7,35.7,0,0,0-6,5.48L115.35,45c-1.33,1.42-2.45,3-3.72,4.54L107,54.9A16,16,0,0,1,103.37,58c-1.08.65-1.37.68-2.32,0,0-3.35,1.44-5.34,2.9-8.08,4.42-8.28,9.3-16.35,14-24.49L128.86,6.22c.54-.89,2.83-4.59,2.9-5.54-1.18.28-4.06-.21-4.8.61-.5.56-12.28,22-13.92,24.89l-4,7.15a11.4,11.4,0,0,1-1.42,2.29c.46-2,1-4.88-.23-6.52-2.24-3-8.6.85-10.86,2.69a50.62,50.62,0,0,0-7.74,8c-1.62,2.07-3.53,4.95-5.09,6.72A14.23,14.23,0,0,1,79.28,50a6.08,6.08,0,0,1-3.38.67,4.43,4.43,0,0,1,.87-1.33c2.67-3.53,6.06-9.67,6.06-14.19s-.76-7.81-6.68-5.84c-4.22,1.41-8.82,5.34-11.53,8.73L62.5,40.44a34.93,34.93,0,0,0-3.09,3.87c-.46.84.23.72.76.23s.57-.92,1.39-1c-.17,2.05-2.47,7.06-1.63,12.59a5.59,5.59,0,0,0,1,2.56,2.73,2.73,0,0,0,2.49,1.23c5.72,0,9.59-6.26,10.92-7.49.49-.46,2.33-.3,3.19-.52a11.66,11.66,0,0,0,5.73-3.56,22.38,22.38,0,0,1,2.61-3c0,3-1.28,5.82-1,8.89.22,2.27.49,6.4,4.29,5.56,3.48-.77,8.1-6.06,10.18-9.23a1.64,1.64,0,0,1,.29-.39c.26-.26,0-.14.4-.28-.35,1.48-.75,2.68-1,4.37-1.15,6.69,2.78,7.14,7.32,2.59.89-.89,1.89-1.77,2.7-2.7l2.45-2.94c.85-1,1.64-2,2.41-3l2.36-3c0,1.49-.79,3.89-.85,5.9-.09,2.9.15,6.37,2.24,8.06a3.43,3.43,0,0,0,2.66.73,10.52,10.52,0,0,0,5.22-1.7,18.65,18.65,0,0,0,2-1.42,47.16,47.16,0,0,0,5.17-5.12l6.2-7.63c0,3.22-3.32,10.19-.78,14.45a3.4,3.4,0,0,0,4.15,1.23c3.16-1,5.67-4.13,7.81-6.53.46-.51.83-1.06,1.27-1.6s.81-1,1.25-1.62l.85-1.18c.24-.27.08-.22.47-.36l-5.33,10.87c-.88,2.14-1.1,3.08-2.7,4.22l-16,12.68a5.58,5.58,0,0,0-1.35,1.35c-.81,1-1.75,1.82-2.54,2.87-4.87,6.45-5.34,13.61-1.9,14.42ZM79.11,30.22c4.6,0,.32,10.84-.41,12.58-1.94,4.69-7.37,13-12.36,15.15-1.42.6-3.29,1.16-3.73-.6-1.16-4.63,4.54-15.44,7.46-19.47,1.75-2.42,5.8-7.66,9-7.66m108,0c5,0-.38,10.38-.9,11.42L183,46.88c-.45.6-.73,1.09-1.18,1.69a46.86,46.86,0,0,1-3.8,4.64c-.53.54-.77,1-1.34,1.52-.72.72-5.82,5.7-6.85,3.05-.89-2.26,1.1-7.13,1.84-8.9a57.7,57.7,0,0,1,6.05-10.83l2.56-3.18c1.12-1.45,4.52-4.65,6.82-4.65M139.7,56.88a21.62,21.62,0,0,1,2.64-9.34,61.39,61.39,0,0,1,6.25-10.11c1.94-2.61,6.23-7.21,9.67-7.21,1.75,0,1.52,1.9,1.52,2.87,0,2.52-2.15,6.94-3.17,8.64-2,3.28-2.28,3.92-4.6,7.22-1.76,2.52-7.64,9.86-10.94,9.58a1.57,1.57,0,0,1-1.37-1.65M89.4,58.4c-2.21,0-2.3-1.06-1.61-4.15a45.78,45.78,0,0,1,5.43-12.79,69.53,69.53,0,0,1,5-7c1.15-1.48,4.83-5,7.19-5,4.1,0-.35,10.16-1.63,12.55a53.66,53.66,0,0,1-5.53,8.48c-.44.56-.78.93-1.23,1.47-.28.34-.28.41-.6.75l-1.06,1.13c-1.13,1.35-4.51,4.48-6,4.48m30.72-11c.65-2.79,5.2-9.82,7.55-12.19,1.64-1.64,1.48-1.94,4.07-3.86.94-.7,4.07-2.47,4.07.36,0,3.57-3.25,7.75-5.6,10.08-2.13,2.11-7.39,5.55-10.09,5.61" transform="translate(0 0)"/><path class="cls-3" d="M6.88,31.06c0,2.36,0,4.13,1.56,6,2.49,3,8.25,1.61,11.1.22,6.47-3.16,11.93-10.59,14.87-17,.74-1.63,1.58-3.22,2.19-4.89.84-2.31,2.34-5.77,2.34-8.29,0-.65.05-.06-.17-.51-.76.2-1.11,1.95-1.37,2.68L34.89,15.2a74.71,74.71,0,0,1-7.28,11.62,36.28,36.28,0,0,1-7.54,7.31c-2.43,1.78-5.71,4-9,3-6.84-1.94-1.4-14,.8-17.32l3.54-4.72a20.48,20.48,0,0,1,2-2.08L21.8,9.19a46.32,46.32,0,0,1,7.8-4.68A32.64,32.64,0,0,1,42.82,1.19c3.75,0,7.45,0,10.86,1.47a10.84,10.84,0,0,0,2,.89c-.15.57-.29.52-.69.83a37.12,37.12,0,0,0-5,4.6l-3.87,4.24a3,3,0,0,0-.3.37L37.93,24.48a78.38,78.38,0,0,0-4.22,7.09L32,34.72c-.22.39-.3.62-.51,1l-4.13,7.18c-.44.7-.8,1.29-1.22,2-3.62,6-10,14.52-17.88,14.52C6.31,59.41,4,58.55,4,56.55c0-1.24,1.52-2.8,1.52-4.56a2.18,2.18,0,0,0-2.2-2.36c-4.21,0-6,11,4.39,11,5.54,0,9.74-3.34,13.5-6.25l3.42-3.16a82,82,0,0,0,6-7.18,105.59,105.59,0,0,0,7.69-12c2-3.54,3.62-7.19,5.72-10.65a119.13,119.13,0,0,1,6.38-10.16C52,9.05,54.69,5.83,56.83,4.4c.83,1.13,1.4,1.14,1.82,2.9.83,3.52-.17,8.6-1.46,11.8C55.45,23.43,52.06,28,46.88,28c-1.55,0-3.72-1.38-3.72,1.68,0,2.91,3.67-.85,6.85-.1s3.45,5,3.45,8c0,5.09-2.52,10.47-4.49,13.75-6.81,11.37-16.1,9.25-16.1,2.62,0-4.56,1.69-7.82,4.43-11.08,1.55-1.84,4.1-2.87,3.76-3.52-.51-1-3.86,2.37-4.26,2.84-2.37,2.83-4.52,6.08-4.77,10.08-.16,2.52-.05,4.15,1.22,5.86,3.73,5,12.09,1.13,15.67-1.79C57,49.84,61,35.43,53.16,30.18a6.52,6.52,0,0,0-2.91-1.31c.25-.34,2.76-1.16,4.56-2.36a18.64,18.64,0,0,0,3.83-3.26c2.12-2.53,4.1-5.58,4.1-10.08C62.74,6.78,59.21,5,58,3.22a21.35,21.35,0,0,0,3.44-1.8C63,.6,62.63-.44,61.05.34a38.68,38.68,0,0,0-4,2.54A19.52,19.52,0,0,0,47.22,0H43.7A40.39,40.39,0,0,0,32.8,2.14a38,38,0,0,0-9.67,5L20.69,8.93a42.73,42.73,0,0,0-9.16,9.91c-2,3.06-4.65,8.34-4.65,12.22" transform="translate(0 0)"/><path class="cls-3" d="M418.58,51.12a7.83,7.83,0,0,1-2.1,2.79c-.52.54-.63.73-1.05,1.2s.2-.09-.61.64L413.33,57c-3.92,3.63-9.4,2.46-2.75-9.41l.89-1.32c.56-2.09,4.86-7.87,6.22-9.78,7-9.84,13.26-6.46,8.14.46l-.93,1.42c-7.19,8.91.43,4-4.72,10.83-1.15,1.52-.37,1-1.6,1.95M380.82,36c-.45,1.69-2.37,3-3.95,4.48-2.46,2.29-6.2,5.25-9.82,4.41l.45-.89c.49-1.86,5.09-7.42,6.38-8.73.88-.9.69-.5,1.6-1.51a8.31,8.31,0,0,1,3.57-2.65c.77-.67.55-.6,1.77-.88.53-.34-.11-.41,1-.35,3,.17.31,5.19-1,6.12m-30.65-6.66c1.54,1,3.85.89,6.22.89-2.85,5.39-6.35,10.54-9.52,15.8C337.07,62.35,332,59.51,332,57.79c0-7.37,12-12.29,12-23.55A7.4,7.4,0,0,0,342.8,31c-.88-1.44-2-1.59-3.73-1.59-3.63,0-5.28,4.7-7.55,6.22-1.12-4.81-2.95-8.67-7.8-4.25-2.87,2.6-4.89,6.29-7,9.49-1.11,1.73-2,3.33-3,5-2.07,3.47-4.06,7-6.94,9.93l-.23.22c-1.13,1.09-2.7,2.7-4.4,2.7-3.59,0,.13-5.67.88-7.11,1.31-2.52,3-5,4.53-7.46l8.8-14.74c-5.37,0-5.09.66-8.08,5.68L298,52.28c-5,7.51-9.6,7.46-9.6,5.06,0-3.63,5.52-11.94,7.3-14.91,1.37-2.28,6.51-9.72,7.34-11.84.73-1.89-1.6-1.23-3.09-1.23s-4.44,5.84-5.25,7.19l-9.81,14.17-.21.24c-1.64,1.93-5.42,4.46-6,6.83L286.21,52c0,3.46.21,8.85,5.06,7.77,3.05-.69,5-4.4,7.38-6,0,2,.34,6.22,3.11,6.22,3.52,0,6.11-3.76,7.86-5.91a30.25,30.25,0,0,0,2.65-4l8-12.92c5.09-7.86,12.54-10,6.76.54-2.53,4.64-11.76,16.95-12.8,21.41a14.11,14.11,0,0,0,4.44.44c.42-1.76,1.4-2.68,2.21-4l7.38-11.71c2.06-3.39,7-13.58,11.74-13.58,1.69,0,2.22,1.77,2.22,3.11,0,6-12,11.5-12,23.09,0,1.85,1.25,4,3.11,4,5.16,0,7.65-4.65,10.66-6.66,0,9.79,7.24,6,11.22,1.44,1.79-2,3.54-5.35,5.67-6.77,0,3.08-.47,11.9,6.12,11.45,3.88-.27,9-4.53,11.31-6.9,1.58-1.6,2.85-2.86,4.44-4.44a26.94,26.94,0,0,0,2.15-2.29l.21-.24.2-.25c2-2.42,9.11-10,9.77-12.43,1.52.8,2.22,1.22,2.22,3.1,0,4.3-9,12.41-9.13,18.21,0,2.77,1.13,5.34,4.24,5.34s10.16-10.32,13.33-12.44c0,3.36-1.82,12.44,3.55,12.44,6.57,0,11.69-11.7,14.45-12.68,2.35-.84,5.15,1.26,10.26-2.6,6.85-5.18,5.68-13.5,1.5-15.42-1.13-.52-1.26-.15-2.22.49,1.13,3.11,4.44,2.26,4.44,7.11s-7.28,10.29-13.32,8.88c.36-4.32,4.44-7.93,4.44-12.88,0-7.09-7.32-3.28-10.23-1.34-4.79,3.2-7.44,6.88-10.83,11.38l-8.07,9.69A18.41,18.41,0,0,1,397.6,55c-2.87,2.86-7,5-7,2.77,0-2,4.13-8.14,5.24-9.86,5.76-8.92,7.43-11,.09-15.91,1.51-2.85,3.79-5.17,2.22-8.44-4.2.35-7.88,4.42-4,8.89l-8.44,11.11c-2.91,3.73-13.35,15.09-17.77,15.09-3.62,0-4.44-.81-4.44-4.44s1.43-5.65,2.67-8c4.91,0,8.8.08,12.33-3.21,3.2-3,6.32-6.25,6.32-11,0-9.17-16.94,1.18-21.61,9.93a61.08,61.08,0,0,1-6.27,9.28,34.24,34.24,0,0,1-3.85,4.59l-1.9,1.65c-1.77,1.52-8.42,4.12-1.44-8.11.67-1.18,1.5-2.07,2.18-3.14L362.17,29.8l6.66-.44c-2.85,0-3.67-.45-6.22-.45A37.89,37.89,0,0,0,365,25.07c2-3.63,5.95-8.38,7-12.15-4.88,0-4.56-.31-10.07,9-.67,1.12-1.06,1.61-1.74,2.71a28.34,28.34,0,0,1-1.85,3c-1.12,1.4-1.34,1.26-3.64,1.24a13.49,13.49,0,0,0-4.47.43" transform="translate(0 0)"/><path class="cls-3" d="M240,12.48a9.47,9.47,0,0,0,2.67.44,11.28,11.28,0,0,1,3.87-8.12C254.5-2.87,265.77,2.4,265.77,8c0,6.31-1.54,8.61-4.91,14.19-.71,1.18-1.33,2.37-2.1,3.66C255.9,30.66,252,36.18,252,42.68c0,5,3.95,9.33,10.22,9.33,3.63,0,6-2.28,8.44-3.55a12.39,12.39,0,0,1-1.86,3.91c-5,8.27-11.27,19.19-23.46,19.19-5.17,0-9.93-.77-13.66-4.11-1.68-1.5-2.46-2-3.65-3.9-3.41-5.5-1-10-.9-13.76-3.08-.72-2.67-1-2.67,5.33,0,5.31,2.47,8.91,5.66,12.11,9.49,9.52,26.39,5.26,36.22-4.88,2.27-2.35,4.49-6.39,6.36-9.18,6-9,13.28-22.24,18.82-31.83l9.79-18.19c-4.86-.71-3.33-1.65-7.69,5.63-5.53,9.25-14.57,26.13-19.49,33.38-10.3,15.19-19.91,7.6-19.91,2.75s5.19-12.16,7.25-15.86c1.91-3.44,7-11.61,7-16.13,0-14.22-16.93-16.8-24.57-7.25-.62.77-1,1.23-1.58,2A9.21,9.21,0,0,0,240,12.48" transform="translate(0 0)"/></g><polygon class="cls-3" points="380.31 35.95 380.82 36.02 380.82 35.58 380.31 35.95"/><polygon class="cls-3" points="367.5 44.46 368.02 44.09 367.5 44.02 367.5 44.46"/><polygon class="cls-3" points="411.48 46.68 411.99 46.31 411.48 46.24 411.48 46.68"/><polygon class="cls-3" points="418.06 51.05 418.58 51.12 418.58 50.68 418.06 51.05"/><polygon class="cls-3" points="379.05 31.58 379.56 31.21 379.05 31.13 379.05 31.58"/><polygon class="cls-3" points="380.82 30.69 381.34 30.32 380.82 30.25 380.82 30.69"/><g class="cls-2"><path class="cls-3" d="M417.25,52l.13-.13s-.17.09-.13.13" transform="translate(0 0)"/><path class="cls-3" d="M421.69,40.46l.13-.13s-.17.09-.13.13" transform="translate(0 0)"/></g></g></g></svg>