<svg xmlns="http://www.w3.org/2000/svg" viewBox="0 0 261.18 217.88"><defs><style>.cls-1{fill:#1d1d1b;}</style></defs><title>Datový zdroj 15</title><g id="Vrstva_2" data-name="Vrstva 2"><g id="box_pikto"><path class="cls-1" d="M639.39-52.94c.2.09.41.21.62.29a15.39,15.39,0,0,0,2.06.75,3.43,3.43,0,0,0,3-.57,1.76,1.76,0,0,0,.72-1.31,7.17,7.17,0,0,0-8.42-7.52,7.18,7.18,0,0,0-5.73,8.47,7.15,7.15,0,0,0,8.47,5.57,7,7,0,0,0,4-2.42,4.9,4.9,0,0,1-4.68-3.26m10.08,15.46.87.42a5.8,5.8,0,0,0,3.19.67,2.31,2.31,0,0,0,2.28-2.53,6.63,6.63,0,0,0-.08-1.1,7.19,7.19,0,0,0-8.23-5.85,7.12,7.12,0,0,0-5.86,8.35,6.78,6.78,0,0,0,4.83,5.5,6.79,6.79,0,0,0,7.12-1.65,3.38,3.38,0,0,0,.41-.55,4.84,4.84,0,0,1-4.53-3.26M673.76-68.2l1.38.66A5.28,5.28,0,0,0,678-67a2.29,2.29,0,0,0,2.27-2.54,7.12,7.12,0,0,0-7.32-7,7.16,7.16,0,0,0-7,7.26,6.85,6.85,0,0,0,4.37,6.45A6.83,6.83,0,0,0,678-64.24a4.76,4.76,0,0,0,.47-.56c-2.5-.42-3.7-1.27-4.69-3.4m-22.44-8.19c.44.2.87.43,1.31.62a5.12,5.12,0,0,0,2.86.45,2.26,2.26,0,0,0,2.17-2.44,7.12,7.12,0,0,0-7.24-7.1,7.13,7.13,0,0,0-7.06,7.29,6.84,6.84,0,0,0,4.23,6.36,6.84,6.84,0,0,0,7.55-1.08c.25-.2.46-.45.83-.82a4.91,4.91,0,0,1-4.65-3.28m9,23.35c.39.2.6.31.81.4a18.68,18.68,0,0,0,2,.72,3.45,3.45,0,0,0,3-.51,1.48,1.48,0,0,0,.76-1.28A11.25,11.25,0,0,0,666.7-56a7.1,7.1,0,0,0-8-5.36,7.09,7.09,0,0,0-6.1,7.25,6.8,6.8,0,0,0,4.4,6.41A6.83,6.83,0,0,0,664.62-49c.16-.15.29-.35.56-.66a4.8,4.8,0,0,1-2.88-.87A6.39,6.39,0,0,1,660.36-53M630.18-68.26c.23.11.46.26.7.35a19,19,0,0,0,2.43.76,3.11,3.11,0,0,0,2.64-.78,1.56,1.56,0,0,0,.56-1.11,7.11,7.11,0,0,0-7.27-7.68,7.09,7.09,0,0,0-6.86,8.59,6.73,6.73,0,0,0,4.93,5.39,6.85,6.85,0,0,0,7-1.73,2.85,2.85,0,0,0,.35-.53,4.79,4.79,0,0,1-4.51-3.26M640-107.15l-.29.54c-1.23,2.33-2.48,4.65-3.68,7a24.7,24.7,0,0,1-4.59,6.5,18.27,18.27,0,0,1-2.7,2.18,9.59,9.59,0,0,1-8.07,1.4,15.22,15.22,0,0,1-10.48-9.23,6.88,6.88,0,0,1-.26-4.5c.4-1.55,1.24-2.18,2.83-1.91a14.4,14.4,0,0,1,3.14,1c1.12.49,2.15,1.15,3.22,1.75a3.24,3.24,0,0,0,.86.38l-.31-.48a16.85,16.85,0,0,0-4.8-4.22,10.36,10.36,0,0,0-2.62-1,4.6,4.6,0,0,0-4.85,1.64,9.51,9.51,0,0,0-2.24,5.71,13.16,13.16,0,0,0,.71,5.24,21.09,21.09,0,0,0,14.09,13.87,18.08,18.08,0,0,0,14-1.39A26.7,26.7,0,0,0,642-89.1q4.51-5.07,9-10.21c3-3.47,5.92-7,9-10.46a99.93,99.93,0,0,1,13.28-12.65A28.41,28.41,0,0,1,684.55-128a25.71,25.71,0,0,1,14,.75c10.25,3.42,16.38,10.54,18.52,21.08A27.51,27.51,0,0,1,716-92.37a66.48,66.48,0,0,1-11,20.91,139.18,139.18,0,0,1-17.49,18.67A257.52,257.52,0,0,1,654-27.56c-1.52,1-3.06,1.91-4.57,2.9a1,1,0,0,1-1.24,0,268.29,268.29,0,0,1-38.09-28.2,135.43,135.43,0,0,1-18.51-20.08,64.36,64.36,0,0,1-10.27-20.67,29.13,29.13,0,0,1-1.19-7.87,26.89,26.89,0,0,1,19.46-26,27.8,27.8,0,0,1,10.53-1.06,25.92,25.92,0,0,1,11.47,4.1,57.9,57.9,0,0,1,7.19,5.68,116,116,0,0,1,10.87,11.19Z" transform="translate(-514.69 158.16)"/><path class="cls-1" d="M652.27-120.84a22.82,22.82,0,0,1,.43-4.82,36,36,0,0,1,6.38-14.22A64.3,64.3,0,0,1,670-151.54a94.12,94.12,0,0,1,8.13-6.19l.65-.43.22.09a10.5,10.5,0,0,1,3.39,10.5,7.11,7.11,0,0,1-3.85,4.89,103.34,103.34,0,0,0-11.75,7,52.47,52.47,0,0,0-12.89,12.51c-.43.61-.83,1.24-1.26,1.86a3.14,3.14,0,0,1-.39.44" transform="translate(-514.69 158.16)"/><path class="cls-1" d="M552.17,58.61c1.58,0,2.18-.39,2.43-.85a2.9,2.9,0,0,0,.28-.75l.15-.25c.13,0,.16.11.16.48a9.56,9.56,0,0,1-.31,1.89c-.08.28-.18.41-.46.41-2.59,0-5.19-.08-8.31-.08l-.27-.16c0-.1,0-.18.24-.46,2.18-3.41,4.47-6.9,6.54-10.17h-3a5.33,5.33,0,0,0-2.23.33,1.73,1.73,0,0,0-.83,1.2c0,.22-.1.28-.19.28s-.13-.07-.13-.25c0-.36.24-1.77.32-2.23,0-.22.09-.3.18-.3a5,5,0,0,0,.62.11c1.47.06,2.21,0,2.85,0h4.71l.27.12-.13.29c-2.13,3.47-4.48,7-6.67,10.34Z" transform="translate(-514.69 158.16)"/><path class="cls-1" d="M561.82,53.52l.14.28a4.31,4.31,0,0,0,1.17.15,1.54,1.54,0,0,0,1.1-.26,2.72,2.72,0,0,0,.91-2.32c0-2.2-1.45-2.84-2.36-2.84a3.08,3.08,0,0,0-.82.07l-.14.21ZM560,52.29c0-2.35,0-2.78,0-3.27s-.15-.78-.66-.89a3.44,3.44,0,0,0-.61,0l-.26-.14c0-.11.11-.14.34-.14.82,0,1.79,0,2.12,0,.53,0,1.7,0,2.18,0a5,5,0,0,1,2.85.66A2.71,2.71,0,0,1,567,50.59c0,1.15-.48,2.2-2,3.47,1.37,1.73,2.44,3.11,3.36,4.07a3.06,3.06,0,0,0,1.73,1l.43,0,.19.13c0,.12-.11.15-.3.15h-1.47a3.11,3.11,0,0,1-1.65-.29,7.37,7.37,0,0,1-2.12-2.27c-.62-.85-1.33-1.91-1.53-2.14l-.28-.11-1.35,0-.12.13V55c0,1.44,0,2.66.07,3.31.05.45.15.79.61.86.23,0,.57,0,.76,0l.18.13c0,.11-.1.15-.31.15-.89,0-2,0-2.27,0s-1.27,0-1.89,0c-.2,0-.31,0-.31-.15s.07-.13.25-.13a3.73,3.73,0,0,0,.56,0c.3-.07.38-.41.45-.86.07-.65.07-1.87.07-3.29Z" transform="translate(-514.69 158.16)"/><path class="cls-1" d="M581.92,54c0-3.46-2-5.62-4.53-5.62-1.78,0-3.81,1-3.81,4.85,0,3.22,1.78,5.77,4.75,5.77,1.09,0,3.59-.53,3.59-5m-10.47-.3a6,6,0,0,1,6.39-6.06c3.85,0,6.25,2.24,6.25,5.79a6.11,6.11,0,0,1-6.4,6.34,5.9,5.9,0,0,1-6.24-6.07" transform="translate(-514.69 158.16)"/><path class="cls-1" d="M593.72,58.61c1.58,0,2.18-.39,2.43-.85a2.53,2.53,0,0,0,.27-.75l.16-.25c.13,0,.16.11.16.48a9.54,9.54,0,0,1-.32,1.89c-.07.28-.18.41-.46.41-2.58,0-5.18-.08-8.3-.08l-.27-.16c0-.1.05-.18.23-.46,2.19-3.41,4.48-6.9,6.55-10.17h-3a5.3,5.3,0,0,0-2.23.33,1.78,1.78,0,0,0-.84,1.2c0,.22-.09.28-.18.28s-.13-.07-.13-.25c0-.36.24-1.77.31-2.23,0-.22.1-.3.19-.3a5,5,0,0,0,.62.11c1.47.06,2.21,0,2.84,0h4.72l.27.12-.13.29c-2.13,3.47-4.48,7-6.67,10.34Z" transform="translate(-514.69 158.16)"/><path class="cls-1" d="M601.54,52.3c0-2.36,0-2.79,0-3.29s-.16-.77-.67-.88a4.22,4.22,0,0,0-.6-.05L600,48c0-.11.11-.14.34-.14h1.25l1,0h3.87a6.5,6.5,0,0,0,.67-.09l.25-.07.09.14c0,.11-.08.3-.13,1,0,.15,0,.84-.08,1l-.15.17-.14-.21a1.61,1.61,0,0,0-.09-.56c-.11-.28-.26-.47-1-.56-.27,0-1.89-.06-2.2-.06l-.11.15V52.7l.11.17c.34,0,2.12,0,2.47,0s.61-.07.74-.23l.25-.2.11.13c0,.09-.06.34-.12,1.12,0,.32-.07.94-.07,1l-.14.3-.13-.14c0-.16,0-.36-.06-.56s-.3-.54-.87-.6c-.29,0-1.83,0-2.2,0l-.09.15V55c0,.52,0,1.95,0,2.4,0,1.06.27,1.29,1.86,1.29a4,4,0,0,0,1.45-.18c.4-.19.59-.51.7-1.15l.16-.23.13.28a13.28,13.28,0,0,1-.2,1.72c-.11.4-.25.4-.83.4-1.17,0-2,0-2.68,0s-1.15,0-1.61,0h-.89l-1.06,0c-.2,0-.31,0-.31-.15s.06-.12.25-.12a2,2,0,0,0,.55-.07c.31-.06.39-.4.45-.85.08-.65.08-1.87.08-3.29Z" transform="translate(-514.69 158.16)"/><path class="cls-1" d="M613.73,57.4c0,1.21.23,1.61.53,1.72a2.57,2.57,0,0,0,.81.1l.26.13c0,.12-.14.15-.35.15-1,0-1.63,0-1.92,0-.14,0-.87,0-1.67,0-.2,0-.34,0-.34-.15l.24-.13a2.82,2.82,0,0,0,.7-.07c.4-.13.46-.57.48-1.92l.14-9.11c0-.31,0-.53.2-.53s.31.2.57.48,2.54,2.68,4.8,4.92c1.05,1,3.14,3.28,3.4,3.53h.08l-.16-7c0-.94-.15-1.23-.52-1.39a2.58,2.58,0,0,0-.82-.09c-.19,0-.25-.05-.25-.14s.17-.14.4-.14c.81,0,1.55,0,1.88,0,.16,0,.75,0,1.51,0,.2,0,.36,0,.36.14s-.09.14-.28.14a2,2,0,0,0-.47,0c-.43.13-.55.45-.57,1.32l-.17,9.76c0,.34-.06.48-.2.48l-.52-.34c-1-.93-3-3-4.57-4.55s-3.4-3.56-3.68-3.85h-.05Z" transform="translate(-514.69 158.16)"/><path class="cls-1" d="M637.68,54c0-3.46-2-5.62-4.53-5.62-1.78,0-3.81,1-3.81,4.85,0,3.22,1.78,5.77,4.75,5.77,1.08,0,3.59-.53,3.59-5m-10.47-.3a6,6,0,0,1,6.38-6.06c3.86,0,6.25,2.24,6.25,5.79a6.11,6.11,0,0,1-6.4,6.34,5.89,5.89,0,0,1-6.23-6.07" transform="translate(-514.69 158.16)"/><path class="cls-1" d="M655.66,58.61c1.58,0,2.18-.39,2.43-.85a2.85,2.85,0,0,0,.27-.75l.16-.25c.13,0,.16.11.16.48a9.54,9.54,0,0,1-.32,1.89c-.07.28-.18.41-.46.41-2.58,0-5.18-.08-8.3-.08l-.27-.16c0-.1,0-.18.24-.46,2.18-3.41,4.46-6.9,6.54-10.17h-3a5.28,5.28,0,0,0-2.23.33,1.78,1.78,0,0,0-.84,1.2c0,.22-.09.28-.18.28s-.13-.07-.13-.25c0-.36.24-1.77.31-2.23,0-.22.09-.3.19-.3a5,5,0,0,0,.62.11c1.46.06,2.21,0,2.84,0h4.72l.27.12-.13.29c-2.13,3.47-4.49,7-6.67,10.34Z" transform="translate(-514.69 158.16)"/><path class="cls-1" d="M663.48,52.3c0-2.36,0-2.79,0-3.29s-.16-.77-.66-.88a4.53,4.53,0,0,0-.61-.05l-.26-.13c0-.11.1-.14.34-.14h1.25l1,0h3.87a6.5,6.5,0,0,0,.67-.09l.24-.07.1.14a8.93,8.93,0,0,0-.12,1c0,.15,0,.84-.08,1L669,50l-.14-.21a1.61,1.61,0,0,0-.09-.56c-.11-.28-.26-.47-1-.56-.26,0-1.88-.06-2.19-.06l-.11.15V52.7l.11.17c.34,0,2.12,0,2.47,0s.61-.07.75-.23l.24-.2.11.13c0,.09-.06.34-.12,1.12,0,.32-.07.94-.07,1l-.14.3-.13-.14a4.27,4.27,0,0,0-.07-.56c-.07-.31-.29-.54-.86-.6-.3,0-1.83,0-2.2,0l-.09.15V55c0,.52,0,1.95,0,2.4,0,1.06.28,1.29,1.85,1.29a4.07,4.07,0,0,0,1.46-.18c.4-.19.59-.51.7-1.15l.17-.23.12.28a11.74,11.74,0,0,1-.2,1.72c-.11.4-.25.4-.84.4-1.15,0-2,0-2.67,0s-1.15,0-1.61,0h-.88c-.36,0-.76,0-1.07,0s-.31,0-.31-.15.06-.12.25-.12a2,2,0,0,0,.55-.07c.31-.06.39-.4.45-.85.08-.65.08-1.87.08-3.29Z" transform="translate(-514.69 158.16)"/><path class="cls-1" d="M680.13,59.32c-.25-.11-.29-.19-.29-.53,0-.85.06-1.78.07-2s.07-.41.19-.41l.15.27a3.59,3.59,0,0,0,.14.78A2.14,2.14,0,0,0,682.61,59a1.88,1.88,0,0,0,2.07-1.77c0-.75-.23-1.47-1.51-2.47l-.72-.56c-1.7-1.33-2.29-2.41-2.29-3.67,0-1.7,1.43-2.92,3.57-2.92a8,8,0,0,1,2.07.26L686,48c0,.21-.06.65-.06,1.85,0,.35-.05.47-.17.47s-.16-.09-.16-.28a1.81,1.81,0,0,0-.4-1,2,2,0,0,0-1.68-.76,1.64,1.64,0,0,0-1.85,1.59c0,.72.36,1.26,1.64,2.23l.44.33c1.87,1.41,2.53,2.48,2.53,3.94a3.13,3.13,0,0,1-1.45,2.7,4.52,4.52,0,0,1-2.46.63,5.47,5.47,0,0,1-2.26-.4" transform="translate(-514.69 158.16)"/><path class="cls-1" d="M693.35,53.52l.14.28a4.43,4.43,0,0,0,1.18.15,1.53,1.53,0,0,0,1.09-.26,2.72,2.72,0,0,0,.92-2.32c0-2.2-1.46-2.84-2.37-2.84a3.13,3.13,0,0,0-.82.07l-.14.21Zm-1.82-1.23c0-2.35,0-2.78,0-3.27s-.16-.78-.67-.89a3.25,3.25,0,0,0-.6,0L690,48c0-.11.1-.14.34-.14.82,0,1.79,0,2.12,0,.52,0,1.7,0,2.18,0a4.94,4.94,0,0,1,2.84.66,2.71,2.71,0,0,1,1,2.12c0,1.15-.48,2.2-2,3.47,1.38,1.73,2.45,3.11,3.36,4.07a3.09,3.09,0,0,0,1.73,1l.43,0,.19.13c0,.12-.11.15-.29.15h-1.47a3.13,3.13,0,0,1-1.66-.29,7.61,7.61,0,0,1-2.12-2.27c-.62-.85-1.33-1.91-1.53-2.14l-.28-.11-1.35,0-.12.13V55c0,1.44,0,2.66.08,3.31,0,.45.14.79.6.86.24,0,.58,0,.76,0l.19.13c0,.11-.11.15-.31.15-.9,0-2,0-2.28,0s-1.26,0-1.88,0c-.2,0-.31,0-.31-.15s.06-.13.25-.13a3.58,3.58,0,0,0,.55,0c.31-.07.39-.41.45-.86.08-.65.08-1.87.08-3.29Z" transform="translate(-514.69 158.16)"/><path class="cls-1" d="M706.68,54c0,1.63,0,2.83,0,3.12a3.65,3.65,0,0,0,.17,1.18c.2.29.81.62,2,.62a5,5,0,0,0,3.56-1.12,4.88,4.88,0,0,0,1.3-3.85,5.27,5.27,0,0,0-1.49-3.87,6.11,6.11,0,0,0-4.39-1.54,3.77,3.77,0,0,0-1,.11l-.18.3c0,.53,0,1.87,0,3.1Zm-1.93-1.7c0-2.36,0-2.79,0-3.28s-.16-.77-.67-.89a3.39,3.39,0,0,0-.6,0l-.27-.14c0-.11.11-.14.35-.14.82,0,1.79,0,2.22,0s1.46,0,2.39,0c1.93,0,4.52,0,6.2,1.76a5.56,5.56,0,0,1,1.5,3.93,6.15,6.15,0,0,1-1.69,4.32A7,7,0,0,1,709,59.64c-.56,0-1.19,0-1.78-.09s-1.13-.09-1.51-.09h-.88c-.36,0-.77,0-1.07,0s-.31,0-.31-.16.06-.13.24-.13a2.58,2.58,0,0,0,.56-.06c.31-.06.39-.4.45-.85.08-.65.08-1.87.08-3.29Z" transform="translate(-514.69 158.16)"/><path class="cls-1" d="M721,58a6.12,6.12,0,0,1-.11-8.8,6.74,6.74,0,0,1,4.89-1.64,15.54,15.54,0,0,1,2.24.16c.59.08,1.08.21,1.55.26l.23.19c0,.12,0,.3-.08.85s0,1.36-.05,1.67,0,.35-.18.35-.15-.12-.15-.34a2.21,2.21,0,0,0-.61-1.42,4.61,4.61,0,0,0-3.14-1,4,4,0,0,0-2.9,1,5.14,5.14,0,0,0-1.43,4,5.19,5.19,0,0,0,4.88,5.5c1.37,0,2.2-.15,2.82-.86a2.54,2.54,0,0,0,.53-1c0-.24.08-.3.2-.3l.14.23a15.7,15.7,0,0,1-.34,2.06.53.53,0,0,1-.4.44,8.92,8.92,0,0,1-2.79.36A7.67,7.67,0,0,1,721,58" transform="translate(-514.69 158.16)"/><path class="cls-1" d="M734.68,52.3c0-2.36,0-2.79,0-3.29s-.15-.77-.66-.88a4.53,4.53,0,0,0-.61-.05l-.26-.13c0-.11.11-.14.34-.14h1.25l1,0h3.86a6.11,6.11,0,0,0,.67-.09l.25-.07.09.14a8.93,8.93,0,0,0-.12,1c0,.15-.05.84-.08,1l-.16.17-.14-.21a1.61,1.61,0,0,0-.09-.56c-.1-.28-.26-.47-1-.56-.27,0-1.89-.06-2.2-.06l-.11.15V52.7l.11.17c.34,0,2.12,0,2.47,0s.61-.07.75-.23l.24-.2.11.13c0,.09-.06.34-.12,1.12,0,.32-.06.94-.06,1L740,55l-.14-.14c0-.16,0-.36-.06-.56s-.29-.54-.87-.6c-.3,0-1.83,0-2.2,0l-.09.15V55c0,.52,0,1.95,0,2.4,0,1.06.28,1.29,1.86,1.29a4,4,0,0,0,1.45-.18c.41-.19.59-.51.7-1.15l.17-.23.12.28a11.74,11.74,0,0,1-.2,1.72c-.11.4-.25.4-.83.4-1.17,0-2,0-2.68,0s-1.14,0-1.61,0h-.88l-1.07,0c-.2,0-.31,0-.31-.15s.06-.12.25-.12a2.07,2.07,0,0,0,.56-.07c.3-.06.38-.4.44-.85.08-.65.08-1.87.08-3.29Z" transform="translate(-514.69 158.16)"/><path class="cls-1" d="M514.69-2h20.16v.79h-.36c-1.9,0-4.94.52-4.94,2.14V12.17l12.55.2V.92c0-1.62-3.09-2.14-5-2.14h-.36V-2h20.16v.79h-2.33c-1.91,0-5,.52-5,2.14V23.58c0,1.62,3,2.14,5,2.14h2.33v.79H536.75v-.79h.36c1.9,0,5-.52,5-2.14V13.44L529.55,14v9.55c0,1.62,3,2.14,4.94,2.14h.36v.79H514.69v-.79H517c1.9,0,5-.52,5-2.14V.92c0-1.62-3.09-2.14-5-2.14h-2.34Z" transform="translate(-514.69 158.16)"/><path class="cls-1" d="M563.25,25.84h2.89c1.7,0,4.47-.56,4.47-2V.65c0-1.47-2.77-1.94-4.47-1.94h-2.89V-2h20.2c2.69,0,5.1-.43,6.21-1.78h.79l2.7,12.67h-.79L590.81,5.4a9.85,9.85,0,0,0-9.43-6.34h-3.24v13h2.1c2.22,0,4.32-3.17,4.51-6.26l0-.67h.83V20.05h-.75v-.71c0-2.42-2.53-5.74-4.59-5.74h-2.14V25.48h5.38a9.44,9.44,0,0,0,9.31-7l.63-2.3h.8l-2,13.15h-.95c-1.07-1.9-3.85-2.85-6.1-2.85h-22Z" transform="translate(-514.69 158.16)"/><path class="cls-1" d="M619.05.69V12.21a.52.52,0,0,0,.43.24,19.91,19.91,0,0,0,3.53.19c3.6,0,5.82-3.24,5.82-7S627.28-1,623.41-1h-2.62c-1.47,0-1.74.55-1.74,1.66M605,25.8h2.1c1.7,0,4.47-.48,4.47-1.95V.64c0-1.46-2.77-1.93-4.47-1.93h-2.89V-2h20.63c8.63,0,12.36,3.13,12.36,7.49,0,4.08-2.89,6.57-6.9,7.68,1.31,3.49,3.93,10.46,8.52,10.46a5.53,5.53,0,0,0,4-1.63l.36.36a12.32,12.32,0,0,1-9.67,4.59c-6.89,0-9.22-6.77-10.65-13.23-1.07-.07-2.34-.23-3.76-.31V23.85c0,1.47,2.73,1.95,4.47,1.95h2.1v.71H605Z" transform="translate(-514.69 158.16)"/><path class="cls-1" d="M658.93,4.17a2.44,2.44,0,0,0-2.34,1L653.78,9H653l5.75-13.47h.67L659-2.4c0,.23.05.39.52.39h18.1c.56,0,1.07-.39,1.55-.39.91,0,.91,1.19.55,1.78a12.27,12.27,0,0,1-2.1,2.89L659.17,20.33h16.19a2.35,2.35,0,0,0,2.38-1.27l2.73-4.31h.91L676,27.18h-.28c-.2-.39-.28-.67-.64-.67h-19.4c-1.19,0-2.34,1.07-3.13,1.07-.51,0-.75-.68-.75-.87,0-.36.95-1.51,2.34-3.05L673.5,4.17Z" transform="translate(-514.69 158.16)"/><path class="cls-1" d="M704.35-4.54A64,64,0,0,1,715-9.34l1.11,4a58.29,58.29,0,0,0-11.56,1.27Zm-2.73,21.07,9.19.2-5-9.16Zm10,1.66H700.83l-2.66,5.66c-.51,1.08,2.34,1.87,4.08,1.87h1.11v.79H688.51v-.79h2c1.9,0,5.46-.64,6.18-2.22L708.59-2.44h.79l13.23,24c1.5,2.65,2.73,4.16,6.34,4.16h2.33v.79H710v-.79h1.46c2.53,0,3.29-.56,3.29-1.35a2.91,2.91,0,0,0-.52-1.46Z" transform="translate(-514.69 158.16)"/><path class="cls-1" d="M768,26.9h-1.31L743.32,2.47l.28,21.11c0,1.62,3,2.18,5,2.18h2.33v.75H734.45v-.75h2.3c1.86,0,5-.52,5-2l0-22.3c0-1.63-4.12-2.58-6.38-2.58h-3v-.75h17.59L766.73,16l0-15c0-1.62-3.05-2.18-5-2.18H759.4v-.75h16.48v.75h-2.34c-1.82,0-4.95.52-4.95,2.06Z" transform="translate(-514.69 158.16)"/></g></g></svg>