<svg xmlns="http://www.w3.org/2000/svg" width="83.102" height="76" viewBox="0 0 83.102 76">
  <g id="baldi_logo" transform="translate(-0.03 0.08)">
    <path id="Path_128" data-name="Path 128" d="M122.851,711.626c1.923-4.454,4.27-9.885,4.279-9.885l4.108,9.885Zm52.928,7.843-.564.105a27.655,27.655,0,0,1-5.47,5.833,22.613,22.613,0,0,1-13.277,4.14,24.346,24.346,0,0,1-5.658-.595,23.422,23.422,0,0,1-5.065-1.844q-.694-.344-1.364-.726a20.765,20.765,0,0,1-4.209-3.043,15.328,15.328,0,0,1-3.786-5.521c-10.869-25.457-9.9-23.229-10.831-25.482a1.528,1.528,0,0,0-1.505-.907,2.66,2.66,0,0,0-1,.243,4.34,4.34,0,0,0-.66.393c.787.422,1.483,1.882,2.17,3.53s1.75,4.177,1.75,4.177-7.5,17.123-7.773,17.712a4.281,4.281,0,0,1-.858,1.129h3.442s-.386-.525-.666-.911a.361.361,0,0,1-.058-.376c.105-.246.922-2.138,1.953-4.516h9.284c.645,1.419,2.258,5.114,2.657,6.021a19.394,19.394,0,0,0,6.426,8,24.565,24.565,0,0,0,9.529,4.516,22.692,22.692,0,0,0,10.2,0,23.619,23.619,0,0,0,3.8-1.172,27.934,27.934,0,0,0,4.689-2.41,20.726,20.726,0,0,0,4.078-3.521c.339-.376.657-.768.967-1.165a17.09,17.09,0,0,0,1.605-2.314,1.712,1.712,0,0,0,.188-1.283m-59.461-4.994c-1.742,2.16-3.884,3.062-7.017,3h-3.575V702.1H109.3a8.068,8.068,0,0,1,1.221.094,10.048,10.048,0,0,1,1.628.393,8.689,8.689,0,0,1,4.458,3.586,7.081,7.081,0,0,1,.958,3.515,6.617,6.617,0,0,1-1.248,4.8m-10.588-21.775h3.807a4.23,4.23,0,0,1,3.775,1.759,4.619,4.619,0,0,1,.642,2.1,3.7,3.7,0,0,1-1.547,3.41,6.61,6.61,0,0,1-3.462.941h-3.214Zm13.691,20.426a8.792,8.792,0,0,0,.476-1.948,9.328,9.328,0,0,0-.115-3.011,7.729,7.729,0,0,0-.96-2.563,9.55,9.55,0,0,0-1.528-1.833,8.918,8.918,0,0,0-1.611-1.212,11.049,11.049,0,0,0-1.007-.546,9.357,9.357,0,0,0-1.936-.642,6.328,6.328,0,0,0,3.53-3.7,4.821,4.821,0,0,0-.461-3.3c-.835-1.594-2.418-2.779-5.173-2.779H102.92a1.961,1.961,0,0,1,.467,1.1v24.776a2.129,2.129,0,0,1-.467,1.129s5.692.015,6.915-.017a23.039,23.039,0,0,0,2.595-.2,10.056,10.056,0,0,0,2.77-.753,8.049,8.049,0,0,0,1.786-1.146,8.378,8.378,0,0,0,1.545-1.637,7.766,7.766,0,0,0,.894-1.724" transform="translate(-102.89 -656.014)"/>
    <path id="Path_129" data-name="Path 129" d="M295.175,719.453a1.912,1.912,0,0,1,1.163.41l.469.376.61.277a3.763,3.763,0,0,1,2.471-1.646l-.168-.546h-9.632V693.555a1.95,1.95,0,0,1,.469-1.1H287.27a1.96,1.96,0,0,1,.467,1.1v24.772a2.145,2.145,0,0,1-.467,1.129Z" transform="translate(-252.551 -656.85)"/>
    <path id="Path_130" data-name="Path 130" d="M486.9,693.545a1.972,1.972,0,0,1,.469-1.1H484.1a1.975,1.975,0,0,1,.467,1.1v24.8a1.982,1.982,0,0,1-.467,1.1h3.28a1.979,1.979,0,0,1-.469-1.1Z" transform="translate(-412.344 -656.842)"/>
    <path id="Path_131" data-name="Path 131" d="M375.82,713.526a12.381,12.381,0,0,1-6.492,4.422,12.633,12.633,0,0,1-2.8.354h-6.439V693.527h4.241a20.93,20.93,0,0,1,4.153.311,11.734,11.734,0,0,1,5.645,3.372,13.056,13.056,0,0,1,2.973,4.555,14.762,14.762,0,0,1,.779,3.889,11.786,11.786,0,0,1-2.059,7.871m4.13-11.036a13.221,13.221,0,0,0-1.259-3.2,14.348,14.348,0,0,0-2.969-3.575,13.811,13.811,0,0,0-6.251-3.08,20.814,20.814,0,0,0-3.293-.205h-8.893a2.047,2.047,0,0,1,.453,1.108v24.795a1.981,1.981,0,0,1-.467,1.1h9.367c6.74,0,9.93-3.366,11.45-5.286a14.975,14.975,0,0,0,1.863-11.653" transform="translate(-309.379 -656.826)"/>
    <path id="Path_132" data-name="Path 132" d="M80.021,71.35H78.65l-.04.04v.06l.04.041.151.013.134.038.094.064.032.081v3.227l-.032.081-.081.064-.13.04-.145.019-.041.04v.058l.041.04h1.349l.041-.04v-.058l-.041-.04-.143-.013-.135-.038-.1-.06-.034-.087V71.692l.032-.083.1-.064.135-.041.145-.013.041-.041v-.06Z" transform="translate(-63.794 -57.989)"/>
    <path id="Path_133" data-name="Path 133" d="M193.271,575.2a2.163,2.163,0,0,1-.06.527,1.108,1.108,0,0,1-.23.461l-.145.1a.778.778,0,0,1-.2.024.608.608,0,0,1-.376-.119.941.941,0,0,1-.271-.309,1.506,1.506,0,0,1-.162-.422,1.975,1.975,0,0,1-.055-.452.992.992,0,0,1,.207-.67.7.7,0,0,1,.548-.233.565.565,0,0,1,.327.092.825.825,0,0,1,.235.248,1.154,1.154,0,0,1,.139.35,1.862,1.862,0,0,1,.043.4m.216-.841a1.369,1.369,0,0,0-.429-.312,1.237,1.237,0,0,0-.533-.115,1.294,1.294,0,0,0-.527.107,1.42,1.42,0,0,0-.42.288,1.361,1.361,0,0,0-.278.422,1.282,1.282,0,0,0-.1.5,1.363,1.363,0,0,0,.085.489,1.206,1.206,0,0,0,.258.4,1.262,1.262,0,0,0,.4.265,1.453,1.453,0,0,0,.538.1,1.667,1.667,0,0,0,.25-.017l.158-.038a3.7,3.7,0,0,1-.282.482,2.635,2.635,0,0,1-.817.766,3.626,3.626,0,0,1-.461.229l-.021.051.032.081.04.026h0a3.61,3.61,0,0,0,.856-.348,3.793,3.793,0,0,0,.8-.6,3.035,3.035,0,0,0,.593-.8,2.07,2.07,0,0,0,.233-.973,1.464,1.464,0,0,0-.1-.54,1.479,1.479,0,0,0-.284-.455" transform="translate(-174.558 -560.623)"/>
    <path id="Path_134" data-name="Path 134" d="M385.206,575.981a1.222,1.222,0,0,0-.314-.215,1.882,1.882,0,0,0-.286-.105c.094-.072.188-.139.256-.2a2.107,2.107,0,0,0,.252-.248,1.176,1.176,0,0,0,.167-.256.689.689,0,0,0,.058-.282.668.668,0,0,0-.262-.544,1.024,1.024,0,0,0-.653-.2.872.872,0,0,0-.344.064,1.013,1.013,0,0,0-.265.166,1.233,1.233,0,0,0-.207.233,1.6,1.6,0,0,0-.152.262l.015.051.053.028.053-.011a.661.661,0,0,1,.269-.25.955.955,0,0,1,.391-.072.654.654,0,0,1,.4.124.391.391,0,0,1,.156.326.732.732,0,0,1-.087.356,1.409,1.409,0,0,1-.222.309,2.345,2.345,0,0,1-.3.271c-.088.064-.171.126-.247.188l-.066.049-.013.049.017.032.036.024h.079a1.274,1.274,0,0,1,.376.055,1,1,0,0,1,.307.167.966.966,0,0,1,.218.254.705.705,0,0,1,.077.331.847.847,0,0,1-.105.45.83.83,0,0,1-.241.265.87.87,0,0,1-.265.128.7.7,0,0,1-.164.036l-.188-.056-.145-.13-.139-.143a.265.265,0,0,0-.188-.073.215.215,0,0,0-.188.077l-.053.171.047.175.124.117.167.068.179.024a2.02,2.02,0,0,0,.645-.1,1.851,1.851,0,0,0,.544-.282,1.383,1.383,0,0,0,.376-.446,1.176,1.176,0,0,0,.143-.58.792.792,0,0,0-.083-.352,1.022,1.022,0,0,0-.22-.294" transform="translate(-330.503 -560.62)"/>
    <path id="Path_135" data-name="Path 135" d="M397.607,576.949a1.034,1.034,0,0,1,.032-.239,1.09,1.09,0,0,1,.087-.254,1.174,1.174,0,0,1,.152-.231l.188-.167a3.929,3.929,0,0,1,.376.205,1.447,1.447,0,0,1,.31.226.939.939,0,0,1,.188.265.737.737,0,0,1,.066.324.848.848,0,0,1-.034.241.649.649,0,0,1-.109.209.564.564,0,0,1-.188.151.7.7,0,0,1-.3.058.753.753,0,0,1-.546-.207.781.781,0,0,1-.215-.587m.9-1.317-.267-.158a1.578,1.578,0,0,1-.282-.218,1.09,1.09,0,0,1-.218-.284.739.739,0,0,1-.083-.357.588.588,0,0,1,.055-.262.565.565,0,0,1,.151-.188.705.705,0,0,1,.218-.12.788.788,0,0,1,.258-.041.731.731,0,0,1,.3.055.6.6,0,0,1,.215.156.7.7,0,0,1,.135.229.929.929,0,0,1,.043.286,1.046,1.046,0,0,1-.132.542,1.029,1.029,0,0,1-.391.367m.941.753a1.364,1.364,0,0,0-.243-.31,1.646,1.646,0,0,0-.3-.231l-.119-.066-.1-.056c.081-.049.166-.1.263-.171a1.9,1.9,0,0,0,.279-.239.952.952,0,0,0,.188-.273.683.683,0,0,0,.077-.322.753.753,0,0,0-.085-.35.9.9,0,0,0-.231-.286,1.232,1.232,0,0,0-.367-.188,1.647,1.647,0,0,0-.484-.07,1.2,1.2,0,0,0-.431.081,1.408,1.408,0,0,0-.376.226,1.224,1.224,0,0,0-.263.337.952.952,0,0,0-.1.425.991.991,0,0,0,.07.376,1.191,1.191,0,0,0,.175.3,1.937,1.937,0,0,0,.25.247c.079.06.158.119.241.177l-.237.166a2.378,2.378,0,0,0-.269.233,1.108,1.108,0,0,0-.188.277.686.686,0,0,0-.079.329.768.768,0,0,0,.1.391,1.008,1.008,0,0,0,.273.3,1.1,1.1,0,0,0,.376.188,1.448,1.448,0,0,0,.406.06,1.546,1.546,0,0,0,.493-.081,1.174,1.174,0,0,0,.408-.23,1.129,1.129,0,0,0,.275-.359,1.031,1.031,0,0,0,.1-.452.8.8,0,0,0-.105-.41" transform="translate(-341.731 -560.534)"/>
    <path id="Path_136" data-name="Path 136" d="M273.821,566.774a18.826,18.826,0,0,0-.51,3.985,9.221,9.221,0,0,0,.109,1.434,16.821,16.821,0,0,0,.738,3.137,8.849,8.849,0,0,0,.668,1.466s.162.282.29.493c.087.152.1.29-.06.341-.068.015-.119.023-.188.036-.273.047-.6.09-.941.135a16.3,16.3,0,0,0-2.012.431c-.4.1-.728.188-1.112.312a7.277,7.277,0,0,0-1.223.51c-.085.043-.282.16-.3.168a.376.376,0,0,1-.188.079.387.387,0,0,1-.188-.079c-.011,0-.211-.124-.294-.167a7.412,7.412,0,0,0-1.223-.51c-.388-.126-.713-.209-1.112-.312a16.357,16.357,0,0,0-2.012-.431c-.356-.045-.677-.088-.95-.135l-.188-.036c-.164-.051-.152-.188-.064-.341.13-.211.29-.493.29-.493a8.843,8.843,0,0,0,.666-1.466,16.654,16.654,0,0,0,.74-3.137,9.458,9.458,0,0,0,.111-1.434,18.949,18.949,0,0,0-.512-3.985h0l-.028-.113-.021-.087c-.077-.329-.079-.442.326-.341l.07.019a20.681,20.681,0,0,0,3.453.585l.941.512.941-.518a21.922,21.922,0,0,0,3.449-.58l.07-.019c.4-.1.4.011.326.341l-.023.087-.028.113Z" transform="translate(-232.85 -554.347)" fill="#d0121c"/>
    <path id="Path_137" data-name="Path 137" d="M234.821,523.568a1.336,1.336,0,0,1-.514.645,2.246,2.246,0,0,1-1.722.16,1.693,1.693,0,0,1-1.044-.845l-.015-.026v-.017c-.07-.156-.141-.316-.2-.478l-.041-.119v-.009a3.17,3.17,0,0,1-.124-.453,4.3,4.3,0,0,1,.213-1.584c.088-.036.177-.075.265-.12a3.2,3.2,0,0,0,.188,2.416,1.261,1.261,0,0,0,.521.484,1.625,1.625,0,0,0,1.287.12.821.821,0,0,0,.318-.235l-.013-.034-.032-.009a.416.416,0,0,1-.363-.188.474.474,0,0,1-.1-.376.617.617,0,0,1,.28-.4.61.61,0,0,1,.523-.081.9.9,0,0,1,.531.408l.009.013a.86.86,0,0,1,.055.732m-3.184,3.839a1.975,1.975,0,0,1-.6.93,1.789,1.789,0,0,1-.941.406h-.188a1.553,1.553,0,0,1-.632-.13,1.038,1.038,0,0,1-.452-.388.775.775,0,0,1-.117-.421.849.849,0,0,1,.107-.414.636.636,0,0,1,.286-.269h0a.805.805,0,0,0,.358.431,1.074,1.074,0,0,0,.5.12,1.305,1.305,0,0,0,.294-.034,1.233,1.233,0,0,0,.487-.222,1.148,1.148,0,0,0,.339-.41,1.86,1.86,0,0,0,.143-.391,1.259,1.259,0,0,0,.036-.3,1.538,1.538,0,0,0-.147-.638,1.854,1.854,0,0,0-.335-.512c-.316-.331-.316-.331-.335-.331l-.04.03a.694.694,0,0,1-.13.241,1.473,1.473,0,0,0-.03-.231c-.013-.079-.028-.169-.047-.256a4.529,4.529,0,0,1-.1-.92,1.633,1.633,0,0,1,.079-.388l.028-.1.23-.86-.015-.039h-.045c-.073.047-.147.1-.224.158a1.736,1.736,0,0,1-.9.42h0l.169-.117a3.363,3.363,0,0,0,.728-.711,2.091,2.091,0,0,0,.4-.986c.111-.021.22-.045.335-.073l-.015.056a5.038,5.038,0,0,0-.164,1.116,1.932,1.932,0,0,0,.026.329,4.4,4.4,0,0,0,.288.877l.09.213.028.062c.077.171.147.333.205.489a6.165,6.165,0,0,1,.457,1.641c.015.162.023.324.023.476a3.763,3.763,0,0,1-.166,1.153m-2.036-6.682a2.576,2.576,0,0,1-1.765-.843,1.855,1.855,0,0,1-.478-.792,1.552,1.552,0,0,1,.452-1.68,1.317,1.317,0,0,1,.709-.22.822.822,0,0,1,.659.346.636.636,0,0,1,.09.615l-.081.154a.536.536,0,0,0-.453-.247.494.494,0,0,0-.243.064.986.986,0,0,0-.273,1.232,1.24,1.24,0,0,0,.327.431,1.759,1.759,0,0,0,.668.346,2.464,2.464,0,0,0,.615.1,2.848,2.848,0,0,0,.613-.049,3.6,3.6,0,0,0,.58-.173,2.964,2.964,0,0,0,.621-.314,1.944,1.944,0,0,0,.736-1.234c.03-.158.045-.393.053-.493v-.068l-.049-.013-.021.017a1.274,1.274,0,0,1-.7.416l-.205.011a2.41,2.41,0,0,0,.657-.587,1.451,1.451,0,0,0,.376-1.317h0l-.038-.024-.036.03a1.212,1.212,0,0,1-.783.627.425.425,0,0,1-.2-.023,2.159,2.159,0,0,0,.416-.766,2.947,2.947,0,0,0,.111-.753,3.107,3.107,0,0,0-.329-1.52,1.673,1.673,0,0,0-1.33-.971l-.04.028v.026l.066.216a1.768,1.768,0,0,1,.047.333,1.138,1.138,0,0,1-.154.693l-.124.152a7.173,7.173,0,0,1-.96-2.237c0-.026-.024-.124-.045-.256a7.721,7.721,0,0,0,1.08.111h.177a7.164,7.164,0,0,0,.851-.053c.068.128.145.262.233.41.126.205.29.444.455.681s.316.465.429.644a6.586,6.586,0,0,1,1.014,3.532v.158a3.215,3.215,0,0,1-.07.587,3.86,3.86,0,0,1-.179.58,3.291,3.291,0,0,1-1.455,1.581,3.685,3.685,0,0,1-2.021.516m-2.166-9.6c-.239-.077-.487-.164-.741-.26l-.026-.011h-.013c-.551-.209-1.14-.455-1.757-.741-1.347-.619-2.457-1.108-2.606-1.174a2.93,2.93,0,0,0,.068-.3l.04-.175a5.97,5.97,0,0,0,.941.4,3.179,3.179,0,0,0,.988.162,3.735,3.735,0,0,0,.9-.124l.166-.039c.213-.051.414-.1.64-.134a3.684,3.684,0,0,1,.93-.021c-.06.075-.113.149-.151.207a2.761,2.761,0,0,0-.164.307l-.135.326v.03l.024.023.339.113h.009a2,2,0,0,0,.606.092,1.527,1.527,0,0,0,.689-.151,1.667,1.667,0,0,0,.452-.344l.009.021.019.12a.768.768,0,0,1-.105.346l-.083.126-.026.032.034.026-.038-.019-.416.474v.041l.032.023.638.068a2.836,2.836,0,0,0,.346.021,1.643,1.643,0,0,0,.738-.156,1.737,1.737,0,0,0,.617-.525,2.187,2.187,0,0,0,.354-.787l.158.147a.843.843,0,0,1,.188.376,1.28,1.28,0,0,1,.04.31l-.026.484.015.034h.038l.455-.124a3.2,3.2,0,0,0,.941-.4,1.84,1.84,0,0,0,.715-.841,2.478,2.478,0,0,0,.167-.916,2.85,2.85,0,0,0-.16-.94,2.014,2.014,0,0,0-.106-.243,1.607,1.607,0,0,0-.644-.724,1.223,1.223,0,0,0-.278-.115,3.5,3.5,0,0,0-.63-.083l-.062.023v.038a.691.691,0,0,1,.04.324,1.08,1.08,0,0,1-.348.841.858.858,0,0,1-.491.139,1.029,1.029,0,0,1-.681-.254.6.6,0,0,1-.16-.247,1.178,1.178,0,0,1-.07-.4,1.28,1.28,0,0,1,.149-.608,1.317,1.317,0,0,1,.493-.517,2.232,2.232,0,0,1,1.165-.3,2.561,2.561,0,0,1,1.387.406,2.516,2.516,0,0,1,1,1.317,3.06,3.06,0,0,1-.011,2.07,2.24,2.24,0,0,1-.288.564,3.453,3.453,0,0,1-.529.54l-.015.011-.107.085-.011.056.024.015.117.077.049.036a1.667,1.667,0,0,0,.267.132,1.456,1.456,0,0,0,.376.1h0l-.207.158a5.013,5.013,0,0,1-1.281.644,6.408,6.408,0,0,1-2.081.341H230.2a9.833,9.833,0,0,1-2.74-.548m1.3,1.756a1.351,1.351,0,0,1-.262.621,1.259,1.259,0,0,1-.64.416l-.166.041c0-.049.017-.124.03-.239V513.7c.017-.137.034-.271.045-.4a2.913,2.913,0,0,0-.169-1.624l-.041-.077q.576.179,1.1.294l.011.085c.036.188.083.389.135.589-.009.094-.026.2-.045.327m-4.283-4.484a1.357,1.357,0,0,0,.47-.5.924.924,0,0,1,.3.587,3.722,3.722,0,0,1-.892.134,2.745,2.745,0,0,1-.367-.028,1.521,1.521,0,0,0,.491-.188m8.844,5.788a5.1,5.1,0,0,0,1.093.2.818.818,0,0,1-.277.4.982.982,0,0,1-.587.2h-.171a7.751,7.751,0,0,0-.393-.909,3.275,3.275,0,0,0,.335.126m-14.015-5.7a.467.467,0,0,1,.612-.216.433.433,0,0,1,.231.583.474.474,0,0,1-.612.218.437.437,0,0,1-.231-.585m2.584.47a2.734,2.734,0,0,1-1.01,1.368,2.394,2.394,0,0,1-.39.224,3.641,3.641,0,0,1-2.766.171l-.188-.055a1.109,1.109,0,0,1-.779-.482.472.472,0,0,1-.023-.327l.164.019a2.767,2.767,0,0,0,1.417-.422,1.264,1.264,0,0,1,.269-.141.642.642,0,0,1,.42.034l.2.083a1.237,1.237,0,0,0,.29.09,1.165,1.165,0,0,0,.79-.088.753.753,0,0,0,.35-.491.963.963,0,0,0-.724-1.234.9.9,0,0,0-.446.055,3.736,3.736,0,0,0-.4.188.487.487,0,0,1-.28.09,1.317,1.317,0,0,1-.531-.241,6.432,6.432,0,0,1-.975-1.022,2.668,2.668,0,0,1,2.222-1.206,2.523,2.523,0,0,1,2.535,2.508,2.342,2.342,0,0,1-.158.847m-3.931,2.375.1.04c.081.026.16.047.241.068a2.8,2.8,0,0,0,.884.064,3.466,3.466,0,0,0,.5-.073,1.558,1.558,0,0,0,.356-.122c.137-.062.271-.141.271-.141l.034.211a2.109,2.109,0,0,1-1.059.365,1.673,1.673,0,0,1-1.317-.41m4.2,1.146v.026l.011.068h0a.4.4,0,0,0-.4.408l.009.053a.4.4,0,0,0-.363.339v.092a.4.4,0,0,0-.425.339v.083h-.013a.4.4,0,0,0-.376.284h-.038a.4.4,0,0,0-.341.188l-.092.158-.092-.013a.388.388,0,0,0-.393.376l-.446.241-.461-.258a.391.391,0,0,0-.393-.359l-.085.011a.4.4,0,0,0-.376-.279l-.07.009h0l-.013-.07a.4.4,0,0,0-.386-.284h-.011v-.083a.4.4,0,0,0-.427-.339v-.092a.4.4,0,0,0-.363-.339V513a.4.4,0,0,0-.388-.4h0l.013-.068V512.5a10.439,10.439,0,0,0,1.376-.595l.115-.092a2.61,2.61,0,0,0,1.366.463h.017a2.593,2.593,0,0,0,1.575-.454l.107.083a10.505,10.505,0,0,0,1.372.595m1.773,2.811a18.793,18.793,0,0,0-.512,3.984,9.7,9.7,0,0,0,.111,1.434,16.972,16.972,0,0,0,.738,3.137,9.256,9.256,0,0,0,.668,1.466s.16.282.292.495c.087.151.1.288-.066.339l-.188.036c-.273.045-.6.09-.952.137a16,16,0,0,0-2.012.429c-.4.1-.724.188-1.112.31a7.651,7.651,0,0,0-1.221.51l-.3.169a.258.258,0,0,1-.376,0l-.294-.169a7.762,7.762,0,0,0-1.223-.51c-.388-.124-.711-.209-1.112-.31a15.985,15.985,0,0,0-2.012-.429c-.356-.047-.679-.092-.952-.137l-.188-.036c-.164-.051-.152-.188-.064-.339.13-.213.29-.495.29-.495a9.091,9.091,0,0,0,.668-1.466,16.957,16.957,0,0,0,.739-3.137,9.7,9.7,0,0,0,.109-1.434,18.915,18.915,0,0,0-.512-3.984h0l-.028-.113-.019-.085c-.079-.331-.081-.444.324-.341l.07.017a20.911,20.911,0,0,0,3.453.587l.63.346h0l.3.167.3-.167h0l.12-.068.512-.279h0a20.627,20.627,0,0,0,3.451-.585l.07-.017c.4-.1.4.009.326.341l-.021.085-.028.113ZM222.8,514.12c.587-.154,1.383-.329,1.867-.514.542-.188.621-.092.491.376-.04.124-.207.717-.247.854a16.69,16.69,0,0,0-.711,4.431,8.444,8.444,0,0,0,.1,1.332,15.819,15.819,0,0,0,.7,2.994,9.742,9.742,0,0,0,1.193,2.258,1.411,1.411,0,0,1,.282.565l-.024.12-.087.109a1.789,1.789,0,0,1-.495.188,12.1,12.1,0,0,1-1.733.314,14.891,14.891,0,0,0-1.944.376c-.4.105-.709.188-1.065.3a5.913,5.913,0,0,0-1.554.736,2.8,2.8,0,0,0-.245.188h0l-.151.085-.154-.085h0c-.077-.064-.158-.126-.245-.188a5.9,5.9,0,0,0-1.556-.736c-.354-.113-.66-.188-1.065-.3a14.8,14.8,0,0,0-1.942-.376,12.061,12.061,0,0,1-1.731-.314,1.718,1.718,0,0,1-.495-.188l-.088-.109-.024-.12a1.438,1.438,0,0,1,.282-.565,9.742,9.742,0,0,0,1.193-2.258,15.818,15.818,0,0,0,.7-2.994,8.444,8.444,0,0,0,.1-1.332,16.816,16.816,0,0,0-.708-4.439c-.04-.137-.207-.73-.248-.854-.126-.469-.047-.565.493-.376.484.188,1.28.359,1.867.514.469.119.96.226,1.462.31a.406.406,0,0,0,.376.252h.045l.051.164a21.233,21.233,0,0,1-2.437-.446c-.67-.188-1.1-.342-1.234-.376s-.216.019-.156.188c.117.337.128.376.248.807a18.72,18.72,0,0,1,.591,4.271,8.774,8.774,0,0,1-.1,1.368,16.686,16.686,0,0,1-.721,3.065,9.117,9.117,0,0,1-.873,1.791l-.237.367c-.1.156-.263.467.072.606l.188.049c.188.04.363.075.517.105.278.047.6.09.95.137a15.6,15.6,0,0,1,1.957.418c.4.105.715.188,1.082.307a6.626,6.626,0,0,1,1.377.6c.12.073.233.151.341.224l.13.043h0l.128-.043c.107-.073.22-.151.342-.224a6.632,6.632,0,0,1,1.374-.6c.376-.122.681-.2,1.086-.307a15.574,15.574,0,0,1,1.955-.418c.348-.047.672-.09.95-.137.154-.03.341-.066.517-.105l.188-.049c.333-.139.169-.45.07-.606l-.237-.367a9.008,9.008,0,0,1-.871-1.791,16.534,16.534,0,0,1-.717-3.056,8.554,8.554,0,0,1-.1-1.368,18.72,18.72,0,0,1,.591-4.271c.122-.431.132-.47.248-.807.06-.175-.017-.237-.156-.188s-.565.2-1.234.376a21.537,21.537,0,0,1-2.482.452l.015-.028.081-.141h.045a.4.4,0,0,0,.376-.252c.5-.085,1-.188,1.462-.31m-4.981-5.974.256.245-.073.137-.019.041a1.452,1.452,0,0,0-.107.4l-.35-.024a2.774,2.774,0,0,1,.294-.794m-.617.771-.3-.021a2.984,2.984,0,0,1,.412-1.236l.269.258a2.975,2.975,0,0,0-.376,1m-.625-.043-.314-.024a4.856,4.856,0,0,1,.376-1.317,3.737,3.737,0,0,1,.188-.329l.247.239a3.2,3.2,0,0,0-.5,1.439m-.952-1.231a4.614,4.614,0,0,0-1.505-.376h-.166a1.729,1.729,0,0,0-1.069.329,1.242,1.242,0,0,0-.482,1v.152a1.016,1.016,0,0,0,.2.521,1.1,1.1,0,0,0,.542.361l-.023.019a.94.94,0,0,1-.29.166,1.493,1.493,0,0,1-.692.013.99.99,0,0,1-.429-.214.941.941,0,0,1-.294-.4,1.605,1.605,0,0,1,.041-.862l.032-.145-.026-.045h-.026l-.117.03-.137.038a2.58,2.58,0,0,0-.271.094,1.459,1.459,0,0,0-.476.339,2.1,2.1,0,0,0-.487.83l-.015-.2a3.024,3.024,0,0,1,.2-.99l-.011-.045h-.045a2.311,2.311,0,0,0-1.112.96,1.857,1.857,0,0,0-.218.877,3.333,3.333,0,0,0,.03.376l-.1-.077a1.129,1.129,0,0,1-.3-1.37,1.814,1.814,0,0,1,.346-.549.692.692,0,0,1,.273-.188l.028-.036-.023-.04a1,1,0,0,0-.866.122,1.708,1.708,0,0,0-.5.523,2.094,2.094,0,0,0-.265.47l-.06.145a3.888,3.888,0,0,0-.418,1.6v.143a2.463,2.463,0,0,0,.376,1.18l.128.188a1.427,1.427,0,0,1-.478-.164.926.926,0,0,1-.346-.318,4.016,4.016,0,0,1-.358-.789c-.156-.47-.431-.525-.442-.529l-.034.011-.015.032.011.335-.009.171a3.4,3.4,0,0,1-.023.358,1.267,1.267,0,0,1-.062.29l-.06.156c-.034.064-.07.137-.107.218a1.8,1.8,0,0,1-.659.7,2.446,2.446,0,0,1-.95.286h-.047a.443.443,0,0,0,.034-.13,4.317,4.317,0,0,0,.041-.51v-.072a3.907,3.907,0,0,1,.049-.585,1.524,1.524,0,0,1,.188-.489l.053-.1a1.933,1.933,0,0,1,.122-.2.965.965,0,0,0,.188-.642l-.017-.028h-.032l-.583.134a3.059,3.059,0,0,1-.777.115h0a1.244,1.244,0,0,1-.655-.188,1.109,1.109,0,0,1-.446-.623l-.019-.119a1.437,1.437,0,0,0,.589.286,3.427,3.427,0,0,0,.8.085,4.611,4.611,0,0,0,2.015-.536,12.278,12.278,0,0,0,2.117-1.468l.525-.414a8.922,8.922,0,0,1,2.151-1.187,5.645,5.645,0,0,1,2.107-.423,7.545,7.545,0,0,1,2.465.423,13.45,13.45,0,0,1,1.505.617,5.141,5.141,0,0,0-.188.565c-.149-.079-.3-.154-.452-.218m-9.068,6.443a1.467,1.467,0,0,0,.495.171l.1.013c.1.021.188.036.267.058l.075.026a.67.67,0,0,0-.555.476.707.707,0,0,0,.263.811c.019.011.07.034.145.07l.072.032a.982.982,0,0,0,.075.279,1.112,1.112,0,0,0,.453.5,1.86,1.86,0,0,0,.634.215,2.03,2.03,0,0,0,1.191-.1,1.059,1.059,0,0,0,.533-.547,1.089,1.089,0,0,0,.068-.418,1.269,1.269,0,0,0-.045-.309v-.028l-.041-.019-.333.055h-.137a.407.407,0,0,1-.211-.045.357.357,0,0,1-.16-.188.786.786,0,0,1-.064-.318v-.075a.694.694,0,0,1,.237-.408.941.941,0,0,1,.634-.235h.015a.9.9,0,0,1,.672.333,1.317,1.317,0,0,1,.314.83v.024a1.255,1.255,0,0,1-.124.51,2.056,2.056,0,0,1-.7.805,2.394,2.394,0,0,1-1.3.393h-.1a4.05,4.05,0,0,1-1.724-.376,3.4,3.4,0,0,1-.459-.258l-.111-.079-.024-.021h-.009a2.95,2.95,0,0,1-.928-1.167,2.547,2.547,0,0,1-.179-.617,2.635,2.635,0,0,1,.045-1.018,3.952,3.952,0,0,1,.593-1.246l.117.188a1.4,1.4,0,0,0-.258.444h0a.73.73,0,0,0-.056.3,1.129,1.129,0,0,0,.228.647,1.064,1.064,0,0,0,.318.3m2.58,4.431a12.681,12.681,0,0,1,.764,1.289,6.179,6.179,0,0,1,.425,1.172,3.912,3.912,0,0,1,.122.879,4.774,4.774,0,0,1-.151,1.069,3.276,3.276,0,0,1-.205.608,1.385,1.385,0,0,1-.3.418,2.294,2.294,0,0,1-.787.519,3.033,3.033,0,0,1-1,.22h-.188a3.089,3.089,0,0,1-.913-.119,2.079,2.079,0,0,1-.753-.44,2.464,2.464,0,0,1-.277-.3,1.3,1.3,0,0,1,.083-1.833l.247-.151a.682.682,0,0,1,.271-.053.94.94,0,0,1,.621.239.5.5,0,0,1,.151.286l.013.188v.09l-.179-.12-.149-.028a.429.429,0,0,0-.327.141.657.657,0,0,0-.088.482,1.238,1.238,0,0,0,.188.5,1.042,1.042,0,0,0,.339.326,1.13,1.13,0,0,0,.506.16c.077,0,.154.011.23.011a1.631,1.631,0,0,0,.851-.214,1.079,1.079,0,0,0,.431-.457.67.67,0,0,0,.077-.292l-.041-.188-.13-.16.113-.085.015-.013a2.818,2.818,0,0,0,.32-.267.615.615,0,0,0,.188-.44.6.6,0,0,0-.111-.35.614.614,0,0,0-.329-.235l-.188-.026a.824.824,0,0,0-.363.092,1.129,1.129,0,0,1,.062-.376l.064-.167a1.727,1.727,0,0,0,.147-.564,1.506,1.506,0,0,0-.124-.565l-.1-.156-.024-.017-.047.03a.845.845,0,0,1-.239.376,1.219,1.219,0,0,1-.3.22,3.752,3.752,0,0,0,.3-1.436v-.126a2.849,2.849,0,0,0-.265-1.129,1.905,1.905,0,0,0-.145-.241,3.821,3.821,0,0,0,.388.077l.151.188c.1.147.376.531.664.973m-2.886-1.678a1.363,1.363,0,0,0-.467.354,2.461,2.461,0,0,0-.469.862v.024a1.673,1.673,0,0,0-.019.883l.021.028h.036l.333-.147a.94.94,0,0,1,.312-.064.973.973,0,0,1,.346.049.433.433,0,0,1,.284.263.6.6,0,0,1-.1.521.565.565,0,0,1-.482.237,1.1,1.1,0,0,1-.709-.284,1.524,1.524,0,0,1-.542-1.127,1.656,1.656,0,0,1,.1-.64,3.009,3.009,0,0,1,.452-.728l.026-.032a3.961,3.961,0,0,1,.781-.694,2.948,2.948,0,0,0,.243.213,1.981,1.981,0,0,0,.22.16,1.477,1.477,0,0,0-.376.122m28.475,5.34a1.3,1.3,0,0,0-1.114-.147,1.144,1.144,0,0,0-.683.719.721.721,0,0,0,.164.655c-.23.013-.907-.039-1.1-.992a4.314,4.314,0,0,1,.173-2.034,4.061,4.061,0,0,0,.867-.832,3.468,3.468,0,0,0,.715-2.085,7.017,7.017,0,0,0-.26-2.07h.038a1.421,1.421,0,0,0,.841-.284,1.441,1.441,0,0,0,.508-1.138l-.021-.036h-.04a.872.872,0,0,1-.4.072,2.761,2.761,0,0,1-1-.222,2.957,2.957,0,0,1-1.21-.928c-.151-.224-.3-.45-.416-.632-.058-.094-.111-.188-.158-.267a6.006,6.006,0,0,0,2.322-.941,2.99,2.99,0,0,0,.858-.856v-.043l-.04-.015a4.141,4.141,0,0,1-.5.034,1.639,1.639,0,0,1-.512-.064l.011-.011a2.34,2.34,0,0,0,.205-.23,2.823,2.823,0,0,0,.482-.9,3.387,3.387,0,0,0,.156-1.317,3.573,3.573,0,0,0-.188-.905,2.892,2.892,0,0,0-2.783-2.006,2.688,2.688,0,0,0-1.387.367,1.72,1.72,0,0,0-.834,1.317,1.327,1.327,0,0,0,.361,1.116,1.457,1.457,0,0,0,.963.359,1.112,1.112,0,0,0,1.161-.869l.056-.277a.846.846,0,0,0,.019-.105h0l.047-.017a.888.888,0,0,1,.429.188,2.056,2.056,0,0,1,.41,2.17,1.867,1.867,0,0,1-1.328.986,1.485,1.485,0,0,0-.329-.941,1.936,1.936,0,0,0-.753-.5h-.034l-.019.03a2.492,2.492,0,0,1-.358,1.129,1.184,1.184,0,0,1-1.027.517h-.222a1.118,1.118,0,0,0,.228-.98c-.171-.457-.367-.548-.376-.551l-.049.015a1.81,1.81,0,0,1-.623.634,1.08,1.08,0,0,1-.5.105,1.738,1.738,0,0,1-.435-.058,1.41,1.41,0,0,1,.474-.581,1.211,1.211,0,0,1,.35-.154l.038-.034-.026-.041a3.077,3.077,0,0,0-1.3-.248,4.259,4.259,0,0,0-.617.047c-.122.017-.235.04-.341.062a1.126,1.126,0,0,0-.915-1.016l-.041.034a1.112,1.112,0,0,1-.444.649,1.282,1.282,0,0,1-.683.169,3.054,3.054,0,0,1-1.1-.246,5.54,5.54,0,0,0-.064-.771c-.055-.435-.062-.775.414-.862h.066a.418.418,0,0,1,.239.073h0a.628.628,0,0,0,.312.081h.073a.6.6,0,0,0,.529-.653.606.606,0,0,0-1.182-.083h0a.419.419,0,0,1-.175.256.486.486,0,0,1-.487.04.4.4,0,0,1-.2-.31.564.564,0,0,1,.333-.506.422.422,0,0,1,.224-.062h.173a.651.651,0,0,0,.294-.073.585.585,0,0,0,.284-.354.565.565,0,0,0-.051-.446.612.612,0,0,0-.529-.3.627.627,0,0,0-.292.073.583.583,0,0,0-.3.593h0a.416.416,0,0,1-.062.3.534.534,0,0,1-.4.256h-.058a.309.309,0,0,1-.294-.173.6.6,0,0,1,.062-.583.439.439,0,0,1,.269-.158h0a.6.6,0,0,0,.333-.2.576.576,0,0,0-.075-.828.606.606,0,0,0-.376-.135.619.619,0,0,0-.467.209.589.589,0,0,0-.135.431.625.625,0,0,0,.072.233.408.408,0,0,1,.055.3.523.523,0,0,1-.452.414.356.356,0,0,1-.275-.139.533.533,0,0,1-.113-.5.41.41,0,0,1,.188-.246v-.011a.564.564,0,0,0,.22-.3.583.583,0,0,0-.4-.732l-.173-.026a.606.606,0,0,0-.578.42.58.58,0,0,0,.205.63h0a.433.433,0,0,1,.169.258.5.5,0,0,1-.066.4.333.333,0,0,1-.275.169.536.536,0,0,1-.457-.425.4.4,0,0,1,.051-.3h0a.564.564,0,0,0,.066-.376.6.6,0,0,0-.593-.491h-.1a.587.587,0,0,0,0,1.161.444.444,0,0,1,.248.152.6.6,0,0,1,.105.47.842.842,0,0,1-.482.564,4.83,4.83,0,0,0-.642.4,4.013,4.013,0,0,0-.647.619c-.049-.085-.09-.162-.109-.188l-.015-.017-.021.013a3.041,3.041,0,0,0-.461.66c-1.944-.916-4.155-1.535-6.437-.612a9.565,9.565,0,0,0-2.012,1.067c-.3.214-.587.446-.869.672s-.564.446-.847.655a7.721,7.721,0,0,1-1.082.664,3.641,3.641,0,0,1-2.5.416,1.312,1.312,0,0,1-.854-.9l-.034-.026-.038.017a1.492,1.492,0,0,0-.139,1.261c.333.911,1.1,1.246,2.29.99l-.124.209a2.337,2.337,0,0,0-.3,1.266,3.064,3.064,0,0,1-.062.565,1.05,1.05,0,0,1-.188.495l-.053.053-.021.034.036.041h.09a4.219,4.219,0,0,0,.5-.045l.152-.019a2.872,2.872,0,0,0,1.116-.342l.158-.1-.019.094a2.713,2.713,0,0,0-.066.51,1.994,1.994,0,0,0,.038.625,3.041,3.041,0,0,0,.723,1.532,3.469,3.469,0,0,0-1.357,1.592,1.927,1.927,0,0,0,.529,2.217,1.434,1.434,0,0,0,.969.388,1.054,1.054,0,0,0,.83-.35,1.009,1.009,0,0,0,.224-.794.86.86,0,0,0-.4-.591,1.165,1.165,0,0,0-.634-.162,2.011,2.011,0,0,0-.359.034,1.549,1.549,0,0,1,.421-.928,1.007,1.007,0,0,1,.867-.344c.809.134.941,1.129.956,1.554a3.67,3.67,0,0,1-.344,1.571.955.955,0,0,1-.29.356v.049a.531.531,0,0,0,.438.188l.16-.021a.718.718,0,0,0,.335-.188l.228-.188a3.357,3.357,0,0,1-.151.446,1.871,1.871,0,0,0-.045,1.086l.041.03a.964.964,0,0,0,.282-.066l.139-.07a.438.438,0,0,1,.329-.087l.135.139-.058.2a3.062,3.062,0,0,1-.312.265,2.369,2.369,0,0,0-.245.2.7.7,0,0,0-.188.521l.026.034h.043l.13-.068.124.047-.019.132a.942.942,0,0,1-.907.438h-.188a.818.818,0,0,1-.352-.107.672.672,0,0,1-.188-.188c-.06-.1-.152-.335-.1-.433l.075-.045a.17.17,0,0,1,.141.1.553.553,0,0,1,.055.188l.049.06h.011c.376-.1.455-.619.376-.958a1.114,1.114,0,0,0-1.1-.873,1.353,1.353,0,0,0-1.159.612,1.464,1.464,0,0,0-.228,1.359,2.358,2.358,0,0,0,.683,1.067,3.139,3.139,0,0,0,2.04.643h.13a3.1,3.1,0,0,0,2.07-.837,3.876,3.876,0,0,0,.773-2.38,5.528,5.528,0,0,0-.589-2.226,20.346,20.346,0,0,0-1.4-2.232h.235a2.7,2.7,0,0,0,1.932-.8,2,2,0,0,0,.606-1.357,1.529,1.529,0,0,0-1.4-1.558h-.026a1.265,1.265,0,0,0-1.291,1.014,1.1,1.1,0,0,0,.248.837.839.839,0,0,0,.753.233c-.019.145-.141.583-.9.583a2.517,2.517,0,0,1-.41-.036c-.613-.1-.881-.4-.819-.913v-.034l-.034-.011h-.013a.6.6,0,0,1-.4-.124l-.034-.188c.047-.215.151-.322.312-.322a.82.82,0,0,1,.4.158h.038l.026-.028a.772.772,0,0,0-.583-.941,2.271,2.271,0,0,0-.316-.068.841.841,0,0,1-.64-.314.575.575,0,0,1-.132-.544v-.021a2.151,2.151,0,0,1,.135-.31l.147.1a2.281,2.281,0,0,0,1.6.171l.034-.034-.017-.04a2.1,2.1,0,0,1-1.01-1.68,3.45,3.45,0,0,1,.376-1.558c.06-.134.128-.278.2-.427a2.086,2.086,0,0,0-.028.64,1.7,1.7,0,0,0,1.447,1.272l.04-.013v-.038a2.324,2.324,0,0,1-.188-1.295,1.607,1.607,0,0,1,.354-.685l-.011.188a1.624,1.624,0,0,0,.077.565,2.1,2.1,0,0,0,.66.869h.047l.017-.043a1.735,1.735,0,0,1,.617-1.914,1.927,1.927,0,0,0,.058.591,1.46,1.46,0,0,0,1.05.886,1.558,1.558,0,0,0,1.332-.275,1.829,1.829,0,0,0,.485-.613v-.038l-.036-.017a1.3,1.3,0,0,1-.807-.171.565.565,0,0,1-.215-.408.858.858,0,0,1,.235-.726,1.317,1.317,0,0,1,1.022-.309,4.405,4.405,0,0,1,1.882.6,6.168,6.168,0,0,0-.117.681c-.019.188-.032.275-.041.412a.564.564,0,0,0,.023.284c.045.081.162.09.241.107s.171.032.243.049a.837.837,0,0,0,.049.546,1.465,1.465,0,0,0,1.048.711h.038a.273.273,0,0,1,.055.171h0v.068h0l-.021.077v.021l-.111.156a10.468,10.468,0,0,1-1.37.585l-.166-.041h-.013a.4.4,0,0,0-.4.376.376.376,0,0,0,.107.28.4.4,0,0,0,.28.124h0l-.009.066a.376.376,0,0,0,.107.282.4.4,0,0,0,.231.117l.023.028v.094a.4.4,0,0,0,.376.339l.051.056v.023c-.309-.064-.613-.134-.905-.211a19.348,19.348,0,0,1-1.91-.529c-.691-.247-1.118-.453-1.253-.506s-.231,0-.171.188l.273.832c.2.638.3.924.307.941.055.188.107.365.162.565a16.162,16.162,0,0,1,.625,4.091,8.208,8.208,0,0,1-.092,1.266,15.938,15.938,0,0,1-.679,2.915,9.865,9.865,0,0,1-1.15,2.158c-.463.693-.632.8-.632,1.043a.376.376,0,0,0,.075.237.586.586,0,0,0,.376.188c.4.117.869.2,1.28.278.376.073.8.134,1.278.188a14.766,14.766,0,0,1,1.882.376c.406.107.7.207,1.039.316a4.479,4.479,0,0,1,1.936,1.129l.16.068h0l.158-.068a4.5,4.5,0,0,1,1.936-1.129c.339-.109.632-.209,1.039-.316a14.854,14.854,0,0,1,1.882-.376c.476-.064.907-.124,1.278-.188.41-.081.877-.162,1.28-.278a.7.7,0,0,0,.376-.188.376.376,0,0,0,.073-.237c0-.241-.167-.35-.632-1.043a9.7,9.7,0,0,1-1.146-2.156,15.78,15.78,0,0,1-.679-2.915,7.98,7.98,0,0,1-.092-1.266,16.081,16.081,0,0,1,.623-4.091c.055-.188.109-.376.16-.564.011-.025.105-.31.309-.941l.273-.832c.06-.175-.036-.233-.169-.188s-.564.26-1.255.506a19.223,19.223,0,0,1-1.91.529c-.29.077-.6.147-.905.211v-.023l.051-.056a.4.4,0,0,0,.376-.339v-.094l.023-.028a.411.411,0,0,0,.233-.117.376.376,0,0,0,.105-.282v-.066h0a.406.406,0,0,0,.28-.124.376.376,0,0,0,.107-.28.4.4,0,0,0-.4-.376h-.013l-.164.041a9.476,9.476,0,0,1-1.372-.585l-.051-.055-.023-.032-.053-.117a1.467,1.467,0,0,1-.019-.286.636.636,0,0,1,.036-.216l.282-.252a3.127,3.127,0,0,0,1-1.272c.245.105,1.317.578,2.565,1.155.636.29,1.234.544,1.8.753a1.327,1.327,0,0,1,.837,1.306,8.748,8.748,0,0,1-.2,1.814v.034l.032.017h.072a1.871,1.871,0,0,0,1.769-1.044h0a5.676,5.676,0,0,0,.977,1.923l.028.015a1.366,1.366,0,0,0,.542-.484,2.273,2.273,0,0,0,.29-.687l.216.188a1.3,1.3,0,0,1,.324.728,2.069,2.069,0,0,1-.344,1.592,4.533,4.533,0,0,1-.472.4l-.023.053a.862.862,0,0,0,.252.25,1.209,1.209,0,0,0,.63.16h.164a2.8,2.8,0,0,1-.376.376,3.9,3.9,0,0,1-.828.5l-.023.03.013.036a1.606,1.606,0,0,0,.79.376,1.246,1.246,0,0,0,.565-.039.941.941,0,0,1-.258.414,2.258,2.258,0,0,1-1.573.595,2.171,2.171,0,0,1-.437-.043,1.317,1.317,0,0,1-.826-.474.708.708,0,0,1-.134-.4.651.651,0,0,1,.128-.376h.137l.047.135a.707.707,0,0,1-.056.188l-.011.055.026.023.1.015a.831.831,0,0,0,.51-.216,1.059,1.059,0,0,0,.235-1.14,1.159,1.159,0,0,0-.952-.785h-.175a1.624,1.624,0,0,0-1.569,1.161,2.333,2.333,0,0,0,.2,1.75,3.128,3.128,0,0,0,1.541,1.287,2.945,2.945,0,0,0,1.042.175,2.792,2.792,0,0,0,.352-.015c-.222,1.172-1.833,1.812-1.848,1.82l-.028.032.023.04a2.147,2.147,0,0,0,.994.273,1.3,1.3,0,0,0,.527-.1l-.062.22a3.939,3.939,0,0,0,.109,1.475l.009.049c.124.77-.179.965-.188.965l-.017.051.049.023a1.468,1.468,0,0,0,.826-.495,1.208,1.208,0,0,1,.322,1.042,1.759,1.759,0,0,1-.109.3.779.779,0,0,1-.542.416l-.2.023a.448.448,0,0,1-.47-.3l-.03-.275v-.013l-.041-.041a1.3,1.3,0,0,0-.508.12,1.112,1.112,0,0,0-.581.694,1.231,1.231,0,0,0,.126,1,1.66,1.66,0,0,0,1.447.713,2.156,2.156,0,0,0,.22-.009,2.224,2.224,0,0,0,1.18-.506,3.365,3.365,0,0,0,.894-2.9,5.109,5.109,0,0,0-.271-1.17,2.051,2.051,0,0,0,.258.141,2.686,2.686,0,0,0,1.025.188,2.821,2.821,0,0,0,.941-.154,1.752,1.752,0,0,0,.941-.815,1.41,1.41,0,0,0-.376-1.748" transform="translate(-182.949 -502.87)"/>
    <path id="Path_138" data-name="Path 138" d="M286,577.016c0-.427-.179-.773-.4-.773v-.44h1.56v.438c-.22,0-.4.346-.4.773v4.7h0a1.958,1.958,0,1,1-3.914,0v-4.7c0-.427-.188-.773-.4-.773v-.44h1.8v.44c-.222,0-.4.346-.4.773v4.8A1.112,1.112,0,0,0,284.9,583a.986.986,0,0,0,1.1-1.063v-.66Z" transform="translate(-248.638 -562.142)" fill="#fff"/>
    <path id="Path_139" data-name="Path 139" d="M281.754,591.13a2.441,2.441,0,0,1-2.612,2.087,4.917,4.917,0,0,1-2.747-.625v-3.259h3.566a1.658,1.658,0,0,1,1.793,1.8m-5.359-2.725v-1.7h4.3a.918.918,0,1,1,0,1.836h-4.3Zm5.15.506h0a1.565,1.565,0,0,0,.819-1.353,1.665,1.665,0,0,0-1.731-1.588h-5.412a1.285,1.285,0,0,1,.28.694v5.114a1.442,1.442,0,0,1-.083.467,1.288,1.288,0,0,1-.188.318l-.141.132-.049.032a6.633,6.633,0,0,0,4.106,1.129c2.036,0,3.558-1.234,3.652-2.721a2.205,2.205,0,0,0-1.261-2.219" transform="translate(-242.623 -570.398)" fill="#fff"/>
    <path id="Path_140" data-name="Path 140" d="M511.124,693.777h.376c.433,0,.773-.137.773-.474,0-.3-.224-.493-.715-.493a2.232,2.232,0,0,0-.425.036Zm-.019,1.842h-.764v-3.248a7.023,7.023,0,0,1,1.276-.1,2.149,2.149,0,0,1,1.159.237.909.909,0,0,1,.32.713.84.84,0,0,1-.693.753v.039a.944.944,0,0,1,.61.792,2.511,2.511,0,0,0,.245.811h-.83a2.623,2.623,0,0,1-.265-.792c-.06-.356-.265-.512-.692-.512h-.365Zm-2.275-1.7a2.7,2.7,0,0,0,2.823,2.674,2.666,2.666,0,0,0,2.764-2.651,2.795,2.795,0,0,0-5.585-.023m6.21,0a3.426,3.426,0,1,1-3.413-3.246,3.307,3.307,0,0,1,3.413,3.246" transform="translate(-431.909 -655.397)"/>
  </g>
</svg>
