<svg xmlns="http://www.w3.org/2000/svg" xmlns:xlink="http://www.w3.org/1999/xlink" viewBox="0 0 359.09 144.59"><defs><style>.cls-1{fill:none;}.cls-2{clip-path:url(#clip-path);}.cls-3{fill:#fff;}.cls-4{fill:#d81a23;}</style><clipPath id="clip-path" transform="translate(0 0)"><rect class="cls-1" width="359.09" height="144.59"/></clipPath></defs><title>Datový zdroj 8</title><g id="Vrstva_2" data-name="Vrstva 2"><g id="box_pikto"><g class="cls-2"><path class="cls-3" d="M317,33c6.57,0,13.14,0,19.72,0,3.89,0,6.13-1.72,6.35-5.07a77,77,0,0,0,0-8.46,3.73,3.73,0,0,0-3.19-3.8,25.35,25.35,0,0,0-4.82-.62Q317,15,298.9,15a22.83,22.83,0,0,0-4.2.42c-2.42.47-3.63,1.76-3.75,4.23a69.07,69.07,0,0,0,0,8.14c.23,3.09,1.61,4.44,4.66,5a14.26,14.26,0,0,0,2.26.19q9.54,0,19.07,0m.13,12.72c-6.8,0-13.59,0-20.38,0-4.35,0-6.26,1.6-6.67,5.89a57,57,0,0,0-.06,8.47c.13,2.41,1.28,3.63,3.68,4.1a26.36,26.36,0,0,0,5,.51q18.42.06,36.84,0a23,23,0,0,0,4.53-.44c2.91-.58,4-1.87,4.05-4.84.07-2.28.07-4.57,0-6.85-.16-4.9-2.2-6.84-7.11-6.85q-9.94,0-19.89,0m42,19.92a4.21,4.21,0,0,0-.27.75c-1.2,7-4.76,10.82-11.71,12.24a46.62,46.62,0,0,1-9,1c-14.08.1-28.16.16-42.24,0a45.25,45.25,0,0,1-11.2-1.69,12.17,12.17,0,0,1-9.28-10.67,60.45,60.45,0,0,1,.23-19.31,11.29,11.29,0,0,1,4.65-7.74,1.69,1.69,0,0,0,.17-2.91c-3.86-3.07-4.6-7.29-4.57-11.83,0-2.88,0-5.77,0-8.65C276,7.49,280.82,2,290,.71a67.38,67.38,0,0,1,8.75-.64c12.83-.07,25.66-.14,38.49,0a43.85,43.85,0,0,1,10.41,1.57,12.8,12.8,0,0,1,9.93,10.9,59.1,59.1,0,0,1,.06,18,10.38,10.38,0,0,1-3.79,6.47c-1.27,1.09-1.31,2.25-.08,3.14,3.21,2.32,4.41,5.65,5,9.35a10.77,10.77,0,0,0,.31,1.07Z" transform="translate(0 0)"/><path class="cls-3" d="M335.69,135.47v0c3.15,0,6.3.11,9.44,0s4.72-1.63,4.79-4.95q.15-7.82,0-15.64c-.06-3.37-1.68-5.07-5-5.14q-9.19-.19-18.41,0c-3.08.07-4.68,1.43-4.77,4.26-.18,5.8-.17,11.62,0,17.43.08,2.68,1.51,3.9,4.21,4,3.25.14,6.51,0,9.77,0m23.4-2.63a10.22,10.22,0,0,0-.31,1.08c-.89,5.69-3.86,8.65-9.62,9.33a65.47,65.47,0,0,1-7.15.38c-5.16.05-10.32.07-15.48,0a29.89,29.89,0,0,1-6-.73c-4.22-1-6.95-3.61-7.52-8a98.66,98.66,0,0,1-.07-24c.62-5.33,3.31-8,8.64-8.69a115.06,115.06,0,0,1,27.94-.08c6,.69,8.3,3.55,9.25,9.47a3.35,3.35,0,0,0,.28.72Z" transform="translate(0 0)"/><path class="cls-3" d="M150.92,144.59a67.74,67.74,0,0,1-5.58-4.35c-8.54-8.21-17-16.51-25.49-24.8a8.5,8.5,0,0,1-1.08-1.81l-.69.54v29.36h-8.46v-37.8c0-1.71-.06-3.49,1.77-4.39a6.37,6.37,0,0,1,6.39.14,10.61,10.61,0,0,1,1.85,1.58q14.1,14,28.19,28.09a2.73,2.73,0,0,1,.33.58l.38-.17V101.64h8.61c0,.57.08,1.14.08,1.72,0,12.18,0,24.36,0,36.54,0,2.4-.74,4-3.08,4.69Z" transform="translate(0 0)"/><path class="cls-3" d="M43.39,36.67c7.45,0,14.9,0,22.35,0,1.93,0,2.64-.58,2.65-2.26,0-3.69.08-7.39-.08-11.08-.21-4.82-1.87-6.86-5.85-7.54a18.66,18.66,0,0,0-3.07-.29q-19.08,0-38.16,0c-3,0-4.89,1.33-5.45,4.15a32.88,32.88,0,0,0,.13,13.58,4,4,0,0,0,3.38,3.15,18.38,18.38,0,0,0,3.23.28c7,0,13.92,0,20.87,0M32.9,81.34H4.52C1.3,81.33.18,80.21.17,77.06c0-2.34,0-4.67,0-7,0-2.64,1.23-3.9,3.86-3.9q26.34,0,52.68-.05a31.7,31.7,0,0,0,5.5-.51,6,6,0,0,0,5.25-4.72,49.72,49.72,0,0,0,.83-8.54c0-.58-1-1.29-1.73-1.76-.33-.24-.95-.08-1.44-.08q-23.23,0-46.48,0c-5.15,0-9.92-1.16-13.61-5.12A17.13,17.13,0,0,1,.67,35.22c-.79-7.52-1.14-15.08.45-22.54C2.82,4.67,8.28.14,16.49.08q22.5-.16,45,0a35.14,35.14,0,0,1,9,1.43c7.31,2,11,7.34,12.2,14.57a59.76,59.76,0,0,1,.73,9.07c.06,11.09.09,22.18-.1,33.27a39.88,39.88,0,0,1-1.41,9.31c-2,7.67-7.39,11.63-15,12.82a64,64,0,0,1-9.07.72c-8.32.1-16.64,0-25,0" transform="translate(0 0)"/><path class="cls-3" d="M181.18,0h37.68c2.75,0,3.87,1.11,3.88,3.82q0,3.75,0,7.5c0,2.89-1.14,4-4.06,4H157.83c-3.05,0-3.32.27-3.32,3.36,0,3.31,0,6.63,0,10,0,2.25.5,2.74,2.79,2.74,15.06,0,30.13,0,45.19,0a37.82,37.82,0,0,1,6.79.66c7.85,1.49,12,5.73,13,13.77a75.57,75.57,0,0,1-.22,21.45c-1.24,7.41-5.7,11.76-13.13,12.91a50.37,50.37,0,0,1-7.46.6q-28.71.08-57.42,0c-2.85,0-3.27-.43-3.27-3.3,0-3.1,0-6.2,0-9.3,0-2.31.46-2.76,2.77-2.77q27.73,0,55.46,0c1.52,0,3-.08,4.55-.23,3.42-.33,5-1.66,5.27-5.07a55.74,55.74,0,0,0-.19-9.58c-.3-3-2.09-4.49-5-4.87a22.78,22.78,0,0,0-3.09-.18H143.89c-2.82,0-3.23-.39-3.23-3.19q0-19.82,0-39.64c0-2.17.54-2.7,2.68-2.7h37.85" transform="translate(0 0)"/><path class="cls-3" d="M268.41,109.43v12.9c4,0,7.92,0,11.82,0,4.62,0,9.23-.07,13.84-.26,2.71-.1,3.88-1.45,4-4.15.05-1.19,0-2.39,0-3.59-.05-3.23-1.14-4.58-4.33-4.65-7.65-.18-15.31-.17-23-.24h-2.37m16,20.29,23,13.73a10.33,10.33,0,0,1-1.21.19c-4.35,0-8.7.05-13,0a4.91,4.91,0,0,1-2.38-.81c-7-4.42-13.91-8.9-20.85-13.36-.45-.29-.91-.54-1.61-1v15.06h-9V101.6c.49,0,1-.07,1.52-.07,10.33,0,20.65,0,31,0a41.93,41.93,0,0,1,6.8.61c5.11.87,7.69,3.48,8.27,8.61a42.72,42.72,0,0,1,.16,8.61c-.5,5.75-3.54,8.89-9.3,9.49-4,.42-8,.37-12,.53-.4,0-.81,0-1.21,0l-.09.31" transform="translate(0 0)"/><path class="cls-3" d="M253.14,118.77v7.49H218.31c.24,2.43.33,4.68.74,6.88a3.08,3.08,0,0,0,2.89,2.28,27.58,27.58,0,0,0,3.74.29q12.8,0,25.61,0h2v7.84c-.54,0-1.07.08-1.59.08-8.92,0-17.84,0-26.76,0a35.15,35.15,0,0,1-6.32-.5c-5.49-1-8.37-3.6-8.73-9.2a168.49,168.49,0,0,1,0-22.47c.43-6.15,4-9.12,10.21-9.57,4.28-.32,8.58-.31,12.87-.35,6.74,0,13.47,0,20.33,0v8h-2c-8.54,0-17.08,0-25.62,0-6.07,0-7.23,1.18-7.23,7.25v2Z" transform="translate(0 0)"/><path class="cls-3" d="M43.94,101.53v7.94H42.15l-28.53.07c-.54,0-1.09,0-1.63,0-2.44.18-3.26,1-3.38,3.46-.24,5,.43,5.69,5.41,5.69,6.09,0,12.17,0,18.26,0a28.68,28.68,0,0,1,4.53.41c3.94.69,6.41,2.87,6.81,6.82a56.31,56.31,0,0,1-.1,10.86c-.28,3-2.34,5-5.2,5.87a14.09,14.09,0,0,1-4.13.82c-11.25.06-22.5,0-33.88,0v-7.87H2.08c9.35,0,18.7,0,28.05,0,5.88,0,5.83-1.48,5.48-6.74-.11-1.77-1.26-2.63-3.31-2.68-3.59-.1-7.18,0-10.76-.09-4.19,0-8.38,0-12.55-.22-5.64-.34-8.06-2.59-8.62-8.21A34.19,34.19,0,0,1,.66,109c.85-5.11,4.16-7.43,10.22-7.49,7.39-.07,14.78,0,22.18,0H43.94" transform="translate(0 0)"/><path class="cls-3" d="M75.19,110.17,65.43,126.6h19.5l-9.74-16.43m30.47,33.47c-3.5,0-6.74,0-10,0-.39,0-.87-.56-1.13-1-1.57-2.48-3-5-4.64-7.48A2.72,2.72,0,0,0,88.05,134q-12.89-.1-25.76,0a2.47,2.47,0,0,0-1.76,1c-1.6,2.47-3.08,5-4.55,7.54a1.92,1.92,0,0,1-1.93,1.11c-3-.06-5.94,0-9.21,0l5.8-9.54q8.88-14.61,17.78-29.24c2.29-3.75,5-4.92,9.06-4,2.33.51,3.66,2.23,4.81,4.11q5.59,9.18,11.14,18.4L104.73,142c.27.45.53.9.93,1.6" transform="translate(0 0)"/></g><polygon class="cls-3" points="205.03 101.62 205.03 109.58 188.12 109.58 188.12 143.51 178.9 143.51 178.9 109.72 161.86 109.72 161.86 101.62 205.03 101.62"/><g class="cls-2"><path class="cls-4" d="M121.91,42.58A15.47,15.47,0,0,1,120.38,45c-2.37,2.46-4.79,4.88-7.23,7.27-1.8,1.76-3.41,1.73-5.24-.07q-3.64-3.6-7.25-7.25c-1.6-1.62-1.68-3.26-.14-4.86,2.52-2.62,5.1-5.19,7.71-7.72a3,3,0,0,1,4.62,0c2.56,2.51,5.11,5,7.59,7.61a13.69,13.69,0,0,1,1.47,2.57" transform="translate(0 0)"/><path class="cls-4" d="M248.11,53.83a13.14,13.14,0,0,1-2.32-1.4c-2.61-2.53-5.17-5.11-7.71-7.71a3,3,0,0,1,.08-4.6c2.52-2.55,5-5.09,7.59-7.61q2.42-2.38,4.84,0c2.51,2.47,5,5,7.47,7.49,1.56,1.58,1.59,3.3.06,4.85-2.47,2.52-4.94,5-7.48,7.48a13.73,13.73,0,0,1-2.53,1.49" transform="translate(0 0)"/></g></g></g></svg>