<svg xmlns="http://www.w3.org/2000/svg" width="100.074" height="91.521" viewBox="0 0 100.074 91.521">
  <g id="baldi_logo" transform="translate(-0.03 0.08)">
    <path id="Path_95" data-name="Path 95" d="M126.921,715.751c2.316-5.364,5.141-11.9,5.153-11.9l4.947,11.9Zm63.737,9.445-.68.127a33.3,33.3,0,0,1-6.587,7.024,27.229,27.229,0,0,1-15.989,4.985,29.311,29.311,0,0,1-6.814-.716,28.2,28.2,0,0,1-6.1-2.221q-.836-.415-1.643-.875a25,25,0,0,1-5.069-3.664,18.458,18.458,0,0,1-4.559-6.648c-13.088-30.656-11.923-27.973-13.043-30.686a1.84,1.84,0,0,0-1.813-1.092,3.2,3.2,0,0,0-1.2.292,5.226,5.226,0,0,0-.8.474c.947.508,1.786,2.266,2.613,4.251s2.107,5.03,2.107,5.03-9.032,20.62-9.361,21.329a5.154,5.154,0,0,1-1.033,1.359h4.144s-.465-.632-.8-1.1a.435.435,0,0,1-.07-.453c.127-.3,1.11-2.574,2.352-5.438H137.5c.777,1.708,2.719,6.159,3.2,7.251a23.355,23.355,0,0,0,7.738,9.639,29.584,29.584,0,0,0,11.475,5.438,27.332,27.332,0,0,0,12.286,0,28.438,28.438,0,0,0,4.577-1.412,33.635,33.635,0,0,0,5.647-2.9,24.966,24.966,0,0,0,4.91-4.24c.408-.453.791-.924,1.165-1.4a20.59,20.59,0,0,0,1.933-2.787,2.062,2.062,0,0,0,.227-1.545m-71.6-6.014c-2.1,2.6-4.677,3.687-8.45,3.612H106.3V704.28H110.6a9.692,9.692,0,0,1,1.471.113,12.107,12.107,0,0,1,1.96.474,10.461,10.461,0,0,1,5.368,4.319,8.526,8.526,0,0,1,1.153,4.233c.109,1.962-.12,4.244-1.5,5.783M106.3,692.98h4.584a5.093,5.093,0,0,1,4.546,2.119,5.563,5.563,0,0,1,.773,2.524,4.451,4.451,0,0,1-1.863,4.106,7.961,7.961,0,0,1-4.169,1.133H106.3Zm16.487,24.6a10.585,10.585,0,0,0,.573-2.345,11.232,11.232,0,0,0-.138-3.626,9.309,9.309,0,0,0-1.156-3.086,11.5,11.5,0,0,0-1.84-2.207,10.737,10.737,0,0,0-1.94-1.459,13.278,13.278,0,0,0-1.212-.657,11.265,11.265,0,0,0-2.332-.773,7.62,7.62,0,0,0,4.251-4.45,5.806,5.806,0,0,0-.555-3.97c-1.006-1.919-2.912-3.347-6.229-3.347h-9.29a2.361,2.361,0,0,1,.562,1.319v29.836a2.563,2.563,0,0,1-.562,1.359s6.855.018,8.327-.02a27.761,27.761,0,0,0,3.125-.238,12.114,12.114,0,0,0,3.335-.906,9.691,9.691,0,0,0,2.15-1.38,10.093,10.093,0,0,0,1.86-1.971,9.354,9.354,0,0,0,1.076-2.076" transform="translate(-102.89 -648.765)" fill="#fff"/>
    <path id="Path_96" data-name="Path 96" d="M296.789,724.965a2.3,2.3,0,0,1,1.4.494l.564.453.734.333a4.532,4.532,0,0,1,2.975-1.983l-.2-.657h-11.6V693.779a2.349,2.349,0,0,1,.564-1.319H287.27a2.36,2.36,0,0,1,.562,1.319V723.61a2.583,2.583,0,0,1-.562,1.36Z" transform="translate(-245.467 -649.561)" fill="#fff"/>
    <path id="Path_97" data-name="Path 97" d="M487.476,693.769a2.374,2.374,0,0,1,.564-1.319H484.1a2.377,2.377,0,0,1,.562,1.319v29.87a2.387,2.387,0,0,1-.562,1.319h3.95a2.384,2.384,0,0,1-.564-1.319Z" transform="translate(-397.696 -649.554)" fill="#fff"/>
    <path id="Path_98" data-name="Path 98" d="M379.608,717.834a14.91,14.91,0,0,1-7.818,5.325,15.222,15.222,0,0,1-3.376.426H360.66V693.751h5.107a25.2,25.2,0,0,1,5,.374,14.13,14.13,0,0,1,6.8,4.061,15.724,15.724,0,0,1,3.58,5.486,17.779,17.779,0,0,1,.938,4.684,14.193,14.193,0,0,1-2.479,9.479m4.974-13.29a15.918,15.918,0,0,0-1.516-3.852,17.279,17.279,0,0,0-3.576-4.305,16.632,16.632,0,0,0-7.527-3.709,25.082,25.082,0,0,0-3.965-.247H357.286a2.465,2.465,0,0,1,.546,1.335v29.859a2.387,2.387,0,0,1-.562,1.319h11.28c8.117,0,11.957-4.054,13.788-6.365a18.033,18.033,0,0,0,2.243-14.033" transform="translate(-299.605 -649.538)" fill="#fff"/>
    <path id="Path_99" data-name="Path 99" d="M80.309,71.35H78.658l-.048.048v.073l.048.05.181.016.161.045.113.077.039.1v3.886l-.039.1-.1.077-.156.048-.174.023-.05.048V76l.05.048h1.625l.05-.048v-.07l-.05-.048-.172-.016-.163-.045-.118-.073-.041-.1V71.762l.039-.1.118-.077.163-.05.174-.016.05-.05V71.4Z" transform="translate(-60.774 -55.244)" fill="#fff"/>
    <path id="Path_100" data-name="Path 100" d="M193.694,575.457a2.606,2.606,0,0,1-.073.634,1.335,1.335,0,0,1-.276.555l-.174.118a.936.936,0,0,1-.242.03.732.732,0,0,1-.453-.143,1.134,1.134,0,0,1-.326-.372,1.814,1.814,0,0,1-.195-.508,2.377,2.377,0,0,1-.066-.544,1.194,1.194,0,0,1,.249-.807.841.841,0,0,1,.659-.281.679.679,0,0,1,.394.111.994.994,0,0,1,.283.3,1.389,1.389,0,0,1,.168.422,2.24,2.24,0,0,1,.052.485m.261-1.013a1.648,1.648,0,0,0-.517-.376,1.487,1.487,0,0,0-.641-.138,1.557,1.557,0,0,0-.635.129,1.709,1.709,0,0,0-.505.347,1.637,1.637,0,0,0-.335.508,1.543,1.543,0,0,0-.122.605,1.641,1.641,0,0,0,.1.589,1.452,1.452,0,0,0,.31.476,1.519,1.519,0,0,0,.483.32,1.75,1.75,0,0,0,.648.116,2,2,0,0,0,.3-.02l.19-.045a4.459,4.459,0,0,1-.34.58,3.172,3.172,0,0,1-.983.922,4.376,4.376,0,0,1-.555.276l-.025.061.039.1.048.032h0a4.349,4.349,0,0,0,1.031-.419,4.563,4.563,0,0,0,.968-.723,3.654,3.654,0,0,0,.714-.965,2.492,2.492,0,0,0,.281-1.171,1.763,1.763,0,0,0-.122-.65,1.781,1.781,0,0,0-.342-.548" transform="translate(-171.166 -557.89)" fill="#fff"/>
    <path id="Path_101" data-name="Path 101" d="M385.6,576.4a1.473,1.473,0,0,0-.378-.258,2.253,2.253,0,0,0-.344-.127c.113-.086.227-.168.308-.245a2.52,2.52,0,0,0,.3-.3,1.413,1.413,0,0,0,.2-.308.828.828,0,0,0,.07-.34.8.8,0,0,0-.315-.655,1.232,1.232,0,0,0-.786-.242,1.048,1.048,0,0,0-.415.077,1.218,1.218,0,0,0-.319.2,1.486,1.486,0,0,0-.249.281,1.927,1.927,0,0,0-.184.315l.018.061.063.034.063-.014a.8.8,0,0,1,.324-.3,1.153,1.153,0,0,1,.471-.086.789.789,0,0,1,.476.15.472.472,0,0,1,.188.392.881.881,0,0,1-.1.428,1.7,1.7,0,0,1-.267.372,2.821,2.821,0,0,1-.358.326c-.107.077-.206.152-.3.227l-.079.059-.016.059.02.039.043.029h.1a1.535,1.535,0,0,1,.453.066,1.208,1.208,0,0,1,.369.2,1.167,1.167,0,0,1,.263.306.851.851,0,0,1,.093.4,1.02,1.02,0,0,1-.127.542,1,1,0,0,1-.29.32,1.044,1.044,0,0,1-.32.154.839.839,0,0,1-.2.043l-.227-.068-.174-.156-.168-.172a.32.32,0,0,0-.227-.089.258.258,0,0,0-.227.093l-.063.206.057.211.15.141.2.082.215.029a2.43,2.43,0,0,0,.777-.125,2.23,2.23,0,0,0,.655-.34,1.665,1.665,0,0,0,.453-.537,1.417,1.417,0,0,0,.172-.7.954.954,0,0,0-.1-.424,1.231,1.231,0,0,0-.265-.354" transform="translate(-319.729 -557.886)" fill="#fff"/>
    <path id="Path_102" data-name="Path 102" d="M397.707,577.588a1.243,1.243,0,0,1,.039-.288,1.312,1.312,0,0,1,.1-.306,1.415,1.415,0,0,1,.184-.279l.227-.2a4.725,4.725,0,0,1,.453.247,1.744,1.744,0,0,1,.374.272,1.133,1.133,0,0,1,.227.32.888.888,0,0,1,.079.39,1.021,1.021,0,0,1-.041.29.785.785,0,0,1-.131.252.68.68,0,0,1-.227.181.839.839,0,0,1-.365.07.906.906,0,0,1-.657-.249.94.94,0,0,1-.258-.707m1.083-1.586-.322-.19a1.9,1.9,0,0,1-.34-.263,1.313,1.313,0,0,1-.263-.342.89.89,0,0,1-.1-.431.708.708,0,0,1,.066-.315.68.68,0,0,1,.181-.227.851.851,0,0,1,.263-.145.947.947,0,0,1,.31-.05.878.878,0,0,1,.358.066.724.724,0,0,1,.258.188.844.844,0,0,1,.163.276,1.119,1.119,0,0,1,.052.344,1.26,1.26,0,0,1-.159.653,1.24,1.24,0,0,1-.471.442m1.133.906a1.642,1.642,0,0,0-.292-.374,1.989,1.989,0,0,0-.367-.279l-.143-.079-.12-.068c.1-.059.2-.125.317-.206a2.285,2.285,0,0,0,.335-.288,1.145,1.145,0,0,0,.227-.329.822.822,0,0,0,.093-.388.906.906,0,0,0-.1-.421,1.087,1.087,0,0,0-.279-.344,1.483,1.483,0,0,0-.442-.227,1.987,1.987,0,0,0-.582-.084,1.451,1.451,0,0,0-.519.1,1.7,1.7,0,0,0-.453.272,1.472,1.472,0,0,0-.317.406,1.146,1.146,0,0,0-.118.512,1.2,1.2,0,0,0,.084.453,1.435,1.435,0,0,0,.211.36,2.34,2.34,0,0,0,.3.3c.1.072.19.143.29.213l-.286.2a2.861,2.861,0,0,0-.324.281,1.333,1.333,0,0,0-.227.333.827.827,0,0,0-.1.4.925.925,0,0,0,.122.471,1.211,1.211,0,0,0,.329.358,1.326,1.326,0,0,0,.453.227,1.743,1.743,0,0,0,.49.073,1.863,1.863,0,0,0,.594-.1,1.413,1.413,0,0,0,.492-.276,1.359,1.359,0,0,0,.331-.433,1.241,1.241,0,0,0,.122-.544.965.965,0,0,0-.127-.494" transform="translate(-330.425 -557.805)" fill="#fff"/>
    <path id="Path_103" data-name="Path 103" d="M276.031,566.892a22.673,22.673,0,0,0-.614,4.8,11.108,11.108,0,0,0,.131,1.727,20.256,20.256,0,0,0,.888,3.777,10.653,10.653,0,0,0,.8,1.765s.195.34.349.594c.1.183.118.349-.073.41-.082.018-.143.027-.227.043-.329.057-.718.109-1.133.163a19.587,19.587,0,0,0-2.422.519c-.48.125-.877.227-1.339.376a8.753,8.753,0,0,0-1.473.614c-.1.052-.34.193-.356.2a.454.454,0,0,1-.227.1.466.466,0,0,1-.227-.1c-.014,0-.254-.15-.353-.2a8.926,8.926,0,0,0-1.473-.614c-.467-.152-.859-.252-1.339-.376a19.666,19.666,0,0,0-2.422-.519c-.428-.054-.816-.107-1.144-.163l-.227-.043c-.2-.061-.184-.227-.077-.41.156-.254.349-.594.349-.594a10.652,10.652,0,0,0,.8-1.765,20.064,20.064,0,0,0,.891-3.777,11.39,11.39,0,0,0,.134-1.727,22.82,22.82,0,0,0-.616-4.8h0l-.034-.136-.025-.1c-.093-.4-.1-.533.392-.41l.084.023a24.906,24.906,0,0,0,4.158.7l1.133.616,1.133-.623a26.418,26.418,0,0,0,4.154-.7l.084-.023c.487-.122.487.014.392.41l-.027.1-.034.136Z" transform="translate(-226.698 -551.91)" fill="#d0121c"/>
    <path id="Path_104" data-name="Path 104" d="M241.619,527.811a1.609,1.609,0,0,1-.619.777,2.706,2.706,0,0,1-2.073.193,2.039,2.039,0,0,1-1.258-1.017l-.018-.032v-.02c-.084-.188-.17-.381-.245-.576l-.05-.143v-.011a3.813,3.813,0,0,1-.15-.546,5.171,5.171,0,0,1,.256-1.908c.106-.043.213-.091.319-.145a3.854,3.854,0,0,0,.227,2.909,1.518,1.518,0,0,0,.628.582,1.956,1.956,0,0,0,1.55.145.989.989,0,0,0,.383-.283l-.016-.041-.039-.011a.5.5,0,0,1-.437-.227.571.571,0,0,1-.122-.453.743.743,0,0,1,.338-.48.734.734,0,0,1,.63-.1,1.081,1.081,0,0,1,.639.492l.011.016a1.036,1.036,0,0,1,.066.882m-3.834,4.622a2.378,2.378,0,0,1-.727,1.119,2.155,2.155,0,0,1-1.133.489h-.227a1.874,1.874,0,0,1-.761-.156,1.25,1.25,0,0,1-.544-.467.934.934,0,0,1-.141-.508,1.022,1.022,0,0,1,.129-.5.766.766,0,0,1,.344-.324h0a.97.97,0,0,0,.431.519,1.294,1.294,0,0,0,.6.145,1.57,1.57,0,0,0,.354-.041,1.484,1.484,0,0,0,.587-.267,1.381,1.381,0,0,0,.408-.494,2.242,2.242,0,0,0,.172-.471,1.517,1.517,0,0,0,.043-.365,1.851,1.851,0,0,0-.177-.768,2.232,2.232,0,0,0-.4-.616c-.381-.4-.381-.4-.4-.4l-.048.036a.836.836,0,0,1-.156.29,1.775,1.775,0,0,0-.036-.279c-.016-.1-.034-.2-.057-.308a5.455,5.455,0,0,1-.12-1.108,1.965,1.965,0,0,1,.1-.467l.034-.122.276-1.036-.018-.048h-.054c-.088.057-.177.122-.27.19a2.091,2.091,0,0,1-1.088.505h0l.2-.14a4.048,4.048,0,0,0,.877-.857,2.518,2.518,0,0,0,.483-1.187c.134-.025.265-.054.4-.088l-.018.068a6.07,6.07,0,0,0-.2,1.344,2.327,2.327,0,0,0,.032.4,5.294,5.294,0,0,0,.347,1.056l.109.256.034.075c.093.206.177.4.247.589a7.425,7.425,0,0,1,.551,1.976c.018.195.027.39.027.573a4.531,4.531,0,0,1-.2,1.389m-2.452-8.046a3.1,3.1,0,0,1-2.125-1.015,2.235,2.235,0,0,1-.576-.954,1.869,1.869,0,0,1,.544-2.024,1.587,1.587,0,0,1,.854-.265.99.99,0,0,1,.793.417.766.766,0,0,1,.109.741l-.1.186a.646.646,0,0,0-.546-.3.593.593,0,0,0-.292.077,1.188,1.188,0,0,0-.329,1.484,1.493,1.493,0,0,0,.394.519,2.119,2.119,0,0,0,.8.417,2.96,2.96,0,0,0,.741.122,3.427,3.427,0,0,0,.739-.059,4.326,4.326,0,0,0,.7-.208,3.563,3.563,0,0,0,.748-.378,2.341,2.341,0,0,0,.886-1.487c.036-.19.054-.474.063-.594v-.082l-.059-.016-.025.02a1.534,1.534,0,0,1-.845.5l-.247.014a2.9,2.9,0,0,0,.791-.707,1.747,1.747,0,0,0,.453-1.586h0l-.045-.029-.043.036a1.459,1.459,0,0,1-.943.755.511.511,0,0,1-.24-.027,2.6,2.6,0,0,0,.5-.922,3.551,3.551,0,0,0,.134-.906,3.742,3.742,0,0,0-.4-1.831,2.014,2.014,0,0,0-1.6-1.169l-.048.034v.032l.079.261a2.129,2.129,0,0,1,.057.4,1.371,1.371,0,0,1-.186.834l-.15.184a8.639,8.639,0,0,1-1.156-2.694c0-.032-.029-.15-.054-.308a9.291,9.291,0,0,0,1.3.134h.213a8.614,8.614,0,0,0,1.024-.063c.082.154.174.315.281.494.152.247.349.535.548.82s.381.56.517.775a7.931,7.931,0,0,1,1.221,4.253v.19a3.871,3.871,0,0,1-.084.707,4.64,4.64,0,0,1-.215.7,3.964,3.964,0,0,1-1.752,1.9,4.438,4.438,0,0,1-2.434.621m-2.608-11.556c-.288-.093-.587-.2-.893-.313l-.032-.014h-.016c-.664-.252-1.373-.548-2.116-.893-1.622-.746-2.959-1.335-3.138-1.414a3.538,3.538,0,0,0,.082-.356l.048-.211a7.2,7.2,0,0,0,1.133.478,3.831,3.831,0,0,0,1.19.195,4.5,4.5,0,0,0,1.079-.15l.2-.048c.256-.061.5-.12.77-.161a4.43,4.43,0,0,1,1.119-.025c-.073.091-.136.179-.181.249a3.316,3.316,0,0,0-.2.369l-.163.392v.036l.029.027.408.136h.011a2.407,2.407,0,0,0,.73.111,1.836,1.836,0,0,0,.829-.181,2.007,2.007,0,0,0,.544-.415l.011.025.023.145a.925.925,0,0,1-.127.417l-.1.152-.032.038.041.032-.045-.023-.5.571v.05l.039.027.768.082a3.424,3.424,0,0,0,.417.025,1.978,1.978,0,0,0,.888-.188,2.091,2.091,0,0,0,.743-.632,2.632,2.632,0,0,0,.426-.947l.19.177a1.015,1.015,0,0,1,.227.453,1.542,1.542,0,0,1,.048.374l-.032.582.018.041h.045l.548-.15a3.853,3.853,0,0,0,1.133-.478,2.216,2.216,0,0,0,.861-1.013,2.984,2.984,0,0,0,.2-1.1,3.432,3.432,0,0,0-.192-1.132,2.42,2.42,0,0,0-.127-.293,1.935,1.935,0,0,0-.775-.872,1.472,1.472,0,0,0-.335-.138,4.221,4.221,0,0,0-.759-.1l-.075.027v.045a.832.832,0,0,1,.048.39,1.3,1.3,0,0,1-.419,1.013,1.033,1.033,0,0,1-.591.168,1.239,1.239,0,0,1-.82-.306.727.727,0,0,1-.193-.3,1.418,1.418,0,0,1-.084-.487,1.541,1.541,0,0,1,.179-.732,1.586,1.586,0,0,1,.594-.623,2.688,2.688,0,0,1,1.4-.367,3.084,3.084,0,0,1,1.67.489,3.03,3.03,0,0,1,1.2,1.586,3.684,3.684,0,0,1-.014,2.493,2.7,2.7,0,0,1-.347.68,4.158,4.158,0,0,1-.637.65l-.018.014-.129.1-.014.068.029.018.141.093.059.043a2.015,2.015,0,0,0,.322.159,1.749,1.749,0,0,0,.453.125h0l-.249.19a6.03,6.03,0,0,1-1.543.775,7.717,7.717,0,0,1-2.506.41h-.2a11.843,11.843,0,0,1-3.3-.659m1.563,2.114a1.627,1.627,0,0,1-.315.748,1.515,1.515,0,0,1-.77.5l-.2.05c0-.059.02-.15.036-.288v-.043c.02-.165.041-.326.054-.478a3.508,3.508,0,0,0-.2-1.956l-.05-.093q.693.215,1.321.353l.014.1c.043.227.1.469.163.709-.011.113-.032.24-.054.394m-5.157-5.4a1.633,1.633,0,0,0,.566-.6,1.112,1.112,0,0,1,.358.707,4.487,4.487,0,0,1-1.074.161,3.315,3.315,0,0,1-.442-.034,1.833,1.833,0,0,0,.591-.227m10.65,6.97a6.145,6.145,0,0,0,1.317.238.986.986,0,0,1-.333.485,1.183,1.183,0,0,1-.707.245h-.206a9.328,9.328,0,0,0-.474-1.094,3.945,3.945,0,0,0,.4.152M222.931,509.7a.562.562,0,0,1,.736-.261.521.521,0,0,1,.279.7.571.571,0,0,1-.736.263.526.526,0,0,1-.279-.7m3.111.566a3.292,3.292,0,0,1-1.217,1.647,2.878,2.878,0,0,1-.469.27,4.384,4.384,0,0,1-3.331.206l-.227-.066a1.336,1.336,0,0,1-.938-.58.569.569,0,0,1-.027-.394l.2.023a3.331,3.331,0,0,0,1.706-.508,1.515,1.515,0,0,1,.324-.17.772.772,0,0,1,.505.041l.238.1a1.493,1.493,0,0,0,.349.109,1.4,1.4,0,0,0,.952-.107.906.906,0,0,0,.422-.591,1.16,1.16,0,0,0-.872-1.486,1.084,1.084,0,0,0-.537.066,4.5,4.5,0,0,0-.476.227.587.587,0,0,1-.338.109,1.587,1.587,0,0,1-.639-.29,7.745,7.745,0,0,1-1.174-1.23,3.213,3.213,0,0,1,2.676-1.453,3.039,3.039,0,0,1,3.052,3.021,2.822,2.822,0,0,1-.19,1.02m-4.734,2.86.116.048c.1.032.193.057.29.082a3.371,3.371,0,0,0,1.065.077,4.17,4.17,0,0,0,.6-.088,1.881,1.881,0,0,0,.428-.147c.165-.075.326-.17.326-.17l.041.254a2.541,2.541,0,0,1-1.276.44,2.014,2.014,0,0,1-1.586-.494m5.053,1.38v.032l.014.082h0a.48.48,0,0,0-.48.492l.011.063a.483.483,0,0,0-.437.408v.111a.483.483,0,0,0-.512.408v.1h-.016a.48.48,0,0,0-.453.342h-.045a.476.476,0,0,0-.41.227l-.111.19-.111-.016a.467.467,0,0,0-.474.453l-.537.29-.555-.31a.471.471,0,0,0-.474-.433l-.1.014a.478.478,0,0,0-.453-.335l-.084.011h0l-.016-.084a.485.485,0,0,0-.465-.342h-.014v-.1a.485.485,0,0,0-.514-.408v-.111a.48.48,0,0,0-.437-.408v-.063a.478.478,0,0,0-.467-.487h0l.016-.082v-.032a12.561,12.561,0,0,0,1.656-.716l.138-.111a3.143,3.143,0,0,0,1.645.557h.02a3.123,3.123,0,0,0,1.9-.546l.129.1a12.642,12.642,0,0,0,1.652.716m2.135,3.385a22.631,22.631,0,0,0-.616,4.8,11.687,11.687,0,0,0,.134,1.727,20.437,20.437,0,0,0,.888,3.777,11.146,11.146,0,0,0,.8,1.765s.193.34.351.6c.1.181.118.347-.079.408l-.227.043c-.329.054-.718.109-1.147.165a19.271,19.271,0,0,0-2.422.517c-.48.122-.872.227-1.339.374a9.207,9.207,0,0,0-1.471.614l-.356.2a.31.31,0,0,1-.453,0l-.353-.2a9.332,9.332,0,0,0-1.473-.614c-.467-.15-.857-.252-1.339-.374a19.27,19.27,0,0,0-2.422-.517c-.428-.057-.818-.111-1.147-.165l-.227-.043c-.2-.061-.184-.227-.077-.408.156-.256.349-.6.349-.6a10.948,10.948,0,0,0,.8-1.765,20.423,20.423,0,0,0,.891-3.777,11.683,11.683,0,0,0,.131-1.727,22.78,22.78,0,0,0-.616-4.8h0l-.034-.136-.023-.1c-.1-.4-.1-.535.39-.41l.084.02a25.176,25.176,0,0,0,4.158.707l.759.417h0l.367.2.367-.2h0l.145-.081.616-.335h0a24.834,24.834,0,0,0,4.156-.7l.084-.02c.487-.125.485.011.392.41l-.025.1-.034.136Zm-1.353-1.432c.707-.186,1.665-.4,2.248-.619.653-.227.748-.111.591.453-.048.15-.249.863-.3,1.029a20.1,20.1,0,0,0-.857,5.336,10.175,10.175,0,0,0,.12,1.6,19.049,19.049,0,0,0,.843,3.605,11.731,11.731,0,0,0,1.437,2.719,1.7,1.7,0,0,1,.34.68l-.029.145-.1.131a2.157,2.157,0,0,1-.6.227,14.554,14.554,0,0,1-2.087.378,17.948,17.948,0,0,0-2.341.453c-.485.127-.854.227-1.283.358a7.119,7.119,0,0,0-1.872.886,3.362,3.362,0,0,0-.295.227h0l-.181.1-.186-.1h0c-.093-.077-.19-.152-.295-.227a7.1,7.1,0,0,0-1.874-.886c-.426-.136-.8-.227-1.283-.358a17.83,17.83,0,0,0-2.338-.453,14.524,14.524,0,0,1-2.085-.378,2.071,2.071,0,0,1-.6-.227l-.106-.131-.029-.145a1.732,1.732,0,0,1,.34-.68,11.731,11.731,0,0,0,1.437-2.719,19.046,19.046,0,0,0,.843-3.605,10.168,10.168,0,0,0,.12-1.6,20.251,20.251,0,0,0-.852-5.345c-.048-.165-.249-.879-.3-1.029-.152-.564-.057-.68.594-.453.582.227,1.541.433,2.248.619.564.143,1.156.272,1.761.374a.49.49,0,0,0,.453.3h.054l.061.2a25.6,25.6,0,0,1-2.934-.537c-.807-.227-1.326-.412-1.486-.453s-.261.023-.188.227c.141.406.154.453.3.972a22.544,22.544,0,0,1,.712,5.144,10.567,10.567,0,0,1-.122,1.647,20.093,20.093,0,0,1-.868,3.691,10.981,10.981,0,0,1-1.051,2.157l-.285.442c-.12.188-.317.562.086.73l.227.059c.227.048.437.091.623.127.335.057.725.109,1.144.165a18.816,18.816,0,0,1,2.357.5c.485.127.861.227,1.3.369a7.968,7.968,0,0,1,1.659.723c.145.088.281.181.41.27l.156.052h0l.154-.052c.129-.088.265-.181.412-.27a7.978,7.978,0,0,1,1.654-.723c.453-.147.82-.242,1.307-.369a18.779,18.779,0,0,1,2.354-.5c.419-.057.809-.109,1.144-.165.186-.036.41-.079.623-.127l.227-.059c.4-.168.2-.542.084-.73l-.286-.442a10.848,10.848,0,0,1-1.049-2.157,19.909,19.909,0,0,1-.863-3.68,10.3,10.3,0,0,1-.125-1.647,22.546,22.546,0,0,1,.712-5.144c.147-.519.159-.566.3-.972.073-.211-.02-.286-.188-.227s-.68.24-1.486.453a25.9,25.9,0,0,1-2.989.544l.018-.034.1-.17h.054a.487.487,0,0,0,.453-.3c.605-.1,1.2-.227,1.761-.374m-6-7.194.308.295-.088.165-.023.05a1.75,1.75,0,0,0-.129.476l-.421-.029a3.341,3.341,0,0,1,.354-.956m-.743.929-.363-.025a3.594,3.594,0,0,1,.5-1.489l.324.31a3.582,3.582,0,0,0-.453,1.2m-.752-.052-.378-.029a5.848,5.848,0,0,1,.453-1.586,4.508,4.508,0,0,1,.227-.4l.3.288a3.852,3.852,0,0,0-.6,1.733m-1.147-1.482a5.556,5.556,0,0,0-1.813-.453h-.2a2.083,2.083,0,0,0-1.287.4,1.5,1.5,0,0,0-.58,1.21v.184a1.223,1.223,0,0,0,.242.628,1.319,1.319,0,0,0,.653.435l-.027.023a1.134,1.134,0,0,1-.349.2,1.8,1.8,0,0,1-.834.016,1.192,1.192,0,0,1-.517-.258,1.133,1.133,0,0,1-.353-.478,1.933,1.933,0,0,1,.05-1.038l.039-.174-.032-.054h-.032l-.141.036-.165.045a3.1,3.1,0,0,0-.326.113,1.757,1.757,0,0,0-.573.408,2.533,2.533,0,0,0-.587,1l-.018-.242a3.642,3.642,0,0,1,.238-1.192l-.014-.054h-.054a2.782,2.782,0,0,0-1.339,1.156,2.237,2.237,0,0,0-.263,1.056,4.015,4.015,0,0,0,.036.453l-.122-.093a1.36,1.36,0,0,1-.356-1.65,2.184,2.184,0,0,1,.417-.662.833.833,0,0,1,.329-.227l.034-.043-.027-.048a1.2,1.2,0,0,0-1.042.147,2.058,2.058,0,0,0-.6.63,2.523,2.523,0,0,0-.319.566l-.073.175a4.681,4.681,0,0,0-.5,1.924v.172a2.966,2.966,0,0,0,.453,1.421l.154.227a1.721,1.721,0,0,1-.576-.2,1.115,1.115,0,0,1-.417-.383,4.832,4.832,0,0,1-.431-.949c-.188-.566-.519-.632-.533-.637l-.041.014-.018.039.014.4-.011.206a4.1,4.1,0,0,1-.027.43,1.525,1.525,0,0,1-.075.349l-.073.188c-.041.077-.084.165-.129.263a2.168,2.168,0,0,1-.793.838,2.946,2.946,0,0,1-1.144.344h-.057a.532.532,0,0,0,.041-.156,5.189,5.189,0,0,0,.05-.614v-.086a4.708,4.708,0,0,1,.059-.7,1.835,1.835,0,0,1,.227-.589l.063-.116A2.336,2.336,0,0,1,204.9,513a1.162,1.162,0,0,0,.227-.773l-.02-.034h-.039l-.7.161a3.687,3.687,0,0,1-.936.138h0a1.5,1.5,0,0,1-.789-.227,1.334,1.334,0,0,1-.537-.75l-.023-.143a1.732,1.732,0,0,0,.709.344,4.131,4.131,0,0,0,.963.1,5.553,5.553,0,0,0,2.427-.646,14.786,14.786,0,0,0,2.549-1.768l.632-.5a10.742,10.742,0,0,1,2.59-1.43,6.8,6.8,0,0,1,2.538-.51,9.087,9.087,0,0,1,2.968.51,16.21,16.21,0,0,1,1.813.743,6.2,6.2,0,0,0-.227.68c-.179-.1-.36-.186-.544-.263m-10.92,7.759a1.767,1.767,0,0,0,.6.206l.116.016c.122.025.227.043.322.07l.091.032a.807.807,0,0,0-.668.573.852.852,0,0,0,.317.977c.023.014.084.041.174.084l.086.039a1.183,1.183,0,0,0,.091.335,1.34,1.34,0,0,0,.546.6,2.242,2.242,0,0,0,.764.258,2.446,2.446,0,0,0,1.434-.12,1.276,1.276,0,0,0,.641-.659,1.31,1.31,0,0,0,.082-.5,1.529,1.529,0,0,0-.054-.372V517.9l-.05-.023-.4.066H211.5a.488.488,0,0,1-.254-.054.43.43,0,0,1-.193-.227.947.947,0,0,1-.077-.383v-.091a.836.836,0,0,1,.285-.492,1.133,1.133,0,0,1,.764-.283h.018a1.088,1.088,0,0,1,.809.4,1.586,1.586,0,0,1,.378,1v.03a1.512,1.512,0,0,1-.15.614,2.476,2.476,0,0,1-.841.97,2.881,2.881,0,0,1-1.57.474h-.125a4.874,4.874,0,0,1-2.076-.453,4.109,4.109,0,0,1-.553-.31l-.134-.1-.029-.025h-.011a3.554,3.554,0,0,1-1.117-1.4,3.065,3.065,0,0,1-.215-.743,3.172,3.172,0,0,1,.054-1.226,4.758,4.758,0,0,1,.714-1.5l.14.227a1.685,1.685,0,0,0-.31.535h0a.88.88,0,0,0-.068.356,1.36,1.36,0,0,0,.274.78,1.281,1.281,0,0,0,.383.358m3.107,5.336a15.26,15.26,0,0,1,.92,1.552,7.442,7.442,0,0,1,.512,1.412,4.709,4.709,0,0,1,.147,1.058,5.75,5.75,0,0,1-.181,1.287,3.949,3.949,0,0,1-.247.732,1.669,1.669,0,0,1-.36.5,2.762,2.762,0,0,1-.947.625,3.651,3.651,0,0,1-1.2.265h-.227a3.72,3.72,0,0,1-1.1-.143,2.5,2.5,0,0,1-.906-.53,2.971,2.971,0,0,1-.333-.367,1.569,1.569,0,0,1,.1-2.207l.3-.181a.82.82,0,0,1,.326-.063,1.133,1.133,0,0,1,.748.288.6.6,0,0,1,.181.344l.016.227v.109l-.215-.145-.179-.034a.517.517,0,0,0-.394.17.791.791,0,0,0-.107.58,1.491,1.491,0,0,0,.227.607,1.255,1.255,0,0,0,.408.392,1.358,1.358,0,0,0,.61.193c.093,0,.186.014.276.014a1.964,1.964,0,0,0,1.024-.258,1.3,1.3,0,0,0,.519-.551.807.807,0,0,0,.093-.351l-.05-.227-.156-.193.136-.1.018-.016a3.394,3.394,0,0,0,.385-.322.741.741,0,0,0,.227-.53.716.716,0,0,0-.134-.422.739.739,0,0,0-.4-.283l-.227-.032a.993.993,0,0,0-.437.111,1.36,1.36,0,0,1,.075-.453l.077-.2a2.079,2.079,0,0,0,.177-.68,1.811,1.811,0,0,0-.15-.68l-.118-.188-.029-.02-.057.036a1.017,1.017,0,0,1-.288.453,1.47,1.47,0,0,1-.358.265,4.519,4.519,0,0,0,.358-1.729V521.9a3.431,3.431,0,0,0-.319-1.36,2.294,2.294,0,0,0-.174-.29,4.6,4.6,0,0,0,.467.093l.181.227c.125.177.453.639.8,1.172m-3.476-2.021a1.64,1.64,0,0,0-.562.426,2.961,2.961,0,0,0-.564,1.038v.03a2.014,2.014,0,0,0-.023,1.063l.025.034h.043l.4-.177a1.132,1.132,0,0,1,.376-.077,1.17,1.17,0,0,1,.417.059.521.521,0,0,1,.342.317.725.725,0,0,1-.118.628.68.68,0,0,1-.58.286,1.326,1.326,0,0,1-.854-.342,1.835,1.835,0,0,1-.653-1.357,1.994,1.994,0,0,1,.118-.77,3.625,3.625,0,0,1,.544-.877l.032-.038a4.768,4.768,0,0,1,.94-.836,3.545,3.545,0,0,0,.292.256,2.356,2.356,0,0,0,.265.193,1.779,1.779,0,0,0-.453.147m34.291,6.431a1.57,1.57,0,0,0-1.341-.177,1.378,1.378,0,0,0-.823.866.868.868,0,0,0,.2.789c-.276.016-1.092-.048-1.326-1.194a5.2,5.2,0,0,1,.208-2.45,4.887,4.887,0,0,0,1.045-1,4.176,4.176,0,0,0,.861-2.511,8.45,8.45,0,0,0-.313-2.493h.045a1.711,1.711,0,0,0,1.013-.342,1.735,1.735,0,0,0,.612-1.371l-.025-.043h-.048a1.05,1.05,0,0,1-.48.086,3.325,3.325,0,0,1-1.2-.267,3.561,3.561,0,0,1-1.457-1.117c-.181-.27-.367-.542-.5-.761-.07-.113-.134-.227-.19-.322a7.233,7.233,0,0,0,2.8-1.133,3.6,3.6,0,0,0,1.033-1.031v-.052l-.048-.018a5,5,0,0,1-.607.041,1.973,1.973,0,0,1-.616-.077l.014-.014a2.814,2.814,0,0,0,.247-.276,3.4,3.4,0,0,0,.58-1.085,4.078,4.078,0,0,0,.188-1.586,4.306,4.306,0,0,0-.227-1.09,3.483,3.483,0,0,0-3.351-2.416,3.238,3.238,0,0,0-1.67.442,2.071,2.071,0,0,0-1,1.586,1.6,1.6,0,0,0,.435,1.344,1.754,1.754,0,0,0,1.16.433,1.339,1.339,0,0,0,1.4-1.047l.068-.333a1.008,1.008,0,0,0,.023-.127h0l.057-.02a1.07,1.07,0,0,1,.517.227,2.476,2.476,0,0,1,.494,2.613,2.248,2.248,0,0,1-1.6,1.187,1.788,1.788,0,0,0-.4-1.133,2.332,2.332,0,0,0-.906-.6h-.041l-.023.036a3,3,0,0,1-.431,1.36,1.425,1.425,0,0,1-1.237.623h-.267a1.346,1.346,0,0,0,.274-1.181c-.206-.551-.442-.659-.453-.664l-.059.018a2.18,2.18,0,0,1-.75.764,1.3,1.3,0,0,1-.6.127,2.09,2.09,0,0,1-.523-.07,1.7,1.7,0,0,1,.571-.7,1.46,1.46,0,0,1,.422-.186l.045-.041-.032-.05a3.705,3.705,0,0,0-1.57-.3,5.143,5.143,0,0,0-.743.057c-.147.02-.283.048-.41.075a1.356,1.356,0,0,0-1.1-1.224l-.05.041a1.339,1.339,0,0,1-.535.782,1.543,1.543,0,0,1-.823.2,3.676,3.676,0,0,1-1.33-.3,6.675,6.675,0,0,0-.077-.929c-.066-.523-.075-.934.5-1.038h.079a.5.5,0,0,1,.288.088h0a.757.757,0,0,0,.376.1h.088a.716.716,0,0,0,.637-.786.73.73,0,0,0-1.423-.1h0a.506.506,0,0,1-.211.308.585.585,0,0,1-.587.048.48.48,0,0,1-.245-.374.68.68,0,0,1,.4-.61.507.507,0,0,1,.27-.075h.208a.784.784,0,0,0,.354-.088.7.7,0,0,0,.342-.426.68.68,0,0,0-.061-.537.736.736,0,0,0-.637-.365.754.754,0,0,0-.351.088.7.7,0,0,0-.367.714h0a.5.5,0,0,1-.075.363.644.644,0,0,1-.476.308h-.07a.372.372,0,0,1-.353-.208.716.716,0,0,1,.075-.7.528.528,0,0,1,.324-.19h0a.719.719,0,0,0,.4-.238.693.693,0,0,0-.091-1,.73.73,0,0,0-.453-.163.745.745,0,0,0-.562.252.709.709,0,0,0-.163.519.753.753,0,0,0,.086.281.492.492,0,0,1,.066.36.63.63,0,0,1-.544.5.428.428,0,0,1-.331-.168.641.641,0,0,1-.136-.6.494.494,0,0,1,.227-.3v-.014a.68.68,0,0,0,.265-.363.7.7,0,0,0-.485-.881l-.208-.032a.73.73,0,0,0-.7.505.7.7,0,0,0,.247.759h0a.521.521,0,0,1,.2.31.607.607,0,0,1-.079.487.4.4,0,0,1-.331.2.646.646,0,0,1-.551-.512.487.487,0,0,1,.061-.36h0a.68.68,0,0,0,.079-.453.718.718,0,0,0-.714-.591H221.9a.707.707,0,0,0,0,1.4.535.535,0,0,1,.3.184.718.718,0,0,1,.127.566,1.014,1.014,0,0,1-.58.68,5.813,5.813,0,0,0-.773.487,4.832,4.832,0,0,0-.779.746c-.059-.1-.109-.195-.131-.227l-.018-.02-.025.016a3.664,3.664,0,0,0-.555.8c-2.341-1.1-5-1.849-7.752-.736a11.521,11.521,0,0,0-2.422,1.285c-.36.258-.707.537-1.047.809s-.68.537-1.02.789a9.311,9.311,0,0,1-1.3.8,4.385,4.385,0,0,1-3,.5,1.58,1.58,0,0,1-1.029-1.088l-.041-.032-.045.02a1.8,1.8,0,0,0-.168,1.518c.4,1.1,1.33,1.5,2.758,1.192l-.15.252a2.813,2.813,0,0,0-.363,1.525,3.69,3.69,0,0,1-.075.68,1.265,1.265,0,0,1-.227.6l-.063.063-.025.041.043.05h.109a5.076,5.076,0,0,0,.6-.054l.184-.023a3.462,3.462,0,0,0,1.344-.412l.19-.12-.023.113a3.267,3.267,0,0,0-.079.614,2.4,2.4,0,0,0,.045.752,3.663,3.663,0,0,0,.87,1.844,4.177,4.177,0,0,0-1.634,1.917,2.321,2.321,0,0,0,.637,2.669,1.727,1.727,0,0,0,1.167.467,1.269,1.269,0,0,0,1-.422,1.215,1.215,0,0,0,.27-.956,1.036,1.036,0,0,0-.478-.711,1.4,1.4,0,0,0-.764-.195,2.411,2.411,0,0,0-.433.041,1.865,1.865,0,0,1,.508-1.117,1.212,1.212,0,0,1,1.045-.415c.974.161,1.133,1.36,1.151,1.872a4.419,4.419,0,0,1-.415,1.892,1.152,1.152,0,0,1-.349.428v.059a.639.639,0,0,0,.528.227l.193-.025a.865.865,0,0,0,.4-.227l.274-.227a4.045,4.045,0,0,1-.181.537,2.252,2.252,0,0,0-.054,1.307l.05.036a1.166,1.166,0,0,0,.34-.079l.168-.084a.528.528,0,0,1,.4-.1l.163.168-.07.245a3.7,3.7,0,0,1-.376.32,2.847,2.847,0,0,0-.295.245.841.841,0,0,0-.227.628l.032.041h.052l.156-.082.15.057-.023.159a1.134,1.134,0,0,1-1.092.528h-.227a.987.987,0,0,1-.424-.129.81.81,0,0,1-.227-.227c-.073-.116-.184-.4-.122-.521l.091-.054a.205.205,0,0,1,.17.12.665.665,0,0,1,.066.227l.059.073h.014c.453-.116.548-.745.453-1.153a1.342,1.342,0,0,0-1.321-1.052,1.629,1.629,0,0,0-1.4.736,1.763,1.763,0,0,0-.274,1.636,2.839,2.839,0,0,0,.823,1.285,3.779,3.779,0,0,0,2.456.775h.156a3.731,3.731,0,0,0,2.493-1.008,4.668,4.668,0,0,0,.931-2.866,6.658,6.658,0,0,0-.709-2.681,24.482,24.482,0,0,0-1.684-2.687h.283a3.245,3.245,0,0,0,2.327-.965,2.4,2.4,0,0,0,.73-1.634,1.842,1.842,0,0,0-1.684-1.876h-.032a1.524,1.524,0,0,0-1.554,1.221,1.328,1.328,0,0,0,.3,1.008,1.011,1.011,0,0,0,.906.281c-.023.174-.17.7-1.079.7a3.011,3.011,0,0,1-.494-.043c-.739-.122-1.06-.483-.986-1.1v-.041l-.041-.014h-.016a.725.725,0,0,1-.478-.15l-.041-.227c.057-.258.181-.387.376-.387a.988.988,0,0,1,.487.19h.045l.032-.034a.929.929,0,0,0-.7-1.133,2.729,2.729,0,0,0-.381-.081,1.013,1.013,0,0,1-.77-.378.692.692,0,0,1-.159-.655v-.025a2.586,2.586,0,0,1,.163-.374l.177.12a2.745,2.745,0,0,0,1.926.206l.041-.041-.02-.048a2.531,2.531,0,0,1-1.217-2.023,4.154,4.154,0,0,1,.453-1.876c.073-.161.154-.335.24-.514a2.513,2.513,0,0,0-.034.77,2.041,2.041,0,0,0,1.743,1.532l.048-.016v-.045a2.8,2.8,0,0,1-.227-1.559,1.935,1.935,0,0,1,.426-.825l-.014.227a1.955,1.955,0,0,0,.093.68,2.534,2.534,0,0,0,.8,1.047h.057l.02-.052a2.09,2.09,0,0,1,.743-2.3,2.322,2.322,0,0,0,.07.712,1.758,1.758,0,0,0,1.264,1.067,1.877,1.877,0,0,0,1.6-.331,2.2,2.2,0,0,0,.585-.739v-.045l-.043-.02a1.562,1.562,0,0,1-.972-.206.68.68,0,0,1-.258-.492,1.033,1.033,0,0,1,.283-.875,1.586,1.586,0,0,1,1.23-.372,5.3,5.3,0,0,1,2.266.718,7.434,7.434,0,0,0-.141.82c-.023.227-.039.331-.05.5a.68.68,0,0,0,.027.342c.054.1.195.109.29.129s.206.039.292.059a1.009,1.009,0,0,0,.059.657,1.764,1.764,0,0,0,1.262.857h.045a.329.329,0,0,1,.066.206h0v.082h0l-.025.093v.025l-.134.188a12.623,12.623,0,0,1-1.65.7l-.2-.05h-.016a.478.478,0,0,0-.483.453.453.453,0,0,0,.129.338.485.485,0,0,0,.338.15h0l-.011.079a.453.453,0,0,0,.129.34.485.485,0,0,0,.279.141l.027.034v.113a.478.478,0,0,0,.453.408l.061.068v.027c-.372-.077-.739-.161-1.09-.254a23.272,23.272,0,0,1-2.3-.637c-.832-.3-1.346-.546-1.509-.609s-.279,0-.206.227l.329,1c.245.768.358,1.113.369,1.133.066.227.129.44.195.68a19.462,19.462,0,0,1,.752,4.926,9.878,9.878,0,0,1-.111,1.525,19.191,19.191,0,0,1-.818,3.51,11.881,11.881,0,0,1-1.385,2.6c-.557.834-.761.965-.761,1.255a.453.453,0,0,0,.091.286.7.7,0,0,0,.453.227c.483.141,1.047.238,1.541.335.453.088.968.161,1.539.227a17.815,17.815,0,0,1,2.266.453c.489.129.843.249,1.251.381a5.394,5.394,0,0,1,2.332,1.36l.193.082h0l.19-.082a5.423,5.423,0,0,1,2.332-1.36c.408-.131.761-.251,1.251-.381a17.913,17.913,0,0,1,2.266-.453c.573-.077,1.092-.149,1.539-.227.494-.1,1.056-.195,1.541-.335a.847.847,0,0,0,.453-.227.453.453,0,0,0,.088-.286c0-.29-.2-.421-.761-1.255a11.683,11.683,0,0,1-1.38-2.6,19,19,0,0,1-.818-3.51,9.609,9.609,0,0,1-.111-1.525,19.364,19.364,0,0,1,.75-4.926c.066-.227.131-.453.193-.68.014-.029.127-.374.372-1.133l.329-1c.073-.211-.043-.281-.2-.227s-.68.313-1.511.61a23.111,23.111,0,0,1-2.3.637c-.349.093-.721.177-1.09.254v-.027l.061-.068a.485.485,0,0,0,.453-.408v-.113l.027-.034a.5.5,0,0,0,.281-.141.453.453,0,0,0,.127-.34v-.079h0a.49.49,0,0,0,.338-.15.453.453,0,0,0,.129-.338.476.476,0,0,0-.483-.453h-.016l-.2.05a11.412,11.412,0,0,1-1.652-.7l-.061-.066-.027-.039-.063-.141a1.771,1.771,0,0,1-.023-.344.767.767,0,0,1,.043-.261l.34-.3a3.766,3.766,0,0,0,1.2-1.532c.295.127,1.586.7,3.088,1.391.766.349,1.486.655,2.173.906a1.6,1.6,0,0,1,1.008,1.573,10.53,10.53,0,0,1-.242,2.184v.041l.039.02h.086a2.253,2.253,0,0,0,2.13-1.258h0a6.834,6.834,0,0,0,1.176,2.316l.034.018a1.645,1.645,0,0,0,.653-.582,2.737,2.737,0,0,0,.349-.827l.261.227a1.568,1.568,0,0,1,.39.877,2.491,2.491,0,0,1-.415,1.917,5.464,5.464,0,0,1-.569.48l-.027.063a1.037,1.037,0,0,0,.3.3,1.456,1.456,0,0,0,.759.193h.2a3.377,3.377,0,0,1-.453.453,4.7,4.7,0,0,1-1,.607l-.027.036.016.043a1.934,1.934,0,0,0,.952.453,1.5,1.5,0,0,0,.68-.048,1.133,1.133,0,0,1-.31.5,2.719,2.719,0,0,1-1.894.716,2.622,2.622,0,0,1-.526-.052,1.586,1.586,0,0,1-.995-.571.852.852,0,0,1-.161-.487.784.784,0,0,1,.154-.453h.165l.057.163a.848.848,0,0,1-.068.227l-.014.066.032.027.122.018a1,1,0,0,0,.614-.261,1.276,1.276,0,0,0,.283-1.373,1.4,1.4,0,0,0-1.147-.945h-.211a1.956,1.956,0,0,0-1.89,1.4,2.81,2.81,0,0,0,.24,2.107,3.766,3.766,0,0,0,1.856,1.55,3.546,3.546,0,0,0,1.255.211,3.368,3.368,0,0,0,.424-.018c-.267,1.412-2.207,2.182-2.225,2.191l-.034.038.027.048a2.584,2.584,0,0,0,1.2.329,1.564,1.564,0,0,0,.634-.122l-.075.265a4.744,4.744,0,0,0,.131,1.777l.011.059c.15.927-.215,1.162-.227,1.162l-.02.061.059.027a1.767,1.767,0,0,0,.995-.6,1.455,1.455,0,0,1,.387,1.255,2.121,2.121,0,0,1-.131.367.938.938,0,0,1-.653.5l-.242.027a.539.539,0,0,1-.566-.356l-.036-.331v-.016l-.05-.05a1.565,1.565,0,0,0-.612.145,1.339,1.339,0,0,0-.7.836,1.482,1.482,0,0,0,.152,1.2,2,2,0,0,0,1.743.859,2.633,2.633,0,0,0,.265-.011,2.679,2.679,0,0,0,1.421-.61,4.052,4.052,0,0,0,1.076-3.5,6.15,6.15,0,0,0-.326-1.409,2.463,2.463,0,0,0,.31.17,3.236,3.236,0,0,0,1.235.227,3.4,3.4,0,0,0,1.133-.186,2.11,2.11,0,0,0,1.133-.981,1.7,1.7,0,0,0-.453-2.105" transform="translate(-179.159 -502.87)" fill="#fff"/>
    <path id="Path_105" data-name="Path 105" d="M286.73,577.264c0-.514-.215-.931-.48-.931v-.53h1.878v.528c-.265,0-.483.417-.483.931v5.665h0a2.357,2.357,0,1,1-4.713,0v-5.665c0-.514-.227-.931-.483-.931v-.53h2.164v.53c-.267,0-.485.417-.485.931v5.776a1.339,1.339,0,0,0,1.273,1.432,1.187,1.187,0,0,0,1.323-1.28v-.8Z" transform="translate(-241.739 -559.336)" fill="#fff"/>
    <path id="Path_106" data-name="Path 106" d="M283.125,592.183a2.94,2.94,0,0,1-3.145,2.513,5.92,5.92,0,0,1-3.308-.752v-3.925h4.294a2,2,0,0,1,2.16,2.164m-6.453-3.281v-2.053h5.182a1.106,1.106,0,1,1,0,2.212h-5.182Zm6.2.609h0a1.885,1.885,0,0,0,.986-1.629,2,2,0,0,0-2.085-1.912h-6.517a1.547,1.547,0,0,1,.338.836v6.159a1.732,1.732,0,0,1-.1.562,1.553,1.553,0,0,1-.227.383l-.17.159-.059.039a7.988,7.988,0,0,0,4.944,1.36c2.452,0,4.285-1.486,4.4-3.277a2.656,2.656,0,0,0-1.518-2.672" transform="translate(-236.008 -567.202)" fill="#fff"/>
    <path id="Path_107" data-name="Path 107" d="M511.721,694.411h.453c.521,0,.931-.165.931-.571,0-.356-.27-.594-.861-.594a2.683,2.683,0,0,0-.512.043Zm-.023,2.218h-.92v-3.911a8.457,8.457,0,0,1,1.536-.118,2.587,2.587,0,0,1,1.4.286,1.1,1.1,0,0,1,.385.859,1.011,1.011,0,0,1-.834.906v.048a1.136,1.136,0,0,1,.734.954,3.024,3.024,0,0,0,.295.977h-1a3.16,3.16,0,0,1-.319-.954c-.073-.428-.32-.616-.834-.616h-.44Zm-2.74-2.051a3.248,3.248,0,0,0,3.4,3.22,3.21,3.21,0,0,0,3.329-3.193,3.365,3.365,0,0,0-6.725-.027m7.478,0a4.125,4.125,0,1,1-4.11-3.909,3.982,3.982,0,0,1,4.11,3.909" transform="translate(-416.335 -648.177)" fill="#fff"/>
  </g>
</svg>
