<svg xmlns="http://www.w3.org/2000/svg" xmlns:xlink="http://www.w3.org/1999/xlink" viewBox="0 0 261.18 217.88"><defs><style>.cls-1{fill:none;}.cls-2{clip-path:url(#clip-path);}.cls-3{fill:#fff;}</style><clipPath id="clip-path" transform="translate(0 0)"><rect class="cls-1" width="261.18" height="217.88"/></clipPath></defs><title>Datový zdroj 6</title><g id="Vrstva_2" data-name="Vrstva 2"><g id="box_pikto"><g class="cls-2"><path class="cls-3" d="M124.69,105.21c.21.1.41.21.63.29a15.84,15.84,0,0,0,2.05.76,3.42,3.42,0,0,0,3-.58,1.77,1.77,0,0,0,.73-1.3,7.16,7.16,0,1,0-5.68,6.52,7,7,0,0,0,4-2.42,4.93,4.93,0,0,1-4.68-3.27m10.08,15.46c.29.15.59.29.88.42a5.61,5.61,0,0,0,3.18.67,2.31,2.31,0,0,0,2.29-2.53,8,8,0,0,0-.08-1.1,7.21,7.21,0,0,0-8.23-5.85,7.11,7.11,0,0,0-5.86,8.35,7.11,7.11,0,0,0,11.94,3.86,5.82,5.82,0,0,0,.42-.55,4.88,4.88,0,0,1-4.54-3.27M159.06,90l1.38.67a5.42,5.42,0,0,0,2.86.5,2.29,2.29,0,0,0,2.26-2.54,7.15,7.15,0,0,0-14.3.24,7.15,7.15,0,0,0,12,5.1,3.86,3.86,0,0,0,.47-.56c-2.49-.42-3.7-1.27-4.69-3.41m-22.43-8.19,1.3.63a5.26,5.26,0,0,0,2.87.45A2.28,2.28,0,0,0,143,80.39a7.15,7.15,0,1,0-14.3.19,7.15,7.15,0,0,0,11.78,5.29c.25-.21.45-.46.82-.83a4.9,4.9,0,0,1-4.64-3.28m9,23.36c.39.19.59.31.81.39a14.57,14.57,0,0,0,2,.72,3.42,3.42,0,0,0,3-.5,1.5,1.5,0,0,0,.77-1.28,12.21,12.21,0,0,0-.19-2.27,7.14,7.14,0,0,0-14.07,1.89,7.13,7.13,0,0,0,12,5.05,6.61,6.61,0,0,0,.56-.65,4.71,4.71,0,0,1-2.87-.88,6.19,6.19,0,0,1-1.94-2.47M115.48,89.89a4.68,4.68,0,0,0,.71.35,17.57,17.57,0,0,0,2.43.77,3.09,3.09,0,0,0,2.63-.78,1.54,1.54,0,0,0,.56-1.11,7.15,7.15,0,1,0-14.13.9,6.76,6.76,0,0,0,4.93,5.4,6.84,6.84,0,0,0,7-1.73,2.56,2.56,0,0,0,.35-.53,4.82,4.82,0,0,1-4.51-3.27M125.26,51c-.12.23-.2.39-.29.55-1.22,2.33-2.47,4.64-3.67,7A24.71,24.71,0,0,1,116.71,65a17.71,17.71,0,0,1-2.7,2.19,9.58,9.58,0,0,1-8.07,1.39,15.2,15.2,0,0,1-10.49-9.22,7,7,0,0,1-.26-4.51A2.19,2.19,0,0,1,98,53a13.72,13.72,0,0,1,3.14,1c1.12.48,2.16,1.15,3.23,1.74a3,3,0,0,0,.86.38l-.31-.48a17.14,17.14,0,0,0-4.8-4.22,11.23,11.23,0,0,0-2.63-1A4.63,4.63,0,0,0,92.66,52a9.43,9.43,0,0,0-2.23,5.71,12.93,12.93,0,0,0,.71,5.23,21.05,21.05,0,0,0,14.08,13.87,18.07,18.07,0,0,0,14-1.38,26.85,26.85,0,0,0,8.14-6.33q4.52-5.09,9-10.21c3-3.47,5.93-7,9-10.46a99.21,99.21,0,0,1,13.27-12.65,28.15,28.15,0,0,1,11.33-5.62,25.75,25.75,0,0,1,14,.75c10.25,3.41,16.38,10.54,18.52,21.07a27.77,27.77,0,0,1-1.14,13.85,66.35,66.35,0,0,1-11,20.9,137.91,137.91,0,0,1-17.48,18.67A257.47,257.47,0,0,1,139.3,130.6c-1.52,1-3.06,1.91-4.56,2.9a1,1,0,0,1-1.24,0,266.4,266.4,0,0,1-38.09-28.2A135,135,0,0,1,76.89,85.21,64.33,64.33,0,0,1,66.63,64.54a29.07,29.07,0,0,1-1.19-7.87,26.87,26.87,0,0,1,19.46-26,27.75,27.75,0,0,1,10.52-1.05,25.82,25.82,0,0,1,11.47,4.09,57.15,57.15,0,0,1,7.2,5.69A115.91,115.91,0,0,1,125,50.6Z" transform="translate(0 0)"/><path class="cls-3" d="M137.58,37.32A22.7,22.7,0,0,1,138,32.5a35.74,35.74,0,0,1,6.37-14.22,64.76,64.76,0,0,1,11-11.67A94,94,0,0,1,163.46.43L164.1,0l.22.08c3.05,2.89,4.34,6.36,3.39,10.51a7.12,7.12,0,0,1-3.84,4.89,102.6,102.6,0,0,0-11.76,7A52.56,52.56,0,0,0,139.23,35c-.43.62-.84,1.25-1.26,1.86-.09.13-.21.24-.39.45" transform="translate(0 0)"/><path class="cls-3" d="M37.48,216.76c1.58,0,2.18-.38,2.43-.85a2.92,2.92,0,0,0,.27-.74l.16-.25c.12,0,.15.11.15.48a9.69,9.69,0,0,1-.31,1.89c-.07.28-.18.4-.46.4-2.58,0-5.18-.08-8.31-.08l-.26-.15c0-.11.05-.19.23-.47,2.18-3.4,4.47-6.9,6.55-10.16h-3a5.33,5.33,0,0,0-2.23.33,1.77,1.77,0,0,0-.83,1.2c0,.22-.09.28-.18.28s-.13-.08-.13-.26c0-.36.23-1.77.31-2.23,0-.22.09-.29.19-.29a5.12,5.12,0,0,0,.61.11c1.47.06,2.22,0,2.85,0H40.2l.26.13-.12.29c-2.13,3.46-4.49,7-6.67,10.33Z" transform="translate(0 0)"/><path class="cls-3" d="M47.12,211.67l.14.28a4.06,4.06,0,0,0,1.18.15,1.51,1.51,0,0,0,1.09-.26,2.71,2.71,0,0,0,.92-2.32c0-2.2-1.45-2.83-2.37-2.83a3.18,3.18,0,0,0-.82.07l-.14.21Zm-1.82-1.22c0-2.35,0-2.78,0-3.28s-.16-.77-.67-.88a3.12,3.12,0,0,0-.6,0l-.26-.14c0-.1.11-.13.34-.13.82,0,1.79,0,2.12,0l2.18,0a4.94,4.94,0,0,1,2.84.66,2.69,2.69,0,0,1,1.05,2.12c0,1.14-.47,2.2-2,3.46,1.38,1.74,2.45,3.11,3.36,4.07a3.14,3.14,0,0,0,1.73,1.06l.44,0,.18.12c0,.13-.11.16-.29.16H54.18a3.13,3.13,0,0,1-1.66-.3,7.36,7.36,0,0,1-2.11-2.27c-.62-.85-1.34-1.9-1.54-2.13l-.28-.11-1.34,0-.13.12v.22c0,1.43,0,2.66.08,3.31,0,.45.14.79.61.85a7.27,7.27,0,0,0,.75.06l.19.12c0,.12-.11.16-.31.16-.9,0-2,0-2.28,0s-1.26,0-1.88,0c-.2,0-.31,0-.31-.16s.06-.12.25-.12a2.55,2.55,0,0,0,.55-.06c.31-.06.39-.4.45-.85.08-.65.08-1.88.08-3.3Z" transform="translate(0 0)"/><path class="cls-3" d="M67.23,212.1c0-3.46-2-5.61-4.53-5.61-1.78,0-3.81,1-3.81,4.84,0,3.22,1.78,5.77,4.75,5.77,1.08,0,3.59-.52,3.59-5m-10.47-.29a6,6,0,0,1,6.38-6.06c3.86,0,6.25,2.24,6.25,5.79a6.12,6.12,0,0,1-6.4,6.34,5.89,5.89,0,0,1-6.23-6.07" transform="translate(0 0)"/><path class="cls-3" d="M79,216.76c1.58,0,2.18-.38,2.43-.85a2.63,2.63,0,0,0,.28-.74l.16-.25c.12,0,.15.11.15.48a9.69,9.69,0,0,1-.31,1.89c-.08.28-.18.4-.46.4-2.59,0-5.19-.08-8.31-.08l-.26-.15c0-.11,0-.19.23-.47,2.18-3.4,4.47-6.9,6.54-10.16h-3a5.33,5.33,0,0,0-2.23.33,1.71,1.71,0,0,0-.83,1.2c0,.22-.09.28-.19.28s-.12-.08-.12-.26c0-.36.23-1.77.31-2.23,0-.22.09-.29.18-.29a5,5,0,0,0,.62.11c1.47.06,2.21,0,2.85,0h4.72l.26.13-.12.29c-2.14,3.46-4.49,7-6.67,10.33Z" transform="translate(0 0)"/><path class="cls-3" d="M86.84,210.45c0-2.35,0-2.78,0-3.28s-.15-.77-.66-.88a3.32,3.32,0,0,0-.61,0l-.26-.14c0-.1.11-.13.34-.13h1.26l1,0h3.87a5.63,5.63,0,0,0,.66-.1l.25-.06.1.14a9.75,9.75,0,0,0-.13,1c0,.15,0,.83-.08,1l-.15.18-.14-.22a1.88,1.88,0,0,0-.09-.56c-.11-.28-.27-.46-1-.55-.26,0-1.89-.07-2.19-.07l-.11.16v3.91l.11.17c.33,0,2.11,0,2.46,0a1.11,1.11,0,0,0,.75-.23l.25-.2.1.12c0,.1-.06.34-.12,1.13,0,.31-.06.93-.06,1l-.14.29L92,213c0-.15,0-.35-.06-.55s-.29-.54-.87-.61c-.29,0-1.82,0-2.19,0l-.09.15v1.22c0,.53,0,2,0,2.4,0,1.07.27,1.3,1.85,1.3a3.82,3.82,0,0,0,1.45-.19c.41-.18.59-.51.7-1.14l.17-.23.13.28a11.75,11.75,0,0,1-.21,1.71c-.11.41-.24.41-.83.41-1.16,0-2,0-2.68-.05s-1.14,0-1.61,0c-.17,0-.51,0-.88,0l-1.06,0c-.21,0-.32,0-.32-.16s.07-.12.25-.12a2.65,2.65,0,0,0,.56-.06c.31-.06.38-.41.45-.85.07-.65.07-1.87.07-3.3Z" transform="translate(0 0)"/><path class="cls-3" d="M99,215.55c0,1.21.23,1.62.54,1.72a2.55,2.55,0,0,0,.81.11l.26.12c0,.13-.14.16-.36.16-1,0-1.62,0-1.92,0-.13,0-.86,0-1.66,0-.21,0-.35,0-.35-.16l.25-.12a2.89,2.89,0,0,0,.7-.08c.4-.12.46-.57.48-1.91l.14-9.11c0-.31,0-.53.2-.53s.3.2.57.48,2.54,2.67,4.79,4.92c1.06,1,3.14,3.28,3.41,3.53H107l-.16-7c0-.94-.16-1.24-.53-1.39a2.34,2.34,0,0,0-.82-.1c-.18,0-.24,0-.24-.13s.17-.14.4-.14c.8,0,1.55,0,1.87,0s.76,0,1.52,0c.2,0,.35,0,.35.14s-.09.13-.28.13a1.54,1.54,0,0,0-.46,0c-.43.13-.56.45-.57,1.31l-.17,9.76c0,.34-.06.49-.2.49l-.53-.35c-1-.92-3-2.95-4.56-4.55s-3.41-3.55-3.69-3.85h0Z" transform="translate(0 0)"/><path class="cls-3" d="M123,212.1c0-3.46-2-5.61-4.53-5.61-1.78,0-3.81,1-3.81,4.84,0,3.22,1.78,5.77,4.75,5.77,1.09,0,3.59-.52,3.59-5m-10.47-.29a6,6,0,0,1,6.39-6.06c3.85,0,6.25,2.24,6.25,5.79a6.12,6.12,0,0,1-6.41,6.34,5.89,5.89,0,0,1-6.23-6.07" transform="translate(0 0)"/><path class="cls-3" d="M141,216.76c1.58,0,2.18-.38,2.43-.85a3,3,0,0,0,.28-.74l.15-.25c.13,0,.16.11.16.48a9.69,9.69,0,0,1-.31,1.89c-.08.28-.19.4-.46.4-2.59,0-5.18-.08-8.31-.08l-.26-.15c0-.11,0-.19.23-.47,2.18-3.4,4.47-6.9,6.54-10.16h-3a5.33,5.33,0,0,0-2.23.33,1.74,1.74,0,0,0-.83,1.2c0,.22-.1.28-.19.28s-.12-.08-.12-.26c0-.36.23-1.77.31-2.23,0-.22.09-.29.18-.29a5.46,5.46,0,0,0,.62.11c1.47.06,2.21,0,2.85,0h4.72l.26.13-.13.29c-2.13,3.46-4.48,7-6.66,10.33Z" transform="translate(0 0)"/><path class="cls-3" d="M148.78,210.45c0-2.35,0-2.78,0-3.28s-.16-.77-.67-.88a3.32,3.32,0,0,0-.61,0l-.26-.14c0-.1.11-.13.34-.13h1.25l1,0h3.87a5.63,5.63,0,0,0,.66-.1l.25-.06.09.14c0,.11-.07.29-.12,1,0,.15,0,.83-.08,1l-.16.18-.13-.22a1.88,1.88,0,0,0-.09-.56c-.11-.28-.27-.46-1-.55-.27,0-1.89-.07-2.2-.07l-.11.16v3.91l.11.17c.34,0,2.12,0,2.48,0a1.1,1.1,0,0,0,.74-.23l.24-.2.11.12c0,.1-.06.34-.12,1.13,0,.31-.06.93-.06,1l-.14.29L154,213c0-.15,0-.35-.06-.55s-.29-.54-.87-.61c-.29,0-1.82,0-2.19,0l-.1.15v1.22c0,.53,0,2,0,2.4,0,1.07.28,1.3,1.86,1.3a3.82,3.82,0,0,0,1.45-.19c.41-.18.59-.51.7-1.14l.17-.23.12.28a11.76,11.76,0,0,1-.2,1.71c-.1.41-.24.41-.83.41-1.16,0-2,0-2.68-.05s-1.14,0-1.61,0c-.17,0-.51,0-.88,0l-1.07,0c-.2,0-.31,0-.31-.16s.07-.12.25-.12a2.65,2.65,0,0,0,.56-.06c.31-.06.39-.41.45-.85.07-.65.07-1.87.07-3.3Z" transform="translate(0 0)"/><path class="cls-3" d="M165.44,217.47c-.25-.1-.3-.18-.3-.52,0-.86.07-1.78.08-2s.06-.4.19-.4l.15.26a3.14,3.14,0,0,0,.14.79,2.12,2.12,0,0,0,2.21,1.56,1.89,1.89,0,0,0,2.08-1.76c0-.76-.24-1.47-1.52-2.48l-.71-.55c-1.7-1.33-2.29-2.41-2.29-3.67,0-1.7,1.42-2.92,3.57-2.92a7.49,7.49,0,0,1,2.06.26l.22.19c0,.2-.06.65-.06,1.85,0,.35,0,.47-.18.47s-.15-.1-.15-.28a1.85,1.85,0,0,0-.41-1,1.92,1.92,0,0,0-1.68-.76,1.63,1.63,0,0,0-1.84,1.59c0,.72.36,1.25,1.64,2.23l.43.32c1.88,1.41,2.54,2.48,2.54,4a3.1,3.1,0,0,1-1.46,2.69,4.41,4.41,0,0,1-2.45.63,5.25,5.25,0,0,1-2.26-.4" transform="translate(0 0)"/><path class="cls-3" d="M178.66,211.67l.14.28a4,4,0,0,0,1.17.15,1.56,1.56,0,0,0,1.1-.26,2.71,2.71,0,0,0,.91-2.32c0-2.2-1.45-2.83-2.36-2.83a3.08,3.08,0,0,0-.82.07l-.14.21Zm-1.83-1.22c0-2.35,0-2.78,0-3.28s-.15-.77-.66-.88a3.32,3.32,0,0,0-.61,0l-.26-.14c0-.1.11-.13.34-.13.82,0,1.79,0,2.12,0l2.18,0a5,5,0,0,1,2.85.66,2.69,2.69,0,0,1,1.05,2.12c0,1.14-.48,2.2-2,3.46,1.37,1.74,2.44,3.11,3.35,4.07a3.15,3.15,0,0,0,1.74,1.06l.43,0,.19.12c0,.13-.11.16-.3.16h-1.47a3.09,3.09,0,0,1-1.65-.3,7.25,7.25,0,0,1-2.12-2.27c-.62-.85-1.33-1.9-1.54-2.13l-.27-.11-1.35,0-.12.12v.22c0,1.43,0,2.66.07,3.31.05.45.14.79.61.85a7.23,7.23,0,0,0,.76.06l.18.12c0,.12-.11.16-.31.16-.9,0-2,0-2.27,0s-1.27,0-1.89,0c-.2,0-.31,0-.31-.16s.07-.12.25-.12a2.65,2.65,0,0,0,.56-.06c.31-.06.38-.4.44-.85.08-.65.08-1.88.08-3.3Z" transform="translate(0 0)"/><path class="cls-3" d="M192,212.15c0,1.64,0,2.84,0,3.13a3.08,3.08,0,0,0,.17,1.17c.2.3.8.62,2,.62a5,5,0,0,0,3.56-1.11,4.89,4.89,0,0,0,1.3-3.86,5.26,5.26,0,0,0-1.48-3.86,6.16,6.16,0,0,0-4.4-1.55,4.2,4.2,0,0,0-1,.11l-.19.31c0,.52,0,1.87,0,3.09Zm-1.94-1.7c0-2.35,0-2.78,0-3.28s-.15-.77-.66-.88a3.32,3.32,0,0,0-.61,0l-.26-.14c0-.1.11-.14.34-.14.82,0,1.79,0,2.23,0s1.45,0,2.38,0c1.93,0,4.52,0,6.2,1.77a5.52,5.52,0,0,1,1.51,3.93,6.17,6.17,0,0,1-1.69,4.31,7,7,0,0,1-5.19,1.83c-.55,0-1.19-.05-1.77-.09s-1.13-.1-1.52-.1c-.17,0-.51,0-.88,0s-.76,0-1.07,0-.31,0-.31-.15.06-.13.25-.13a2.65,2.65,0,0,0,.56-.06c.31-.06.39-.4.45-.85.07-.65.07-1.87.07-3.3Z" transform="translate(0 0)"/><path class="cls-3" d="M206.3,216.19a6.12,6.12,0,0,1-.11-8.8,6.78,6.78,0,0,1,4.89-1.64,14.46,14.46,0,0,1,2.25.16c.58.07,1.08.21,1.54.25l.24.19c0,.12-.05.31-.08.86s0,1.36-.05,1.66,0,.36-.19.36-.15-.13-.15-.34a2.24,2.24,0,0,0-.6-1.43,4.63,4.63,0,0,0-3.14-1,4.07,4.07,0,0,0-2.91,1,5.78,5.78,0,0,0,3.45,9.52c1.38,0,2.21-.16,2.83-.87a2.42,2.42,0,0,0,.52-1c.05-.25.08-.31.21-.31l.13.24a13.86,13.86,0,0,1-.34,2,.52.52,0,0,1-.4.45,8.81,8.81,0,0,1-2.78.36,7.76,7.76,0,0,1-5.31-1.69" transform="translate(0 0)"/><path class="cls-3" d="M220,210.45c0-2.35,0-2.78,0-3.28s-.16-.77-.67-.88a3.12,3.12,0,0,0-.6,0l-.26-.14c0-.1.1-.13.33-.13H220l1,0h3.87a5.63,5.63,0,0,0,.66-.1l.25-.06.1.14a9.75,9.75,0,0,0-.13,1c0,.15-.05.83-.08,1l-.15.18-.14-.22a1.88,1.88,0,0,0-.09-.56c-.11-.28-.26-.46-1-.55-.26,0-1.88-.07-2.2-.07l-.1.16v3.91l.1.17c.35,0,2.13,0,2.48,0a1.1,1.1,0,0,0,.74-.23l.25-.2.11.12c0,.1-.07.34-.13,1.13,0,.31-.06.93-.06,1l-.14.29-.14-.14a3,3,0,0,0-.06-.55c-.07-.31-.29-.54-.87-.61-.29,0-1.82,0-2.19,0l-.09.15v1.22c0,.53,0,2,0,2.4,0,1.07.27,1.3,1.85,1.3a3.9,3.9,0,0,0,1.46-.19c.4-.18.59-.51.69-1.14l.17-.23.13.28a13.33,13.33,0,0,1-.2,1.71c-.11.41-.25.41-.84.41-1.16,0-2,0-2.68-.05s-1.14,0-1.61,0c-.17,0-.51,0-.88,0l-1.07,0c-.2,0-.3,0-.3-.16s.06-.12.25-.12a2.55,2.55,0,0,0,.55-.06c.31-.06.39-.41.45-.85.08-.65.08-1.87.08-3.3Z" transform="translate(0 0)"/><path class="cls-3" d="M0,156.15H20.16v.79H19.8c-1.9,0-5,.51-5,2.14v11.25l12.55.19V159.08c0-1.63-3.09-2.14-5-2.14h-.36v-.79H42.22v.79H39.88c-1.9,0-5,.51-5,2.14v22.65c0,1.63,3,2.15,5,2.15h2.34v.79H22.06v-.79h.36c1.89,0,5-.52,5-2.15V171.59l-12.55.6v9.54c0,1.63,3,2.15,5,2.15h.36v.79H0v-.79H2.34c1.9,0,5-.52,5-2.15V159.08c0-1.63-3.08-2.14-5-2.14H0Z" transform="translate(0 0)"/><path class="cls-3" d="M48.55,184h2.9c1.69,0,4.47-.55,4.47-2V158.8c0-1.46-2.78-1.94-4.47-1.94h-2.9v-.71h20.2c2.69,0,5.11-.44,6.22-1.78h.79L78.45,167h-.79l-1.54-3.48a9.86,9.86,0,0,0-9.43-6.34H63.44v13h2.1c2.22,0,4.32-3.17,4.52-6.26l0-.67h.83v14.89h-.76v-.71c0-2.42-2.53-5.75-4.59-5.75H63.44v11.88h5.39a9.43,9.43,0,0,0,9.31-7l.63-2.29h.79l-2,13.15h-1c-1.07-1.91-3.84-2.86-6.1-2.86h-22Z" transform="translate(0 0)"/><path class="cls-3" d="M104.35,158.84v11.53a.57.57,0,0,0,.44.24,20.81,20.81,0,0,0,3.52.19c3.61,0,5.82-3.24,5.82-7s-1.54-6.61-5.42-6.61h-2.62c-1.46,0-1.74.55-1.74,1.66M90.25,184h2.1c1.71,0,4.48-.47,4.48-1.94V158.8c0-1.46-2.77-1.94-4.48-1.94H89.46v-.71h20.63c8.64,0,12.36,3.13,12.36,7.49,0,4.07-2.89,6.57-6.89,7.68,1.31,3.48,3.92,10.45,8.52,10.45a5.53,5.53,0,0,0,4-1.62l.35.36a12.31,12.31,0,0,1-9.66,4.59c-6.89,0-9.23-6.77-10.66-13.23-1.07-.08-2.33-.24-3.76-.32V182c0,1.47,2.74,1.94,4.48,1.94h2.1v.72H90.25Z" transform="translate(0 0)"/><path class="cls-3" d="M144.23,162.33a2.44,2.44,0,0,0-2.33,1l-2.81,3.81h-.8L144,153.69h.68l-.36,2.06c0,.24,0,.4.52.4H163c.55,0,1.07-.4,1.54-.4.91,0,.91,1.19.56,1.79a13,13,0,0,1-2.1,2.89l-18.5,18.06h16.2a2.35,2.35,0,0,0,2.38-1.27l2.73-4.32h.91l-5.35,12.44h-.27c-.2-.4-.28-.68-.64-.68H141c-1.19,0-2.34,1.07-3.13,1.07-.52,0-.76-.67-.76-.87,0-.36,1-1.5,2.34-3.05l19.33-19.48Z" transform="translate(0 0)"/><path class="cls-3" d="M189.66,153.61a63.2,63.2,0,0,1,10.69-4.79l1.11,4a57.65,57.65,0,0,0-11.57,1.27Zm-2.74,21.07,9.19.2-5-9.15Zm10,1.67H186.13L183.48,182c-.52,1.07,2.34,1.86,4.08,1.86h1.1v.79H173.82v-.79h2c1.91,0,5.47-.63,6.18-2.21l11.92-25.95h.8l13.22,24c1.51,2.66,2.74,4.16,6.34,4.16h2.34v.79H195.28v-.79h1.47c2.53,0,3.28-.55,3.28-1.34a3.06,3.06,0,0,0-.51-1.47Z" transform="translate(0 0)"/><path class="cls-3" d="M253.34,185.06H252l-23.4-24.44.27,21.11c0,1.63,3.06,2.18,5,2.18h2.34v.75H219.75v-.75h2.3c1.86,0,5-.51,5-2l0-22.3c0-1.62-4.12-2.57-6.38-2.57h-3v-.75h17.58L252,174.17l0-15c-.05-1.63-3.06-2.18-5-2.18H244.7v-.75h16.48V157h-2.34c-1.82,0-4.95.52-4.95,2.06Z" transform="translate(0 0)"/></g></g></g></svg>