<svg id="Vrstva_1" data-name="Vrstva 1" xmlns="http://www.w3.org/2000/svg" viewBox="0 0 173.78 430.6"><defs><style>.cls-1{fill:#fff;}</style></defs><title>olivovy-olej-ikona</title><path class="cls-1" d="M119.58,430.6H54.19c-29.77,0-44.42-9.76-50.5-15.57a11.45,11.45,0,0,1-3.49-8.2c-.1-50-.41-213.4,0-216.43.4-2.79,8.78-13.8,14.61-20.74,5.7-6.76,16.38-18.63,24-22,7.87-3.5,11.22-8.12,12.51-10.57a7.29,7.29,0,0,0,.82-3.4V16.34A11.48,11.48,0,0,1,58.7,6c9.92-4.72,30.4-11,56.1.29a11.38,11.38,0,0,1,6.78,10.45V133.67a7.3,7.3,0,0,0,.83,3.4c1.29,2.45,4.63,7.07,12.5,10.57,7.64,3.39,18.33,15.26,24,22,5.83,6.94,14.22,18,14.62,20.74.43,3,.13,166.43,0,216.43a11.45,11.45,0,0,1-3.49,8.2C164,420.84,149.35,430.6,119.58,430.6ZM4.19,191c-.31,5-.19,119.09,0,215.83a7.41,7.41,0,0,0,2.25,5.3c5.65,5.41,19.37,14.47,47.74,14.47h65.39c28.38,0,42.09-9.06,47.74-14.47a7.38,7.38,0,0,0,2.26-5.3c.2-96.74.32-210.82,0-215.83-1.19-3.48-24.35-34.39-36.3-39.71-8.52-3.78-12.54-8.8-14.42-12.35a11.34,11.34,0,0,1-1.29-5.27V16.76A7.39,7.39,0,0,0,113.2,10C89-.65,69.72,5.2,60.42,9.63a7.45,7.45,0,0,0-4.23,6.71V133.67a11.33,11.33,0,0,1-1.28,5.27c-1.88,3.55-5.9,8.57-14.42,12.35C28.54,156.61,5.38,187.52,4.19,191Z"/><path class="cls-1" d="M171.78,389.17A686,686,0,0,1,2,389.17V237.72a1096,1096,0,0,1,169.78,0Z"/><path class="cls-1" d="M119.58,120.67a145,145,0,0,1-65.39,0l.12-105.78,1.61-4,3.64-3.08L70.44,3.93,81.72,2h8l9,1.27,8.2,2.15L114,8.14l3.54,2.74,1.72,3.46Z"/></svg>