<svg width="49.611mm" height="135.23mm" version="1.1" viewBox="0 0 49.611 135.23" xmlns="http://www.w3.org/2000/svg" xmlns:cc="http://creativecommons.org/ns#" xmlns:dc="http://purl.org/dc/elements/1.1/" xmlns:rdf="http://www.w3.org/1999/02/22-rdf-syntax-ns#"><defs><style>.cls-1{fill:#010101;}.cls-2{fill:#fdfdfd;}.cls-3{fill:#fefdfe;}.cls-4{fill:#f9f8f8;}.cls-5{fill:#fff;}.cls-6{fill:#fcfcfc;}.cls-7{fill:#f4f4f4;}.cls-8{fill:#1d1d1b;}</style></defs><g transform="translate(-2.4085 -156.15)"><g transform="matrix(.26458 0 0 .26458 2.4077 156.15)"><path class="cls-1" d="m33 511.1c-4.63-2.31-9.77-3.47-14-6.7-10.93-8.27-15.86-19.74-17.91-32.73-2.84-17.95 0.19-35.33 5.57-52.41a38.67 38.67 0 0 0 1.83-11.71c-0.05-58.18-0.15-116.37 0.11-174.55 0-8.87-2.85-16.93-4.73-25.26-7-31.28-1.56-59.81 17.45-85.74 5.59-7.62 11-15.37 16.19-23.28a80.49 80.49 0 0 0 13.49-45.48c-0.06-9.1-1-18.28 0.81-27.34a31.52 31.52 0 0 1 31.06-25.67c8.8 0 17.69-0.66 26.4 0.29 15.3 1.66 26.94 15.61 27.34 31.33 0.28 11.12-0.59 22.25 0.75 33.36 1.64 13.65 7.25 25.69 14.86 36.9 6 8.78 12.29 17.32 18.19 26.14 17 25.46 20 53.29 12.56 82.36a133 133 0 0 0-3.97 33.85q0.27 81.79 0 163.58c0 7.86 3.45 14.76 5 22.16 3.79 17.56 5.63 35-0.34 52.5-4.81 14.08-13.54 24.12-28.58 27.65-0.21 0-0.32 0.49-0.48 0.75h-16c-5.37-0.83-10.62-2-14.9-5.69a3.29 3.29 0 0 0-4.52-0.11c-4.87 3.74-10.64 4.86-16.49 5.8h-18c-5.85-0.94-11.62-2.06-16.49-5.8a3.29 3.29 0 0 0-4.52 0.11c-4.28 3.69-9.53 4.86-14.9 5.69z"/><path class="cls-2" d="m48.92 511.1c5.51-2.3 11.59-3.53 15.89-8.19 0.82-0.89 1.56-0.9 2.5-0.05 5 4.53 11.49 5.9 17.52 8.24z"/><path class="cls-3" d="m102.79 511.1c6-2.33 12.51-3.73 17.51-8.25a1.52 1.52 0 0 1 2.49 0.08c4.31 4.66 10.39 5.88 15.91 8.17z"/><path class="cls-4" d="m93.89 212.87c-20.78 0-41.56-0.09-62.34 0.09-3.2 0-4.59-0.79-5.41-3.91-7.25-27.41-4.05-52.78 13.56-75.83 8-10.52 15.87-21.28 21.93-33.15a96.85 96.85 0 0 0 10.11-33.07c0.28-2.42 1-3 3.27-3 12.63 0.09 25.27 0.06 37.9 0 1.67 0 2.7 0.15 2.91 2.3 2 20.62 11.36 38.15 23.2 54.64 8.2 11.42 17 22.47 21.89 36 6.52 18 4.58 35.84 0 53.8-0.82 3.23-3 2-4.65 2-20.81 0.16-41.59 0.13-62.37 0.13z"/><path class="cls-2" d="m93.91 426.18h62.79c1.93 0 3.92-0.48 4.66 2.3 4.11 15.37 6.76 30.82 2.22 46.54-3.3 11.39-9.92 15.71-21 14.23-5.05-0.67-6.59-2.53-6.26-7.58 0.44-6.61-1.86-10.66-7.17-12.63-4.78-1.77-9.08-0.3-13 4.63-1.65 2.07-3.09 4.31-4.57 6.51-9 13.33-26.55 13.32-35.63 0a67.44 67.44 0 0 0-6.27-8.33c-3-3.23-6.84-4.4-11.3-2.75s-6.82 5.11-7.33 9.71c-0.39 3.42 1.74 7.76-3 9.51-5.11 1.88-10.41 2.09-15.34-0.74s-7.33-7.53-8.79-12.76c-4.39-15.75-1.85-31.18 2.36-46.52 0.8-2.89 3-2.08 4.81-2.08q31.4-0.06 62.78 0z"/><path class="cls-2" d="m157.49 282.62q0.09 47.31 0.16 94.61v23.9c0 2 0.15 3.36-2.71 3.34q-59.49-0.23-119-0.24c-0.47-2.44 1.51-3.54 2.84-4.87q56.86-57 113.81-113.83c1.41-1.34 2.48-3.28 4.9-2.91z"/><path class="cls-2" d="m30.13 344.44q-0.13-47.29-0.13-94.6c0-3.65 0.23-7.32-0.08-10.94-0.31-3.44 0.69-4.42 4.26-4.4 28.55 0.17 57.09 0.1 85.64 0.12 6.63 0 13.26 0.12 19.89 0.18 0.47 2.45-1.51 3.55-2.84 4.88q-50.87 50.97-101.87 101.86c-1.34 1.34-2.45 3.28-4.87 2.9z"/><path class="cls-5" d="m30.13 384.36v-15c0.83-2.26 2.52-3.85 4.17-5.5q58.8-58.8 117.62-117.58c1.56-1.55 2.75-3.9 5.57-3.61v15c-0.83 2.26-2.52 3.86-4.17 5.51q-58.8 58.82-117.62 117.56c-1.56 1.56-2.7 3.9-5.57 3.62z"/><path class="cls-5" d="m31 404.23c-2.12-4.85-0.59-9.91-0.83-14.87 0.83-2.26 2.52-3.86 4.17-5.5q58.8-58.8 117.62-117.58c1.56-1.56 2.75-3.9 5.57-3.61v14.95c-0.83 2.26-2.52 3.86-4.17 5.5l-116.92 116.88a17.7 17.7 0 0 1-5.44 4.23z"/><path class="cls-5" d="m144.69 234.8c3.41-0.06 6.83 0 10.23-0.24 2.56-0.17 3.16 0.91 2.57 3.15-0.83 2.26-2.52 3.85-4.17 5.5q-58.8 58.79-117.62 117.58c-1.56 1.55-2.75 3.9-5.57 3.61v-14.95c0.83-2.26 2.52-3.86 4.17-5.51q52.47-52.45 104.91-104.94a18 18 0 0 1 5.48-4.2z"/><path class="cls-6" d="m93.34 42.57c-5.49 0-11-0.15-16.45 0.06-3 0.12-4.68-0.49-4.19-4a51.79 51.79 0 0 0 0.06-6c0.12-6.58 3.75-10.68 10.3-10.92 7.13-0.27 14.29-0.26 21.42 0 6.52 0.23 10.23 4.35 10.38 10.88 0.22 10 0.22 10-9.56 10h-12z"/><path class="cls-7" d="m30.13 364.4c1.34-1.23 2.73-2.4 4-3.69q59.67-59.64 119.33-119.32c1.28-1.28 2.67-2.46 4-3.68v5c-1.34 1.23-2.73 2.4-4 3.69q-59.66 59.6-119.32 119.32c-1.28 1.28-2.67 2.46-4 3.68z"/><path class="cls-7" d="m157.49 262.67c-1.34 1.22-2.73 2.4-4 3.68l-119.35 119.32c-1.28 1.29-2.67 2.46-4 3.69v-5c1.34-1.23 2.73-2.41 4-3.69l119.34-119.32c1.28-1.28 2.67-2.46 4-3.69z"/><path class="cls-7" d="m31 404.23c0.75-0.88 1.44-1.82 2.25-2.63q61-61 122-122c0.7-0.7 1.51-1.29 2.26-1.93v5c-0.75 0.64-1.56 1.23-2.26 1.93q-58.55 58.45-117.05 117c-0.81 0.81-1.49 1.75-2.23 2.63z"/><path class="cls-7" d="m144.69 234.8c-0.74 0.88-1.43 1.82-2.24 2.63q-55 55.07-110.07 110.09c-0.69 0.7-1.5 1.29-2.25 1.93v-5c1.34-1.22 2.74-2.4 4-3.68q51-50.94 101.89-101.91c1.28-1.28 2.43-2.7 3.64-4z"/><rect class="cls-2" x="30.84" y="235.57" width="126.14" height="168"/><path class="cls-8" d="m90.179 335.09a1 1 0 0 1-0.31-0.76v-60.84a1.06 1.06 0 0 1 1.08-1.08h10.53a1 1 0 0 1 0.76 0.31 1.06 1.06 0 0 1 0.32 0.77v50.58c0 0.3 0.15 0.44 0.45 0.44h29.43a1 1 0 0 1 0.76 0.32 1.05 1.05 0 0 1 0.32 0.76v8.74a1.09 1.09 0 0 1-1.08 1.08h-41.49a1.06 1.06 0 0 1-0.77-0.32z"/><path class="cls-8" d="m65.935 334.96c-0.20733-0.1973-0.32018-0.47398-0.31-0.76v-49.52s-10.455 6.5745-12.936 6.1451c0 0-0.68749-7.1852 0.07582-12.099l13.94-6.4462h10.53c0.28602-0.0102 0.5627 0.10267 0.76 0.31 0.20738 0.20217 0.323 0.4804 0.32 0.77v50.58l0.04125 11.607-11.651-0.26745c-0.2896 3e-3 -0.56783-0.11262-0.77-0.32z" fill="#1d1d1b"/></g></g></svg>