<svg xmlns="http://www.w3.org/2000/svg" viewBox="0 0 187.58 511.1"><defs><style>.cls-1{fill:#010101;}.cls-2{fill:#fdfdfd;}.cls-3{fill:#fefdfe;}.cls-4{fill:#f9f8f8;}.cls-5{fill:#fff;}.cls-6{fill:#fcfcfc;}.cls-7{fill:#f4f4f4;}.cls-8{fill:#1d1d1b;}</style></defs><title>Datový zdroj 13</title><g id="Vrstva_2" data-name="Vrstva 2"><g id="box_pikto"><path class="cls-1" d="M33,511.1c-4.63-2.31-9.77-3.47-14-6.7C8.07,496.13,3.14,484.66,1.09,471.67c-2.84-17.95.19-35.33,5.57-52.41a38.67,38.67,0,0,0,1.83-11.71C8.44,349.37,8.34,291.18,8.6,233c0-8.87-2.85-16.93-4.73-25.26-7-31.28-1.56-59.81,17.45-85.74,5.59-7.62,11-15.37,16.19-23.28A80.49,80.49,0,0,0,51,53.24c-.06-9.1-1-18.28.81-27.34A31.52,31.52,0,0,1,82.87.23c8.8,0,17.69-.66,26.4.29,15.3,1.66,26.94,15.61,27.34,31.33.28,11.12-.59,22.25.75,33.36,1.64,13.65,7.25,25.69,14.86,36.9,6,8.78,12.29,17.32,18.19,26.14,17,25.46,20,53.29,12.56,82.36A133,133,0,0,0,179,244.46q.27,81.79,0,163.58c0,7.86,3.45,14.76,5,22.16,3.79,17.56,5.63,35-.34,52.5-4.81,14.08-13.54,24.12-28.58,27.65-.21,0-.32.49-.48.75h-16c-5.37-.83-10.62-2-14.9-5.69a3.29,3.29,0,0,0-4.52-.11c-4.87,3.74-10.64,4.86-16.49,5.8h-18c-5.85-.94-11.62-2.06-16.49-5.8a3.29,3.29,0,0,0-4.52.11c-4.28,3.69-9.53,4.86-14.9,5.69Z"/><path class="cls-2" d="M48.92,511.1c5.51-2.3,11.59-3.53,15.89-8.19.82-.89,1.56-.9,2.5-.05,5,4.53,11.49,5.9,17.52,8.24Z"/><path class="cls-3" d="M102.79,511.1c6-2.33,12.51-3.73,17.51-8.25a1.52,1.52,0,0,1,2.49.08c4.31,4.66,10.39,5.88,15.91,8.17Z"/><path class="cls-4" d="M93.89,212.87c-20.78,0-41.56-.09-62.34.09-3.2,0-4.59-.79-5.41-3.91-7.25-27.41-4.05-52.78,13.56-75.83,8-10.52,15.87-21.28,21.93-33.15A96.85,96.85,0,0,0,71.74,67c.28-2.42,1-3,3.27-3,12.63.09,25.27.06,37.9,0,1.67,0,2.7.15,2.91,2.3,2,20.62,11.36,38.15,23.2,54.64,8.2,11.42,17,22.47,21.89,36,6.52,18,4.58,35.84,0,53.8-.82,3.23-3,2-4.65,2C135.45,212.9,114.67,212.87,93.89,212.87Z"/><path class="cls-2" d="M93.91,426.18H156.7c1.93,0,3.92-.48,4.66,2.3,4.11,15.37,6.76,30.82,2.22,46.54-3.3,11.39-9.92,15.71-21,14.23-5.05-.67-6.59-2.53-6.26-7.58.44-6.61-1.86-10.66-7.17-12.63-4.78-1.77-9.08-.3-13,4.63-1.65,2.07-3.09,4.31-4.57,6.51-9,13.33-26.55,13.32-35.63,0a67.44,67.44,0,0,0-6.27-8.33c-3-3.23-6.84-4.4-11.3-2.75s-6.82,5.11-7.33,9.71c-.39,3.42,1.74,7.76-3,9.51-5.11,1.88-10.41,2.09-15.34-.74s-7.33-7.53-8.79-12.76c-4.39-15.75-1.85-31.18,2.36-46.52.8-2.89,3-2.08,4.81-2.08q31.4-.06,62.78,0Z"/><path class="cls-2" d="M157.49,282.62q.09,47.31.16,94.61c0,8,0,15.94,0,23.9,0,2,.15,3.36-2.71,3.34q-59.49-.23-119-.24c-.47-2.44,1.51-3.54,2.84-4.87q56.86-57,113.81-113.83C154,284.19,155.07,282.25,157.49,282.62Z"/><path class="cls-2" d="M30.13,344.44Q30,297.15,30,249.84c0-3.65.23-7.32-.08-10.94-.31-3.44.69-4.42,4.26-4.4,28.55.17,57.09.1,85.64.12,6.63,0,13.26.12,19.89.18.47,2.45-1.51,3.55-2.84,4.88Q86,290.65,35,341.54C33.66,342.88,32.55,344.82,30.13,344.44Z"/><path class="cls-5" d="M30.13,384.36v-15c.83-2.26,2.52-3.85,4.17-5.5q58.8-58.8,117.62-117.58c1.56-1.55,2.75-3.9,5.57-3.61v15c-.83,2.26-2.52,3.86-4.17,5.51Q94.52,322,35.7,380.74C34.14,382.3,33,384.64,30.13,384.36Z"/><path class="cls-5" d="M31,404.23c-2.12-4.85-.59-9.91-.83-14.87.83-2.26,2.52-3.86,4.17-5.5q58.8-58.8,117.62-117.58c1.56-1.56,2.75-3.9,5.57-3.61v14.95c-.83,2.26-2.52,3.86-4.17,5.5L36.44,400A17.7,17.7,0,0,1,31,404.23Z"/><path class="cls-5" d="M144.69,234.8c3.41-.06,6.83,0,10.23-.24,2.56-.17,3.16.91,2.57,3.15-.83,2.26-2.52,3.85-4.17,5.5Q94.52,302,35.7,360.79c-1.56,1.55-2.75,3.9-5.57,3.61V349.45c.83-2.26,2.52-3.86,4.17-5.51Q86.77,291.49,139.21,239A18,18,0,0,1,144.69,234.8Z"/><path class="cls-6" d="M93.34,42.57c-5.49,0-11-.15-16.45.06-3,.12-4.68-.49-4.19-4a51.79,51.79,0,0,0,.06-6c.12-6.58,3.75-10.68,10.3-10.92,7.13-.27,14.29-.26,21.42,0,6.52.23,10.23,4.35,10.38,10.88.22,10,.22,10-9.56,10h-12Z"/><path class="cls-7" d="M30.13,364.4c1.34-1.23,2.73-2.4,4-3.69q59.67-59.64,119.33-119.32c1.28-1.28,2.67-2.46,4-3.68v5c-1.34,1.23-2.73,2.4-4,3.69Q93.8,306,34.14,365.72c-1.28,1.28-2.67,2.46-4,3.68Z"/><path class="cls-7" d="M157.49,262.67c-1.34,1.22-2.73,2.4-4,3.68L34.14,385.67c-1.28,1.29-2.67,2.46-4,3.69v-5c1.34-1.23,2.73-2.41,4-3.69L153.48,261.35c1.28-1.28,2.67-2.46,4-3.69Z"/><path class="cls-7" d="M31,404.23c.75-.88,1.44-1.82,2.25-2.63q61-61,122-122c.7-.7,1.51-1.29,2.26-1.93v5c-.75.64-1.56,1.23-2.26,1.93Q96.7,343.05,38.2,401.6c-.81.81-1.49,1.75-2.23,2.63Z"/><path class="cls-7" d="M144.69,234.8c-.74.88-1.43,1.82-2.24,2.63q-55,55.07-110.07,110.09c-.69.7-1.5,1.29-2.25,1.93v-5c1.34-1.22,2.74-2.4,4-3.68q51-50.94,101.89-101.91c1.28-1.28,2.43-2.7,3.64-4Z"/><rect class="cls-2" x="30.84" y="235.57" width="126.14" height="168"/><path class="cls-8" d="M65,324.34a.36.36,0,0,0,.36.17H89.75a1,1,0,0,1,.76.32,1.05,1.05,0,0,1,.32.76v8.74a1.09,1.09,0,0,1-1.08,1.08H49.25a1.06,1.06,0,0,1-.77-.32,1,1,0,0,1-.31-.76v-8.28a1.82,1.82,0,0,1,.54-1.35q4.41-4.32,9-9.41T63.47,309q2.52-3,5.13-5.67,8.19-9.09,8.19-13.5a6.66,6.66,0,0,0-2.25-5.18,8.41,8.41,0,0,0-5.85-2,8.41,8.41,0,0,0-5.85,2A6.87,6.87,0,0,0,60.59,290v2.25a1.09,1.09,0,0,1-1.08,1.08H48.89a1.06,1.06,0,0,1-.77-.32,1,1,0,0,1-.31-.76V288a15.48,15.48,0,0,1,3.06-8.59,17.73,17.73,0,0,1,7.42-5.71,26.24,26.24,0,0,1,10.4-2,24.36,24.36,0,0,1,11.11,2.39,17.92,17.92,0,0,1,7.29,6.44,16.48,16.48,0,0,1,2.57,9,17.9,17.9,0,0,1-1.89,7.74,42.8,42.8,0,0,1-5.67,8.55q-2.79,3.51-6,6.92c-2.16,2.29-5.37,5.58-9.63,9.91L65.09,324A.31.31,0,0,0,65,324.34Z"/><path class="cls-8" d="M100.32,335.09a1,1,0,0,1-.31-.76V273.49a1.06,1.06,0,0,1,1.08-1.08h10.53a1,1,0,0,1,.76.31,1.06,1.06,0,0,1,.32.77v50.58c0,.3.15.44.45.44h29.43a1,1,0,0,1,.76.32,1.05,1.05,0,0,1,.32.76v8.74a1.09,1.09,0,0,1-1.08,1.08H101.09A1.06,1.06,0,0,1,100.32,335.09Z"/></g></g></svg>