<svg xmlns="http://www.w3.org/2000/svg" viewBox="0 0 12 18.87"><path fill="#fff" d="M1850.05,83.28a.87.87,0,0,1,.08.38.93.93,0,0,1-.14.49.83.83,0,0,1-.39.35l-.8.37a4.07,4.07,0,0,1-.93.31,4.92,4.92,0,0,1-.94.1,4.66,4.66,0,0,1-1.51-.26,5.69,5.69,0,0,1-1.43-.73,7.13,7.13,0,0,1-1.28-1.14,9.85,9.85,0,0,1-1.07-1.5q-.3-.47-.63-1.05c-.19-.33-.4-.73-.64-1.2s-.49-1-.73-1.55-.45-1.06-.6-1.49-.26-.78-.34-1.06a5.07,5.07,0,0,1-.19-.84,9,9,0,0,1-.29-1.3,9.18,9.18,0,0,1-.09-1.28,7.52,7.52,0,0,1,.16-1.59,5.58,5.58,0,0,1,.51-1.42,4.8,4.8,0,0,1,.87-1.18,4.36,4.36,0,0,1,1.25-.84l.78-.36a.85.85,0,0,1,.37-.08.93.93,0,0,1,.49.14,1,1,0,0,1,.34.4l1.5,3.42a.83.83,0,0,1,.08.37,1,1,0,0,1-.14.51.84.84,0,0,1-.4.34l-1.54.71a1.07,1.07,0,0,0-.47.42,1.13,1.13,0,0,0-.08,1l2.54,5.8a1.07,1.07,0,0,0,.42.49,1.11,1.11,0,0,0,.57.16,1.17,1.17,0,0,0,.43-.1l1.55-.71a.94.94,0,0,1,.36-.08.89.89,0,0,1,.83.54Z" transform="translate(-1838.13 -66.41)"/></svg>