<?xml version="1.0" encoding="UTF-8"?>
<svg width="76.34mm" height="39.076mm" version="1.1" viewBox="0 0 76.34 39.076" xmlns="http://www.w3.org/2000/svg" xmlns:cc="http://creativecommons.org/ns#" xmlns:dc="http://purl.org/dc/elements/1.1/" xmlns:rdf="http://www.w3.org/1999/02/22-rdf-syntax-ns#">
    <defs>
        <style>.cls-1{fill:transparent;}</style>
    </defs>
    <g transform="translate(-48.008 -147.41)">
        <g fill="#fff" transform="matrix(.26458 0 0 .26458 122.12 124.22)">
            <path d="m-280.12 183.43c1.89 0 3.79 0.07 5.68 0a1.48 1.48 0 0 1 1.69 1.13c2.16 5.66 4.41 11.28 6.63 16.92 0.15 0.39 0.34 0.77 0.63 1.41 0.34-0.78 0.59-1.32 0.81-1.87 2.12-5.42 4.26-10.82 6.31-16.27a1.71 1.71 0 0 1 2-1.32c1.69 0.09 3.39 0 5.31 0-0.21 0.61-0.34 1.1-0.53 1.57-3.6 8.73-7.23 17.46-10.8 26.21a1.74 1.74 0 0 1-1.89 1.31c-3.91-0.06-3.91 0-5.41-3.64l-9.71-23.45c-0.2-0.48-0.48-0.93-0.72-1.4z"/>
            <path d="m-86.936 235.3a6.7 6.7 0 0 1-0.23-1.25v-11.08c2.47 0 4.87-0.42 7.19 0.55a6 6 0 0 1-1.37 11.46c-0.4 0.09-0.8 0.22-1.2 0.32zm1.43-1.56c2.64 0.11 5.2 0.32 6.87-2.19a4.76 4.76 0 0 0-0.19-5.34c-1.73-2.26-4.19-2-6.68-1.87z"/>
            <path d="m-195.2 235.3v-12.73a7.81 7.81 0 0 1 1.85 1.18c2.21 2.76 4.36 5.57 6.8 8.72v-9.44h1.49v11.74a1.59 1.59 0 0 1-0.21 0.53h-0.88l-7.63-9.73v5.73c0 1.33-0.15 2.67-0.23 4z"/>
            <path d="m-66.216 235.3c-2.76-1.28-4.51-3.24-4.42-6.48a6.15 6.15 0 0 1 12.06-1.67 6.34 6.34 0 0 1-3.25 7.62l-1.18 0.53zm1.64-1.41a4.72 4.72 0 0 0 4.77-4.81 4.82 4.82 0 0 0-4.65-5 4.76 4.76 0 0 0-4.67 4.94 4.64 4.64 0 0 0 4.55 4.87z"/>
            <path d="m-143.84 235.3a7 7 0 0 1-0.23-1.26v-11.24a44 44 0 0 1 6.4 0.5 5.59 5.59 0 0 1 4.33 6.09 5.89 5.89 0 0 1-5.16 5.63c-0.42 0.07-0.83 0.19-1.25 0.28zm1.26-1.68c3.39 0.57 5.91-0.19 7.06-2.09a5.07 5.07 0 0 0-0.33-5.49c-1.25-1.59-4.22-2.26-6.73-1.5z"/>
            <path d="m-126.92 235.3a13.57 13.57 0 0 1-0.14-1.43v-10.95h7.8c0.28 0 0.55 0.6 0.82 0.92l-0.27 0.36h-6.76v3.73h4.65c0.94 0 1 0.41 0.75 1.29h-5.43v4.48h7.05v1.57z"/>
            <path d="m-47.826 235.3c-3.95-1.84-5.44-4.58-4.43-8.14 1.3-4.6 6.29-5.24 9.18-3.72 0.44 0.23 0.62 1 0.93 1.47a27.68 27.68 0 0 0-4.51-0.7 4.19 4.19 0 0 0-4.07 3.19 4.81 4.81 0 0 0 1.31 5.33 4.86 4.86 0 0 0 5.18 0.83 1.72 1.72 0 0 0 1.34-2c-0.09-1.1 0-2.22 0-3.34 1.07-0.4 1.54-0.14 1.47 1v2c0 2.57-0.2 2.84-2.67 3.77a3.84 3.84 0 0 0-0.49 0.27z"/>
            <path d="m-208.04 235.3c-4.25-2-5.78-5.36-4.12-9.07a6.47 6.47 0 0 1 8.94-2.75c0.41 0.26 0.56 0.93 1 1.64a29 29 0 0 0-3.83-1 4.59 4.59 0 0 0-4.7 2.75 4.89 4.89 0 0 0 6.35 6.66 1.79 1.79 0 0 0 1.32-2c-0.09-1.1 0-2.22 0-3.34 1.08-0.38 1.56-0.12 1.46 1a3.8 3.8 0 0 0 0 1c0.51 2.68-0.57 4.34-3.17 5.06z"/>
            <path d="m-34.986 235.3v-12.38h7.65c0.31 0 0.6 0.6 0.9 0.92l-0.27 0.38h-6.73v3.68h5.38c0.35 0.86 0.28 1.31-0.69 1.3h-4.7v4.52h7.23c-0.13 0.66-0.22 1.11-0.31 1.55z"/>
            <path d="m-168.06 235.3c-0.49-0.19-1-0.4-1.48-0.57-1-0.32-1.47-0.89-1.16-1.77 1.58 0.31 3.1 0.68 4.64 0.9a2.38 2.38 0 0 0 1.66-0.37 2.68 2.68 0 0 0 1.11-1.66 2.28 2.28 0 0 0-1.12-1.65 28.27 28.27 0 0 0-3.56-1.25c-2-0.71-2.77-1.71-2.59-3.34a3.23 3.23 0 0 1 3.39-2.79 16.86 16.86 0 0 1 3.59 0.39c1 0.19 1.29 0.88 1 1.6a42.9 42.9 0 0 0-4.34-0.59 1.79 1.79 0 0 0-2.11 1.56c-0.16 1.22 0.78 1.56 1.66 1.87s2 0.61 3 1c1.45 0.54 2.59 1.4 2.6 3.13a3.32 3.32 0 0 1-2.45 3.25 3.29 3.29 0 0 0-0.46 0.3z"/>
            <path d="m-233.14 235.3q-2.07-4.94-4.16-9.87c-0.31-0.75-0.64-1.49-1-2.31 1.07-0.45 1.6-0.15 2 0.87 1.22 2.95 2.53 5.86 3.94 9.09 0.69-1.59 1.27-2.94 1.85-4.3 0.69-1.6 1.43-3.18 2.06-4.8 0.37-0.94 0.89-1.32 2-0.87l-5.29 12.19z"/>
            <path d="m-112.29 235.3c-0.05-3.87-0.13-7.74-0.1-11.61 0-0.31 0.68-0.62 1-0.93l0.4 0.34v10.68h6.7l-0.15 1.52z"/>
            <path d="m-220.59 235.3v-12.29l1.46-0.09v12.38z"/>
            <path d="m-177.98 235.3a6.73 6.73 0 0 1-0.24-1.25v-11l1.41-0.14v12.39z"/>
            <path d="m-167.73 121.72c1.76-1.53 3.43-2.91 5-4.38a5.21 5.21 0 0 0 1.09-1.7 2.39 2.39 0 0 0-4-2.54 8.41 8.41 0 0 0-1.25 2.57 7.53 7.53 0 0 1-4.49 5.08c0.64-2.79 1.1-5.63 2-8.35 1.71-5.41 3.58-10.77 5.5-16.11 1.25-3.46 3.26-6.36 7-8a8.08 8.08 0 0 1-2.21 6.16c-0.62 0.68-1.35 1.28-1.9 2a2.64 2.64 0 0 0 0.48 4 2.42 2.42 0 0 0 3.53-1.18 34.49 34.49 0 0 0 1.77-5.19 14.36 14.36 0 0 0 0.29-2.28h0.43c0.33 1.94 0.79 3.86 0.93 5.82a4.48 4.48 0 0 1-1.61 3.74c-1.59 1.44-1.57 3.07-0.11 4.4a3.05 3.05 0 0 0 4.59-0.53 6.22 6.22 0 0 0 0.8-3.53 50.51 50.51 0 0 0-1.31-6.13c0.81 0.62 1.38 1.14 2 1.54a2.46 2.46 0 0 0 3.39-0.48 2.55 2.55 0 0 0-0.56-3.52 11.79 11.79 0 0 0-2.31-1.21 8.35 8.35 0 0 1-4.35-3.84l0.17-0.44a29.71 29.71 0 0 1 4.33 1.57 14.48 14.48 0 0 1 7.24 9.24 16.6 16.6 0 0 0 6 8.71c1.19 1 2.47 1.86 4 3-1.18 0.16-2.08 0.3-3 0.41a19.26 19.26 0 0 0-2.3 0.27 2.67 2.67 0 0 0-2 3.24 2.51 2.51 0 0 0 3.34 1.48c1.48-0.52 2.88-1.27 4.23-1.89-1.32 2-2.78 3.93-4.06 6s-0.72 4.46 1.23 5.54a2.87 2.87 0 0 0 3.37-0.44 2.28 2.28 0 0 0 0.76-3c-1.62-3-0.27-5.4 1.57-7.79 0 0.43-0.09 0.85-0.09 1.28a29.79 29.79 0 0 0 0.13 3.9 2.45 2.45 0 0 0 2.92 2.29 2.64 2.64 0 0 0 1.89-3.4c-0.21-0.78-0.66-1.51-0.92-2.28-0.32-1-0.56-2-0.84-3.06 6.56-1 17.64 4.41 20.38 9.93a9.5 9.5 0 0 1-6.9-2.53 12.61 12.61 0 0 0-2.08-1.57 3 3 0 0 0-4.07 1.09 2.73 2.73 0 0 0 1.41 3.79c2 0.85 4.11 1.35 6.12 2-0.33 0.21-0.85 0.52-1.33 0.89a2.19 2.19 0 0 0-0.74 3.05 2.3 2.3 0 0 0 3.37 0.24c0.48-0.4 0.79-1 1.3-1.36q1.86-1.33 3.84-2.5c0.7-0.42 1.28-0.19 1.59 0.63 0.58 1.54 1.29 3 1.77 4.61 0.69 2.26-0.47 3.44-2.8 3-3.92-0.67-7.84-1.37-11.79-1.91a149.27 149.27 0 0 0-26.9-1.21 5.86 5.86 0 0 1-0.65 0c-0.68-3.18-0.47-6 2-8.51a4.63 4.63 0 0 0 1.25-2.7 2.2 2.2 0 0 0-1.8-2.35 2.3 2.3 0 0 0-2.83 1.52c-0.69 2.15-1.09 4.4-1.6 6.61a4.86 4.86 0 0 0 0 0.86l-0.46 0.42a6.09 6.09 0 0 0-1-1.51 14.45 14.45 0 0 0-2.94-1.83 2.29 2.29 0 0 0-3.12 1 2.44 2.44 0 0 0 0.83 3.23 19 19 0 0 0 2.61 1.24l3.57 1.75-0.12 0.4c-2.5 0.24-5 0.4-7.5 0.75-4.8 0.67-9.6 1.43-14.39 2.2-2.23 0.35-3.1-0.26-3.17-2.52s0-4.26 0-6.55a8.3 8.3 0 0 1 6.53 2.21 9.69 9.69 0 0 0 2.14 1.47 2.52 2.52 0 0 0 3.25-1.1 2.49 2.49 0 0 0-1.08-3.14 25.69 25.69 0 0 0-2.47-1.16 48 48 0 0 0 5.21-1.25 10.09 10.09 0 0 0 3.43-2 2.58 2.58 0 0 0 0.33-3.48 4.9 4.9 0 0 0-2.67-1.68 2.21 2.21 0 0 0-2.6 1.84c-0.66 2.73-2.7 3.77-5.07 4.45-1.08 0.27-2.29 0.42-3.52 0.71z"/>
            <path d="m-154.29 134.26a7.09 7.09 0 0 1-0.56 1.39c-1.53 2.31-3.12 4.57-4.63 6.89a1.57 1.57 0 0 0-0.14 1.37c1.8 2.7 3.68 5.36 5.68 8.24 2-3.38 3.95-6.59 6-10l6 9.07c0.65-1 1.25-1.81 1.82-2.67 1.23-1.86 2.41-3.76 3.7-5.58a1.39 1.39 0 0 0-0.07-1.92c-1.77-2.42-3.48-4.89-5.23-7.37 2.22-0.82 20.58-0.21 24.14 0.8-1.75 2.38-3.42 4.74-5.2 7a1.57 1.57 0 0 0-0.09 2.15c1.76 2.73 3.42 5.52 5.26 8.52l3.92-5.34c2.07-2.83 2.07-2.83 0.27-5.76-1.31-2.14-2.6-4.29-4.13-6.81l12.15 1.8-6.08 8 5.9 9.92-10.71-1.53a150.82 150.82 0 0 0-23.85-1.12 156.79 156.79 0 0 0-27.9 3.17c-2.64 0.53-3.26 0-3.26-2.64a50.85 50.85 0 0 1 0.25-6.1c1.61 2.65 3.22 5.3 5 8.2l5.88-10.59-5.84-7.13-5.22 9c0-2.42-0.14-4.43 0.05-6.41a2.59 2.59 0 0 1 2.41-2.21q6.82-1.09 13.64-2.23c0.29 0 0.57-0.11 0.85-0.17zm18.59 7.75 6 9.23c2-2.84 3.83-5.5 5.65-8.19a1.1 1.1 0 0 0 0.08-1c-1.86-2.85-3.77-5.66-5.73-8.58z"/>
            <path d="m-48.666 212.25h-6.32v-28.82c1.95 0 3.88-0.06 5.8 0 0.38 0 0.81 0.6 1.08 1 2.38 3.65 4.74 7.33 7.2 11.16 0.73-1.11 1.4-2.11 2.05-3.12 1.76-2.73 3.49-5.49 5.31-8.18a2.38 2.38 0 0 1 1.6-0.89c1.68-0.11 3.38 0 5.18 0v28.74h-6.18v-17.46c-0.48 0.57-0.73 0.82-0.92 1.1q-2.78 4.11-5.52 8.22c-1.51 2.25-1.66 2.25-3.22-0.07-1.93-2.91-3.88-5.82-6.06-9.09z"/>
            <path d="m-206.44 183.43c1.74 0 3.38-0.07 5 0.05 0.45 0 0.95 0.58 1.28 1q5.7 7.29 11.35 14.61a3.44 3.44 0 0 0 1.32 1.13v-16.7h6.2v28.77c-1.51 0-3 0.09-4.49 0a2.62 2.62 0 0 1-1.42-1c-4.06-5.2-8.09-10.43-12.14-15.65-0.17-0.23-0.37-0.45-0.77-0.92v17.54h-6.32z"/>
            <path d="m-167.81 212.24v-29c5 0.23 10 0 14.74 0.79 7.62 1.31 11.83 7.5 11.28 15.41a14 14 0 0 1-13.31 12.76c-4.19 0.23-8.43 0.04-12.71 0.04zm6.29-5.66a59.07 59.07 0 0 0 7.14-0.52 7.75 7.75 0 0 0 6.11-7.56c0.19-4-1.83-7.3-5.28-8.51-2.59-0.91-5.24-0.59-8-0.53z"/>
            <path d="m-111.81 201.65 7.58 10.65h-7.27c-0.31 0-0.66-0.51-0.9-0.84-1.73-2.41-3.48-4.8-5.11-7.27a2.51 2.51 0 0 0-2.6-1.37c-1 0.1-2 0-3.22 0v9.44h-6.17v-28.56c0.07-0.06 0.15-0.18 0.22-0.18 5.05 0 10.12-0.19 15.14 0.24 6.25 0.54 9.72 6.18 7.92 12.17a9 9 0 0 1-5.59 5.72zm-11.48-12.02v7.54c2.71-0.12 5.33-0.1 7.92-0.39a3.35 3.35 0 0 0 3.08-3.47c0-1.95-0.89-3.44-2.84-3.62-2.66-0.26-5.37-0.06-8.16-0.06z"/>
            <path d="m-240.35 183.53h21.63v5.73h-15.23v5.49h13.4v5.9h-13.4v5.78h15.37v5.78h-21.77z"/>
            <path d="m-13.346 183.54h21.58v5.76h-15.25v5.47h13.49v5.88h-13.48v5.78h15.42v5.76h-21.76z"/>
            <path d="m-96.386 212.32c0.81-1.89 1.54-3.62 2.29-5.34 3.28-7.5 6.58-15 9.81-22.51a1.77 1.77 0 0 1 2-1.23c4 0 4 0 5.67 3.76q5.13 11.79 10.3 23.57l0.73 1.75h-6.12c-0.33 0-0.79-0.47-1-0.84-0.71-1.53-1.38-3.09-2-4.68a1.46 1.46 0 0 0-1.63-1.06h-9.61a1.38 1.38 0 0 0-1.52 1c-0.62 1.58-1.27 3.14-2 4.67a1.7 1.7 0 0 1-1.08 0.9c-1.84 0.06-3.74 0.01-5.84 0.01zm15.31-20.53-3.47 8.11h7z"/>
            <path d="m-135.8 157.95a181.28 181.28 0 0 0-33.49 3.79c-1.75 0.37-2 0.14-2-1.69 0-2.44 0-2.45 2.39-3a158.76 158.76 0 0 1 51.9-2.29c5.06 0.62 10.07 1.57 15.1 2.41 1.56 0.27 2.58 3.13 1.5 4.3a2.1 2.1 0 0 1-1.58 0.24c-4.75-0.74-9.47-1.76-14.24-2.27-6.49-0.66-13.07-1.01-19.58-1.49z"/>
            <path d="m-154.29 134.26 12.52-0.94-6.16 9c-1.68-2.2-3.25-4.26-4.84-6.31-0.47-0.6-1-1.14-1.52-1.71z"/>
            <path d="m-100.44 145.77-4.94-9.4c4.13 0.05 5.49 1.07 5.28 4.53-0.1 1.58 0 3.18 0 4.77z"/>
            <path d="m-105.57 154.06 5.14-7.4 0.28 0.07c0 2.14 0.07 4.29 0 6.43a1.51 1.51 0 0 1-1.77 1.51c-1.17-0.11-2.29-0.37-3.65-0.61z"/>
        </g>
    </g>
</svg>
