<svg xmlns="http://www.w3.org/2000/svg" viewBox="0 0 41.65 38.64"><defs><style>.cls-1{fill:#1e1e1e;}.cls-2{fill:#92b216;}</style></defs><title>HOMEBUTTON</title><g id="Vrstva_4" data-name="Vrstva 4"><path class="cls-1" d="M17.23,25v9l-.5,0c-2.6,0-5.2,0-7.8,0-1.2,0-1.65-.46-1.65-1.65,0-3.86,0-7.71,0-11.57a1.06,1.06,0,0,1,.24-.67Q14,13.64,20.4,7.21L20.65,7c.13.12.25.22.36.34L33.76,20.06a1.08,1.08,0,0,1,.27.66q0,5.85,0,11.7c0,1-.46,1.55-1.43,1.56-2.69,0-5.38,0-8.07,0l-.24,0V25Z"/><path class="cls-2" d="M20.17,5.88l-15,15c-.71.7-1,.7-1.71,0-1-1-1-1.14,0-2.12L19,3.24a2.14,2.14,0,0,1,3.21,0Q30,11.12,37.87,19c.64.64.63.92,0,1.57-1,1-1.24,1-2.27,0Q28.27,13.15,20.88,5.8A.47.47,0,0,0,20.17,5.88Z"/></g></svg>