<svg xmlns="http://www.w3.org/2000/svg" xmlns:xlink="http://www.w3.org/1999/xlink" width="151.139" height="31.849" viewBox="0 0 151.139 31.849">
  <defs>
    <clipPath id="clip-path">
      <rect id="Rectangle_127" data-name="Rectangle 127" width="151.139" height="31.849"/>
    </clipPath>
  </defs>
  <g id="Group_294" data-name="Group 294" transform="translate(-0.001)">
    <g id="Group_295" data-name="Group 295" transform="translate(0.585 20.719)">
      <rect id="Rectangle_125" data-name="Rectangle 125" width="34.096" height="0.325" fill="#93b223"/>
      <rect id="Rectangle_126" data-name="Rectangle 126" width="95.641" height="0.325" transform="translate(48.576)" fill="#93b223"/>
    </g>
    <g id="Group_296" data-name="Group 296" transform="translate(80.166 22.927)">
      <path id="Path_156" data-name="Path 156" d="M222.837,72.146v-.482a.137.137,0,0,1,.028-.09L225.277,68s0-.012,0-.021a.022.022,0,0,0-.021-.014h-2.351a.061.061,0,0,1-.069-.069v-.434a.061.061,0,0,1,.069-.069h3.06a.061.061,0,0,1,.069.069v.482a.139.139,0,0,1-.027.09l-2.426,3.577s0,.012,0,.021a.022.022,0,0,0,.021.014h2.364a.061.061,0,0,1,.069.069v.434a.061.061,0,0,1-.069.069h-3.06A.061.061,0,0,1,222.837,72.146Z" transform="translate(-222.837 -66.073)" fill="#1f1f1f"/>
      <path id="Path_157" data-name="Path 157" d="M237.09,67.389h.524a.061.061,0,0,1,.069.069v4.687a.061.061,0,0,1-.069.069h-.5a.1.1,0,0,1-.083-.048l-2.157-3.522c-.005-.014-.012-.019-.021-.017s-.014.01-.014.024l.007,3.495a.061.061,0,0,1-.069.069h-.524a.061.061,0,0,1-.069-.069V67.458a.061.061,0,0,1,.069-.069h.51a.1.1,0,0,1,.082.048l2.151,3.522c.005.014.012.02.021.017s.014-.01.014-.024l-.007-3.495A.06.06,0,0,1,237.09,67.389Z" transform="translate(-230.101 -66.073)" fill="#1f1f1f"/>
      <path id="Path_158" data-name="Path 158" d="M249.312,72.159l-.248-.807a.027.027,0,0,0-.027-.021H247.1a.027.027,0,0,0-.027.021l-.248.807a.081.081,0,0,1-.083.055h-.558c-.051,0-.069-.025-.055-.076l1.51-4.694a.08.08,0,0,1,.082-.055h.689a.081.081,0,0,1,.083.055l1.523,4.694.007.028c0,.032-.021.048-.062.048H249.4A.081.081,0,0,1,249.312,72.159ZM247.248,70.8a.034.034,0,0,0,.024.01h1.585a.033.033,0,0,0,.024-.01.02.02,0,0,0,0-.024l-.8-2.557a.023.023,0,0,0-.042,0l-.8,2.557A.02.02,0,0,0,247.248,70.8Z" transform="translate(-237.746 -66.073)" fill="#1f1f1f"/>
      <path id="Path_159" data-name="Path 159" d="M259.315,69.737a1.417,1.417,0,0,1-.593-.558,1.625,1.625,0,0,1-.21-.831V66.563a1.585,1.585,0,0,1,.21-.824,1.433,1.433,0,0,1,.593-.551,1.9,1.9,0,0,1,.879-.2,1.936,1.936,0,0,1,.876.19,1.414,1.414,0,0,1,.589.534,1.5,1.5,0,0,1,.21.8v.007a.075.075,0,0,1-.021.055.067.067,0,0,1-.049.021l-.523.028c-.046,0-.069-.021-.069-.062v-.021a.945.945,0,0,0-.276-.71,1.011,1.011,0,0,0-.737-.269,1.024,1.024,0,0,0-.741.269.939.939,0,0,0-.279.71v1.833a.94.94,0,0,0,.279.71,1.024,1.024,0,0,0,.741.269,1.011,1.011,0,0,0,.737-.269.945.945,0,0,0,.276-.71v-.014c0-.041.023-.062.069-.062l.523.028a.061.061,0,0,1,.069.069,1.521,1.521,0,0,1-.21.8,1.43,1.43,0,0,1-.589.541,2.071,2.071,0,0,1-1.754,0Zm-.038-5.966a.041.041,0,0,1,.014-.028.056.056,0,0,1,.041-.014h.413a.092.092,0,0,1,.082.041l.379.524a.035.035,0,0,0,.042,0l.366-.524a.092.092,0,0,1,.083-.041h.407a.057.057,0,0,1,.055.024c.009.016,0,.036-.014.059l-.545.751a.1.1,0,0,1-.09.041h-.586a.1.1,0,0,1-.09-.041l-.545-.751A.057.057,0,0,1,259.277,63.771Z" transform="translate(-245.678 -63.73)" fill="#1f1f1f"/>
      <path id="Path_160" data-name="Path 160" d="M270.506,72.145V67.458a.061.061,0,0,1,.069-.069h.524a.061.061,0,0,1,.069.069v2.2a.016.016,0,0,0,.014.017.017.017,0,0,0,.021-.01l1.971-2.233a.093.093,0,0,1,.083-.041h.6a.058.058,0,0,1,.055.024c.009.016,0,.036-.014.059l-1.64,1.937a.062.062,0,0,0,0,.041l1.758,2.681a.111.111,0,0,1,.014.041c0,.028-.018.041-.055.041h-.6a.1.1,0,0,1-.082-.041L271.8,69.919a.022.022,0,0,0-.021-.014.03.03,0,0,0-.021.007l-.579.648a.123.123,0,0,0-.014.035v1.551a.061.061,0,0,1-.069.069h-.524A.061.061,0,0,1,270.506,72.145Z" transform="translate(-253.357 -66.073)" fill="#1f1f1f"/>
      <path id="Path_161" data-name="Path 161" d="M282.411,71.972a1.476,1.476,0,0,1-.6-.582,1.718,1.718,0,0,1-.214-.865v-1.64a1.7,1.7,0,0,1,.214-.862,1.484,1.484,0,0,1,.6-.579,2.03,2.03,0,0,1,1.785,0,1.487,1.487,0,0,1,.6.579,1.7,1.7,0,0,1,.214.862v1.64a1.718,1.718,0,0,1-.214.865,1.48,1.48,0,0,1-.6.582,2.03,2.03,0,0,1-1.785,0Zm1.648-.655a1.035,1.035,0,0,0,.29-.765V68.877a1.056,1.056,0,0,0-.29-.775,1.019,1.019,0,0,0-.758-.293,1.009,1.009,0,0,0-.755.293,1.063,1.063,0,0,0-.286.775v1.675a1.042,1.042,0,0,0,.286.765,1.014,1.014,0,0,0,.755.29A1.026,1.026,0,0,0,284.059,71.317Z" transform="translate(-260.459 -65.975)" fill="#1f1f1f"/>
      <path id="Path_162" data-name="Path 162" d="M294.231,72.159l-1.475-4.694-.007-.028c0-.032.021-.048.062-.048h.558a.08.08,0,0,1,.083.055l1.137,3.812a.022.022,0,0,0,.021.014.023.023,0,0,0,.021-.014l1.137-3.812a.076.076,0,0,1,.076-.055h.544c.051,0,.069.025.055.076l-1.489,4.694a.081.081,0,0,1-.083.055h-.558A.08.08,0,0,1,294.231,72.159Z" transform="translate(-267.598 -66.073)" fill="#1f1f1f"/>
      <path id="Path_163" data-name="Path 163" d="M305.641,69.816l-.248-.807a.027.027,0,0,0-.027-.021h-1.937a.028.028,0,0,0-.028.021l-.248.807a.08.08,0,0,1-.082.055h-.558c-.051,0-.069-.025-.055-.076l1.509-4.694a.08.08,0,0,1,.083-.055h.689a.08.08,0,0,1,.082.055l1.523,4.694.007.028c0,.032-.021.048-.062.048h-.565A.08.08,0,0,1,305.641,69.816Zm-2.064-1.361a.033.033,0,0,0,.024.01h1.585a.034.034,0,0,0,.024-.01.02.02,0,0,0,0-.024l-.8-2.557a.022.022,0,0,0-.021-.014.022.022,0,0,0-.021.014l-.8,2.557A.02.02,0,0,0,303.577,68.455Zm.469-3.874a.051.051,0,0,1,0-.059l.407-.744a.081.081,0,0,1,.083-.048H305c.028,0,.045.008.052.024a.065.065,0,0,1-.01.059l-.489.744a.1.1,0,0,1-.082.048H304.1A.067.067,0,0,1,304.045,64.581Z" transform="translate(-273.811 -63.73)" fill="#1f1f1f"/>
      <path id="Path_164" data-name="Path 164" d="M319.828,72.159l-1.475-4.694-.007-.028c0-.032.021-.048.062-.048h.558a.08.08,0,0,1,.083.055l1.137,3.812a.022.022,0,0,0,.021.014.022.022,0,0,0,.021-.014l1.137-3.812a.076.076,0,0,1,.076-.055h.545c.051,0,.069.025.055.076l-1.489,4.694a.08.08,0,0,1-.082.055h-.559A.08.08,0,0,1,319.828,72.159Z" transform="translate(-283.987 -66.073)" fill="#1f1f1f"/>
      <path id="Path_165" data-name="Path 165" d="M330.819,72.145V67.458a.061.061,0,0,1,.069-.069h.524a.061.061,0,0,1,.069.069v4.687a.061.061,0,0,1-.069.069h-.524A.061.061,0,0,1,330.819,72.145Z" transform="translate(-291.973 -66.073)" fill="#1f1f1f"/>
      <path id="Path_166" data-name="Path 166" d="M338.711,67.389h.523a.061.061,0,0,1,.069.069v4.687a.061.061,0,0,1-.069.069h-.5a.1.1,0,0,1-.082-.048l-2.157-3.522c0-.014-.012-.019-.021-.017s-.014.01-.014.024l.007,3.495a.061.061,0,0,1-.069.069h-.524a.061.061,0,0,1-.069-.069V67.458a.061.061,0,0,1,.069-.069h.51a.1.1,0,0,1,.083.048l2.151,3.522c0,.014.011.02.021.017s.014-.01.014-.024l-.007-3.495A.06.06,0,0,1,338.711,67.389Z" transform="translate(-295.164 -66.073)" fill="#1f1f1f"/>
      <path id="Path_167" data-name="Path 167" d="M349.144,71.972a1.48,1.48,0,0,1-.6-.582,1.718,1.718,0,0,1-.214-.865v-1.64a1.7,1.7,0,0,1,.214-.862,1.485,1.485,0,0,1,.6-.579,2.03,2.03,0,0,1,1.785,0,1.484,1.484,0,0,1,.6.579,1.7,1.7,0,0,1,.214.862v1.64a1.714,1.714,0,0,1-.214.865,1.478,1.478,0,0,1-.6.582,2.03,2.03,0,0,1-1.785,0Zm1.647-.655a1.035,1.035,0,0,0,.29-.765V68.877a1.056,1.056,0,0,0-.29-.775,1.123,1.123,0,0,0-1.513,0,1.063,1.063,0,0,0-.286.775v1.675a1.042,1.042,0,0,0,.286.765,1.013,1.013,0,0,0,.755.29A1.025,1.025,0,0,0,350.792,71.317Z" transform="translate(-303.185 -65.975)" fill="#1f1f1f"/>
      <path id="Path_168" data-name="Path 168" d="M363.037,67.457V67.9a.061.061,0,0,1-.069.069h-1.324a.024.024,0,0,0-.027.028v4.149a.061.061,0,0,1-.069.069h-.524a.061.061,0,0,1-.069-.069v-4.15a.024.024,0,0,0-.027-.028h-1.261a.061.061,0,0,1-.069-.069v-.441a.061.061,0,0,1,.069-.069h3.3A.061.061,0,0,1,363.037,67.457Z" transform="translate(-310.398 -66.072)" fill="#1f1f1f"/>
      <path id="Path_169" data-name="Path 169" d="M374.574,65.619h-2.447a.024.024,0,0,0-.028.028v1.482a.024.024,0,0,0,.028.028h1.682a.061.061,0,0,1,.069.069v.434a.061.061,0,0,1-.069.069h-1.682a.024.024,0,0,0-.028.028v1.516a.024.024,0,0,0,.028.028h2.447a.061.061,0,0,1,.069.069V69.8a.061.061,0,0,1-.069.069h-3.067a.061.061,0,0,1-.069-.069V65.115a.061.061,0,0,1,.069-.069h3.067a.061.061,0,0,1,.069.069v.434A.061.061,0,0,1,374.574,65.619Zm-1.906-1.038a.05.05,0,0,1,0-.059l.407-.744a.081.081,0,0,1,.083-.048h.462c.028,0,.045.008.052.024a.064.064,0,0,1-.01.059l-.489.744a.1.1,0,0,1-.083.048h-.366A.067.067,0,0,1,372.668,64.581Z" transform="translate(-317.979 -63.73)" fill="#1f1f1f"/>
      <path id="Path_170" data-name="Path 170" d="M382.894,72.145V67.458a.061.061,0,0,1,.069-.069h.524a.061.061,0,0,1,.069.069v2.2a.016.016,0,0,0,.014.017.017.017,0,0,0,.021-.01l1.971-2.233a.092.092,0,0,1,.082-.041h.6a.057.057,0,0,1,.055.024c.009.016,0,.036-.014.059l-1.641,1.937a.063.063,0,0,0,0,.041l1.758,2.681a.113.113,0,0,1,.014.041c0,.028-.019.041-.055.041h-.6a.1.1,0,0,1-.083-.041l-1.489-2.254a.022.022,0,0,0-.021-.014.03.03,0,0,0-.021.007l-.579.648a.112.112,0,0,0-.014.035v1.551a.061.061,0,0,1-.069.069h-.524A.061.061,0,0,1,382.894,72.145Z" transform="translate(-325.314 -66.073)" fill="#1f1f1f"/>
      <path id="Path_171" data-name="Path 171" d="M397.357,72.159l-.248-.807a.028.028,0,0,0-.028-.021h-1.937a.027.027,0,0,0-.027.021l-.248.807a.08.08,0,0,1-.082.055h-.558c-.051,0-.069-.025-.055-.076l1.509-4.694a.081.081,0,0,1,.083-.055h.689a.08.08,0,0,1,.082.055l1.523,4.694.007.028c0,.032-.021.048-.062.048h-.565A.08.08,0,0,1,397.357,72.159ZM395.292,70.8a.033.033,0,0,0,.024.01H396.9a.034.034,0,0,0,.024-.01.02.02,0,0,0,0-.024l-.8-2.557a.023.023,0,0,0-.021-.014.022.022,0,0,0-.021.014l-.8,2.557A.02.02,0,0,0,395.292,70.8Z" transform="translate(-332.532 -66.073)" fill="#1f1f1f"/>
    </g>
    <g id="Group_313" data-name="Group 313" transform="translate(0.001)">
      <g id="Group_297" data-name="Group 297" clip-path="url(#clip-path)">
        <path id="Path_172" data-name="Path 172" d="M67.49,17.1a2.614,2.614,0,0,0-1.771-.655,2.175,2.175,0,0,0-.389.025c-1.334.146-2.5,1.384-2.5,4.223v5.388H60.4V17.1c0-1.261-.035-2.6-.035-2.6h2.366l.025,2.258a3.729,3.729,0,0,1,3.18-2.5.488.488,0,0,1,.169-.023,2.964,2.964,0,0,1,2.039.751Z" transform="translate(-38.65 -9.115)" fill="#1f1f1f"/>
      </g>
      <g id="Group_298" data-name="Group 298" clip-path="url(#clip-path)">
        <path id="Path_173" data-name="Path 173" d="M90.028,26.555H87.6v-8.98c0-1.263-.031-2.6-.031-2.6h2.458Z" transform="translate(-56.067 -9.59)" fill="#1f1f1f"/>
      </g>
      <g id="Group_299" data-name="Group 299" clip-path="url(#clip-path)">
        <path id="Path_174" data-name="Path 174" d="M111.962,28.718c-.121,2.16-2.379,3.713-5.848,3.713s-5.777-1.311-5.777-3.446c0-1.53,1.166-2.791,3.034-3.205a1.552,1.552,0,0,1-1.213-1.432v-.193c.121-.922.945-1.359,1.892-1.6a3.6,3.6,0,0,1-2.645-3.519c0-2.4,1.967-4.052,4.83-4.052h5.655v1.942h-2.16a3.033,3.033,0,0,1,1.02,2.256c0,2.137-1.6,3.592-4.1,3.81-1.068.1-2.062.316-2.062,1.02v.048c0,.51.605.826,1.334.972.608.121,1.628.266,2.477.389,2.427.314,3.567,1.553,3.567,3.1v.195Zm-5.848-1.7c-2.112,0-3.471.753-3.471,1.846s1.359,1.844,3.471,1.844,3.469-.751,3.469-1.844-1.359-1.846-3.469-1.846m-.025-10.339a2.356,2.356,0,1,0,0,4.709,2.355,2.355,0,1,0,0-4.709" transform="translate(-64.241 -9.592)" fill="#1f1f1f"/>
      </g>
      <g id="Group_300" data-name="Group 300" clip-path="url(#clip-path)">
        <path id="Path_175" data-name="Path 175" d="M166.771,26.037h-2.427V18.585c0-1.527-.779-2.5-2.233-2.5a3.4,3.4,0,0,0-2.841,1.894v8.058h-2.426v-8.98c0-1.263-.092-2.6-.092-2.6h2.35l.048,1.48a4.423,4.423,0,0,1,3.738-1.771c1.723,0,3.883.995,3.883,4.441v7.428Z" transform="translate(-100.362 -9.071)" fill="#1f1f1f"/>
      </g>
      <g id="Group_301" data-name="Group 301" clip-path="url(#clip-path)">
        <path id="Path_176" data-name="Path 176" d="M201.7,25.863a4.229,4.229,0,0,1-2.015.462c-.995,0-1.625-.414-1.771-1.311a4.5,4.5,0,0,1-3.228,1.311,2.813,2.813,0,0,1-3.011-2.841v-.146c0-2.183,1.8-3.18,3.326-3.69A19.648,19.648,0,0,1,197.821,19v-.56c0-1.432-.7-2.233-2.087-2.233a4.42,4.42,0,0,0-3.446,1.554V15.67a5.768,5.768,0,0,1,3.858-1.432c2.331,0,4.1,1.188,4.1,3.81V23.9c0,.437.2.705.487.753a.519.519,0,0,0,.217.025,1.454,1.454,0,0,0,.753-.218ZM197.821,20.4c-2.208.364-3.738,1.116-3.738,2.645,0,.947.655,1.53,1.748,1.53a2.637,2.637,0,0,0,1.989-.947V20.4Z" transform="translate(-122.724 -9.116)" fill="#1f1f1f"/>
      </g>
      <g id="Group_302" data-name="Group 302" clip-path="url(#clip-path)">
        <path id="Path_177" data-name="Path 177" d="M228.315,16.967h-2.427V2.6c0-1.261.021-2.6.021-2.6h2.406Z" transform="translate(-144.625 -0.001)" fill="#1f1f1f"/>
      </g>
      <g id="Group_303" data-name="Group 303" clip-path="url(#clip-path)">
        <path id="Path_178" data-name="Path 178" d="M355.7,20.623h-8.277a3.716,3.716,0,0,0,3.469,3.69,7.224,7.224,0,0,0,.728.05,5.913,5.913,0,0,0,3.373-1l.316,1.894a8.774,8.774,0,0,1-4.393,1.068,5.808,5.808,0,0,1-6-6.069c0-3.421,2.4-6.091,5.607-6.091,3.18,0,5.171,2.062,5.171,5.85v.605Zm-2.4-1.7c-.171-1.748-1.116-2.864-2.791-2.864-1.65,0-2.67,1.14-2.986,2.864Z" transform="translate(-220.834 -9.071)" fill="#93b223"/>
      </g>
      <g id="Group_304" data-name="Group 304" clip-path="url(#clip-path)">
        <path id="Path_179" data-name="Path 179" d="M387.363,22.826c0,2.718-2.645,3.544-4.2,3.544A6.881,6.881,0,0,1,379.6,25.5V23.117a5.392,5.392,0,0,0,3.567,1.336c1.263,0,1.821-.705,1.869-1.384v-.1c0-.655-.51-1.166-1.261-1.53-.389-.194-1.14-.558-1.917-.947a3.376,3.376,0,0,1-2.185-2.984,2.06,2.06,0,0,1,.025-.389c.217-2.11,2.281-2.888,3.956-2.888a5.808,5.808,0,0,1,3.2.778V17.22a4.54,4.54,0,0,0-3.082-1.068c-.922,0-1.65.314-1.723.97v.146c0,.558.412.9.995,1.213.485.268,1.407.705,2.112,1.07a3.506,3.506,0,0,1,2.208,3.178Z" transform="translate(-243.037 -9.113)" fill="#93b223"/>
      </g>
      <g id="Group_305" data-name="Group 305" clip-path="url(#clip-path)">
        <path id="Path_180" data-name="Path 180" d="M142.46,26.555h-2.427v-8.98c0-1.263-.031-2.6-.031-2.6h2.458Z" transform="translate(-89.637 -9.59)" fill="#1f1f1f"/>
      </g>
      <g id="Group_306" data-name="Group 306" clip-path="url(#clip-path)">
        <path id="Path_181" data-name="Path 181" d="M296.019,17.356h-2.429V8.376c0-1.263-.029-2.6-.029-2.6h2.458ZM294.781,3.448a1.419,1.419,0,1,1,1.432-1.432,1.413,1.413,0,0,1-1.432,1.432" transform="translate(-187.833 -0.39)" fill="#93b223"/>
      </g>
      <g id="Group_307" data-name="Group 307" clip-path="url(#clip-path)">
        <path id="Path_182" data-name="Path 182" d="M320.446,26.037H318.02V18.585c0-1.527-.779-2.5-2.233-2.5a3.4,3.4,0,0,0-2.841,1.894v8.058H310.52v-8.98c0-1.263-.092-2.6-.092-2.6h2.35l.048,1.48a4.423,4.423,0,0,1,3.738-1.771c1.723,0,3.883.995,3.883,4.441v7.428Z" transform="translate(-198.752 -9.071)" fill="#93b223"/>
      </g>
      <g id="Group_308" data-name="Group 308" clip-path="url(#clip-path)">
        <path id="Path_183" data-name="Path 183" d="M256.965,14.771l-4.472,11.321h-.816l-2.562-6.22a10.975,10.975,0,0,1-.512-1.421,11.534,11.534,0,0,1-.489,1.421l-2.493,6.22h-.862L241.1,17.171c-.421-1.026-.955-2.4-.955-2.4h2.607l2.191,5.939a12.788,12.788,0,0,1,.418,1.259,12.4,12.4,0,0,1,.443-1.259l2.423-6.1h.978l2.445,6.1a8.356,8.356,0,0,1,.418,1.259c.187-.631.327-.955.443-1.259l2.214-5.939Z" transform="translate(-153.755 -9.353)" fill="#93b223"/>
      </g>
      <g id="Group_309" data-name="Group 309" clip-path="url(#clip-path)">
        <path id="Path_184" data-name="Path 184" d="M9.344,21.448a8.948,8.948,0,0,1-9.344-9c0-4.843,3.738-9,9.417-9,5.777,0,9.417,4.131,9.417,9,0,4.745-3.54,9-9.49,9M9.417,5.565a6.537,6.537,0,0,0-6.566,6.884,6.574,6.574,0,1,0,13.132,0A6.524,6.524,0,0,0,9.417,5.565" transform="translate(0 -2.209)" fill="#1f1f1f"/>
      </g>
      <g id="Group_310" data-name="Group 310" clip-path="url(#clip-path)">
        <path id="Path_185" data-name="Path 185" d="M140.889,3.448a1.419,1.419,0,1,1,1.432-1.432,1.413,1.413,0,0,1-1.432,1.432" transform="translate(-89.304 -0.39)" fill="#93b223"/>
      </g>
      <g id="Group_311" data-name="Group 311" clip-path="url(#clip-path)">
        <path id="Path_186" data-name="Path 186" d="M88.457,3.448a1.419,1.419,0,1,1,1.432-1.432,1.413,1.413,0,0,1-1.432,1.432" transform="translate(-55.734 -0.39)" fill="#93b223"/>
      </g>
      <g id="Group_312" data-name="Group 312" clip-path="url(#clip-path)">
        <path id="Path_187" data-name="Path 187" d="M12.881,24.6a4.7,4.7,0,1,0,4.441-4.953A4.705,4.705,0,0,0,12.881,24.6" transform="translate(-8.243 -12.577)" fill="#93b223"/>
      </g>
    </g>
  </g>
</svg>
