<svg xmlns="http://www.w3.org/2000/svg" width="12.253" height="10.473" viewBox="0 0 12.253 10.473">
  <g id="Group_253" data-name="Group 253" transform="translate(-92.684 -1003.604)">
    <path id="Path_110" data-name="Path 110" d="M93.335,1014.077l-.651-.924a9.452,9.452,0,0,0,3.662-4.86l.274,1.232-1.506-1.4a3.18,3.18,0,0,1-1.334-2.533,1.762,1.762,0,0,1,1.95-1.985,2.544,2.544,0,0,1,1.848.685,6.759,6.759,0,0,1,.445,2.4C98.023,1009.662,95.868,1012.4,93.335,1014.077Zm6.913,0-.65-.924a9.452,9.452,0,0,0,3.662-4.86l.274,1.232-1.506-1.4a3.18,3.18,0,0,1-1.334-2.533,1.762,1.762,0,0,1,1.951-1.985,2.545,2.545,0,0,1,1.848.685,6.778,6.778,0,0,1,.445,2.4C104.937,1009.662,102.781,1012.4,100.248,1014.077Z" transform="translate(0 0)" fill="#fff"/>
  </g>
</svg>
