<svg id="Vrstva_1" data-name="Vrstva 1" xmlns="http://www.w3.org/2000/svg" xmlns:xlink="http://www.w3.org/1999/xlink" viewBox="0 0 239.05 351.65"><defs><style>.cls-1{fill:none;}.cls-2{clip-path:url(#clip-path);}.cls-3{opacity:0.44;}.cls-4{fill:#1e1e1e;}</style><clipPath id="clip-path"><rect class="cls-1" x="-1247.95" y="-257.67" width="961" height="867"/></clipPath></defs><title>ikony</title><g class="cls-2"><rect class="cls-3" x="-1361.61" y="-293.67" width="2078" height="930"/></g><path class="cls-4" d="M119.37,328.57h81.36a9.69,9.69,0,0,0,10.13-10c0-29.56,0-166.67,0-196.23a10.68,10.68,0,0,0-.61-3.65c-1.65-4.29-5-6.42-9.92-6.42H82.16c-14.7,0-29.41.06-44.12,0a10,10,0,0,0-10.28,10.15c.17,29.71.08,167,.1,196.68a9.31,9.31,0,0,0,.36,2.94,9.57,9.57,0,0,0,9.49,6.59h81.66m0,23.08h-98a21.65,21.65,0,0,1-20.3-15.29,28.17,28.17,0,0,1-1.1-7.46C0,271.27,0,106.08,0,48.45c0-9.72,7.68-19,17.24-20.72C21,27,21,27,21,30.76c0,8.44,0,16.86,0,25.29.06,9.42,4.12,16.63,12.18,21.54A23.31,23.31,0,0,0,45,80.93c5.38.11,10.77,0,16.15,0,11.32-.07,21.74-8.83,23.7-19.93a27.68,27.68,0,0,0,.38-4.46c0-9.17,0-18.34,0-27.52,0-1.52.44-1.91,1.94-1.91q32.31.07,64.61,0c1.51,0,2,.42,1.95,1.93-.06,8.93-.12,17.85,0,26.77.12,9.41,4.11,16.78,12.25,21.71a24.07,24.07,0,0,0,12.38,3.4c5.13.07,10.27.11,15.4,0a24,24,0,0,0,18.08-8.22,23.49,23.49,0,0,0,6.14-16.23c0-9,0-17.95,0-26.93,0-2.54,0-2.5,2.47-2.09A21.41,21.41,0,0,1,237,40.08a22,22,0,0,1,2,9.56c0,57.49.06,222.52,0,280,0,10.31-6.53,18.64-16.6,21.34a21.35,21.35,0,0,1-5.46.64q-48.77.06-97.52,0"/><path class="cls-4" d="M201.36,32.46c0,8-.05,15.95,0,23.92,0,4.54-3.74,8.37-7.84,8.33-5.37-.07-10.76,0-16.13-.08a7.85,7.85,0,0,1-7.48-7.69q-.08-24.51,0-49A7.58,7.58,0,0,1,177.16.19c5.72-.23,11.45-.28,17.16,0,4.2.22,7,3.78,7,8.05q0,12.11,0,24.21"/><path class="cls-4" d="M68.58,32.3q0,11.88,0,23.76c0,4.27-1.89,6.92-5.89,8.33a4.46,4.46,0,0,1-1.45.25c-5.58,0-11.16.06-16.74,0-3.77,0-7.32-3.89-7.32-7.7q0-23.91,0-47.83c0-4.34,1.52-7,5.15-8.51A7.16,7.16,0,0,1,45,.13C50.32.07,55.65.1,61,.07a7.91,7.91,0,0,1,7.58,7.72c0,8.17,0,16.34,0,24.51Z"/></svg>