<svg id="Vrstva_1" data-name="Vrstva 1" xmlns="http://www.w3.org/2000/svg" viewBox="0 0 148.07 108.62"><defs><style>.cls-1{fill:#fff;}</style></defs><title>ikony</title><path class="cls-1" d="M14.65,84.15a6.81,6.81,0,0,1,2.77,2.73,8.26,8.26,0,0,1,1,4.05,7.59,7.59,0,0,1-1,4,6.94,6.94,0,0,1-2.86,2.66,9.15,9.15,0,0,1-4.23,1H5.21c-.11,0-.17.06-.17.18v9.11a.44.44,0,0,1-.43.43H.43a.46.46,0,0,1-.31-.13.41.41,0,0,1-.12-.3V83.61a.41.41,0,0,1,.12-.3.42.42,0,0,1,.31-.13H10.5A8.54,8.54,0,0,1,14.65,84.15ZM12.4,93.52a3.27,3.27,0,0,0,1-2.48,3.37,3.37,0,0,0-1-2.53,3.64,3.64,0,0,0-2.65-1H5.21c-.11,0-.17.06-.17.18v6.57c0,.12.06.18.17.18H9.75A3.67,3.67,0,0,0,12.4,93.52Z"/><path class="cls-1" d="M25.49,107.48a8.29,8.29,0,0,1-3.31-3.2A9.42,9.42,0,0,1,21,99.54V91.9a9.24,9.24,0,0,1,1.18-4.68,8.13,8.13,0,0,1,3.31-3.16,10.31,10.31,0,0,1,4.91-1.13,10.45,10.45,0,0,1,5,1.13,8,8,0,0,1,3.3,3.16,9.14,9.14,0,0,1,1.18,4.68v7.64a9.44,9.44,0,0,1-1.18,4.76,8,8,0,0,1-3.3,3.19,10.45,10.45,0,0,1-5,1.13A10.2,10.2,0,0,1,25.49,107.48Zm8.09-4.43a4.59,4.59,0,0,0,1.21-3.33V91.86a4.66,4.66,0,0,0-1.19-3.34,4.22,4.22,0,0,0-3.2-1.26,4.16,4.16,0,0,0-3.16,1.26A4.67,4.67,0,0,0,26,91.86v7.86a4.63,4.63,0,0,0,1.2,3.33,4.19,4.19,0,0,0,3.16,1.25A4.25,4.25,0,0,0,33.58,103.05Z"/><path class="cls-1" d="M43.82,108.1a.38.38,0,0,1-.13-.3V83.65a.42.42,0,0,1,.13-.31.41.41,0,0,1,.3-.12H48.3a.41.41,0,0,1,.3.12.42.42,0,0,1,.13.31v20.07a.16.16,0,0,0,.18.18H60.59a.44.44,0,0,1,.43.43v3.47a.44.44,0,0,1-.43.43H44.12A.42.42,0,0,1,43.82,108.1Z"/><path class="cls-1" d="M81.36,87.42a.41.41,0,0,1-.3.12H69.34a.16.16,0,0,0-.18.18v5.54a.16.16,0,0,0,.18.18H77a.45.45,0,0,1,.31.12.42.42,0,0,1,.12.3v3.47a.41.41,0,0,1-.12.3.42.42,0,0,1-.31.13H69.34a.16.16,0,0,0-.18.18v5.78a.16.16,0,0,0,.18.18H81.06a.42.42,0,0,1,.3.13.38.38,0,0,1,.13.3v3.47a.38.38,0,0,1-.13.3.42.42,0,0,1-.3.13H64.55a.44.44,0,0,1-.43-.43V83.65a.46.46,0,0,1,.13-.31.41.41,0,0,1,.3-.12H81.06a.41.41,0,0,1,.3.12.42.42,0,0,1,.13.31v3.46A.42.42,0,0,1,81.36,87.42Zm-11-6.56a.44.44,0,0,1,0-.36l1.89-3.61a.55.55,0,0,1,.54-.32h3.61a.38.38,0,0,1,.34.16.37.37,0,0,1-.06.38l-2.53,3.61a.57.57,0,0,1-.51.28h-3C70.57,81,70.46,81,70.41,80.86Z"/><path class="cls-1" d="M91.17,107.87,83.81,83.72l0-.14c0-.24.13-.36.4-.36h4.5a.47.47,0,0,1,.5.36L93.92,101c0,.07.06.11.11.11s.08,0,.1-.11l4.68-17.43a.47.47,0,0,1,.5-.36h4.4a.39.39,0,0,1,.32.14.4.4,0,0,1,0,.36L96.6,107.87a.45.45,0,0,1-.47.36h-4.5A.44.44,0,0,1,91.17,107.87Z"/><path class="cls-1" d="M107,108.1a.38.38,0,0,1-.13-.3V83.65a.42.42,0,0,1,.13-.31.41.41,0,0,1,.3-.12h4.18a.41.41,0,0,1,.43.43v10c0,.07,0,.11.07.12a.12.12,0,0,0,.14,0l8.26-10.25a.66.66,0,0,1,.53-.25h4.72c.19,0,.31,0,.35.16a.36.36,0,0,1-.07.37l-8,10.19a.2.2,0,0,0,0,.25l8.43,13.54a1.07,1.07,0,0,1,.07.25c0,.16-.11.25-.35.25h-4.72a.52.52,0,0,1-.5-.29l-6.36-10.29a.1.1,0,0,0-.1-.07.21.21,0,0,0-.15.07L112,100.47a.53.53,0,0,0-.07.22v7.11a.41.41,0,0,1-.12.3.46.46,0,0,1-.31.13h-4.18A.42.42,0,0,1,107,108.1Z"/><path class="cls-1" d="M135.67,108.07a.42.42,0,0,1-.13-.31v-9a.41.41,0,0,0,0-.21l-7.36-14.79a.75.75,0,0,1-.07-.22c0-.19.14-.28.4-.28H133a.51.51,0,0,1,.5.32l4.46,9.5c.08.15.15.15.22,0l4.46-9.5a.52.52,0,0,1,.5-.32h4.58a.41.41,0,0,1,.34.12c.06.09.05.21,0,.38l-7.43,14.79a.41.41,0,0,0,0,.21v9a.41.41,0,0,1-.43.43H136A.41.41,0,0,1,135.67,108.07Z"/><path class="cls-1" d="M83.19,36.45a9.73,9.73,0,0,1,1.09,0,.6.6,0,0,0,.58-.29l.35-.45.67-.87H84.16a.24.24,0,0,0-.15.09l-.82,1.51m-25.2,0c.42,0,.8,0,1.18,0a.43.43,0,0,0,.42-.22,6.22,6.22,0,0,1,.51-.64c.18-.23.35-.47.56-.75H59.05a.31.31,0,0,0-.32.2c-.23.45-.47.91-.74,1.41m59.23,2.66a1.42,1.42,0,1,0-1.41-1.4,1.37,1.37,0,0,0,1.41,1.4m-59.37,5h1.79V36.85H57.85Zm-6.27-1.59V36.85h-1.8v7.27H54.5V42.53ZM67.9,39.87H65.71V38.44h2.62V36.86H63.88v7.27H65.7V41.42h2.2ZM32,41.87c.5,0,1,0,1.42,0a2,2,0,0,0,1.39-.57,2.71,2.71,0,0,0,.63-2.81,2.18,2.18,0,0,0-2.22-1.65c-.91,0-1.83,0-2.74,0h-.28v7.29H32Zm55.44,2.26q0-.14-.06-.24c-.41-1.19-.82-2.37-1.22-3.55S85.37,38.13,85,37c0-.08-.13-.19-.2-.19-.59,0-1.18,0-1.76,0l-2.48,7.29h1.88c.14-.46.29-.9.4-1.35,0-.16.11-.19.25-.19h1.79c.14,0,.21,0,.25.18.12.46.27.91.41,1.36Zm29,0c0-.07,0-.11,0-.14-.32-1-.65-1.91-1-2.86-.46-1.36-.93-2.71-1.38-4.07-.06-.18-.13-.23-.3-.23-.49,0-1,0-1.46,0a.28.28,0,0,0-.31.23c-.62,1.87-1.26,3.73-1.9,5.6l-.48,1.47h1.89c.12-.43.23-.86.35-1.28,0-.18.12-.27.34-.26.54,0,1.08,0,1.63,0,.25,0,.35.07.4.31.1.42.23.83.35,1.23Zm-42.6-2.9c.6,0,.6,0,.89.44.06.11.13.2.18.31.35.66.69,1.33,1,2a.25.25,0,0,0,.18.15c.63,0,1.26,0,2,0l-.26-.48c-.5-.9-1-1.81-1.5-2.71-.35-.61-.36-.61,0-1.21l.21-.35,1.29-2.26c0-.08.07-.17.12-.29-.64,0-1.23,0-1.82,0a.31.31,0,0,0-.2.13c-.4.73-.83,1.45-1.18,2.2-.19.41-.42.57-.85.48l-.08,0V36.86H72v7.27h1.81Zm18.75.48H93a.43.43,0,0,1,.45.28c.34.68.7,1.35,1.06,2a.35.35,0,0,0,.2.14h1.92L95,41.27c.2-.25.35-.45.5-.65a2.49,2.49,0,0,0,.42-2.06,2,2,0,0,0-.69-1.19,2.47,2.47,0,0,0-1.64-.53c-.87,0-1.73,0-2.6,0h-.3v7.28h1.81Zm-50.16-5a3.64,3.64,0,0,0-3.82,3.69,3.82,3.82,0,1,0,3.82-3.69m57.75,7.4h1.79v-4.4a2.27,2.27,0,0,0,.17.38Q103.2,42,104.34,44a.29.29,0,0,0,.2.15c.56,0,1.12,0,1.68,0V36.86h-1.76v4.29a1.33,1.33,0,0,1-.16-.28L102,36.92a.2.2,0,0,0-.12-.08h-1.76ZM73.53,32.72h47.38c.41,0,.41,0,.41-.39V2.63c0-.4,0-.4-.38-.4H26.16c-.38,0-.38,0-.38.4V32.3c0,.48-.05.42.43.42H73.53M23.49,0H123.55V48.18H23.49Z"/><path class="cls-1" d="M83.19,36.45a9.73,9.73,0,0,1,1.09,0,.6.6,0,0,0,.58-.29l.35-.45.67-.87H84.16a.24.24,0,0,0-.15.09Zm-25.2,0c.42,0,.8,0,1.18,0a.43.43,0,0,0,.42-.22,6.22,6.22,0,0,1,.51-.64c.18-.23.35-.47.56-.75H59.05a.31.31,0,0,0-.32.2C58.5,35.49,58.26,36,58,36.45Zm59.23,2.66a1.42,1.42,0,1,0-1.41-1.4A1.37,1.37,0,0,0,117.22,39.11Zm-59.37,5h1.79V36.85H57.85Zm-6.27-1.59V36.85h-1.8v7.27H54.5V42.53ZM67.9,39.87H65.71V38.44h2.62V36.86H63.88v7.27H65.7V41.42h2.2ZM32,41.87c.5,0,1,0,1.42,0a2,2,0,0,0,1.39-.57,2.71,2.71,0,0,0,.63-2.81,2.18,2.18,0,0,0-2.22-1.65c-.91,0-1.83,0-2.74,0h-.28v7.29H32Zm55.44,2.26q0-.14-.06-.24c-.41-1.19-.82-2.37-1.22-3.55S85.37,38.13,85,37c0-.08-.13-.19-.2-.19-.59,0-1.18,0-1.76,0l-2.48,7.29h1.88c.14-.46.29-.9.4-1.35,0-.16.11-.19.25-.19h1.79c.14,0,.21,0,.25.18.12.46.27.91.41,1.36Zm29,0c0-.07,0-.11,0-.14-.32-1-.65-1.91-1-2.86-.46-1.36-.93-2.71-1.38-4.07-.06-.18-.13-.23-.3-.23-.49,0-1,0-1.46,0a.28.28,0,0,0-.31.23c-.62,1.87-1.26,3.73-1.9,5.6l-.48,1.47h1.89c.12-.43.23-.86.35-1.28,0-.18.12-.27.34-.26.54,0,1.08,0,1.63,0,.25,0,.35.07.4.31.1.42.23.83.35,1.23Zm-42.6-2.9c.6,0,.6,0,.89.44.06.11.13.2.18.31.35.66.69,1.33,1,2a.25.25,0,0,0,.18.15c.63,0,1.26,0,2,0l-.26-.48c-.5-.9-1-1.81-1.5-2.71-.35-.61-.36-.61,0-1.21l.21-.35,1.29-2.26c0-.08.07-.17.12-.29-.64,0-1.23,0-1.82,0a.31.31,0,0,0-.2.13c-.4.73-.83,1.45-1.18,2.2-.19.41-.42.57-.85.48l-.08,0V36.86H72v7.27h1.81Zm18.75.48H93a.43.43,0,0,1,.45.28c.34.68.7,1.35,1.06,2a.35.35,0,0,0,.2.14h1.92L95,41.27c.2-.25.35-.45.5-.65a2.49,2.49,0,0,0,.42-2.06,2,2,0,0,0-.69-1.19,2.47,2.47,0,0,0-1.64-.53c-.87,0-1.73,0-2.6,0h-.3v7.28h1.81Zm-50.16-5a3.64,3.64,0,0,0-3.82,3.69,3.82,3.82,0,1,0,3.82-3.69Zm57.75,7.4h1.79v-4.4a2.27,2.27,0,0,0,.17.38Q103.2,42,104.34,44a.29.29,0,0,0,.2.15c.56,0,1.12,0,1.68,0V36.86h-1.76v4.29a1.33,1.33,0,0,1-.16-.28L102,36.92a.2.2,0,0,0-.12-.08h-1.76ZM73.53,32.72h47.38c.41,0,.41,0,.41-.39V2.63c0-.4,0-.4-.38-.4H26.16c-.38,0-.38,0-.38.4V32.3c0,.48-.05.42.43.42ZM23.49,0H123.55V48.18H23.49Z"/><path class="cls-1" d="M35.91,14.7c-.29,0-.68,0-1.07.07a13.3,13.3,0,0,0-1.43.18,1.25,1.25,0,0,0-1.14,1,4.35,4.35,0,0,0,0,.63,1.2,1.2,0,0,0,.7,1.14,4.9,4.9,0,0,0,2.46.55c1.06,0,2.11,0,3.17,0l2-.06L44.09,18l3-.11L50,17.81l2.49-.11,2.39-.11,2.08-.11,2.71-.11,1.84-.05c.8,0,1.6,0,2.4-.06.42,0,.84,0,1.26-.06A10.4,10.4,0,0,0,66.21,17c.07,0,.19-.13.17-.17a.38.38,0,0,0-.18-.25,1.11,1.11,0,0,0-.44-.12l-3.45-.28c-.47,0-.94,0-1.4,0L59,16l-1,0-3.2-.17L53,15.71l-2.79-.17-1.69-.11-2.65-.16-2.57-.17-2.68-.17-1.8-.11-2.93-.12m66,9.92h0a15.57,15.57,0,0,0,1.81,0c.9-.1,1.79-.25,2.68-.43a17.88,17.88,0,0,0,4.87-1.72A9.36,9.36,0,0,0,114.43,20a3.69,3.69,0,0,0,.94-2.57c0-.2-.11-.24-.27-.21a.92.92,0,0,0-.25.15c-.24.19-.48.4-.73.57a10.93,10.93,0,0,1-3,1.43c-1,.31-2,.56-3.08.77a19,19,0,0,1-2.37.33c-.68,0-1.37,0-2,0-.52,0-1-.07-1.56-.11a11.45,11.45,0,0,1-3.15-.73,7.24,7.24,0,0,1-2.31-1.34A4.68,4.68,0,0,1,95,15.67a4,4,0,0,1,.3-2.67c.12-.25.26-.48.36-.73a.31.31,0,0,0-.36-.42,3,3,0,0,0-.7.27,5.88,5.88,0,0,0-1.69,1.57,6.54,6.54,0,0,0-1.31,3.8,6.61,6.61,0,0,0,.16,1.4,6.15,6.15,0,0,0,3.54,4.53A13.35,13.35,0,0,0,100,24.61c.63.05,1.28,0,1.92,0M34.54,12.85l3.18.19c.77,0,1.53.1,2.3.16l2.62.22,1.83.11,2.57.22c.29,0,.58,0,.87.06l2.68.22,1.61.11,2.81.22,1.76.11,3.06.22.93.06,1.49.05L66,15l2,.11,3,.11,2.45.11,2.58.11,2.55.11,2.81.11,3.21.11c1,0,2,0,3,.06a2.15,2.15,0,0,0,1.78-.93c.89-1,1.7-2.17,2.64-3.18a8.52,8.52,0,0,1,2.86-1.88,15.45,15.45,0,0,1,3.57-1.07,10.08,10.08,0,0,1,1.55-.18c.88,0,1.76-.09,2.64-.05a18.49,18.49,0,0,1,2.47.28,21,21,0,0,1,3.64,1,19.57,19.57,0,0,1,5.44,2.87,8.74,8.74,0,0,1,2.7,3.12,4,4,0,0,1,0,3.62A8.12,8.12,0,0,1,114.71,22a17.38,17.38,0,0,1-4,2.57,22.34,22.34,0,0,1-4.91,1.65,21.14,21.14,0,0,1-3.46.45,19.38,19.38,0,0,1-4.17-.28A13.15,13.15,0,0,1,94,25a8.94,8.94,0,0,1-2.85-2.41c-.54-.69-1.11-1.34-1.65-2a3.87,3.87,0,0,0-1.27-1.08,1.41,1.41,0,0,0-.57-.14c-.81,0-1.62,0-2.43,0-1.13,0-2.26.07-3.39.11l-2.69.11-2.67.11-2.5.11-2.52.11L68.94,20l-2.5.11L64,20.21l-2.14.11-2.77.17-2.43.16-3,.23L51.49,21l-2.9.22-2.87.22-2.92.22-2.33.17L38.09,22l-2.49.16c-.45,0-.91.06-1.37.05A4.82,4.82,0,0,1,30.89,21a4.43,4.43,0,0,1-1.49-2.78,4.53,4.53,0,0,1,1.22-3.76,5.13,5.13,0,0,1,3.2-1.56,5.77,5.77,0,0,1,.72,0v0"/><path class="cls-1" d="M35.91,14.7c-.29,0-.68,0-1.07.07a13.3,13.3,0,0,0-1.43.18,1.25,1.25,0,0,0-1.14,1,4.35,4.35,0,0,0,0,.63,1.2,1.2,0,0,0,.7,1.14,4.9,4.9,0,0,0,2.46.55c1.06,0,2.11,0,3.17,0l2-.06L44.09,18l3-.11L50,17.81l2.49-.11,2.39-.11,2.08-.11,2.71-.11,1.84-.05c.8,0,1.6,0,2.4-.06.42,0,.84,0,1.26-.06A10.4,10.4,0,0,0,66.21,17c.07,0,.19-.13.17-.17a.38.38,0,0,0-.18-.25,1.11,1.11,0,0,0-.44-.12l-3.45-.28c-.47,0-.94,0-1.4,0L59,16l-1,0-3.2-.17L53,15.71l-2.79-.17-1.69-.11-2.65-.16-2.57-.17-2.68-.17-1.8-.11Zm66,9.92h0a15.57,15.57,0,0,0,1.81,0c.9-.1,1.79-.25,2.68-.43a17.88,17.88,0,0,0,4.87-1.72A9.36,9.36,0,0,0,114.43,20a3.69,3.69,0,0,0,.94-2.57c0-.2-.11-.24-.27-.21a.92.92,0,0,0-.25.15c-.24.19-.48.4-.73.57a10.93,10.93,0,0,1-3,1.43c-1,.31-2,.56-3.08.77a19,19,0,0,1-2.37.33c-.68,0-1.37,0-2,0-.52,0-1-.07-1.56-.11a11.45,11.45,0,0,1-3.15-.73,7.24,7.24,0,0,1-2.31-1.34A4.68,4.68,0,0,1,95,15.67a4,4,0,0,1,.3-2.67c.12-.25.26-.48.36-.73a.31.31,0,0,0-.36-.42,3,3,0,0,0-.7.27,5.88,5.88,0,0,0-1.69,1.57,6.54,6.54,0,0,0-1.31,3.8,6.61,6.61,0,0,0,.16,1.4,6.15,6.15,0,0,0,3.54,4.53A13.35,13.35,0,0,0,100,24.61C100.65,24.66,101.3,24.62,101.94,24.62ZM34.54,12.85l3.18.19c.77,0,1.53.1,2.3.16l2.62.22,1.83.11,2.57.22c.29,0,.58,0,.87.06l2.68.22,1.61.11,2.81.22,1.76.11,3.06.22.93.06,1.49.05L66,15l2,.11,3,.11,2.45.11,2.58.11,2.55.11,2.81.11,3.21.11c1,0,2,0,3,.06a2.15,2.15,0,0,0,1.78-.93c.89-1,1.7-2.17,2.64-3.18a8.52,8.52,0,0,1,2.86-1.88,15.45,15.45,0,0,1,3.57-1.07,10.08,10.08,0,0,1,1.55-.18c.88,0,1.76-.09,2.64-.05a18.49,18.49,0,0,1,2.47.28,21,21,0,0,1,3.64,1,19.57,19.57,0,0,1,5.44,2.87,8.74,8.74,0,0,1,2.7,3.12,4,4,0,0,1,0,3.62A8.12,8.12,0,0,1,114.71,22a17.38,17.38,0,0,1-4,2.57,22.34,22.34,0,0,1-4.91,1.65,21.14,21.14,0,0,1-3.46.45,19.38,19.38,0,0,1-4.17-.28A13.15,13.15,0,0,1,94,25a8.94,8.94,0,0,1-2.85-2.41c-.54-.69-1.11-1.34-1.65-2a3.87,3.87,0,0,0-1.27-1.08,1.41,1.41,0,0,0-.57-.14c-.81,0-1.62,0-2.43,0-1.13,0-2.26.07-3.39.11l-2.69.11-2.67.11-2.5.11-2.52.11L68.94,20l-2.5.11L64,20.21l-2.14.11-2.77.17-2.43.16-3,.23L51.49,21l-2.9.22-2.87.22-2.92.22-2.33.17L38.09,22l-2.49.16c-.45,0-.91.06-1.37.05A4.82,4.82,0,0,1,30.89,21a4.43,4.43,0,0,1-1.49-2.78,4.53,4.53,0,0,1,1.22-3.76,5.13,5.13,0,0,1,3.2-1.56,5.77,5.77,0,0,1,.72,0Z"/><path class="cls-1" d="M44.31,40.4a2.26,2.26,0,0,1-1.18,2,1.79,1.79,0,0,1-2.39-.82,2.18,2.18,0,0,1,.36-2.68,1.87,1.87,0,0,1,3,.74,4.89,4.89,0,0,1,.2.77"/><path class="cls-1" d="M44.31,40.4a2.26,2.26,0,0,1-1.18,2,1.79,1.79,0,0,1-2.39-.82,2.18,2.18,0,0,1,.36-2.68,1.87,1.87,0,0,1,3,.74A4.89,4.89,0,0,1,44.31,40.4Z"/><path class="cls-1" d="M92.54,38.42a7.75,7.75,0,0,1,1.09.09c.41.09.55.4.49.93a.84.84,0,0,1-.67.66h-.91Z"/><path class="cls-1" d="M92.54,38.42a7.75,7.75,0,0,1,1.09.09c.41.09.55.4.49.93a.84.84,0,0,1-.67.66h-.91Z"/><path class="cls-1" d="M113.61,41.14H112.3c.23-.8.45-1.61.66-2.39.21.77.43,1.57.65,2.39"/><path class="cls-1" d="M113.61,41.14H112.3c.23-.8.45-1.61.66-2.39C113.17,39.52,113.39,40.32,113.61,41.14Z"/><path class="cls-1" d="M84,38.74c.22.78.43,1.59.65,2.4h-1.3l.65-2.4"/><path class="cls-1" d="M84,38.74c.22.78.43,1.59.65,2.4h-1.3Z"/><path class="cls-1" d="M32,38.44c.35,0,.68,0,1,0a.91.91,0,0,1,.68,1.1.87.87,0,0,1-.95.77H32Z"/><path class="cls-1" d="M32,38.44c.35,0,.68,0,1,0a.91.91,0,0,1,.68,1.1.87.87,0,0,1-.95.77H32Z"/><path class="cls-1" d="M117.29,37.44l-.14,0v.23h.12a.14.14,0,0,0,.09-.09c0-.07,0-.11-.07-.12"/><path class="cls-1" d="M117.29,37.44l-.14,0v.23h.12a.14.14,0,0,0,.09-.09C117.36,37.49,117.35,37.45,117.29,37.44Z"/><path class="cls-1" d="M117.43,38.18a0,0,0,0,1,0,0c0-.09-.1-.18-.14-.27a.07.07,0,0,0-.06,0h-.06v.31h-.24v-1h.38a.31.31,0,0,1,.22.07.29.29,0,0,1,.09.15.32.32,0,0,1-.06.27l-.06.09.21.38h-.26m-.2-1.47a1,1,0,1,0,1,1,1,1,0,0,0-1-1"/><path class="cls-1" d="M117.43,38.18a0,0,0,0,1,0,0c0-.09-.1-.18-.14-.27a.07.07,0,0,0-.06,0h-.06v.31h-.24v-1h.38a.31.31,0,0,1,.22.07.29.29,0,0,1,.09.15.32.32,0,0,1-.06.27l-.06.09.21.38Zm-.2-1.47a1,1,0,1,0,1,1A1,1,0,0,0,117.23,36.71Z"/></svg>