<svg id="Vrstva_1" data-name="Vrstva 1" xmlns="http://www.w3.org/2000/svg" viewBox="0 0 198.95 175.91"><defs><style>.cls-1{fill:#fff;}</style></defs><title>desktop_zobrazeni_02</title><path class="cls-1" d="M43.43,131.79a6.83,6.83,0,0,1,2.77,2.74,8.15,8.15,0,0,1,1,4.05,7.73,7.73,0,0,1-1,4,7,7,0,0,1-2.86,2.66,9.16,9.16,0,0,1-4.24.95H34a.16.16,0,0,0-.18.18v9.1a.43.43,0,0,1-.12.31.45.45,0,0,1-.31.12H29.21a.41.41,0,0,1-.3-.12.44.44,0,0,1-.13-.31V131.26a.42.42,0,0,1,.13-.3.38.38,0,0,1,.3-.13H39.29A8.61,8.61,0,0,1,43.43,131.79Zm-2.25,9.38a3.25,3.25,0,0,0,1-2.48,3.37,3.37,0,0,0-1-2.54,3.65,3.65,0,0,0-2.64-1H34a.16.16,0,0,0-.18.18v6.57a.16.16,0,0,0,.18.18h4.54A3.68,3.68,0,0,0,41.18,141.17Z"/><path class="cls-1" d="M54.28,155.12A8.2,8.2,0,0,1,51,151.93a9.32,9.32,0,0,1-1.18-4.74v-7.64A9.09,9.09,0,0,1,51,134.87a8.13,8.13,0,0,1,3.31-3.16,11.3,11.3,0,0,1,9.85,0,8.13,8.13,0,0,1,3.31,3.16,9.19,9.19,0,0,1,1.18,4.68v7.64a9.48,9.48,0,0,1-1.18,4.75,8,8,0,0,1-3.31,3.2,10.38,10.38,0,0,1-4.94,1.13A10.2,10.2,0,0,1,54.28,155.12Zm8.09-4.43a4.55,4.55,0,0,0,1.21-3.32v-7.86a4.67,4.67,0,0,0-1.2-3.34,4.6,4.6,0,0,0-6.35,0,4.67,4.67,0,0,0-1.2,3.34v7.86a4.59,4.59,0,0,0,1.2,3.32,4.14,4.14,0,0,0,3.16,1.25A4.21,4.21,0,0,0,62.37,150.69Z"/><path class="cls-1" d="M72.6,155.75a.43.43,0,0,1-.12-.31V131.29a.41.41,0,0,1,.12-.3.43.43,0,0,1,.31-.12h4.18a.44.44,0,0,1,.3.12.41.41,0,0,1,.12.3v20.08a.16.16,0,0,0,.18.18H89.37a.4.4,0,0,1,.31.13.41.41,0,0,1,.12.3v3.46a.41.41,0,0,1-.43.43H72.91A.43.43,0,0,1,72.6,155.75Z"/><path class="cls-1" d="M110.15,135.06a.41.41,0,0,1-.3.13H98.13a.16.16,0,0,0-.18.18v5.53a.16.16,0,0,0,.18.18h7.68a.42.42,0,0,1,.3.13.38.38,0,0,1,.13.3V145a.38.38,0,0,1-.13.3.42.42,0,0,1-.3.13H98.13c-.12,0-.18.06-.18.17v5.79a.16.16,0,0,0,.18.18h11.72a.43.43,0,0,1,.42.43v3.46a.43.43,0,0,1-.12.31.44.44,0,0,1-.3.12H93.34a.41.41,0,0,1-.3-.12.4.4,0,0,1-.13-.31V131.29A.38.38,0,0,1,93,131a.41.41,0,0,1,.3-.12h16.51a.44.44,0,0,1,.3.12.41.41,0,0,1,.12.3v3.47A.41.41,0,0,1,110.15,135.06Zm-11-6.55a.39.39,0,0,1,0-.36l1.9-3.61a.53.53,0,0,1,.53-.32h3.61a.35.35,0,0,1,.34.16.36.36,0,0,1,0,.38l-2.54,3.6a.54.54,0,0,1-.5.29h-3A.33.33,0,0,1,99.2,128.51Z"/><path class="cls-1" d="M120,155.52l-7.35-24.15,0-.15c0-.23.13-.35.39-.35h4.5a.47.47,0,0,1,.5.35l4.75,17.44c0,.07.07.1.11.1s.09,0,.11-.1l4.68-17.44a.47.47,0,0,1,.5-.35h4.39a.38.38,0,0,1,.33.14.37.37,0,0,1,0,.36l-7.47,24.15a.44.44,0,0,1-.46.35h-4.5A.46.46,0,0,1,120,155.52Z"/><path class="cls-1" d="M135.76,155.75a.43.43,0,0,1-.12-.31V131.29a.41.41,0,0,1,.12-.3.45.45,0,0,1,.31-.12h4.18a.41.41,0,0,1,.3.12.42.42,0,0,1,.13.3v10c0,.07,0,.11.07.12a.15.15,0,0,0,.14,0l8.25-10.25a.66.66,0,0,1,.54-.25h4.71c.2,0,.31,0,.36.16a.36.36,0,0,1-.07.37l-8,10.18c-.07.1-.08.18,0,.25l8.43,13.54a1.44,1.44,0,0,1,.07.25c0,.17-.12.25-.36.25h-4.71a.5.5,0,0,1-.5-.28l-6.36-10.29a.12.12,0,0,0-.11-.07.17.17,0,0,0-.14.07l-2.25,2.82a.53.53,0,0,0-.07.22v7.1a.44.44,0,0,1-.13.31.41.41,0,0,1-.3.12h-4.18A.45.45,0,0,1,135.76,155.75Z"/><path class="cls-1" d="M164.45,155.71a.41.41,0,0,1-.12-.3v-9a.52.52,0,0,0,0-.21l-7.36-14.79a.53.53,0,0,1-.07-.22c0-.19.13-.28.39-.28h4.5a.49.49,0,0,1,.5.32l4.47,9.5q.1.21.21,0l4.47-9.5a.49.49,0,0,1,.5-.32h4.57a.4.4,0,0,1,.34.12.37.37,0,0,1,0,.38l-7.43,14.79a.55.55,0,0,0,0,.21v9a.42.42,0,0,1-.13.3.38.38,0,0,1-.3.13h-4.14A.39.39,0,0,1,164.45,155.71Z"/><path class="cls-1" d="M112,84.1a9.55,9.55,0,0,1,1.08,0,.61.61,0,0,0,.59-.29l.34-.45.67-.87c-.61,0-1.16,0-1.71,0a.19.19,0,0,0-.15.09c-.27.48-.53,1-.82,1.51m-25.2,0H88a.4.4,0,0,0,.42-.22,6.11,6.11,0,0,1,.51-.63c.18-.23.34-.47.55-.76-.58,0-1.09,0-1.61,0a.31.31,0,0,0-.31.19l-.74,1.42M146,86.76a1.42,1.42,0,1,0-1.41-1.41A1.38,1.38,0,0,0,146,86.76m-59.36,5h1.79V84.5H86.64Zm-6.27-1.59V84.5H78.56v7.27h4.72V90.18Zm16.32-2.66h-2.2V86.09h2.63V84.51H92.67v7.26h1.82V89.06h2.2Zm-36,2c.5,0,1,0,1.42,0a2,2,0,0,0,1.4-.57,2.73,2.73,0,0,0,.63-2.81A2.19,2.19,0,0,0,62,84.49h-3v7.28h1.8Zm55.45,2.26a2.46,2.46,0,0,0-.07-.24c-.4-1.19-.81-2.37-1.21-3.56s-.74-2.2-1.12-3.3a.34.34,0,0,0-.2-.19h-1.77l-2.48,7.29h1.89c.14-.46.29-.9.4-1.36,0-.16.11-.18.24-.18h1.8a.22.22,0,0,1,.25.18c.12.46.27.91.4,1.36Zm29,0a1.13,1.13,0,0,0,0-.14l-1-2.87c-.46-1.35-.92-2.71-1.37-4.07a.27.27,0,0,0-.3-.22H141c-.17,0-.24,0-.3.23-.63,1.87-1.27,3.73-1.9,5.6-.17.48-.32,1-.49,1.47h1.9c.11-.43.23-.86.34-1.28a.31.31,0,0,1,.34-.27c.55,0,1.09,0,1.63,0a.35.35,0,0,1,.41.32c.09.42.23.83.34,1.23Zm-42.59-2.91c.59,0,.59,0,.89.45l.18.3c.34.67.68,1.34,1,2,0,.06.12.15.18.15h2l-.27-.48-1.49-2.71c-.35-.62-.36-.61,0-1.21l.21-.36c.43-.75.86-1.5,1.28-2.26a2.61,2.61,0,0,0,.12-.28h-1.81a.32.32,0,0,0-.21.13c-.4.73-.83,1.45-1.17,2.2-.19.41-.43.57-.85.48l-.08,0V84.51h-1.81v7.26h1.82Zm18.75.49h.46a.43.43,0,0,1,.46.28c.34.68.7,1.35,1.06,2a.28.28,0,0,0,.2.13h1.92l-1.6-2.88.5-.64a2.55,2.55,0,0,0,.42-2.07A2.05,2.05,0,0,0,124,85a2.47,2.47,0,0,0-1.64-.53h-2.9v7.28h1.81Zm-50.16-5a3.63,3.63,0,0,0-3.82,3.69A3.68,3.68,0,0,0,71,91.9a3.73,3.73,0,0,0,4-3.68,3.66,3.66,0,0,0-3.81-3.84m57.74,7.4h1.79v-4.4c.07.15.11.27.17.38l2.28,3.87c0,.07.13.15.19.15H135V84.51h-1.76v4.28a1.07,1.07,0,0,1-.16-.27l-2.32-4a.15.15,0,0,0-.11-.08h-1.77ZM102.32,80.37h47.37c.41,0,.41,0,.41-.39V50.28c0-.4,0-.4-.38-.4H54.94c-.38,0-.38,0-.38.4q0,14.84,0,29.67c0,.48-.06.42.43.42h47.32m-50-32.72H152.34V95.83H52.28Z"/><path class="cls-1" d="M112,84.1a9.55,9.55,0,0,1,1.08,0,.61.61,0,0,0,.59-.29l.34-.45.67-.87c-.61,0-1.16,0-1.71,0a.19.19,0,0,0-.15.09C112.53,83.07,112.27,83.56,112,84.1Zm-25.2,0H88a.4.4,0,0,0,.42-.22,6.11,6.11,0,0,1,.51-.63c.18-.23.34-.47.55-.76-.58,0-1.09,0-1.61,0a.31.31,0,0,0-.31.19ZM146,86.76a1.42,1.42,0,1,0-1.41-1.41A1.38,1.38,0,0,0,146,86.76Zm-59.36,5h1.79V84.5H86.64Zm-6.27-1.59V84.5H78.56v7.27h4.72V90.18Zm16.32-2.66h-2.2V86.09h2.63V84.51H92.67v7.26h1.82V89.06h2.2Zm-36,2c.5,0,1,0,1.42,0a2,2,0,0,0,1.4-.57,2.73,2.73,0,0,0,.63-2.81A2.19,2.19,0,0,0,62,84.49h-3v7.28h1.8Zm55.45,2.26a2.46,2.46,0,0,0-.07-.24c-.4-1.19-.81-2.37-1.21-3.56s-.74-2.2-1.12-3.3a.34.34,0,0,0-.2-.19h-1.77l-2.48,7.29h1.89c.14-.46.29-.9.4-1.36,0-.16.11-.18.24-.18h1.8a.22.22,0,0,1,.25.18c.12.46.27.91.4,1.36Zm29,0a1.13,1.13,0,0,0,0-.14l-1-2.87c-.46-1.35-.92-2.71-1.37-4.07a.27.27,0,0,0-.3-.22H141c-.17,0-.24,0-.3.23-.63,1.87-1.27,3.73-1.9,5.6-.17.48-.32,1-.49,1.47h1.9c.11-.43.23-.86.34-1.28a.31.31,0,0,1,.34-.27c.55,0,1.09,0,1.63,0a.35.35,0,0,1,.41.32c.09.42.23.83.34,1.23Zm-42.59-2.91c.59,0,.59,0,.89.45l.18.3c.34.67.68,1.34,1,2,0,.06.12.15.18.15h2l-.27-.48-1.49-2.71c-.35-.62-.36-.61,0-1.21l.21-.36c.43-.75.86-1.5,1.28-2.26a2.61,2.61,0,0,0,.12-.28h-1.81a.32.32,0,0,0-.21.13c-.4.73-.83,1.45-1.17,2.2-.19.41-.43.57-.85.48l-.08,0V84.51h-1.81v7.26h1.82Zm18.75.49h.46a.43.43,0,0,1,.46.28c.34.68.7,1.35,1.06,2a.28.28,0,0,0,.2.13h1.92l-1.6-2.88.5-.64a2.55,2.55,0,0,0,.42-2.07A2.05,2.05,0,0,0,124,85a2.47,2.47,0,0,0-1.64-.53h-2.9v7.28h1.81Zm-50.16-5a3.63,3.63,0,0,0-3.82,3.69A3.68,3.68,0,0,0,71,91.9a3.73,3.73,0,0,0,4-3.68A3.66,3.66,0,0,0,71.15,84.38Zm57.74,7.4h1.79v-4.4c.07.15.11.27.17.38l2.28,3.87c0,.07.13.15.19.15H135V84.51h-1.76v4.28a1.07,1.07,0,0,1-.16-.27l-2.32-4a.15.15,0,0,0-.11-.08h-1.77ZM102.32,80.37h47.37c.41,0,.41,0,.41-.39V50.28c0-.4,0-.4-.38-.4H54.94c-.38,0-.38,0-.38.4q0,14.84,0,29.67c0,.48-.06.42.43.42Zm-50-32.72H152.34V95.83H52.28Z"/><path class="cls-1" d="M64.69,62.35c-.28,0-.68,0-1.07.07a11.39,11.39,0,0,0-1.43.17,1.29,1.29,0,0,0-1.14,1,4.3,4.3,0,0,0,0,.62,1.23,1.23,0,0,0,.7,1.15,4.94,4.94,0,0,0,2.47.55c1,0,2.11,0,3.17,0l2-.06,3.49-.11,3-.11,2.85-.11,2.5-.11,2.38-.11,2.08-.11L88.42,65,90.26,65l2.4,0c.42,0,.84,0,1.26-.07A8.27,8.27,0,0,0,95,64.62c.07,0,.18-.13.17-.17A.43.43,0,0,0,95,64.2a1.16,1.16,0,0,0-.44-.12l-3.46-.28c-.46,0-.93,0-1.4-.06l-2-.05c-.34,0-.68,0-1-.06l-3.21-.16-1.72-.11L79,63.19l-1.7-.11-2.65-.17-2.56-.16-2.68-.17-1.8-.11-2.94-.12m66,9.91h0a15.61,15.61,0,0,0,1.81,0c.9-.1,1.79-.26,2.68-.43a18.35,18.35,0,0,0,4.87-1.72,9.59,9.59,0,0,0,3.13-2.41,3.78,3.78,0,0,0,.94-2.57c0-.2-.12-.24-.27-.21a.64.64,0,0,0-.25.15c-.25.19-.48.39-.73.57a10.75,10.75,0,0,1-3,1.42c-1,.31-2,.56-3.09.78a18.87,18.87,0,0,1-2.36.33,20.22,20.22,0,0,1-2.06,0c-.51,0-1-.06-1.55-.1a11.65,11.65,0,0,1-3.15-.73A7.37,7.37,0,0,1,125.35,66a4.67,4.67,0,0,1-1.57-2.67,4.12,4.12,0,0,1,.29-2.68c.12-.24.26-.47.36-.72a.31.31,0,0,0-.35-.43,2.85,2.85,0,0,0-.7.28,5.84,5.84,0,0,0-1.69,1.56,6.5,6.5,0,0,0-1.31,3.81,6.66,6.66,0,0,0,.15,1.4,6.15,6.15,0,0,0,3.54,4.53,13.18,13.18,0,0,0,4.73,1.18c.64.06,1.29,0,1.93,0M63.32,60.5l3.19.18,2.29.17,2.62.21c.61,0,1.23.07,1.84.12l2.56.22c.29,0,.59,0,.88.06l2.67.21,1.62.12c.94.07,1.87.15,2.81.21.58,0,1.17.08,1.75.12l3.07.22.93,0c.49,0,1,0,1.48.06l3.74.17,2,.11,3,.11,2.44.11,2.59.11,2.55.11,2.8.11,3.22.11c1,0,2,0,3,.06a2.19,2.19,0,0,0,1.78-.93c.88-1.05,1.7-2.17,2.63-3.18a8.66,8.66,0,0,1,2.87-1.88,15.33,15.33,0,0,1,3.57-1.08,11.51,11.51,0,0,1,1.54-.17,26,26,0,0,1,2.65-.05,20.52,20.52,0,0,1,6.1,1.24,19.53,19.53,0,0,1,5.44,2.86,8.79,8.79,0,0,1,2.71,3.13,4,4,0,0,1,0,3.62,8,8,0,0,1-2.09,2.61,17,17,0,0,1-4,2.57,22.17,22.17,0,0,1-8.37,2.1,20.13,20.13,0,0,1-4.17-.28,13.34,13.34,0,0,1-4.2-1.4,8.78,8.78,0,0,1-2.84-2.41c-.54-.68-1.11-1.33-1.66-2A3.74,3.74,0,0,0,117,67.12a1.27,1.27,0,0,0-.58-.14c-.81,0-1.62,0-2.43,0-1.13,0-2.25.07-3.38.11l-2.7.11-2.66.11-2.5.11-2.53.11-2.47.11-2.5.11-2.41.11L90.67,68l-2.77.17-2.43.16-3,.22-2.19.17-2.89.22-2.87.22-2.93.22-2.32.17-2.38.16-2.49.17c-.46,0-.92.05-1.37.05a4.8,4.8,0,0,1-3.34-1.28,4.39,4.39,0,0,1-1.49-2.78,4.52,4.52,0,0,1,1.21-3.76,5.08,5.08,0,0,1,3.21-1.56,5.61,5.61,0,0,1,.71,0v0"/><path class="cls-1" d="M64.69,62.35c-.28,0-.68,0-1.07.07a11.39,11.39,0,0,0-1.43.17,1.29,1.29,0,0,0-1.14,1,4.3,4.3,0,0,0,0,.62,1.23,1.23,0,0,0,.7,1.15,4.94,4.94,0,0,0,2.47.55c1,0,2.11,0,3.17,0l2-.06,3.49-.11,3-.11,2.85-.11,2.5-.11,2.38-.11,2.08-.11L88.42,65,90.26,65l2.4,0c.42,0,.84,0,1.26-.07A8.27,8.27,0,0,0,95,64.62c.07,0,.18-.13.17-.17A.43.43,0,0,0,95,64.2a1.16,1.16,0,0,0-.44-.12l-3.46-.28c-.46,0-.93,0-1.4-.06l-2-.05c-.34,0-.68,0-1-.06l-3.21-.16-1.72-.11L79,63.19l-1.7-.11-2.65-.17-2.56-.16-2.68-.17-1.8-.11Zm66,9.91h0a15.61,15.61,0,0,0,1.81,0c.9-.1,1.79-.26,2.68-.43a18.35,18.35,0,0,0,4.87-1.72,9.59,9.59,0,0,0,3.13-2.41,3.78,3.78,0,0,0,.94-2.57c0-.2-.12-.24-.27-.21a.64.64,0,0,0-.25.15c-.25.19-.48.39-.73.57a10.75,10.75,0,0,1-3,1.42c-1,.31-2,.56-3.09.78a18.87,18.87,0,0,1-2.36.33,20.22,20.22,0,0,1-2.06,0c-.51,0-1-.06-1.55-.1a11.65,11.65,0,0,1-3.15-.73A7.37,7.37,0,0,1,125.35,66a4.67,4.67,0,0,1-1.57-2.67,4.12,4.12,0,0,1,.29-2.68c.12-.24.26-.47.36-.72a.31.31,0,0,0-.35-.43,2.85,2.85,0,0,0-.7.28,5.84,5.84,0,0,0-1.69,1.56,6.5,6.5,0,0,0-1.31,3.81,6.66,6.66,0,0,0,.15,1.4,6.15,6.15,0,0,0,3.54,4.53,13.18,13.18,0,0,0,4.73,1.18C129.44,72.31,130.09,72.26,130.73,72.26ZM63.32,60.5l3.19.18,2.29.17,2.62.21c.61,0,1.23.07,1.84.12l2.56.22c.29,0,.59,0,.88.06l2.67.21,1.62.12c.94.07,1.87.15,2.81.21.58,0,1.17.08,1.75.12l3.07.22.93,0c.49,0,1,0,1.48.06l3.74.17,2,.11,3,.11,2.44.11,2.59.11,2.55.11,2.8.11,3.22.11c1,0,2,0,3,.06a2.19,2.19,0,0,0,1.78-.93c.88-1.05,1.7-2.17,2.63-3.18a8.66,8.66,0,0,1,2.87-1.88,15.33,15.33,0,0,1,3.57-1.08,11.51,11.51,0,0,1,1.54-.17,26,26,0,0,1,2.65-.05,20.52,20.52,0,0,1,6.1,1.24,19.53,19.53,0,0,1,5.44,2.86,8.79,8.79,0,0,1,2.71,3.13,4,4,0,0,1,0,3.62,8,8,0,0,1-2.09,2.61,17,17,0,0,1-4,2.57,22.17,22.17,0,0,1-8.37,2.1,20.13,20.13,0,0,1-4.17-.28,13.34,13.34,0,0,1-4.2-1.4,8.78,8.78,0,0,1-2.84-2.41c-.54-.68-1.11-1.33-1.66-2A3.74,3.74,0,0,0,117,67.12a1.27,1.27,0,0,0-.58-.14c-.81,0-1.62,0-2.43,0-1.13,0-2.25.07-3.38.11l-2.7.11-2.66.11-2.5.11-2.53.11-2.47.11-2.5.11-2.41.11L90.67,68l-2.77.17-2.43.16-3,.22-2.19.17-2.89.22-2.87.22-2.93.22-2.32.17-2.38.16-2.49.17c-.46,0-.92.05-1.37.05a4.8,4.8,0,0,1-3.34-1.28,4.39,4.39,0,0,1-1.49-2.78,4.52,4.52,0,0,1,1.21-3.76,5.08,5.08,0,0,1,3.21-1.56,5.61,5.61,0,0,1,.71,0Z"/><path class="cls-1" d="M73.09,88.05a2.25,2.25,0,0,1-1.17,2,1.8,1.8,0,0,1-2.39-.82,2.15,2.15,0,0,1,.36-2.68,1.87,1.87,0,0,1,3,.74,5.38,5.38,0,0,1,.19.77"/><path class="cls-1" d="M73.09,88.05a2.25,2.25,0,0,1-1.17,2,1.8,1.8,0,0,1-2.39-.82,2.15,2.15,0,0,1,.36-2.68,1.87,1.87,0,0,1,3,.74A5.38,5.38,0,0,1,73.09,88.05Z"/><path class="cls-1" d="M121.32,86.07a6.53,6.53,0,0,1,1.1.09c.41.08.55.4.49.92a.84.84,0,0,1-.67.67c-.3,0-.6,0-.92,0Z"/><path class="cls-1" d="M121.32,86.07a6.53,6.53,0,0,1,1.1.09c.41.08.55.4.49.92a.84.84,0,0,1-.67.67c-.3,0-.6,0-.92,0Z"/><path class="cls-1" d="M142.4,88.79h-1.31c.22-.81.44-1.61.66-2.39.21.77.42,1.57.65,2.39"/><path class="cls-1" d="M142.4,88.79h-1.31c.22-.81.44-1.61.66-2.39C142,87.17,142.17,88,142.4,88.79Z"/><path class="cls-1" d="M112.77,86.38c.21.79.43,1.59.65,2.41h-1.31c.23-.82.44-1.62.66-2.41"/><path class="cls-1" d="M112.77,86.38c.21.79.43,1.59.65,2.41h-1.31C112.34,88,112.55,87.17,112.77,86.38Z"/><path class="cls-1" d="M60.76,86.09c.35,0,.68,0,1,0a.92.92,0,0,1,.68,1.1.88.88,0,0,1-1,.77h-.73Z"/><path class="cls-1" d="M60.76,86.09c.35,0,.68,0,1,0a.92.92,0,0,1,.68,1.1.88.88,0,0,1-1,.77h-.73Z"/><path class="cls-1" d="M146.08,85.08h-.15v.22h.13a.1.1,0,0,0,.08-.08c0-.07,0-.11-.06-.13"/><path class="cls-1" d="M146.08,85.08h-.15v.22h.13a.1.1,0,0,0,.08-.08C146.15,85.14,146.13,85.1,146.08,85.08Z"/><path class="cls-1" d="M146.22,85.82h0c0-.09-.09-.18-.14-.27s0,0-.06,0h-.06v.32h-.24v-1h.39a.4.4,0,0,1,.21.07.29.29,0,0,1,.09.16.32.32,0,0,1,0,.27l-.07.09.21.37a2.08,2.08,0,0,1-.25,0m-.2-1.47a1,1,0,1,0,1,1,1,1,0,0,0-1-1"/><path class="cls-1" d="M146.22,85.82h0c0-.09-.09-.18-.14-.27s0,0-.06,0h-.06v.32h-.24v-1h.39a.4.4,0,0,1,.21.07.29.29,0,0,1,.09.16.32.32,0,0,1,0,.27l-.07.09.21.37A2.08,2.08,0,0,1,146.22,85.82Zm-.2-1.47a1,1,0,1,0,1,1A1,1,0,0,0,146,84.35Z"/></svg>