<svg id="Vrstva_1" data-name="Vrstva 1" xmlns="http://www.w3.org/2000/svg" viewBox="0 0 198.95 175.91"><defs><style>.cls-1{fill:#fff;}</style></defs><title>desktop_zobrazeni_02</title><path class="cls-1" d="M108.9,46.57l8.33,3.74A1.6,1.6,0,0,0,119.48,49l.37-5.47a1.6,1.6,0,0,0-2.11-1.62l-8.76,3a.92.92,0,0,0-.08,1.72"/><path class="cls-1" d="M108.9,46.57l8.33,3.74A1.6,1.6,0,0,0,119.48,49l.37-5.47a1.6,1.6,0,0,0-2.11-1.62l-8.76,3A.92.92,0,0,0,108.9,46.57Z"/><path class="cls-1" d="M88.59,22.25,99.73,33.52,89.29,30.27c-1.56-3.39-1.9-6.34-.7-8m.4-.47c1.68-1.58,5-1.1,8.63.93l2.44,10.34L89,21.81l0,0m16.4,7.09-4.66,4.54L98.3,23.1a34.25,34.25,0,0,1,7.09,5.77m5.91,8.25L101,33.92l4.76-4.64a33.62,33.62,0,0,1,5.52,7.84M95.21,38.79A33.89,33.89,0,0,1,89.63,31l10.31,3.21Zm-8,9.28,13.17-4.68A36.21,36.21,0,0,1,95.6,39.2l4.81-4.68,1.93,8.17.54-.19-1.8-7.61,6,6.1.6-.21-6-6,9.89,3.08c.21.47.39.92.56,1.37l1.24-.44a14.58,14.58,0,0,0-.64-1.52A39,39,0,0,0,102,24.15c-9.24-7.54-14.22-3.7-14.22-3.7s-6.54,5.12-6.82,15.92c.28,7.68,2.27,8,2.27,10.52a2.78,2.78,0,0,0,2.13,2.83,3.37,3.37,0,0,1,1.87-1.65"/><path class="cls-1" d="M88.59,22.25,99.73,33.52,89.29,30.27C87.73,26.88,87.39,23.93,88.59,22.25Zm.4-.47c1.68-1.58,5-1.1,8.63.93l2.44,10.34L89,21.81Zm16.4,7.09-4.66,4.54L98.3,23.1A34.25,34.25,0,0,1,105.39,28.87Zm5.91,8.25L101,33.92l4.76-4.64A33.62,33.62,0,0,1,111.3,37.12ZM95.21,38.79A33.89,33.89,0,0,1,89.63,31l10.31,3.21Zm-8,9.28,13.17-4.68A36.21,36.21,0,0,1,95.6,39.2l4.81-4.68,1.93,8.17.54-.19-1.8-7.61,6,6.1.6-.21-6-6,9.89,3.08c.21.47.39.92.56,1.37l1.24-.44a14.58,14.58,0,0,0-.64-1.52A39,39,0,0,0,102,24.15c-9.24-7.54-14.22-3.7-14.22-3.7s-6.54,5.12-6.82,15.92c.28,7.68,2.27,8,2.27,10.52a2.78,2.78,0,0,0,2.13,2.83A3.37,3.37,0,0,1,87.21,48.07Z"/><path class="cls-1" d="M118.23,65.8a30.09,30.09,0,0,1-7.06,3.41c-10.27,3-15.91,2.1-20.12.89-7.83-2.24-12.85-8.27-15.22-11.81a.38.38,0,0,1,.58-.48c14.68,13.86,33.08,9.89,41.37,7a.53.53,0,0,1,.45,1m9-12.32-1.57-1.31a1.46,1.46,0,0,0-1.77-.07l-1.67,1.2a1.3,1.3,0,0,1-.31.16c-1.1.44-7.64,3-11.44,4.12-2.05.58-17.18,1.61-23.61-3.71S80,46.61,78.21,45.11s-2.7-4-2.37-5.41c.24-1,.9-1.21.59-1.84a1.42,1.42,0,0,0-1.87-.6,5.9,5.9,0,0,1-3.21.6c-1.91-.32-1.56,1.48-.85,2.48a8.34,8.34,0,0,1,.76,9.18c-2.42,4.72,5.95,16.7,9.65,18.73s13,8.28,27.3,4.44c13.13-3.53,17.51-11.57,18.13-12.84a1.35,1.35,0,0,0,.11-.34l.55-2.74a1.4,1.4,0,0,1,.09-.29l.57-1.31a1.44,1.44,0,0,0-.39-1.69"/><path class="cls-1" d="M118.23,65.8a30.09,30.09,0,0,1-7.06,3.41c-10.27,3-15.91,2.1-20.12.89-7.83-2.24-12.85-8.27-15.22-11.81a.38.38,0,0,1,.58-.48c14.68,13.86,33.08,9.89,41.37,7A.53.53,0,0,1,118.23,65.8Zm9-12.32-1.57-1.31a1.46,1.46,0,0,0-1.77-.07l-1.67,1.2a1.3,1.3,0,0,1-.31.16c-1.1.44-7.64,3-11.44,4.12-2.05.58-17.18,1.61-23.61-3.71S80,46.61,78.21,45.11s-2.7-4-2.37-5.41c.24-1,.9-1.21.59-1.84a1.42,1.42,0,0,0-1.87-.6,5.9,5.9,0,0,1-3.21.6c-1.91-.32-1.56,1.48-.85,2.48a8.34,8.34,0,0,1,.76,9.18c-2.42,4.72,5.95,16.7,9.65,18.73s13,8.28,27.3,4.44c13.13-3.53,17.51-11.57,18.13-12.84a1.35,1.35,0,0,0,.11-.34l.55-2.74a1.4,1.4,0,0,1,.09-.29l.57-1.31A1.44,1.44,0,0,0,127.27,53.48Z"/><path class="cls-1" d="M100.44,56.6a53.16,53.16,0,0,0,6.93,0l-2.45-6.79a.92.92,0,0,0-1.71-.07l-3.11,6.82.34,0"/><path class="cls-1" d="M100.44,56.6a53.16,53.16,0,0,0,6.93,0l-2.45-6.79a.92.92,0,0,0-1.71-.07l-3.11,6.82Z"/><path class="cls-1" d="M93.25,55.45a33,33,0,0,0,5.2,1l3.12-7.2A.93.93,0,0,0,100.4,48l-9.29,3.38a.92.92,0,0,0-.35,1.51Z"/><path class="cls-1" d="M93.25,55.45a33,33,0,0,0,5.2,1l3.12-7.2A.93.93,0,0,0,100.4,48l-9.29,3.38a.92.92,0,0,0-.35,1.51Z"/><path class="cls-1" d="M108.91,56.48a11.79,11.79,0,0,0,1.23-.19c2.11-.6,5.08-1.68,7.48-2.59l.06-.05a.93.93,0,0,0-.23-1.53l-9.88-4.58a.93.93,0,0,0-1.27,1.14Z"/><path class="cls-1" d="M108.91,56.48a11.79,11.79,0,0,0,1.23-.19c2.11-.6,5.08-1.68,7.48-2.59l.06-.05a.93.93,0,0,0-.23-1.53l-9.88-4.58a.93.93,0,0,0-1.27,1.14Z"/><path class="cls-1" d="M87.76,52.83a10.66,10.66,0,0,0,1.41,1,24.78,24.78,0,0,1-1.29-2.38.5.5,0,0,1,0-.4.52.52,0,0,1,.29-.28L120.92,39.1l.17,0a.53.53,0,0,1,.25.07.46.46,0,0,1,.23.34c1,5.73.31,10-1.17,13.15l1.06-.41h0l.89-.64a26.5,26.5,0,0,0,.69-12.35,2,2,0,0,0-2.63-1.53L87.66,49.33a2,2,0,0,0-1.17,1.12,1.9,1.9,0,0,0-.1,1.22c.42.37.88.75,1.37,1.16"/><path class="cls-1" d="M87.76,52.83a10.66,10.66,0,0,0,1.41,1,24.78,24.78,0,0,1-1.29-2.38.5.5,0,0,1,0-.4.52.52,0,0,1,.29-.28L120.92,39.1l.17,0a.53.53,0,0,1,.25.07.46.46,0,0,1,.23.34c1,5.73.31,10-1.17,13.15l1.06-.41h0l.89-.64a26.5,26.5,0,0,0,.69-12.35,2,2,0,0,0-2.63-1.53L87.66,49.33a2,2,0,0,0-1.17,1.12,1.9,1.9,0,0,0-.1,1.22C86.81,52,87.27,52.42,87.76,52.83Z"/><path class="cls-1" d="M68.38,110.06a.36.36,0,0,1-.27.11H57.59a.15.15,0,0,0-.16.16v5a.14.14,0,0,0,.16.16h6.92a.38.38,0,0,1,.38.38V119a.41.41,0,0,1-.11.28.4.4,0,0,1-.27.11H57.59a.14.14,0,0,0-.16.16v8.87a.37.37,0,0,1-.11.28.39.39,0,0,1-.27.11H53.28a.4.4,0,0,1-.27-.11.41.41,0,0,1-.11-.28V106.67a.37.37,0,0,1,.11-.27.37.37,0,0,1,.27-.12H68.11a.37.37,0,0,1,.27.12.37.37,0,0,1,.11.27v3.12A.37.37,0,0,1,68.38,110.06Z"/><path class="cls-1" d="M82.8,128.5l-4-8.91a.21.21,0,0,0-.19-.12h-3a.14.14,0,0,0-.16.16v8.77a.38.38,0,0,1-.39.39H71.29a.37.37,0,0,1-.27-.11.38.38,0,0,1-.12-.28V106.67a.41.41,0,0,1,.39-.39h9.2a7.49,7.49,0,0,1,3.61.84,5.88,5.88,0,0,1,2.41,2.38,7.25,7.25,0,0,1,.86,3.57,6.33,6.33,0,0,1-1.1,3.74,5.86,5.86,0,0,1-3,2.21.15.15,0,0,0-.1.22l4.37,9.1a.44.44,0,0,1,.07.19c0,.17-.12.26-.36.26h-4A.47.47,0,0,1,82.8,128.5Zm-7.36-18.17v5.5a.14.14,0,0,0,.16.16h4.21a3.06,3.06,0,0,0,2.2-.8,2.74,2.74,0,0,0,.85-2.09A2.8,2.8,0,0,0,82,111a3.07,3.07,0,0,0-2.2-.82H75.6A.14.14,0,0,0,75.44,110.33Z"/><path class="cls-1" d="M106.16,110.06a.37.37,0,0,1-.28.11H95.34a.14.14,0,0,0-.16.16v5a.14.14,0,0,0,.16.16h6.91a.37.37,0,0,1,.27.11.37.37,0,0,1,.12.27V119a.38.38,0,0,1-.12.28.37.37,0,0,1-.27.11H95.34a.14.14,0,0,0-.16.16v5.21a.14.14,0,0,0,.16.16h10.54a.41.41,0,0,1,.28.11.4.4,0,0,1,.11.27v3.12a.38.38,0,0,1-.39.39H91a.37.37,0,0,1-.27-.11.38.38,0,0,1-.12-.28V106.67a.41.41,0,0,1,.39-.39h14.85a.38.38,0,0,1,.28.12.37.37,0,0,1,.11.27v3.12A.37.37,0,0,1,106.16,110.06Z"/><path class="cls-1" d="M112.64,128.23a6.67,6.67,0,0,1-3-2.35,6.18,6.18,0,0,1-1-3.55v-.71a.33.33,0,0,1,.11-.27.36.36,0,0,1,.27-.12h3.67a.36.36,0,0,1,.27.12.33.33,0,0,1,.11.27v.48a2.63,2.63,0,0,0,1.19,2.17,5.3,5.3,0,0,0,3.22.89,3.76,3.76,0,0,0,2.54-.73,2.25,2.25,0,0,0,.84-1.78,1.8,1.8,0,0,0-.52-1.3,4.45,4.45,0,0,0-1.4-.94c-.59-.26-1.53-.63-2.81-1.1a27.65,27.65,0,0,1-3.65-1.52,7.28,7.28,0,0,1-2.51-2.1,5.33,5.33,0,0,1-1-3.3,5.82,5.82,0,0,1,1-3.37,6.32,6.32,0,0,1,2.77-2.22,10,10,0,0,1,4.08-.77,10.6,10.6,0,0,1,4.36.86,7.1,7.1,0,0,1,3,2.43,6.21,6.21,0,0,1,1.08,3.62v.48a.38.38,0,0,1-.39.39h-3.7a.4.4,0,0,1-.27-.11.37.37,0,0,1-.11-.28v-.26a2.93,2.93,0,0,0-1.11-2.3,4.53,4.53,0,0,0-3-.94,3.83,3.83,0,0,0-2.36.64,2.09,2.09,0,0,0-.85,1.77,2,2,0,0,0,.49,1.35,4.58,4.58,0,0,0,1.48,1c.66.29,1.67.68,3,1.17a38.81,38.81,0,0,1,3.59,1.48,7.12,7.12,0,0,1,2.34,1.91,5,5,0,0,1,1.05,3.3,5.74,5.74,0,0,1-2.22,4.77,9.43,9.43,0,0,1-6,1.76A11.51,11.51,0,0,1,112.64,128.23Z"/><path class="cls-1" d="M140.62,106.4a.38.38,0,0,1,.28-.12h3.76a.36.36,0,0,1,.27.12.33.33,0,0,1,.11.27V128.4a.37.37,0,0,1-.11.28.39.39,0,0,1-.27.11H140.9a.38.38,0,0,1-.39-.39v-8.87a.14.14,0,0,0-.16-.16h-7.1c-.11,0-.17,0-.17.16v8.87a.38.38,0,0,1-.38.39h-3.76a.38.38,0,0,1-.39-.39V106.67a.37.37,0,0,1,.11-.27.38.38,0,0,1,.28-.12h3.76a.34.34,0,0,1,.27.12.33.33,0,0,1,.11.27v8.65c0,.11.06.16.17.16h7.1a.14.14,0,0,0,.16-.16v-8.65A.37.37,0,0,1,140.62,106.4Z"/><path class="cls-1" d="M68.38,110.06a.36.36,0,0,1-.27.11H57.59a.15.15,0,0,0-.16.16v5a.14.14,0,0,0,.16.16h6.92a.38.38,0,0,1,.38.38V119a.41.41,0,0,1-.11.28.4.4,0,0,1-.27.11H57.59a.14.14,0,0,0-.16.16v8.87a.37.37,0,0,1-.11.28.39.39,0,0,1-.27.11H53.28a.4.4,0,0,1-.27-.11.41.41,0,0,1-.11-.28V106.67a.37.37,0,0,1,.11-.27.37.37,0,0,1,.27-.12H68.11a.37.37,0,0,1,.27.12.37.37,0,0,1,.11.27v3.12A.37.37,0,0,1,68.38,110.06Z"/><path class="cls-1" d="M82.8,128.5l-4-8.91a.21.21,0,0,0-.19-.12h-3a.14.14,0,0,0-.16.16v8.77a.38.38,0,0,1-.39.39H71.29a.37.37,0,0,1-.27-.11.38.38,0,0,1-.12-.28V106.67a.41.41,0,0,1,.39-.39h9.2a7.49,7.49,0,0,1,3.61.84,5.88,5.88,0,0,1,2.41,2.38,7.25,7.25,0,0,1,.86,3.57,6.33,6.33,0,0,1-1.1,3.74,5.86,5.86,0,0,1-3,2.21.15.15,0,0,0-.1.22l4.37,9.1a.44.44,0,0,1,.07.19c0,.17-.12.26-.36.26h-4A.47.47,0,0,1,82.8,128.5Zm-7.36-18.17v5.5a.14.14,0,0,0,.16.16h4.21a3.06,3.06,0,0,0,2.2-.8,2.74,2.74,0,0,0,.85-2.09A2.8,2.8,0,0,0,82,111a3.07,3.07,0,0,0-2.2-.82H75.6A.14.14,0,0,0,75.44,110.33Z"/><path class="cls-1" d="M106.16,110.06a.37.37,0,0,1-.28.11H95.34a.14.14,0,0,0-.16.16v5a.14.14,0,0,0,.16.16h6.91a.37.37,0,0,1,.27.11.37.37,0,0,1,.12.27V119a.38.38,0,0,1-.12.28.37.37,0,0,1-.27.11H95.34a.14.14,0,0,0-.16.16v5.21a.14.14,0,0,0,.16.16h10.54a.41.41,0,0,1,.28.11.4.4,0,0,1,.11.27v3.12a.38.38,0,0,1-.39.39H91a.37.37,0,0,1-.27-.11.38.38,0,0,1-.12-.28V106.67a.41.41,0,0,1,.39-.39h14.85a.38.38,0,0,1,.28.12.37.37,0,0,1,.11.27v3.12A.37.37,0,0,1,106.16,110.06Z"/><path class="cls-1" d="M112.64,128.23a6.67,6.67,0,0,1-3-2.35,6.18,6.18,0,0,1-1-3.55v-.71a.33.33,0,0,1,.11-.27.36.36,0,0,1,.27-.12h3.67a.36.36,0,0,1,.27.12.33.33,0,0,1,.11.27v.48a2.63,2.63,0,0,0,1.19,2.17,5.3,5.3,0,0,0,3.22.89,3.76,3.76,0,0,0,2.54-.73,2.25,2.25,0,0,0,.84-1.78,1.8,1.8,0,0,0-.52-1.3,4.45,4.45,0,0,0-1.4-.94c-.59-.26-1.53-.63-2.81-1.1a27.65,27.65,0,0,1-3.65-1.52,7.28,7.28,0,0,1-2.51-2.1,5.33,5.33,0,0,1-1-3.3,5.82,5.82,0,0,1,1-3.37,6.32,6.32,0,0,1,2.77-2.22,10,10,0,0,1,4.08-.77,10.6,10.6,0,0,1,4.36.86,7.1,7.1,0,0,1,3,2.43,6.21,6.21,0,0,1,1.08,3.62v.48a.38.38,0,0,1-.39.39h-3.7a.4.4,0,0,1-.27-.11.37.37,0,0,1-.11-.28v-.26a2.93,2.93,0,0,0-1.11-2.3,4.53,4.53,0,0,0-3-.94,3.83,3.83,0,0,0-2.36.64,2.09,2.09,0,0,0-.85,1.77,2,2,0,0,0,.49,1.35,4.58,4.58,0,0,0,1.48,1c.66.29,1.67.68,3,1.17a38.81,38.81,0,0,1,3.59,1.48,7.12,7.12,0,0,1,2.34,1.91,5,5,0,0,1,1.05,3.3,5.74,5.74,0,0,1-2.22,4.77,9.43,9.43,0,0,1-6,1.76A11.51,11.51,0,0,1,112.64,128.23Z"/><path class="cls-1" d="M140.62,106.4a.38.38,0,0,1,.28-.12h3.76a.36.36,0,0,1,.27.12.33.33,0,0,1,.11.27V128.4a.37.37,0,0,1-.11.28.39.39,0,0,1-.27.11H140.9a.38.38,0,0,1-.39-.39v-8.87a.14.14,0,0,0-.16-.16h-7.1c-.11,0-.17,0-.17.16v8.87a.38.38,0,0,1-.38.39h-3.76a.38.38,0,0,1-.39-.39V106.67a.37.37,0,0,1,.11-.27.38.38,0,0,1,.28-.12h3.76a.34.34,0,0,1,.27.12.33.33,0,0,1,.11.27v8.65c0,.11.06.16.17.16h7.1a.14.14,0,0,0,.16-.16v-8.65A.37.37,0,0,1,140.62,106.4Z"/><path class="cls-1" d="M53.91,136.54a.37.37,0,0,1,.27-.12H58a.36.36,0,0,1,.27.12.33.33,0,0,1,.11.27v21.73a.37.37,0,0,1-.11.28.39.39,0,0,1-.27.11H54.31a.47.47,0,0,1-.45-.26l-8.32-13.76c0-.06-.09-.09-.13-.08s-.06.06-.06.15l.06,13.56a.38.38,0,0,1-.39.39H41.26a.37.37,0,0,1-.27-.11.38.38,0,0,1-.12-.28V136.81a.41.41,0,0,1,.39-.39h3.63a.48.48,0,0,1,.46.26l8.29,13.7c0,.06.08.09.13.08s.06-.06.06-.15l0-13.5A.37.37,0,0,1,53.91,136.54Z"/><path class="cls-1" d="M76.14,158.61l-1-3.15a.18.18,0,0,0-.16-.13H67.11a.18.18,0,0,0-.16.13L66,158.61a.42.42,0,0,1-.42.32H61.51a.36.36,0,0,1-.28-.11.35.35,0,0,1,0-.34l7-21.74a.4.4,0,0,1,.42-.32h5a.4.4,0,0,1,.42.32l7,21.74a.35.35,0,0,1,0,.16c0,.19-.12.29-.35.29H76.56A.42.42,0,0,1,76.14,158.61Zm-7.9-6.79h5.65c.13,0,.18-.06.13-.19l-2.89-9.55c0-.08,0-.12-.1-.11s-.07.05-.1.11l-2.82,9.55C68.09,151.76,68.13,151.82,68.24,151.82Zm.7-17.52a.37.37,0,0,1,0-.32l1.71-3.25a.48.48,0,0,1,.48-.29h3.25a.3.3,0,0,1,.3.15.31.31,0,0,1,0,.34l-2.29,3.24a.5.5,0,0,1-.45.26h-2.7A.29.29,0,0,1,68.94,134.3Z"/><path class="cls-1" d="M96.85,137.26a6.14,6.14,0,0,1,2.49,2.46,7.39,7.39,0,0,1,.89,3.65,6.88,6.88,0,0,1-.92,3.57,6.25,6.25,0,0,1-2.57,2.39,8.22,8.22,0,0,1-3.81.85H88.36a.14.14,0,0,0-.16.16v8.2a.41.41,0,0,1-.11.28.4.4,0,0,1-.27.11H84.05a.39.39,0,0,1-.27-.11.37.37,0,0,1-.11-.28V136.78a.37.37,0,0,1,.11-.28.39.39,0,0,1,.27-.11h9.07A7.73,7.73,0,0,1,96.85,137.26Zm-2,8.44a2.94,2.94,0,0,0,.9-2.24,3,3,0,0,0-.9-2.28,3.27,3.27,0,0,0-2.38-.87H88.36a.14.14,0,0,0-.16.16v5.92a.14.14,0,0,0,.16.16h4.08A3.3,3.3,0,0,0,94.82,145.7Z"/><path class="cls-1" d="M106.61,158.25a7.36,7.36,0,0,1-3-2.87,8.52,8.52,0,0,1-1.06-4.26v-6.88a8.37,8.37,0,0,1,1.06-4.22,7.29,7.29,0,0,1,3-2.84,10.24,10.24,0,0,1,8.87,0,7.2,7.2,0,0,1,3,2.84,8.27,8.27,0,0,1,1.07,4.22v6.88a8.46,8.46,0,0,1-1.07,4.27,7.17,7.17,0,0,1-3,2.88,9.31,9.31,0,0,1-4.45,1A9.13,9.13,0,0,1,106.61,158.25Zm7.28-4a4.11,4.11,0,0,0,1.09-3V144.2a4.22,4.22,0,0,0-1.07-3,4.17,4.17,0,0,0-5.73,0,4.18,4.18,0,0,0-1.08,3v7.08a4.14,4.14,0,0,0,1.08,3,4.2,4.2,0,0,0,5.71,0Z"/><path class="cls-1" d="M125.7,158.27a6.79,6.79,0,0,1-2.81-2.57,7.37,7.37,0,0,1-1-3.84v-2a.33.33,0,0,1,.11-.27.34.34,0,0,1,.27-.12H126a.38.38,0,0,1,.28.12.37.37,0,0,1,.11.27v2a3.35,3.35,0,0,0,.95,2.49,3.49,3.49,0,0,0,2.58,1,3.64,3.64,0,0,0,2.59-1,3.25,3.25,0,0,0,1-2.49V136.81a.33.33,0,0,1,.11-.27.34.34,0,0,1,.27-.12h3.73a.41.41,0,0,1,.39.39v15.05a7.21,7.21,0,0,1-1,3.84,7,7,0,0,1-2.86,2.57,10.23,10.23,0,0,1-8.48,0Z"/><path class="cls-1" d="M157.5,140.2a.33.33,0,0,1-.27.11H146.68a.15.15,0,0,0-.16.16v5a.14.14,0,0,0,.16.16h6.92a.38.38,0,0,1,.38.38v3.12a.41.41,0,0,1-.11.28.4.4,0,0,1-.27.11h-6.92a.14.14,0,0,0-.16.16v5.21a.14.14,0,0,0,.16.16h10.55a.37.37,0,0,1,.27.11.36.36,0,0,1,.11.27v3.12a.38.38,0,0,1-.38.39H142.37a.4.4,0,0,1-.27-.11.37.37,0,0,1-.11-.28V136.81a.33.33,0,0,1,.11-.27.37.37,0,0,1,.27-.12h14.86a.34.34,0,0,1,.27.12.33.33,0,0,1,.11.27v3.12A.35.35,0,0,1,157.5,140.2Z"/><path class="cls-1" d="M53.91,136.54a.37.37,0,0,1,.27-.12H58a.36.36,0,0,1,.27.12.33.33,0,0,1,.11.27v21.73a.37.37,0,0,1-.11.28.39.39,0,0,1-.27.11H54.31a.47.47,0,0,1-.45-.26l-8.32-13.76c0-.06-.09-.09-.13-.08s-.06.06-.06.15l.06,13.56a.38.38,0,0,1-.39.39H41.26a.37.37,0,0,1-.27-.11.38.38,0,0,1-.12-.28V136.81a.41.41,0,0,1,.39-.39h3.63a.48.48,0,0,1,.46.26l8.29,13.7c0,.06.08.09.13.08s.06-.06.06-.15l0-13.5A.37.37,0,0,1,53.91,136.54Z"/><path class="cls-1" d="M76.14,158.61l-1-3.15a.18.18,0,0,0-.16-.13H67.11a.18.18,0,0,0-.16.13L66,158.61a.42.42,0,0,1-.42.32H61.51a.36.36,0,0,1-.28-.11.35.35,0,0,1,0-.34l7-21.74a.4.4,0,0,1,.42-.32h5a.4.4,0,0,1,.42.32l7,21.74a.35.35,0,0,1,0,.16c0,.19-.12.29-.35.29H76.56A.42.42,0,0,1,76.14,158.61Zm-7.9-6.79h5.65c.13,0,.18-.06.13-.19l-2.89-9.55c0-.08,0-.12-.1-.11s-.07.05-.1.11l-2.82,9.55C68.09,151.76,68.13,151.82,68.24,151.82Zm.7-17.52a.37.37,0,0,1,0-.32l1.71-3.25a.48.48,0,0,1,.48-.29h3.25a.3.3,0,0,1,.3.15.31.31,0,0,1,0,.34l-2.29,3.24a.5.5,0,0,1-.45.26h-2.7A.29.29,0,0,1,68.94,134.3Z"/><path class="cls-1" d="M96.85,137.26a6.14,6.14,0,0,1,2.49,2.46,7.39,7.39,0,0,1,.89,3.65,6.88,6.88,0,0,1-.92,3.57,6.25,6.25,0,0,1-2.57,2.39,8.22,8.22,0,0,1-3.81.85H88.36a.14.14,0,0,0-.16.16v8.2a.41.41,0,0,1-.11.28.4.4,0,0,1-.27.11H84.05a.39.39,0,0,1-.27-.11.37.37,0,0,1-.11-.28V136.78a.37.37,0,0,1,.11-.28.39.39,0,0,1,.27-.11h9.07A7.73,7.73,0,0,1,96.85,137.26Zm-2,8.44a2.94,2.94,0,0,0,.9-2.24,3,3,0,0,0-.9-2.28,3.27,3.27,0,0,0-2.38-.87H88.36a.14.14,0,0,0-.16.16v5.92a.14.14,0,0,0,.16.16h4.08A3.3,3.3,0,0,0,94.82,145.7Z"/><path class="cls-1" d="M106.61,158.25a7.36,7.36,0,0,1-3-2.87,8.52,8.52,0,0,1-1.06-4.26v-6.88a8.37,8.37,0,0,1,1.06-4.22,7.29,7.29,0,0,1,3-2.84,10.24,10.24,0,0,1,8.87,0,7.2,7.2,0,0,1,3,2.84,8.27,8.27,0,0,1,1.07,4.22v6.88a8.46,8.46,0,0,1-1.07,4.27,7.17,7.17,0,0,1-3,2.88,9.31,9.31,0,0,1-4.45,1A9.13,9.13,0,0,1,106.61,158.25Zm7.28-4a4.11,4.11,0,0,0,1.09-3V144.2a4.22,4.22,0,0,0-1.07-3,4.17,4.17,0,0,0-5.73,0,4.18,4.18,0,0,0-1.08,3v7.08a4.14,4.14,0,0,0,1.08,3,4.2,4.2,0,0,0,5.71,0Z"/><path class="cls-1" d="M125.7,158.27a6.79,6.79,0,0,1-2.81-2.57,7.37,7.37,0,0,1-1-3.84v-2a.33.33,0,0,1,.11-.27.34.34,0,0,1,.27-.12H126a.38.38,0,0,1,.28.12.37.37,0,0,1,.11.27v2a3.35,3.35,0,0,0,.95,2.49,3.49,3.49,0,0,0,2.58,1,3.64,3.64,0,0,0,2.59-1,3.25,3.25,0,0,0,1-2.49V136.81a.33.33,0,0,1,.11-.27.34.34,0,0,1,.27-.12h3.73a.41.41,0,0,1,.39.39v15.05a7.21,7.21,0,0,1-1,3.84,7,7,0,0,1-2.86,2.57,10.23,10.23,0,0,1-8.48,0Z"/><path class="cls-1" d="M157.5,140.2a.33.33,0,0,1-.27.11H146.68a.15.15,0,0,0-.16.16v5a.14.14,0,0,0,.16.16h6.92a.38.38,0,0,1,.38.38v3.12a.41.41,0,0,1-.11.28.4.4,0,0,1-.27.11h-6.92a.14.14,0,0,0-.16.16v5.21a.14.14,0,0,0,.16.16h10.55a.37.37,0,0,1,.27.11.36.36,0,0,1,.11.27v3.12a.38.38,0,0,1-.38.39H142.37a.4.4,0,0,1-.27-.11.37.37,0,0,1-.11-.28V136.81a.33.33,0,0,1,.11-.27.37.37,0,0,1,.27-.12h14.86a.34.34,0,0,1,.27.12.33.33,0,0,1,.11.27v3.12A.35.35,0,0,1,157.5,140.2Z"/></svg>