<svg id="Vrstva_1" data-name="Vrstva 1" xmlns="http://www.w3.org/2000/svg" viewBox="0 0 163.43 142.48"><defs><style>.cls-1{fill:#fff;}</style></defs><title>ikony</title><path class="cls-1" d="M7.38,141.73,0,117.65l0-.15c0-.23.13-.35.39-.35H4.88a.47.47,0,0,1,.5.35l4.74,17.39c0,.07.06.11.11.11s.08,0,.1-.11L15,117.5a.47.47,0,0,1,.5-.35h4.38a.35.35,0,0,1,.32.14.37.37,0,0,1,0,.36l-7.45,24.08a.44.44,0,0,1-.46.36H7.84A.44.44,0,0,1,7.38,141.73Z"/><path class="cls-1" d="M23.5,142a.38.38,0,0,1-.13-.3V117.57a.43.43,0,0,1,.43-.42H28a.43.43,0,0,1,.43.42v24.09a.44.44,0,0,1-.43.43H23.8A.38.38,0,0,1,23.5,142Z"/><path class="cls-1" d="M47.19,117.27a.42.42,0,0,1,.3-.12h4.17a.43.43,0,0,1,.43.42v24.09a.44.44,0,0,1-.43.43h-4a.51.51,0,0,1-.5-.29l-9.23-15.25c0-.07-.1-.1-.14-.09s-.07.07-.07.16l.07,15a.42.42,0,0,1-.13.3.38.38,0,0,1-.3.13H33.17a.38.38,0,0,1-.3-.13.42.42,0,0,1-.13-.3V117.57a.45.45,0,0,1,.13-.3.41.41,0,0,1,.3-.12h4a.52.52,0,0,1,.5.28l9.19,15.18c0,.07.09.1.14.09s.07-.07.07-.16l0-15A.44.44,0,0,1,47.19,117.27Z"/><path class="cls-1" d="M60.41,141.34a8.15,8.15,0,0,1-3.29-3.19,9.27,9.27,0,0,1-1.18-4.72V125.8a9.07,9.07,0,0,1,1.18-4.66A8.08,8.08,0,0,1,60.41,118a11.34,11.34,0,0,1,9.83,0,8,8,0,0,1,3.3,3.16,9.16,9.16,0,0,1,1.17,4.66v7.63a9.46,9.46,0,0,1-1.17,4.74,8,8,0,0,1-3.3,3.19,10.34,10.34,0,0,1-4.93,1.12A10.19,10.19,0,0,1,60.41,141.34Zm8.07-4.42a4.53,4.53,0,0,0,1.21-3.31v-7.84a4.67,4.67,0,0,0-1.19-3.33,4.17,4.17,0,0,0-3.19-1.27,4.09,4.09,0,0,0-3.15,1.27,4.63,4.63,0,0,0-1.2,3.33v7.84a4.56,4.56,0,0,0,1.2,3.31,4.15,4.15,0,0,0,3.15,1.25A4.23,4.23,0,0,0,68.48,136.92Z"/><path class="cls-1" d="M95.83,117.27a.44.44,0,0,1,.12.3v3.5a.41.41,0,0,1-.12.3.45.45,0,0,1-.31.12H89.14c-.11,0-.17.06-.17.18v20a.44.44,0,0,1-.43.43H84.37a.44.44,0,0,1-.43-.43v-20c0-.12-.06-.18-.17-.18H77.56a.44.44,0,0,1-.3-.12.41.41,0,0,1-.12-.3v-3.5a.41.41,0,0,1,.42-.42h18A.45.45,0,0,1,95.83,117.27Z"/><path class="cls-1" d="M116.35,121.33a.42.42,0,0,1-.31.13H104.36a.16.16,0,0,0-.18.18v5.52a.16.16,0,0,0,.18.18H112a.41.41,0,0,1,.3.12.45.45,0,0,1,.13.3v3.46a.42.42,0,0,1-.13.3.38.38,0,0,1-.3.13h-7.66a.16.16,0,0,0-.18.18v5.77a.16.16,0,0,0,.18.18H116a.45.45,0,0,1,.31.12.42.42,0,0,1,.12.3v3.46a.41.41,0,0,1-.12.3.42.42,0,0,1-.31.13H99.58a.38.38,0,0,1-.3-.13.41.41,0,0,1-.12-.3V117.57a.44.44,0,0,1,.12-.3.41.41,0,0,1,.3-.12H116a.45.45,0,0,1,.31.12.44.44,0,0,1,.12.3V121A.41.41,0,0,1,116.35,121.33Zm-10.92-6.53a.39.39,0,0,1,0-.36l1.89-3.6a.54.54,0,0,1,.53-.32h3.6a.32.32,0,0,1,.29.53l-2.53,3.6a.56.56,0,0,1-.5.29h-3C105.58,114.94,105.47,114.89,105.43,114.8Z"/><path class="cls-1" d="M120.09,142a.42.42,0,0,1-.13-.3V117.57a.45.45,0,0,1,.13-.3.41.41,0,0,1,.3-.12h4.17a.43.43,0,0,1,.43.42v10c0,.07,0,.11.07.13a.15.15,0,0,0,.14-.06l8.23-10.22a.66.66,0,0,1,.54-.25h4.7c.19,0,.31,0,.36.16a.41.41,0,0,1-.07.37l-8,10.16a.22.22,0,0,0,0,.25l8.41,13.5a1.07,1.07,0,0,1,.07.25c0,.16-.12.25-.35.25h-4.71a.53.53,0,0,1-.5-.29l-6.34-10.26a.1.1,0,0,0-.1-.07.21.21,0,0,0-.15.07l-2.24,2.82a.46.46,0,0,0-.07.21v7.09a.44.44,0,0,1-.43.43h-4.17A.38.38,0,0,1,120.09,142Z"/><path class="cls-1" d="M158.05,141.73,157,138.24a.19.19,0,0,0-.18-.14H148c-.07,0-.13,0-.18.14l-1,3.49a.45.45,0,0,1-.46.36h-4.53a.38.38,0,0,1-.32-.13.4.4,0,0,1,0-.37l7.7-24.09a.45.45,0,0,1,.46-.35h5.6a.45.45,0,0,1,.46.35l7.7,24.09a.48.48,0,0,1,0,.18c0,.21-.13.32-.39.32h-4.52A.45.45,0,0,1,158.05,141.73Zm-8.76-7.52h6.27c.14,0,.19-.07.14-.21l-3.21-10.58c0-.1-.06-.14-.1-.13a.17.17,0,0,0-.11.13L149.14,134Q149.11,134.21,149.29,134.21Z"/><path class="cls-1" d="M74.53,83.18V81.84c0-.75,0-1.53,0-2.29,0-1.31,0-2.65,0-3.94,0-1.68,0-3.42,0-5.14,0-1.15,0-2.3,0-3.46,0-3.77-.07-7.67,0-11.5a42.53,42.53,0,0,1,.45-5.25c.27-2,.57-4.13,1-6.18.42-1.82,1-3.63,1.55-5.37l.21-.66c.32-1,.66-2,1-3l.21-.6c-.15-.57-.29-1.14-.43-1.7a41.69,41.69,0,0,1-1.07-6.17A30.33,30.33,0,0,1,77,22.14c0-.81,0-1.63,0-2.44V15.64c0-.44,0-.88,0-1.32-.59-.38,0-.74,0-1.11v-.08A5,5,0,0,1,76.94,12c.09-.62-.43-1.18-.11-1.8,0,0,0,0,0,0a3.52,3.52,0,0,1,0-.65c.21-1-.25-1.27-.85-1.42a6.26,6.26,0,0,0-1.3-.18c-.86,0-1.73,0-2.59,0a6.46,6.46,0,0,0-1.45.24c-.72.2-.87.54-.65,1.24,0,.05,0,.12,0,.16-.25.43.1.86,0,1.33a3.67,3.67,0,0,0-.16,1.58c0,.37-.21.81.19,1.14a.44.44,0,0,1,.06.44c-.3.28-.2.63-.2,1,0,2.77,0,5.53,0,8.3,0,1.62-.22,3.24-.4,4.86-.14,1.25-.33,2.49-.58,3.72s-.58,2.74-1,4.07c-.61,2-1.34,4-2,5.93-.55,1.75-1.13,3.5-1.54,5.29s-.67,3.6-.91,5.42a36.61,36.61,0,0,0-.4,4.55c0,4.42,0,8.85.06,13.27,0,2.68.06,5.37.08,8,0,1.07,0,2.15,0,3.22a1.32,1.32,0,0,0,1.21,1.26c.32.25,5.39.37,10.12.35v-.07"/><path class="cls-1" d="M74.53,83.18V81.84c0-.75,0-1.53,0-2.29,0-1.31,0-2.65,0-3.94,0-1.68,0-3.42,0-5.14,0-1.15,0-2.3,0-3.46,0-3.77-.07-7.67,0-11.5a42.53,42.53,0,0,1,.45-5.25c.27-2,.57-4.13,1-6.18.42-1.82,1-3.63,1.55-5.37l.21-.66c.32-1,.66-2,1-3l.21-.6c-.15-.57-.29-1.14-.43-1.7a41.69,41.69,0,0,1-1.07-6.17A30.33,30.33,0,0,1,77,22.14c0-.81,0-1.63,0-2.44V15.64c0-.44,0-.88,0-1.32-.59-.38,0-.74,0-1.11v-.08A5,5,0,0,1,76.94,12c.09-.62-.43-1.18-.11-1.8,0,0,0,0,0,0a3.52,3.52,0,0,1,0-.65c.21-1-.25-1.27-.85-1.42a6.26,6.26,0,0,0-1.3-.18c-.86,0-1.73,0-2.59,0a6.46,6.46,0,0,0-1.45.24c-.72.2-.87.54-.65,1.24,0,.05,0,.12,0,.16-.25.43.1.86,0,1.33a3.67,3.67,0,0,0-.16,1.58c0,.37-.21.81.19,1.14a.44.44,0,0,1,.06.44c-.3.28-.2.63-.2,1,0,2.77,0,5.53,0,8.3,0,1.62-.22,3.24-.4,4.86-.14,1.25-.33,2.49-.58,3.72s-.58,2.74-1,4.07c-.61,2-1.34,4-2,5.93-.55,1.75-1.13,3.5-1.54,5.29s-.67,3.6-.91,5.42a36.61,36.61,0,0,0-.4,4.55c0,4.42,0,8.85.06,13.27,0,2.68.06,5.37.08,8,0,1.07,0,2.15,0,3.22a1.32,1.32,0,0,0,1.21,1.26c.32.25,5.39.37,10.12.35Z"/><path class="cls-1" d="M86.65,32.7c-.64,1.5-1.25,3.44-1.82,5.11S83.58,40.93,83,42.52a42.54,42.54,0,0,0-1.35,5.22c-.39,1.89-.86,3.78-1.15,5.69s-.44,3.89-.56,5.85a1.2,1.2,0,0,1-2.39,0,69.29,69.29,0,0,1,.73-7.05c.33-1.95.8-3.87,1.21-5.8A34.84,34.84,0,0,1,81,41.12c.59-1.55,1.23-3.12,1.8-4.79s1.1-3.25,1.77-4.83a1.2,1.2,0,0,1,1.64-.43,1.24,1.24,0,0,1,.43,1.63M99.16,75.53c0-2.88,0-5.76,0-8.64,0-3.49,0-7-.09-10.47,0-1.54-.14-3.08-.28-4.62s-.29-2.93-.56-4.37c-.32-1.7-.74-3.39-1.18-5.06-.3-1.16-.69-2.29-1.08-3.42-.74-2.13-1.54-4.23-2.24-6.37-.48-1.48-.85-3-1.23-4.5a45.31,45.31,0,0,1-1.21-6.95,34,34,0,0,1-.37-5c0-.91,0-1.83,0-2.75v-3c0-.51,0-1,0-1.55s0-1,0-1.49c-.66-.43,0-.83,0-1.25a.27.27,0,0,0,0-.09,6.48,6.48,0,0,1-.07-1.31c.1-.7-.48-1.34-.11-2,0,0,0,0,0,0a3.64,3.64,0,0,1,0-.74C91,.74,90.46.4,89.78.23A6.5,6.5,0,0,0,88.32,0c-1,0-1.95,0-2.93,0A7,7,0,0,0,83.76.3c-.8.23-1,.61-.73,1.4,0,.05,0,.13,0,.17-.28.49.12,1-.06,1.5a4.14,4.14,0,0,0-.17,1.78c.05.42-.24.92.22,1.29a.56.56,0,0,1,.06.5c-.34.32-.22.7-.22,1.07,0,3.12,0,6.24,0,9.36,0,1.82-.25,3.65-.45,5.47-.15,1.41-.37,2.81-.65,4.2s-.66,3.08-1.11,4.59c-.68,2.24-1.51,4.44-2.22,6.68-.62,2-1.27,3.94-1.74,6s-.75,4.06-1,6.11a40.22,40.22,0,0,0-.45,5.13c0,5,0,10,.07,15,0,3,.06,6,.09,9.07,0,1.21,0,2.42,0,3.63a1.47,1.47,0,0,0,1.37,1.43c.67.52,19.93.51,20.64,0a2,2,0,0,0,1.87-1.93V75.53h-.09"/><path class="cls-1" d="M86.65,32.7c-.64,1.5-1.25,3.44-1.82,5.11S83.58,40.93,83,42.52a42.54,42.54,0,0,0-1.35,5.22c-.39,1.89-.86,3.78-1.15,5.69s-.44,3.89-.56,5.85a1.2,1.2,0,0,1-2.39,0,69.29,69.29,0,0,1,.73-7.05c.33-1.95.8-3.87,1.21-5.8A34.84,34.84,0,0,1,81,41.12c.59-1.55,1.23-3.12,1.8-4.79s1.1-3.25,1.77-4.83a1.2,1.2,0,0,1,1.64-.43A1.24,1.24,0,0,1,86.65,32.7ZM99.16,75.53c0-2.88,0-5.76,0-8.64,0-3.49,0-7-.09-10.47,0-1.54-.14-3.08-.28-4.62s-.29-2.93-.56-4.37c-.32-1.7-.74-3.39-1.18-5.06-.3-1.16-.69-2.29-1.08-3.42-.74-2.13-1.54-4.23-2.24-6.37-.48-1.48-.85-3-1.23-4.5a45.31,45.31,0,0,1-1.21-6.95,34,34,0,0,1-.37-5c0-.91,0-1.83,0-2.75v-3c0-.51,0-1,0-1.55s0-1,0-1.49c-.66-.43,0-.83,0-1.25a.27.27,0,0,0,0-.09,6.48,6.48,0,0,1-.07-1.31c.1-.7-.48-1.34-.11-2,0,0,0,0,0,0a3.64,3.64,0,0,1,0-.74C91,.74,90.46.4,89.78.23A6.5,6.5,0,0,0,88.32,0c-1,0-1.95,0-2.93,0A7,7,0,0,0,83.76.3c-.8.23-1,.61-.73,1.4,0,.05,0,.13,0,.17-.28.49.12,1-.06,1.5a4.14,4.14,0,0,0-.17,1.78c.05.42-.24.92.22,1.29a.56.56,0,0,1,.06.5c-.34.32-.22.7-.22,1.07,0,3.12,0,6.24,0,9.36,0,1.82-.25,3.65-.45,5.47-.15,1.41-.37,2.81-.65,4.2s-.66,3.08-1.11,4.59c-.68,2.24-1.51,4.44-2.22,6.68-.62,2-1.27,3.94-1.74,6s-.75,4.06-1,6.11a40.22,40.22,0,0,0-.45,5.13c0,5,0,10,.07,15,0,3,.06,6,.09,9.07,0,1.21,0,2.42,0,3.63a1.47,1.47,0,0,0,1.37,1.43c.67.52,19.93.51,20.64,0a2,2,0,0,0,1.87-1.93V75.53Z"/></svg>