<svg id="Vrstva_1" data-name="Vrstva 1" xmlns="http://www.w3.org/2000/svg" viewBox="0 0 116.74 139.81"><defs><style>.cls-1{fill:#fff;}</style></defs><title>ikony</title><path class="cls-1" d="M68,27.1l8.33,3.74a1.6,1.6,0,0,0,2.25-1.35L79,24a1.6,1.6,0,0,0-2.11-1.62l-8.76,3A.93.93,0,0,0,68,27.1"/><path class="cls-1" d="M68,27.1l8.33,3.74a1.6,1.6,0,0,0,2.25-1.35L79,24a1.6,1.6,0,0,0-2.11-1.62l-8.76,3A.93.93,0,0,0,68,27.1Z"/><path class="cls-1" d="M47.71,2.78,58.86,14.05,48.42,10.8c-1.57-3.39-1.9-6.34-.71-8m.4-.47c1.69-1.58,5-1.1,8.64.93l2.44,10.34L48.08,2.34l0,0M64.51,9.4l-4.65,4.54L57.42,3.63A33.68,33.68,0,0,1,64.51,9.4m5.92,8.25-10.29-3.2L64.9,9.81a34,34,0,0,1,5.53,7.84m-16.1,1.67a33.89,33.89,0,0,1-5.58-7.82l10.31,3.21Zm-8,9.28,13.17-4.68a36.21,36.21,0,0,1-4.78-4.19L59.53,15l1.93,8.18L62,23l-1.79-7.61,6,6.1.59-.21-6-6,9.9,3.08c.21.47.39.92.55,1.37l1.25-.44a12.53,12.53,0,0,0-.65-1.52A39,39,0,0,0,61.11,4.67C51.87-2.86,46.89,1,46.89,1S40.35,6.1,40.06,16.9c.29,7.68,2.28,8,2.28,10.52a2.78,2.78,0,0,0,2.13,2.83,3.31,3.31,0,0,1,1.87-1.65"/><path class="cls-1" d="M47.71,2.78,58.86,14.05,48.42,10.8C46.85,7.41,46.52,4.46,47.71,2.78Zm.4-.47c1.69-1.58,5-1.1,8.64.93l2.44,10.34L48.08,2.34ZM64.51,9.4l-4.65,4.54L57.42,3.63A33.68,33.68,0,0,1,64.51,9.4Zm5.92,8.25-10.29-3.2L64.9,9.81A34,34,0,0,1,70.43,17.65Zm-16.1,1.67a33.89,33.89,0,0,1-5.58-7.82l10.31,3.21Zm-8,9.28,13.17-4.68a36.21,36.21,0,0,1-4.78-4.19L59.53,15l1.93,8.18L62,23l-1.79-7.61,6,6.1.59-.21-6-6,9.9,3.08c.21.47.39.92.55,1.37l1.25-.44a12.53,12.53,0,0,0-.65-1.52A39,39,0,0,0,61.11,4.67C51.87-2.86,46.89,1,46.89,1S40.35,6.1,40.06,16.9c.29,7.68,2.28,8,2.28,10.52a2.78,2.78,0,0,0,2.13,2.83A3.31,3.31,0,0,1,46.34,28.6Z"/><path class="cls-1" d="M77.36,46.33a30.16,30.16,0,0,1-7.07,3.41c-10.26,3-15.9,2.1-20.11.89C42.35,48.39,37.33,42.36,35,38.82a.37.37,0,0,1,.57-.48c14.68,13.86,33.08,9.89,41.37,7a.54.54,0,0,1,.46,1m9-12.32L84.82,32.7a1.46,1.46,0,0,0-1.77-.07l-1.67,1.2a1.08,1.08,0,0,1-.3.16c-1.1.44-7.65,3-11.45,4.12-2,.58-17.18,1.61-23.6-3.71s-6.87-7.26-8.69-8.76S34.63,21.59,35,20.23c.24-1,.9-1.21.59-1.84a1.42,1.42,0,0,0-1.87-.6,6,6,0,0,1-3.22.6c-1.91-.32-1.55,1.48-.85,2.47a8.36,8.36,0,0,1,.77,9.19c-2.43,4.72,6,16.7,9.64,18.73s13,8.28,27.31,4.44c13.12-3.53,17.5-11.57,18.12-12.84a2,2,0,0,0,.12-.34l.55-2.74a1.4,1.4,0,0,1,.09-.29l.57-1.31a1.45,1.45,0,0,0-.4-1.69"/><path class="cls-1" d="M77.36,46.33a30.16,30.16,0,0,1-7.07,3.41c-10.26,3-15.9,2.1-20.11.89C42.35,48.39,37.33,42.36,35,38.82a.37.37,0,0,1,.57-.48c14.68,13.86,33.08,9.89,41.37,7A.54.54,0,0,1,77.36,46.33Zm9-12.32L84.82,32.7a1.46,1.46,0,0,0-1.77-.07l-1.67,1.2a1.08,1.08,0,0,1-.3.16c-1.1.44-7.65,3-11.45,4.12-2,.58-17.18,1.61-23.6-3.71s-6.87-7.26-8.69-8.76S34.63,21.59,35,20.23c.24-1,.9-1.21.59-1.84a1.42,1.42,0,0,0-1.87-.6,6,6,0,0,1-3.22.6c-1.91-.32-1.55,1.48-.85,2.47a8.36,8.36,0,0,1,.77,9.19c-2.43,4.72,6,16.7,9.64,18.73s13,8.28,27.31,4.44c13.12-3.53,17.5-11.57,18.12-12.84a2,2,0,0,0,.12-.34l.55-2.74a1.4,1.4,0,0,1,.09-.29l.57-1.31A1.45,1.45,0,0,0,86.39,34Z"/><path class="cls-1" d="M59.56,37.13a53.31,53.31,0,0,0,6.94,0l-2.45-6.79a.92.92,0,0,0-1.71-.07L59.23,37.1l.33,0"/><path class="cls-1" d="M59.56,37.13a53.31,53.31,0,0,0,6.94,0l-2.45-6.79a.92.92,0,0,0-1.71-.07L59.23,37.1Z"/><path class="cls-1" d="M52.38,36a32.82,32.82,0,0,0,5.2,1l3.11-7.2a.92.92,0,0,0-1.16-1.24l-9.3,3.38a.92.92,0,0,0-.35,1.51Z"/><path class="cls-1" d="M52.38,36a32.82,32.82,0,0,0,5.2,1l3.11-7.2a.92.92,0,0,0-1.16-1.24l-9.3,3.38a.92.92,0,0,0-.35,1.51Z"/><path class="cls-1" d="M68,37a11.66,11.66,0,0,0,1.24-.19c2.11-.61,5.08-1.68,7.47-2.59l.07,0a.93.93,0,0,0-.24-1.53L66.7,28.07a.93.93,0,0,0-1.27,1.14Z"/><path class="cls-1" d="M68,37a11.66,11.66,0,0,0,1.24-.19c2.11-.61,5.08-1.68,7.47-2.59l.07,0a.93.93,0,0,0-.24-1.53L66.7,28.07a.93.93,0,0,0-1.27,1.14Z"/><path class="cls-1" d="M46.89,33.36a10.5,10.5,0,0,0,1.4,1c-.5-.82-.93-1.63-1.29-2.38a.5.5,0,0,1,0-.4.55.55,0,0,1,.3-.28L80,19.63l.17,0a.51.51,0,0,1,.49.41c1,5.73.3,10-1.17,13.15l1-.41h0l.89-.64a26.47,26.47,0,0,0,.68-12.35,2,2,0,0,0-2.63-1.53L46.79,29.86a2,2,0,0,0-1.28,2.34c.43.37.88.75,1.38,1.16"/><path class="cls-1" d="M46.89,33.36a10.5,10.5,0,0,0,1.4,1c-.5-.82-.93-1.63-1.29-2.38a.5.5,0,0,1,0-.4.55.55,0,0,1,.3-.28L80,19.63l.17,0a.51.51,0,0,1,.49.41c1,5.73.3,10-1.17,13.15l1-.41h0l.89-.64a26.47,26.47,0,0,0,.68-12.35,2,2,0,0,0-2.63-1.53L46.79,29.86a2,2,0,0,0-1.28,2.34C45.94,32.57,46.39,33,46.89,33.36Z"/><path class="cls-1" d="M27.51,90.59a.37.37,0,0,1-.28.11H16.72a.14.14,0,0,0-.16.16v5a.14.14,0,0,0,.16.16h6.91a.37.37,0,0,1,.27.11.37.37,0,0,1,.12.27v3.12a.38.38,0,0,1-.12.28.37.37,0,0,1-.27.11H16.72a.14.14,0,0,0-.16.16v8.87a.38.38,0,0,1-.39.39H12.41a.38.38,0,0,1-.38-.39V87.2a.33.33,0,0,1,.11-.27.34.34,0,0,1,.27-.12H27.23a.38.38,0,0,1,.28.12.37.37,0,0,1,.11.27v3.12A.37.37,0,0,1,27.51,90.59Z"/><path class="cls-1" d="M41.93,109l-4-8.91a.22.22,0,0,0-.2-.12h-3a.14.14,0,0,0-.16.16v8.77a.38.38,0,0,1-.38.39H30.42a.38.38,0,0,1-.39-.39V87.2a.37.37,0,0,1,.11-.27.38.38,0,0,1,.28-.12h9.19a7.53,7.53,0,0,1,3.62.84A5.88,5.88,0,0,1,45.64,90a7.25,7.25,0,0,1,.85,3.57,6.33,6.33,0,0,1-1.09,3.74,5.85,5.85,0,0,1-3.06,2.21.15.15,0,0,0-.09.22l4.37,9.1a.55.55,0,0,1,.06.19c0,.17-.11.26-.35.26H42.38A.45.45,0,0,1,41.93,109ZM34.56,90.86v5.5a.14.14,0,0,0,.16.16h4.22a3.06,3.06,0,0,0,2.2-.8A2.74,2.74,0,0,0,42,93.63a2.8,2.8,0,0,0-.85-2.11,3.07,3.07,0,0,0-2.2-.82H34.72A.15.15,0,0,0,34.56,90.86Z"/><path class="cls-1" d="M65.28,90.59a.33.33,0,0,1-.27.11H54.46a.15.15,0,0,0-.16.16v5a.14.14,0,0,0,.16.16h6.92a.38.38,0,0,1,.38.38v3.12a.41.41,0,0,1-.11.28.4.4,0,0,1-.27.11H54.46a.14.14,0,0,0-.16.16v5.21a.14.14,0,0,0,.16.16H65a.37.37,0,0,1,.27.11.37.37,0,0,1,.12.27v3.12a.38.38,0,0,1-.12.28.37.37,0,0,1-.27.11H50.16a.38.38,0,0,1-.39-.39V87.2a.37.37,0,0,1,.11-.27.38.38,0,0,1,.28-.12H65a.41.41,0,0,1,.39.39v3.12A.34.34,0,0,1,65.28,90.59Z"/><path class="cls-1" d="M71.76,108.76a6.64,6.64,0,0,1-3-2.35,6.11,6.11,0,0,1-1.05-3.55v-.71a.41.41,0,0,1,.39-.39h3.66a.38.38,0,0,1,.28.12.37.37,0,0,1,.11.27v.48a2.63,2.63,0,0,0,1.19,2.17,5.25,5.25,0,0,0,3.21.89,3.74,3.74,0,0,0,2.54-.73,2.25,2.25,0,0,0,.84-1.78,1.79,1.79,0,0,0-.51-1.3,4.57,4.57,0,0,0-1.4-.94q-.89-.39-2.82-1.11a27,27,0,0,1-3.65-1.51,7.25,7.25,0,0,1-2.5-2.1,5.28,5.28,0,0,1-1-3.3,5.82,5.82,0,0,1,1-3.37,6.26,6.26,0,0,1,2.77-2.22,10,10,0,0,1,4.08-.77,10.6,10.6,0,0,1,4.36.86,7.16,7.16,0,0,1,3,2.43,6.28,6.28,0,0,1,1.07,3.62V94a.37.37,0,0,1-.11.27.37.37,0,0,1-.27.12h-3.7a.41.41,0,0,1-.39-.39v-.26a2.93,2.93,0,0,0-1.11-2.3,4.5,4.5,0,0,0-3-.94,3.86,3.86,0,0,0-2.37.64,2.12,2.12,0,0,0-.85,1.77,2,2,0,0,0,.5,1.35,4.37,4.37,0,0,0,1.48,1c.65.29,1.66.68,3,1.17a38.43,38.43,0,0,1,3.58,1.48,7.26,7.26,0,0,1,2.35,1.91,5.07,5.07,0,0,1,1,3.3,5.76,5.76,0,0,1-2.21,4.77,9.46,9.46,0,0,1-6,1.76A11.58,11.58,0,0,1,71.76,108.76Z"/><path class="cls-1" d="M99.75,86.93a.36.36,0,0,1,.27-.12h3.77a.37.37,0,0,1,.27.12.37.37,0,0,1,.11.27v21.73a.41.41,0,0,1-.11.28.4.4,0,0,1-.27.11H100a.39.39,0,0,1-.27-.11.37.37,0,0,1-.11-.28v-8.87a.14.14,0,0,0-.16-.16H92.37a.14.14,0,0,0-.16.16v8.87a.38.38,0,0,1-.39.39H88.06a.39.39,0,0,1-.27-.11.37.37,0,0,1-.11-.28V87.2a.33.33,0,0,1,.11-.27.36.36,0,0,1,.27-.12h3.76a.38.38,0,0,1,.28.12.37.37,0,0,1,.11.27v8.65a.14.14,0,0,0,.16.16h7.11a.14.14,0,0,0,.16-.16V87.2A.33.33,0,0,1,99.75,86.93Z"/><path class="cls-1" d="M27.51,90.59a.37.37,0,0,1-.28.11H16.72a.14.14,0,0,0-.16.16v5a.14.14,0,0,0,.16.16h6.91a.37.37,0,0,1,.27.11.37.37,0,0,1,.12.27v3.12a.38.38,0,0,1-.12.28.37.37,0,0,1-.27.11H16.72a.14.14,0,0,0-.16.16v8.87a.38.38,0,0,1-.39.39H12.41a.38.38,0,0,1-.38-.39V87.2a.33.33,0,0,1,.11-.27.34.34,0,0,1,.27-.12H27.23a.38.38,0,0,1,.28.12.37.37,0,0,1,.11.27v3.12A.37.37,0,0,1,27.51,90.59Z"/><path class="cls-1" d="M41.93,109l-4-8.91a.22.22,0,0,0-.2-.12h-3a.14.14,0,0,0-.16.16v8.77a.38.38,0,0,1-.38.39H30.42a.38.38,0,0,1-.39-.39V87.2a.37.37,0,0,1,.11-.27.38.38,0,0,1,.28-.12h9.19a7.53,7.53,0,0,1,3.62.84A5.88,5.88,0,0,1,45.64,90a7.25,7.25,0,0,1,.85,3.57,6.33,6.33,0,0,1-1.09,3.74,5.85,5.85,0,0,1-3.06,2.21.15.15,0,0,0-.09.22l4.37,9.1a.55.55,0,0,1,.06.19c0,.17-.11.26-.35.26H42.38A.45.45,0,0,1,41.93,109ZM34.56,90.86v5.5a.14.14,0,0,0,.16.16h4.22a3.06,3.06,0,0,0,2.2-.8A2.74,2.74,0,0,0,42,93.63a2.8,2.8,0,0,0-.85-2.11,3.07,3.07,0,0,0-2.2-.82H34.72A.15.15,0,0,0,34.56,90.86Z"/><path class="cls-1" d="M65.28,90.59a.33.33,0,0,1-.27.11H54.46a.15.15,0,0,0-.16.16v5a.14.14,0,0,0,.16.16h6.92a.38.38,0,0,1,.38.38v3.12a.41.41,0,0,1-.11.28.4.4,0,0,1-.27.11H54.46a.14.14,0,0,0-.16.16v5.21a.14.14,0,0,0,.16.16H65a.37.37,0,0,1,.27.11.37.37,0,0,1,.12.27v3.12a.38.38,0,0,1-.12.28.37.37,0,0,1-.27.11H50.16a.38.38,0,0,1-.39-.39V87.2a.37.37,0,0,1,.11-.27.38.38,0,0,1,.28-.12H65a.41.41,0,0,1,.39.39v3.12A.34.34,0,0,1,65.28,90.59Z"/><path class="cls-1" d="M71.76,108.76a6.64,6.64,0,0,1-3-2.35,6.11,6.11,0,0,1-1.05-3.55v-.71a.41.41,0,0,1,.39-.39h3.66a.38.38,0,0,1,.28.12.37.37,0,0,1,.11.27v.48a2.63,2.63,0,0,0,1.19,2.17,5.25,5.25,0,0,0,3.21.89,3.74,3.74,0,0,0,2.54-.73,2.25,2.25,0,0,0,.84-1.78,1.79,1.79,0,0,0-.51-1.3,4.57,4.57,0,0,0-1.4-.94q-.89-.39-2.82-1.11a27,27,0,0,1-3.65-1.51,7.25,7.25,0,0,1-2.5-2.1,5.28,5.28,0,0,1-1-3.3,5.82,5.82,0,0,1,1-3.37,6.26,6.26,0,0,1,2.77-2.22,10,10,0,0,1,4.08-.77,10.6,10.6,0,0,1,4.36.86,7.16,7.16,0,0,1,3,2.43,6.28,6.28,0,0,1,1.07,3.62V94a.37.37,0,0,1-.11.27.37.37,0,0,1-.27.12h-3.7a.41.41,0,0,1-.39-.39v-.26a2.93,2.93,0,0,0-1.11-2.3,4.5,4.5,0,0,0-3-.94,3.86,3.86,0,0,0-2.37.64,2.12,2.12,0,0,0-.85,1.77,2,2,0,0,0,.5,1.35,4.37,4.37,0,0,0,1.48,1c.65.29,1.66.68,3,1.17a38.43,38.43,0,0,1,3.58,1.48,7.26,7.26,0,0,1,2.35,1.91,5.07,5.07,0,0,1,1,3.3,5.76,5.76,0,0,1-2.21,4.77,9.46,9.46,0,0,1-6,1.76A11.58,11.58,0,0,1,71.76,108.76Z"/><path class="cls-1" d="M99.75,86.93a.36.36,0,0,1,.27-.12h3.77a.37.37,0,0,1,.27.12.37.37,0,0,1,.11.27v21.73a.41.41,0,0,1-.11.28.4.4,0,0,1-.27.11H100a.39.39,0,0,1-.27-.11.37.37,0,0,1-.11-.28v-8.87a.14.14,0,0,0-.16-.16H92.37a.14.14,0,0,0-.16.16v8.87a.38.38,0,0,1-.39.39H88.06a.39.39,0,0,1-.27-.11.37.37,0,0,1-.11-.28V87.2a.33.33,0,0,1,.11-.27.36.36,0,0,1,.27-.12h3.76a.38.38,0,0,1,.28.12.37.37,0,0,1,.11.27v8.65a.14.14,0,0,0,.16.16h7.11a.14.14,0,0,0,.16-.16V87.2A.33.33,0,0,1,99.75,86.93Z"/><path class="cls-1" d="M13,117.07a.34.34,0,0,1,.27-.12h3.76a.38.38,0,0,1,.28.12.37.37,0,0,1,.11.27v21.73a.38.38,0,0,1-.39.39H13.44a.46.46,0,0,1-.45-.26L4.66,125.44c0-.06-.08-.09-.13-.08s-.06.06-.06.14l.06,13.57a.38.38,0,0,1-.38.39H.39a.41.41,0,0,1-.28-.11.41.41,0,0,1-.11-.28V117.34a.37.37,0,0,1,.11-.27A.38.38,0,0,1,.39,117H4a.47.47,0,0,1,.45.26l8.3,13.7c0,.06.08.09.12.08s.07-.06.07-.15l0-13.5A.33.33,0,0,1,13,117.07Z"/><path class="cls-1" d="M35.27,139.14l-1-3.15c0-.09-.09-.13-.16-.13h-7.9c-.07,0-.12,0-.17.13l-.93,3.15a.4.4,0,0,1-.42.32H20.64a.31.31,0,0,1-.32-.45l6.94-21.74a.42.42,0,0,1,.42-.32h5a.42.42,0,0,1,.42.32L40.09,139a.35.35,0,0,1,0,.16c0,.19-.11.29-.35.29H35.69A.4.4,0,0,1,35.27,139.14Zm-7.91-6.79H33c.13,0,.17-.06.13-.19l-2.9-9.55c0-.08-.05-.12-.09-.11a.16.16,0,0,0-.1.11l-2.83,9.55C27.21,132.29,27.25,132.35,27.36,132.35Zm.71-17.52a.37.37,0,0,1,0-.32l1.7-3.25a.49.49,0,0,1,.49-.29h3.24a.29.29,0,0,1,.26.49l-2.28,3.24a.52.52,0,0,1-.45.26h-2.7C28.21,115,28.11,114.92,28.07,114.83Z"/><path class="cls-1" d="M56,117.79a6.11,6.11,0,0,1,2.5,2.46,7.39,7.39,0,0,1,.88,3.65,7,7,0,0,1-.91,3.57,6.27,6.27,0,0,1-2.58,2.39,8.16,8.16,0,0,1-3.81.85H47.49a.14.14,0,0,0-.16.16v8.2a.38.38,0,0,1-.12.28.37.37,0,0,1-.27.11H43.18a.37.37,0,0,1-.27-.11.38.38,0,0,1-.12-.28V117.31a.38.38,0,0,1,.12-.28.37.37,0,0,1,.27-.11h9.07A7.69,7.69,0,0,1,56,117.79Zm-2,8.44a2.94,2.94,0,0,0,.9-2.24,3,3,0,0,0-.9-2.28,3.27,3.27,0,0,0-2.38-.87H47.49a.14.14,0,0,0-.16.16v5.92a.14.14,0,0,0,.16.16h4.08A3.3,3.3,0,0,0,54,126.23Z"/><path class="cls-1" d="M65.73,138.78a7.39,7.39,0,0,1-3-2.87,8.42,8.42,0,0,1-1.06-4.26v-6.88a8.27,8.27,0,0,1,1.06-4.22,7.32,7.32,0,0,1,3-2.84,10.26,10.26,0,0,1,8.88,0,7.32,7.32,0,0,1,3,2.84,8.27,8.27,0,0,1,1.06,4.22v6.88a8.45,8.45,0,0,1-1.06,4.27,7.29,7.29,0,0,1-3,2.88,9.46,9.46,0,0,1-4.46,1A9.16,9.16,0,0,1,65.73,138.78Zm7.29-4a4.15,4.15,0,0,0,1.09-3v-7.08a4.18,4.18,0,0,0-1.08-3,3.78,3.78,0,0,0-2.88-1.14,3.72,3.72,0,0,0-2.84,1.14,4.18,4.18,0,0,0-1.08,3v7.08a4.14,4.14,0,0,0,1.08,3,3.74,3.74,0,0,0,2.84,1.12A3.83,3.83,0,0,0,73,134.8Z"/><path class="cls-1" d="M84.83,138.8A6.73,6.73,0,0,1,82,136.23a7.28,7.28,0,0,1-1-3.84v-2a.37.37,0,0,1,.11-.27.38.38,0,0,1,.28-.12h3.76a.34.34,0,0,1,.27.12.33.33,0,0,1,.11.27v2a3.39,3.39,0,0,0,1,2.49,3.51,3.51,0,0,0,2.59,1,3.66,3.66,0,0,0,2.59-1,3.28,3.28,0,0,0,1-2.49v-15a.37.37,0,0,1,.11-.27.38.38,0,0,1,.28-.12h3.73a.37.37,0,0,1,.27.12.37.37,0,0,1,.11.27v15a7.12,7.12,0,0,1-1,3.84,6.93,6.93,0,0,1-2.86,2.57,10.21,10.21,0,0,1-8.47,0Z"/><path class="cls-1" d="M116.63,120.73a.37.37,0,0,1-.28.11H105.81a.14.14,0,0,0-.16.16v5a.14.14,0,0,0,.16.16h6.91a.37.37,0,0,1,.27.11.37.37,0,0,1,.12.27v3.12a.38.38,0,0,1-.12.28.37.37,0,0,1-.27.11h-6.91a.14.14,0,0,0-.16.16v5.21a.14.14,0,0,0,.16.16h10.54a.41.41,0,0,1,.28.11.4.4,0,0,1,.11.27v3.12a.38.38,0,0,1-.39.39H101.5a.37.37,0,0,1-.27-.11.38.38,0,0,1-.12-.28V117.34a.41.41,0,0,1,.39-.39h14.85a.38.38,0,0,1,.28.12.37.37,0,0,1,.11.27v3.12A.39.39,0,0,1,116.63,120.73Z"/><path class="cls-1" d="M13,117.07a.34.34,0,0,1,.27-.12h3.76a.38.38,0,0,1,.28.12.37.37,0,0,1,.11.27v21.73a.38.38,0,0,1-.39.39H13.44a.46.46,0,0,1-.45-.26L4.66,125.44c0-.06-.08-.09-.13-.08s-.06.06-.06.14l.06,13.57a.38.38,0,0,1-.38.39H.39a.41.41,0,0,1-.28-.11.41.41,0,0,1-.11-.28V117.34a.37.37,0,0,1,.11-.27A.38.38,0,0,1,.39,117H4a.47.47,0,0,1,.45.26l8.3,13.7c0,.06.08.09.12.08s.07-.06.07-.15l0-13.5A.33.33,0,0,1,13,117.07Z"/><path class="cls-1" d="M35.27,139.14l-1-3.15c0-.09-.09-.13-.16-.13h-7.9c-.07,0-.12,0-.17.13l-.93,3.15a.4.4,0,0,1-.42.32H20.64a.31.31,0,0,1-.32-.45l6.94-21.74a.42.42,0,0,1,.42-.32h5a.42.42,0,0,1,.42.32L40.09,139a.35.35,0,0,1,0,.16c0,.19-.11.29-.35.29H35.69A.4.4,0,0,1,35.27,139.14Zm-7.91-6.79H33c.13,0,.17-.06.13-.19l-2.9-9.55c0-.08-.05-.12-.09-.11a.16.16,0,0,0-.1.11l-2.83,9.55C27.21,132.29,27.25,132.35,27.36,132.35Zm.71-17.52a.37.37,0,0,1,0-.32l1.7-3.25a.49.49,0,0,1,.49-.29h3.24a.29.29,0,0,1,.26.49l-2.28,3.24a.52.52,0,0,1-.45.26h-2.7C28.21,115,28.11,114.92,28.07,114.83Z"/><path class="cls-1" d="M56,117.79a6.11,6.11,0,0,1,2.5,2.46,7.39,7.39,0,0,1,.88,3.65,7,7,0,0,1-.91,3.57,6.27,6.27,0,0,1-2.58,2.39,8.16,8.16,0,0,1-3.81.85H47.49a.14.14,0,0,0-.16.16v8.2a.38.38,0,0,1-.12.28.37.37,0,0,1-.27.11H43.18a.37.37,0,0,1-.27-.11.38.38,0,0,1-.12-.28V117.31a.38.38,0,0,1,.12-.28.37.37,0,0,1,.27-.11h9.07A7.69,7.69,0,0,1,56,117.79Zm-2,8.44a2.94,2.94,0,0,0,.9-2.24,3,3,0,0,0-.9-2.28,3.27,3.27,0,0,0-2.38-.87H47.49a.14.14,0,0,0-.16.16v5.92a.14.14,0,0,0,.16.16h4.08A3.3,3.3,0,0,0,54,126.23Z"/><path class="cls-1" d="M65.73,138.78a7.39,7.39,0,0,1-3-2.87,8.42,8.42,0,0,1-1.06-4.26v-6.88a8.27,8.27,0,0,1,1.06-4.22,7.32,7.32,0,0,1,3-2.84,10.26,10.26,0,0,1,8.88,0,7.32,7.32,0,0,1,3,2.84,8.27,8.27,0,0,1,1.06,4.22v6.88a8.45,8.45,0,0,1-1.06,4.27,7.29,7.29,0,0,1-3,2.88,9.46,9.46,0,0,1-4.46,1A9.16,9.16,0,0,1,65.73,138.78Zm7.29-4a4.15,4.15,0,0,0,1.09-3v-7.08a4.18,4.18,0,0,0-1.08-3,3.78,3.78,0,0,0-2.88-1.14,3.72,3.72,0,0,0-2.84,1.14,4.18,4.18,0,0,0-1.08,3v7.08a4.14,4.14,0,0,0,1.08,3,3.74,3.74,0,0,0,2.84,1.12A3.83,3.83,0,0,0,73,134.8Z"/><path class="cls-1" d="M84.83,138.8A6.73,6.73,0,0,1,82,136.23a7.28,7.28,0,0,1-1-3.84v-2a.37.37,0,0,1,.11-.27.38.38,0,0,1,.28-.12h3.76a.34.34,0,0,1,.27.12.33.33,0,0,1,.11.27v2a3.39,3.39,0,0,0,1,2.49,3.51,3.51,0,0,0,2.59,1,3.66,3.66,0,0,0,2.59-1,3.28,3.28,0,0,0,1-2.49v-15a.37.37,0,0,1,.11-.27.38.38,0,0,1,.28-.12h3.73a.37.37,0,0,1,.27.12.37.37,0,0,1,.11.27v15a7.12,7.12,0,0,1-1,3.84,6.93,6.93,0,0,1-2.86,2.57,10.21,10.21,0,0,1-8.47,0Z"/><path class="cls-1" d="M116.63,120.73a.37.37,0,0,1-.28.11H105.81a.14.14,0,0,0-.16.16v5a.14.14,0,0,0,.16.16h6.91a.37.37,0,0,1,.27.11.37.37,0,0,1,.12.27v3.12a.38.38,0,0,1-.12.28.37.37,0,0,1-.27.11h-6.91a.14.14,0,0,0-.16.16v5.21a.14.14,0,0,0,.16.16h10.54a.41.41,0,0,1,.28.11.4.4,0,0,1,.11.27v3.12a.38.38,0,0,1-.39.39H101.5a.37.37,0,0,1-.27-.11.38.38,0,0,1-.12-.28V117.34a.41.41,0,0,1,.39-.39h14.85a.38.38,0,0,1,.28.12.37.37,0,0,1,.11.27v3.12A.39.39,0,0,1,116.63,120.73Z"/></svg>