<svg id="Vrstva_1" data-name="Vrstva 1" xmlns="http://www.w3.org/2000/svg" viewBox="0 0 198.95 175.91"><defs><style>.cls-1{fill:#fff;}</style></defs><title>desktop_zobrazeni_02</title><path class="cls-1" d="M24.49,155.54l-7.33-24.09,0-.14q0-.36.39-.36H22a.47.47,0,0,1,.5.36l4.74,17.39c0,.07.06.1.1.1s.09,0,.11-.1l4.67-17.39a.47.47,0,0,1,.5-.36H37a.37.37,0,0,1,.32.15.38.38,0,0,1,0,.35l-7.45,24.09a.44.44,0,0,1-.46.35H25A.45.45,0,0,1,24.49,155.54Z"/><path class="cls-1" d="M40.62,155.77a.38.38,0,0,1-.13-.3V131.38a.38.38,0,0,1,.13-.3.42.42,0,0,1,.3-.13h4.17a.44.44,0,0,1,.43.43v24.09a.42.42,0,0,1-.13.3.41.41,0,0,1-.3.12H40.92A.41.41,0,0,1,40.62,155.77Z"/><path class="cls-1" d="M64.31,131.08a.42.42,0,0,1,.3-.13h4.17a.42.42,0,0,1,.3.13.38.38,0,0,1,.13.3v24.09a.38.38,0,0,1-.13.3.41.41,0,0,1-.3.12h-4a.5.5,0,0,1-.49-.28L55,140.36c-.05-.07-.1-.1-.14-.09s-.08.07-.08.16l.08,15a.42.42,0,0,1-.13.3.41.41,0,0,1-.3.12H50.29a.41.41,0,0,1-.3-.12.38.38,0,0,1-.13-.3V131.38a.38.38,0,0,1,.13-.3.42.42,0,0,1,.3-.13h4a.5.5,0,0,1,.49.29L64,146.42c0,.07.09.1.14.09s.07-.07.07-.16l0-15A.41.41,0,0,1,64.31,131.08Z"/><path class="cls-1" d="M77.53,155.15a8.3,8.3,0,0,1-3.3-3.19,9.36,9.36,0,0,1-1.17-4.72v-7.63a9.2,9.2,0,0,1,1.17-4.67,8.21,8.21,0,0,1,3.3-3.15,11.34,11.34,0,0,1,9.83,0,8.15,8.15,0,0,1,3.3,3.15,9.2,9.2,0,0,1,1.17,4.67v7.63A9.46,9.46,0,0,1,90.66,152a8,8,0,0,1-3.3,3.18,10.37,10.37,0,0,1-4.93,1.13A10.19,10.19,0,0,1,77.53,155.15Zm8.07-4.42a4.54,4.54,0,0,0,1.21-3.31v-7.84a4.67,4.67,0,0,0-1.19-3.33,4.6,4.6,0,0,0-6.35,0,4.67,4.67,0,0,0-1.19,3.33v7.84a4.62,4.62,0,0,0,1.19,3.31A4.19,4.19,0,0,0,82.43,152,4.24,4.24,0,0,0,85.6,150.73Z"/><path class="cls-1" d="M112.94,131.08a.38.38,0,0,1,.13.3v3.49a.42.42,0,0,1-.13.31.41.41,0,0,1-.3.12h-6.38c-.12,0-.17.06-.17.18v20a.42.42,0,0,1-.13.3.41.41,0,0,1-.3.12h-4.17a.41.41,0,0,1-.3-.12.38.38,0,0,1-.13-.3v-20a.16.16,0,0,0-.18-.18h-6.2a.41.41,0,0,1-.3-.12.45.45,0,0,1-.12-.31v-3.49a.41.41,0,0,1,.12-.3.42.42,0,0,1,.3-.13h18A.42.42,0,0,1,112.94,131.08Z"/><path class="cls-1" d="M133.47,135.14a.45.45,0,0,1-.31.12H121.48a.16.16,0,0,0-.18.18V141c0,.12.06.17.18.17h7.66a.42.42,0,0,1,.3.13.41.41,0,0,1,.12.3V145a.41.41,0,0,1-.12.3.42.42,0,0,1-.3.13h-7.66c-.12,0-.18,0-.18.17v5.78c0,.11.06.17.18.17h11.68a.46.46,0,0,1,.31.13.41.41,0,0,1,.12.3v3.46a.41.41,0,0,1-.12.3.45.45,0,0,1-.31.12H116.7a.41.41,0,0,1-.42-.42V131.38a.41.41,0,0,1,.12-.3.42.42,0,0,1,.3-.13h16.46a.46.46,0,0,1,.31.13.41.41,0,0,1,.12.3v3.46A.41.41,0,0,1,133.47,135.14Zm-10.92-6.54a.37.37,0,0,1,0-.35l1.89-3.6a.51.51,0,0,1,.53-.32h3.6a.32.32,0,0,1,.29.53l-2.53,3.6a.57.57,0,0,1-.5.29h-3C122.7,128.75,122.59,128.7,122.55,128.6Z"/><path class="cls-1" d="M137.21,155.77a.38.38,0,0,1-.13-.3V131.38a.38.38,0,0,1,.13-.3.42.42,0,0,1,.3-.13h4.17a.44.44,0,0,1,.43.43v10c0,.07,0,.11.07.12s.09,0,.14,0l8.23-10.23a.69.69,0,0,1,.53-.25h4.71c.19,0,.31.06.35.16a.37.37,0,0,1-.07.38l-7.94,10.15c-.07.1-.09.18,0,.25l8.41,13.51a1.07,1.07,0,0,1,.07.25c0,.16-.12.24-.35.24h-4.71a.52.52,0,0,1-.5-.28l-6.34-10.26a.11.11,0,0,0-.11-.07.21.21,0,0,0-.14.07l-2.24,2.81a.53.53,0,0,0-.07.22v7.09a.42.42,0,0,1-.13.3.41.41,0,0,1-.3.12h-4.17A.41.41,0,0,1,137.21,155.77Z"/><path class="cls-1" d="M175.17,155.54l-1.07-3.49c0-.1-.1-.15-.18-.15h-8.76q-.1,0-.18.15l-1,3.49a.44.44,0,0,1-.47.35H159a.34.34,0,0,1-.36-.49l7.7-24.09a.44.44,0,0,1,.46-.36h5.6a.45.45,0,0,1,.46.36l7.7,24.09a.4.4,0,0,1,0,.17c0,.22-.13.32-.39.32h-4.53A.44.44,0,0,1,175.17,155.54ZM166.41,148h6.27c.14,0,.19-.07.14-.21l-3.21-10.59c0-.09-.06-.13-.1-.12a.15.15,0,0,0-.11.12l-3.14,10.59Q166.23,148,166.41,148Z"/><path class="cls-1" d="M91.65,97c0-.44,0-.88,0-1.33,0-.75,0-1.53,0-2.29,0-1.31,0-2.65,0-3.94,0-1.69,0-3.43,0-5.14l0-3.46c0-3.77-.06-7.67,0-11.51a42.54,42.54,0,0,1,.45-5.24c.27-2,.57-4.13,1-6.18.42-1.83,1-3.63,1.55-5.37l.21-.66c.32-1,.66-2,1-3l.21-.6c-.15-.57-.29-1.14-.43-1.7a40.34,40.34,0,0,1-1.07-6.18,30.12,30.12,0,0,1-.33-4.46c0-.81,0-1.62,0-2.43V29.45c0-.44,0-.88,0-1.32-.59-.38,0-.74,0-1.11v-.08a5.08,5.08,0,0,1-.06-1.16c.08-.62-.43-1.18-.11-1.8,0,0,0,0,0,0a2.91,2.91,0,0,1,0-.66c.21-1-.25-1.26-.85-1.41a5.66,5.66,0,0,0-1.3-.18c-.86,0-1.73,0-2.6,0a6.47,6.47,0,0,0-1.44.24c-.72.2-.87.54-.66,1.24,0,0,0,.12,0,.15-.26.43.1.87-.06,1.34a3.79,3.79,0,0,0-.15,1.57c0,.37-.21.82.19,1.15a.44.44,0,0,1,.06.44c-.3.28-.2.62-.2.95,0,2.76,0,5.53,0,8.3,0,1.62-.22,3.24-.4,4.86-.14,1.24-.33,2.49-.58,3.72s-.58,2.74-1,4.07c-.6,2-1.33,3.94-2,5.93-.55,1.75-1.13,3.5-1.54,5.29s-.67,3.6-.91,5.41a36.77,36.77,0,0,0-.4,4.56c0,4.42,0,8.84.06,13.27,0,2.68.06,5.36.08,8,0,1.07,0,2.15,0,3.22a1.31,1.31,0,0,0,1.21,1.26c.32.25,5.39.36,10.12.34V97"/><path class="cls-1" d="M91.65,97c0-.44,0-.88,0-1.33,0-.75,0-1.53,0-2.29,0-1.31,0-2.65,0-3.94,0-1.69,0-3.43,0-5.14l0-3.46c0-3.77-.06-7.67,0-11.51a42.54,42.54,0,0,1,.45-5.24c.27-2,.57-4.13,1-6.18.42-1.83,1-3.63,1.55-5.37l.21-.66c.32-1,.66-2,1-3l.21-.6c-.15-.57-.29-1.14-.43-1.7a40.34,40.34,0,0,1-1.07-6.18,30.12,30.12,0,0,1-.33-4.46c0-.81,0-1.62,0-2.43V29.45c0-.44,0-.88,0-1.32-.59-.38,0-.74,0-1.11v-.08a5.08,5.08,0,0,1-.06-1.16c.08-.62-.43-1.18-.11-1.8,0,0,0,0,0,0a2.91,2.91,0,0,1,0-.66c.21-1-.25-1.26-.85-1.41a5.66,5.66,0,0,0-1.3-.18c-.86,0-1.73,0-2.6,0a6.47,6.47,0,0,0-1.44.24c-.72.2-.87.54-.66,1.24,0,0,0,.12,0,.15-.26.43.1.87-.06,1.34a3.79,3.79,0,0,0-.15,1.57c0,.37-.21.82.19,1.15a.44.44,0,0,1,.06.44c-.3.28-.2.62-.2.95,0,2.76,0,5.53,0,8.3,0,1.62-.22,3.24-.4,4.86-.14,1.24-.33,2.49-.58,3.72s-.58,2.74-1,4.07c-.6,2-1.33,3.94-2,5.93-.55,1.75-1.13,3.5-1.54,5.29s-.67,3.6-.91,5.41a36.77,36.77,0,0,0-.4,4.56c0,4.42,0,8.84.06,13.27,0,2.68.06,5.36.08,8,0,1.07,0,2.15,0,3.22a1.31,1.31,0,0,0,1.21,1.26c.32.25,5.39.36,10.12.34Z"/><path class="cls-1" d="M103.77,46.51c-.64,1.49-1.25,3.43-1.82,5.11s-1.25,3.12-1.79,4.7a43,43,0,0,0-1.35,5.22c-.39,1.9-.86,3.78-1.15,5.7s-.44,3.89-.56,5.85a1.2,1.2,0,0,1-2.39,0,69.29,69.29,0,0,1,.73-7c.33-2,.8-3.88,1.21-5.8a34.84,34.84,0,0,1,1.48-5.31c.59-1.56,1.23-3.12,1.8-4.8s1.1-3.25,1.77-4.82a1.2,1.2,0,0,1,1.64-.43,1.24,1.24,0,0,1,.43,1.63m12.51,42.83c0-2.88,0-5.76,0-8.64,0-3.49,0-7-.1-10.47,0-1.54-.13-3.09-.27-4.62s-.29-2.93-.56-4.38c-.32-1.7-.74-3.38-1.18-5-.3-1.16-.69-2.29-1.08-3.42-.74-2.13-1.55-4.24-2.24-6.38-.48-1.47-.85-3-1.24-4.49a46.89,46.89,0,0,1-1.2-7,33.72,33.72,0,0,1-.37-5c0-.92,0-1.83,0-2.75V22.59c0-.5,0-1,0-1.49-.66-.43,0-.84,0-1.25v-.1a6.4,6.4,0,0,1-.07-1.31c.1-.69-.48-1.33-.12-2,0,0,0,0,0-.05a3.66,3.66,0,0,1,0-.74c.24-1.08-.28-1.42-1-1.59a7.14,7.14,0,0,0-1.46-.21c-1,0-2,0-2.93,0a7,7,0,0,0-1.63.27c-.8.23-1,.61-.73,1.39,0,.06,0,.14,0,.18-.28.48.12,1-.06,1.5A4.12,4.12,0,0,0,99.94,19c0,.42-.24.91.21,1.29a.52.52,0,0,1,.07.49c-.34.32-.22.71-.22,1.07,0,3.12,0,6.24,0,9.36,0,1.83-.25,3.66-.45,5.48-.16,1.41-.37,2.81-.65,4.2s-.66,3.08-1.11,4.59c-.69,2.24-1.51,4.44-2.22,6.67-.62,2-1.28,4-1.74,6s-.75,4.06-1,6.1a40.53,40.53,0,0,0-.45,5.14c0,5,0,10,.07,15,0,3,.06,6,.08,9.07,0,1.21,0,2.42,0,3.63a1.49,1.49,0,0,0,1.36,1.43c.67.52,19.94.51,20.65,0a2,2,0,0,0,1.87-1.92V89.34h-.09"/><path class="cls-1" d="M103.77,46.51c-.64,1.49-1.25,3.43-1.82,5.11s-1.25,3.12-1.79,4.7a43,43,0,0,0-1.35,5.22c-.39,1.9-.86,3.78-1.15,5.7s-.44,3.89-.56,5.85a1.2,1.2,0,0,1-2.39,0,69.29,69.29,0,0,1,.73-7c.33-2,.8-3.88,1.21-5.8a34.84,34.84,0,0,1,1.48-5.31c.59-1.56,1.23-3.12,1.8-4.8s1.1-3.25,1.77-4.82a1.2,1.2,0,0,1,1.64-.43A1.24,1.24,0,0,1,103.77,46.51Zm12.51,42.83c0-2.88,0-5.76,0-8.64,0-3.49,0-7-.1-10.47,0-1.54-.13-3.09-.27-4.62s-.29-2.93-.56-4.38c-.32-1.7-.74-3.38-1.18-5-.3-1.16-.69-2.29-1.08-3.42-.74-2.13-1.55-4.24-2.24-6.38-.48-1.47-.85-3-1.24-4.49a46.89,46.89,0,0,1-1.2-7,33.72,33.72,0,0,1-.37-5c0-.92,0-1.83,0-2.75V22.59c0-.5,0-1,0-1.49-.66-.43,0-.84,0-1.25v-.1a6.4,6.4,0,0,1-.07-1.31c.1-.69-.48-1.33-.12-2,0,0,0,0,0-.05a3.66,3.66,0,0,1,0-.74c.24-1.08-.28-1.42-1-1.59a7.14,7.14,0,0,0-1.46-.21c-1,0-2,0-2.93,0a7,7,0,0,0-1.63.27c-.8.23-1,.61-.73,1.39,0,.06,0,.14,0,.18-.28.48.12,1-.06,1.5A4.12,4.12,0,0,0,99.94,19c0,.42-.24.91.21,1.29a.52.52,0,0,1,.07.49c-.34.32-.22.71-.22,1.07,0,3.12,0,6.24,0,9.36,0,1.83-.25,3.66-.45,5.48-.16,1.41-.37,2.81-.65,4.2s-.66,3.08-1.11,4.59c-.69,2.24-1.51,4.44-2.22,6.67-.62,2-1.28,4-1.74,6s-.75,4.06-1,6.1a40.53,40.53,0,0,0-.45,5.14c0,5,0,10,.07,15,0,3,.06,6,.08,9.07,0,1.21,0,2.42,0,3.63a1.49,1.49,0,0,0,1.36,1.43c.67.52,19.94.51,20.65,0a2,2,0,0,0,1.87-1.92V89.34Z"/></svg>