<svg id="Vrstva_1" data-name="Vrstva 1" xmlns="http://www.w3.org/2000/svg" viewBox="0 0 198.95 175.91"><defs><style>.cls-1{fill:#fff;}</style></defs><title>desktop_zobrazeni_02</title><path class="cls-1" d="M39.43,134.42a7.39,7.39,0,0,1-3-2.87,8.42,8.42,0,0,1-1.06-4.26v-6.88a8.27,8.27,0,0,1,1.06-4.22,7.32,7.32,0,0,1,3-2.84,10.26,10.26,0,0,1,8.88,0,7.26,7.26,0,0,1,3,2.84,8.27,8.27,0,0,1,1.06,4.22v6.88a8.45,8.45,0,0,1-1.06,4.27,7.23,7.23,0,0,1-3,2.88,9.33,9.33,0,0,1-4.45,1A9.17,9.17,0,0,1,39.43,134.42Zm7.29-4a4.11,4.11,0,0,0,1.09-3v-7.08a4.18,4.18,0,0,0-1.08-3,4.16,4.16,0,0,0-5.72,0,4.18,4.18,0,0,0-1.08,3v7.08a4.14,4.14,0,0,0,1.08,3,3.77,3.77,0,0,0,2.85,1.12A3.82,3.82,0,0,0,46.72,130.44Z"/><path class="cls-1" d="M55.93,135a.37.37,0,0,1-.11-.28V113a.33.33,0,0,1,.11-.27.34.34,0,0,1,.27-.12H60a.38.38,0,0,1,.28.12.37.37,0,0,1,.11.27v18.07a.14.14,0,0,0,.16.16H71a.41.41,0,0,1,.28.11.4.4,0,0,1,.11.27v3.12a.38.38,0,0,1-.39.39H56.2A.37.37,0,0,1,55.93,135Z"/><path class="cls-1" d="M74.32,135a.37.37,0,0,1-.11-.28V113a.33.33,0,0,1,.11-.27.34.34,0,0,1,.27-.12h3.76a.38.38,0,0,1,.28.12.37.37,0,0,1,.11.27v21.73a.38.38,0,0,1-.39.39H74.59A.37.37,0,0,1,74.32,135Z"/><path class="cls-1" d="M88.22,134.78,81.6,113l0-.13c0-.21.11-.32.35-.32h4a.42.42,0,0,1,.45.32L90.7,128.6c0,.07,0,.1.1.1s.07,0,.09-.1l4.21-15.69a.43.43,0,0,1,.45-.32h4a.36.36,0,0,1,.29.13.35.35,0,0,1,0,.32l-6.72,21.74a.4.4,0,0,1-.42.32h-4A.42.42,0,0,1,88.22,134.78Z"/><path class="cls-1" d="M105.22,134.42a7.36,7.36,0,0,1-3-2.87,8.42,8.42,0,0,1-1.06-4.26v-6.88a8.27,8.27,0,0,1,1.06-4.22,7.29,7.29,0,0,1,3-2.84,9.21,9.21,0,0,1,4.42-1,9.33,9.33,0,0,1,4.45,1,7.26,7.26,0,0,1,3,2.84,8.27,8.27,0,0,1,1.06,4.22v6.88a8.45,8.45,0,0,1-1.06,4.27,7.23,7.23,0,0,1-3,2.88,9.33,9.33,0,0,1-4.45,1A9.1,9.1,0,0,1,105.22,134.42Zm7.28-4a4.11,4.11,0,0,0,1.09-3v-7.08a4.18,4.18,0,0,0-1.08-3,4.16,4.16,0,0,0-5.72,0,4.18,4.18,0,0,0-1.08,3v7.08a4.14,4.14,0,0,0,1.08,3,3.77,3.77,0,0,0,2.85,1.12A3.82,3.82,0,0,0,112.5,130.44Z"/><path class="cls-1" d="M126.71,134.78,120.08,113l0-.13c0-.21.12-.32.36-.32h4a.43.43,0,0,1,.45.32l4.27,15.69c0,.07.06.1.1.1s.07,0,.1-.1l4.21-15.69a.42.42,0,0,1,.45-.32h4a.35.35,0,0,1,.29.13.3.3,0,0,1,0,.32l-6.72,21.74a.4.4,0,0,1-.41.32h-4.05A.4.4,0,0,1,126.71,134.78Z"/><path class="cls-1" d="M156.46,116.37a.33.33,0,0,1-.27.11H145.64a.15.15,0,0,0-.16.16v5a.14.14,0,0,0,.16.16h6.92a.38.38,0,0,1,.38.38v3.12a.41.41,0,0,1-.11.28.4.4,0,0,1-.27.11h-6.92a.14.14,0,0,0-.16.16v5.21a.14.14,0,0,0,.16.16h10.55a.37.37,0,0,1,.27.11.37.37,0,0,1,.12.27v3.12a.38.38,0,0,1-.12.28.37.37,0,0,1-.27.11H141.34a.38.38,0,0,1-.39-.39V113a.37.37,0,0,1,.11-.27.38.38,0,0,1,.28-.12h14.85a.41.41,0,0,1,.39.39v3.12A.36.36,0,0,1,156.46,116.37Zm-9.85-5.9a.34.34,0,0,1,0-.32l1.71-3.25a.47.47,0,0,1,.48-.29h3.24a.29.29,0,0,1,.26.49l-2.28,3.24a.52.52,0,0,1-.45.26h-2.7C146.75,110.6,146.65,110.56,146.61,110.47Z"/><path class="cls-1" d="M54,164.56a7.39,7.39,0,0,1-3-2.87A8.42,8.42,0,0,1,50,157.43v-6.89A8.23,8.23,0,0,1,51,146.33a7.32,7.32,0,0,1,3-2.84,10.17,10.17,0,0,1,8.88,0,7.32,7.32,0,0,1,3,2.84,8.23,8.23,0,0,1,1.06,4.21v6.89a8.45,8.45,0,0,1-1.06,4.27,7.29,7.29,0,0,1-3,2.88,9.46,9.46,0,0,1-4.46,1A9.16,9.16,0,0,1,54,164.56Zm7.29-4a4.15,4.15,0,0,0,1.09-3v-7.08a4.18,4.18,0,0,0-1.08-3,4.16,4.16,0,0,0-5.72,0,4.18,4.18,0,0,0-1.08,3v7.08a4.14,4.14,0,0,0,1.08,3,3.76,3.76,0,0,0,2.84,1.12A3.83,3.83,0,0,0,61.3,160.58Z"/><path class="cls-1" d="M70.51,165.13a.38.38,0,0,1-.12-.28V143.12a.41.41,0,0,1,.39-.39h3.76a.38.38,0,0,1,.28.12.37.37,0,0,1,.11.27v18.07a.14.14,0,0,0,.16.16H85.6a.41.41,0,0,1,.28.11.39.39,0,0,1,.11.27v3.12a.38.38,0,0,1-.39.39H70.78A.37.37,0,0,1,70.51,165.13Z"/><path class="cls-1" d="M104.3,146.51a.37.37,0,0,1-.28.11H93.48a.14.14,0,0,0-.16.16v5a.14.14,0,0,0,.16.16h6.91a.33.33,0,0,1,.27.11.37.37,0,0,1,.12.27v3.12a.41.41,0,0,1-.39.39H93.48a.14.14,0,0,0-.16.16v5.21a.14.14,0,0,0,.16.16H104a.41.41,0,0,1,.28.11.39.39,0,0,1,.11.27v3.12a.38.38,0,0,1-.39.39H89.17a.37.37,0,0,1-.27-.11.38.38,0,0,1-.12-.28V143.12a.41.41,0,0,1,.39-.39H104a.38.38,0,0,1,.28.12.37.37,0,0,1,.11.27v3.12A.39.39,0,0,1,104.3,146.51Z"/><path class="cls-1" d="M110,164.58a6.73,6.73,0,0,1-2.81-2.57,7.29,7.29,0,0,1-1-3.85v-2a.37.37,0,0,1,.11-.27.38.38,0,0,1,.28-.12h3.76a.34.34,0,0,1,.27.12.33.33,0,0,1,.11.27v2a3.39,3.39,0,0,0,1,2.5,3.51,3.51,0,0,0,2.59,1,3.66,3.66,0,0,0,2.59-1,3.28,3.28,0,0,0,1-2.5v-15a.37.37,0,0,1,.11-.27.38.38,0,0,1,.28-.12H122a.37.37,0,0,1,.27.12.33.33,0,0,1,.11.27v15a7.13,7.13,0,0,1-1,3.85,6.93,6.93,0,0,1-2.86,2.57,10.21,10.21,0,0,1-8.47,0Z"/><path class="cls-1" d="M141.82,146.51a.36.36,0,0,1-.27.11H131a.14.14,0,0,0-.16.16v5a.14.14,0,0,0,.16.16h6.91a.33.33,0,0,1,.27.11.37.37,0,0,1,.12.27v3.12a.41.41,0,0,1-.39.39H131a.14.14,0,0,0-.16.16v5.21a.14.14,0,0,0,.16.16h10.55a.4.4,0,0,1,.27.11.39.39,0,0,1,.11.27v3.12a.41.41,0,0,1-.11.28.4.4,0,0,1-.27.11H126.69a.38.38,0,0,1-.38-.39V143.12a.33.33,0,0,1,.11-.27.34.34,0,0,1,.27-.12h14.86a.37.37,0,0,1,.27.12.37.37,0,0,1,.11.27v3.12A.39.39,0,0,1,141.82,146.51Z"/><path class="cls-1" d="M105.74,48.77a1.15,1.15,0,0,1,.61,2.21,3.57,3.57,0,0,0-.46.16.92.92,0,0,1-.29.16l-.12,0a6.71,6.71,0,0,0-2.61,3.18,11.93,11.93,0,0,0-.67,5.89c.14,1.46-2.15,1.45-2.29,0-.41-4.33,1-10.32,5.83-11.64M85.56,58.26a6.07,6.07,0,0,0-2.8-.26,7.42,7.42,0,0,0-2.16.94,9,9,0,0,0-3.29,3.24,1.15,1.15,0,0,1-2-1.16,11.38,11.38,0,0,1,4.37-4.2,8.93,8.93,0,0,1,2.89-1.11,8.53,8.53,0,0,1,3.58.35,1.14,1.14,0,0,1-.61,2.2M112,35.13c2.59-1.12,5.24-2.11,7.84-3.19a12.58,12.58,0,0,0,1.53-.91l-.24-.6a9.07,9.07,0,0,0-1.82.24c-1.92.67-3.84,1.36-5.72,2.13a3.92,3.92,0,0,1-5.37-1.88,8.33,8.33,0,0,0-4.83-4.4c-5.31-1.75-10.66-1-16.15,0a97.59,97.59,0,0,0,10.9,7.77,7.59,7.59,0,0,0,6.58.77.81.81,0,0,0,.05-1.51c-2-.86-4-1.55-6-2.29h0a.88.88,0,0,1,0-1.63,1.4,1.4,0,0,1,.29-.09,2.84,2.84,0,0,1,1.54.24c3.08,1.38,6.14,2.81,9.2,4.23a25.77,25.77,0,0,1-11.66,3.13,5.45,5.45,0,0,1-2.83-.33c-5.09-2.72-10-2.35-14.43,1.11a129.65,129.65,0,0,0-9.41,8.92,7.58,7.58,0,0,0-.88,1.37c5.57.41,10.88.57,16.13-.68,3.57-.84,6.47-2.58,8.26-6a.63.63,0,0,0-.57-.93,1.86,1.86,0,0,0-.34.05c-2.79.9-5.55,1.85-8.35,2.73a2.09,2.09,0,0,1-.36.07.83.83,0,0,1-.82-1.21.8.8,0,0,1,.2-.24,7.11,7.11,0,0,1,2.72-1.53c5.73-1.12,11.49-2.08,17.23-3.1-.4.67-1.12,1-1.67,1.5-4.44,4-9,7.9-13.24,12.06-1.53,1.48-2.11,2-5.85,2-8.51-.15-16,10.47-13,18.56a7.47,7.47,0,0,0,8.22,5c10.06-1.21,15.35-13.29,9.63-22.16a79,79,0,0,1,16.86-15.42,49.42,49.42,0,0,0-1.21,5.72,2.91,2.91,0,0,1-1.92,2.79,7.24,7.24,0,0,0-2.54,2.11c-4.65,5.82-3,16.43,3.07,20.67a7.88,7.88,0,0,0,10.81-1.41c5.62-6.9,2.24-21.71-8.2-22.5.38-4.85,1.55-9.08,6.4-11.19"/><path class="cls-1" d="M105.74,48.77a1.15,1.15,0,0,1,.61,2.21,3.57,3.57,0,0,0-.46.16.92.92,0,0,1-.29.16l-.12,0a6.71,6.71,0,0,0-2.61,3.18,11.93,11.93,0,0,0-.67,5.89c.14,1.46-2.15,1.45-2.29,0C99.5,56.08,100.89,50.09,105.74,48.77ZM85.56,58.26a6.07,6.07,0,0,0-2.8-.26,7.42,7.42,0,0,0-2.16.94,9,9,0,0,0-3.29,3.24,1.15,1.15,0,0,1-2-1.16,11.38,11.38,0,0,1,4.37-4.2,8.93,8.93,0,0,1,2.89-1.11,8.53,8.53,0,0,1,3.58.35A1.14,1.14,0,0,1,85.56,58.26ZM112,35.13c2.59-1.12,5.24-2.11,7.84-3.19a12.58,12.58,0,0,0,1.53-.91l-.24-.6a9.07,9.07,0,0,0-1.82.24c-1.92.67-3.84,1.36-5.72,2.13a3.92,3.92,0,0,1-5.37-1.88,8.33,8.33,0,0,0-4.83-4.4c-5.31-1.75-10.66-1-16.15,0a97.59,97.59,0,0,0,10.9,7.77,7.59,7.59,0,0,0,6.58.77.81.81,0,0,0,.05-1.51c-2-.86-4-1.55-6-2.29h0a.88.88,0,0,1,0-1.63,1.4,1.4,0,0,1,.29-.09,2.84,2.84,0,0,1,1.54.24c3.08,1.38,6.14,2.81,9.2,4.23a25.77,25.77,0,0,1-11.66,3.13,5.45,5.45,0,0,1-2.83-.33c-5.09-2.72-10-2.35-14.43,1.11a129.65,129.65,0,0,0-9.41,8.92,7.58,7.58,0,0,0-.88,1.37c5.57.41,10.88.57,16.13-.68,3.57-.84,6.47-2.58,8.26-6a.63.63,0,0,0-.57-.93,1.86,1.86,0,0,0-.34.05c-2.79.9-5.55,1.85-8.35,2.73a2.09,2.09,0,0,1-.36.07.83.83,0,0,1-.82-1.21.8.8,0,0,1,.2-.24,7.11,7.11,0,0,1,2.72-1.53c5.73-1.12,11.49-2.08,17.23-3.1-.4.67-1.12,1-1.67,1.5-4.44,4-9,7.9-13.24,12.06-1.53,1.48-2.11,2-5.85,2-8.51-.15-16,10.47-13,18.56a7.47,7.47,0,0,0,8.22,5c10.06-1.21,15.35-13.29,9.63-22.16a79,79,0,0,1,16.86-15.42,49.42,49.42,0,0,0-1.21,5.72,2.91,2.91,0,0,1-1.92,2.79,7.24,7.24,0,0,0-2.54,2.11c-4.65,5.82-3,16.43,3.07,20.67a7.88,7.88,0,0,0,10.81-1.41c5.62-6.9,2.24-21.71-8.2-22.5C106,41.47,107.14,37.24,112,35.13Z"/></svg>