<svg id="Vrstva_1" data-name="Vrstva 1" xmlns="http://www.w3.org/2000/svg" viewBox="0 0 122.96 135.87"><defs><style>.cls-1{fill:#fff;}</style></defs><title>ikony</title><path class="cls-1" d="M4.46,135a7.42,7.42,0,0,1-3.3-2.61A6.86,6.86,0,0,1,0,128.4v-.78a.45.45,0,0,1,.12-.31.45.45,0,0,1,.31-.12H4.5a.41.41,0,0,1,.3.12.42.42,0,0,1,.13.31v.53a2.91,2.91,0,0,0,1.32,2.41,5.82,5.82,0,0,0,3.57,1,4.21,4.21,0,0,0,2.83-.81,2.5,2.5,0,0,0,.93-2,2,2,0,0,0-.58-1.45,5,5,0,0,0-1.55-1c-.66-.3-1.7-.71-3.13-1.24a28.9,28.9,0,0,1-4.05-1.68A8.09,8.09,0,0,1,1.48,121a5.84,5.84,0,0,1-1.12-3.66,6.5,6.5,0,0,1,1.1-3.75,7.07,7.07,0,0,1,3.08-2.46,11.09,11.09,0,0,1,4.53-.86,11.62,11.62,0,0,1,4.84,1,8,8,0,0,1,3.33,2.7,6.9,6.9,0,0,1,1.19,4v.54a.41.41,0,0,1-.12.3.44.44,0,0,1-.3.12H13.9a.45.45,0,0,1-.31-.12.41.41,0,0,1-.12-.3v-.29a3.24,3.24,0,0,0-1.23-2.55,5,5,0,0,0-3.38-1.06,4.28,4.28,0,0,0-2.63.72,2.31,2.31,0,0,0-.94,2,2.12,2.12,0,0,0,.55,1.5,4.82,4.82,0,0,0,1.64,1.09c.73.32,1.86.76,3.38,1.31a38.52,38.52,0,0,1,4,1.64A7.88,7.88,0,0,1,17.45,125a5.64,5.64,0,0,1,1.16,3.67,6.39,6.39,0,0,1-2.46,5.3,10.49,10.49,0,0,1-6.68,2A12.87,12.87,0,0,1,4.46,135Zm-.6-30.74c0-.19.12-.29.35-.29H7.43a.57.57,0,0,1,.5.29l1.43,2.17q.11.23.21,0L11,104.22a.57.57,0,0,1,.5-.29h3.22c.19,0,.31,0,.36.16a.41.41,0,0,1-.08.38l-2.71,3.78a.58.58,0,0,1-.5.25H7a.55.55,0,0,1-.5-.28l-2.61-3.75A.45.45,0,0,1,3.86,104.22Z"/><path class="cls-1" d="M36.62,111.5a6.89,6.89,0,0,1,2.77,2.74,8.26,8.26,0,0,1,1,4.05,7.64,7.64,0,0,1-1,4,6.94,6.94,0,0,1-2.86,2.66,9.12,9.12,0,0,1-4.23,1H27.19c-.12,0-.18,0-.18.17v9.11a.46.46,0,0,1-.13.31.41.41,0,0,1-.3.12H22.4a.41.41,0,0,1-.3-.12.42.42,0,0,1-.13-.31V111a.42.42,0,0,1,.13-.31.41.41,0,0,1,.3-.12H32.47A8.65,8.65,0,0,1,36.62,111.5Zm-2.25,9.38a3.28,3.28,0,0,0,1-2.48,3.4,3.4,0,0,0-1-2.54,3.67,3.67,0,0,0-2.65-1H27.19a.16.16,0,0,0-.18.18v6.57a.16.16,0,0,0,.18.18h4.53A3.71,3.71,0,0,0,34.37,120.88Z"/><path class="cls-1" d="M60.71,114.77a.38.38,0,0,1-.3.13H48.69a.16.16,0,0,0-.18.18v5.53a.16.16,0,0,0,.18.18h7.68a.42.42,0,0,1,.31.13.41.41,0,0,1,.12.3v3.47a.41.41,0,0,1-.12.3.45.45,0,0,1-.31.12H48.69a.16.16,0,0,0-.18.18v5.79a.16.16,0,0,0,.18.18H60.41a.41.41,0,0,1,.3.12.42.42,0,0,1,.13.31v3.46a.42.42,0,0,1-.13.31.41.41,0,0,1-.3.12H43.91a.41.41,0,0,1-.43-.43V111a.41.41,0,0,1,.12-.3.46.46,0,0,1,.31-.13h16.5a.42.42,0,0,1,.3.13.38.38,0,0,1,.13.3v3.47A.38.38,0,0,1,60.71,114.77Z"/><path class="cls-1" d="M67.07,134.85A7.52,7.52,0,0,1,64,132a8.09,8.09,0,0,1-1.11-4.27v-2.25a.41.41,0,0,1,.12-.3.46.46,0,0,1,.31-.13h4.18a.44.44,0,0,1,.43.43v2.25a3.74,3.74,0,0,0,1.05,2.77,3.9,3.9,0,0,0,2.88,1.06,4.05,4.05,0,0,0,2.87-1.06,3.61,3.61,0,0,0,1.13-2.77V111a.41.41,0,0,1,.12-.3.46.46,0,0,1,.31-.13h4.14a.42.42,0,0,1,.3.13.38.38,0,0,1,.13.3v16.72A7.92,7.92,0,0,1,79.67,132a7.8,7.8,0,0,1-3.18,2.86,11.38,11.38,0,0,1-9.42,0Z"/><path class="cls-1" d="M85.29,135.46a.45.45,0,0,1-.12-.31V111a.41.41,0,0,1,.12-.3.46.46,0,0,1,.31-.13h4.18a.44.44,0,0,1,.43.43v20.08c0,.12.05.18.17.18h11.69a.41.41,0,0,1,.3.12.45.45,0,0,1,.12.31v3.46a.45.45,0,0,1-.12.31.41.41,0,0,1-.3.12H85.6A.45.45,0,0,1,85.29,135.46Z"/><path class="cls-1" d="M122.84,114.77a.38.38,0,0,1-.3.13H110.82a.16.16,0,0,0-.18.18v5.53a.16.16,0,0,0,.18.18h7.68a.44.44,0,0,1,.43.43v3.47a.38.38,0,0,1-.13.3.41.41,0,0,1-.3.12h-7.68a.16.16,0,0,0-.18.18v5.79a.16.16,0,0,0,.18.18h11.72a.41.41,0,0,1,.3.12.45.45,0,0,1,.12.31v3.46a.45.45,0,0,1-.12.31.41.41,0,0,1-.3.12H106a.41.41,0,0,1-.3-.12.42.42,0,0,1-.13-.31V111a.38.38,0,0,1,.13-.3.42.42,0,0,1,.3-.13h16.51a.42.42,0,0,1,.3.13.41.41,0,0,1,.12.3v3.47A.41.41,0,0,1,122.84,114.77Z"/><path class="cls-1" d="M46.58,13l-1.53.88c-.4-.4-.77-.79-1.17-1.16a10.08,10.08,0,0,0-6.35-2.6,11.45,11.45,0,0,0-7.73,2.15,7.73,7.73,0,0,0-3.39,5.59,6.86,6.86,0,0,0,2,5.68,14.45,14.45,0,0,0,5.27,3.29c2,.77,4,1.48,5.92,2.27a20.8,20.8,0,0,1,5.53,3.17A10.17,10.17,0,0,1,48.84,39a12.92,12.92,0,0,1-1.08,7.38,12.5,12.5,0,0,1-8.93,6.88,14.21,14.21,0,0,1-8.92-.63,12.93,12.93,0,0,1-7.12-7.25c-.19-.46-.33-.95-.5-1.42a.65.65,0,0,1,0-.14l2.12-.43.15.52a10.84,10.84,0,0,0,8.61,7.74,10.83,10.83,0,0,0,10.29-2.84,10.67,10.67,0,0,0,3.21-6.58,9.54,9.54,0,0,0-.73-5.19A10.48,10.48,0,0,0,42,32.73a27.33,27.33,0,0,0-4.87-2.43c-2.11-.87-4.21-1.73-6.28-2.67a13.78,13.78,0,0,1-4.47-3.13,8.1,8.1,0,0,1-2.21-6.62C24.63,13.75,27.09,11,31,9.47a14.4,14.4,0,0,1,10.1-.38,11.65,11.65,0,0,1,5.44,3.82l.07.13"/><path class="cls-1" d="M46.58,13l-1.53.88c-.4-.4-.77-.79-1.17-1.16a10.08,10.08,0,0,0-6.35-2.6,11.45,11.45,0,0,0-7.73,2.15,7.73,7.73,0,0,0-3.39,5.59,6.86,6.86,0,0,0,2,5.68,14.45,14.45,0,0,0,5.27,3.29c2,.77,4,1.48,5.92,2.27a20.8,20.8,0,0,1,5.53,3.17A10.17,10.17,0,0,1,48.84,39a12.92,12.92,0,0,1-1.08,7.38,12.5,12.5,0,0,1-8.93,6.88,14.21,14.21,0,0,1-8.92-.63,12.93,12.93,0,0,1-7.12-7.25c-.19-.46-.33-.95-.5-1.42a.65.65,0,0,1,0-.14l2.12-.43.15.52a10.84,10.84,0,0,0,8.61,7.74,10.83,10.83,0,0,0,10.29-2.84,10.67,10.67,0,0,0,3.21-6.58,9.54,9.54,0,0,0-.73-5.19A10.48,10.48,0,0,0,42,32.73a27.33,27.33,0,0,0-4.87-2.43c-2.11-.87-4.21-1.73-6.28-2.67a13.78,13.78,0,0,1-4.47-3.13,8.1,8.1,0,0,1-2.21-6.62C24.63,13.75,27.09,11,31,9.47a14.4,14.4,0,0,1,10.1-.38,11.65,11.65,0,0,1,5.44,3.82Z"/><path class="cls-1" d="M60.31,47.49a3.67,3.67,0,0,0-.38-1.72A3.12,3.12,0,0,0,57.07,44a3,3,0,0,0-2.79,1.4,3.84,3.84,0,0,0-.1,4.24,3,3,0,0,0,2.88,1.55,3.11,3.11,0,0,0,2.78-1.69,4.16,4.16,0,0,0,.47-2m-6.57,3.57v.36q0,16.13,0,32.26a20,20,0,0,1-.32,4.09c-.28,1.36-.47,2.73-.75,4.1a2,2,0,0,1-.06-.23q-.45-2.82-.89-5.64a2.93,2.93,0,0,1,0-.41q0-21.34,0-42.67v-.37h2v1.67c.19-.23.31-.39.45-.54a4.61,4.61,0,0,1,6.93.26,5.84,5.84,0,0,1-.32,7.61,4.64,4.64,0,0,1-6.8-.29L53.8,51l-.06,0"/><path class="cls-1" d="M60.31,47.49a3.67,3.67,0,0,0-.38-1.72A3.12,3.12,0,0,0,57.07,44a3,3,0,0,0-2.79,1.4,3.84,3.84,0,0,0-.1,4.24,3,3,0,0,0,2.88,1.55,3.11,3.11,0,0,0,2.78-1.69A4.16,4.16,0,0,0,60.31,47.49Zm-6.57,3.57v.36q0,16.13,0,32.26a20,20,0,0,1-.32,4.09c-.28,1.36-.47,2.73-.75,4.1a2,2,0,0,1-.06-.23q-.45-2.82-.89-5.64a2.93,2.93,0,0,1,0-.41q0-21.34,0-42.67v-.37h2v1.67c.19-.23.31-.39.45-.54a4.61,4.61,0,0,1,6.93.26,5.84,5.84,0,0,1-.32,7.61,4.64,4.64,0,0,1-6.8-.29L53.8,51Z"/><path class="cls-1" d="M84.73,52.55h-2v-.33q0-21.54,0-43.1a15.29,15.29,0,0,1,.36-2.4c.2-1.2.41-2.39.62-3.59,0-.08,0-.15.08-.31.21,1.29.4,2.49.59,3.69.11.71.23,1.41.33,2.11a5.07,5.07,0,0,1,0,.68V52.55Z"/><path class="cls-1" d="M84.73,52.55h-2v-.33q0-21.54,0-43.1a15.29,15.29,0,0,1,.36-2.4c.2-1.2.41-2.39.62-3.59,0-.08,0-.15.08-.31.21,1.29.4,2.49.59,3.69.11.71.23,1.41.33,2.11a5.07,5.07,0,0,1,0,.68V52.55Z"/><path class="cls-1" d="M77.63,42.55h2.05v.36q0,21.36,0,42.72a15.45,15.45,0,0,1-.33,2.22c-.23,1.35-.46,2.7-.74,4.06-.08-.5-.17-1-.25-1.51l-.66-4.18a4.32,4.32,0,0,1,0-.62q0-21.34,0-42.69Z"/><path class="cls-1" d="M77.63,42.55h2.05v.36q0,21.36,0,42.72a15.45,15.45,0,0,1-.33,2.22c-.23,1.35-.46,2.7-.74,4.06-.08-.5-.17-1-.25-1.51l-.66-4.18a4.32,4.32,0,0,1,0-.62q0-21.34,0-42.69Z"/><path class="cls-1" d="M95,46.38A2.72,2.72,0,0,0,92,43.92a2.9,2.9,0,0,0-2.82,2.46Zm2.12,1.49h-8A3.16,3.16,0,0,0,91,50.93c1.54.65,2.94.11,4.33-1.71l1.76.94c-.3.38-.57.77-.89,1.1a5.65,5.65,0,0,1-7.41.46,4.85,4.85,0,0,1-1.72-3.43,6.27,6.27,0,0,1,.63-3.63,4.48,4.48,0,0,1,3.62-2.37,5.46,5.46,0,0,1,3.19.46,4.43,4.43,0,0,1,2.38,3.32c.12.58.13,1.17.2,1.8"/><path class="cls-1" d="M95,46.38A2.72,2.72,0,0,0,92,43.92a2.9,2.9,0,0,0-2.82,2.46Zm2.12,1.49h-8A3.16,3.16,0,0,0,91,50.93c1.54.65,2.94.11,4.33-1.71l1.76.94c-.3.38-.57.77-.89,1.1a5.65,5.65,0,0,1-7.41.46,4.85,4.85,0,0,1-1.72-3.43,6.27,6.27,0,0,1,.63-3.63,4.48,4.48,0,0,1,3.62-2.37,5.46,5.46,0,0,1,3.19.46,4.43,4.43,0,0,1,2.38,3.32C97,46.65,97,47.24,97.07,47.87Z"/><path class="cls-1" d="M72.82,46.39a2.76,2.76,0,0,0-3-2.46A2.94,2.94,0,0,0,67,46.39Zm2.1,1.48h-8a3.13,3.13,0,0,0,2,3.07c1.93.65,3.27-.15,4.25-1.73l1.73.93a4.9,4.9,0,0,1-2.27,2.14,5.52,5.52,0,0,1-5.81-.42A4.6,4.6,0,0,1,65,49a6.31,6.31,0,0,1,.52-4.33,4.43,4.43,0,0,1,3.61-2.38,5.37,5.37,0,0,1,3.3.52,4.47,4.47,0,0,1,2.31,3.4c.1.53.12,1.07.18,1.66"/><path class="cls-1" d="M72.82,46.39a2.76,2.76,0,0,0-3-2.46A2.94,2.94,0,0,0,67,46.39Zm2.1,1.48h-8a3.13,3.13,0,0,0,2,3.07c1.93.65,3.27-.15,4.25-1.73l1.73.93a4.9,4.9,0,0,1-2.27,2.14,5.52,5.52,0,0,1-5.81-.42A4.6,4.6,0,0,1,65,49a6.31,6.31,0,0,1,.52-4.33,4.43,4.43,0,0,1,3.61-2.38,5.37,5.37,0,0,1,3.3.52,4.47,4.47,0,0,1,2.31,3.4C74.84,46.74,74.86,47.28,74.92,47.87Z"/><path class="cls-1" d="M35.21,0h3.54C38.16,2,37.59,4,37,5.93h-.08C36.37,4,35.8,2,35.21,0"/><path class="cls-1" d="M35.21,0h3.54C38.16,2,37.59,4,37,5.93h-.08C36.37,4,35.8,2,35.21,0Z"/><path class="cls-1" d="M78.67,39.84a1.15,1.15,0,0,1-1.18-1.09,1.17,1.17,0,0,1,2.33,0,1.14,1.14,0,0,1-1.15,1.11"/><path class="cls-1" d="M78.67,39.84a1.15,1.15,0,0,1-1.18-1.09,1.17,1.17,0,0,1,2.33,0A1.14,1.14,0,0,1,78.67,39.84Z"/></svg>