<svg id="Vrstva_1" data-name="Vrstva 1" xmlns="http://www.w3.org/2000/svg" viewBox="0 0 198.95 175.91"><defs><style>.cls-1{fill:#fff;}</style></defs><title>desktop_zobrazeni_02</title><path class="cls-1" d="M60.25,126.43a.38.38,0,0,1-.12-.28V104.42a.41.41,0,0,1,.39-.39h8a10,10,0,0,1,4.22.85,6.66,6.66,0,0,1,2.82,2.4,6.47,6.47,0,0,1,1,3.57v8.87a6.47,6.47,0,0,1-1,3.57,6.66,6.66,0,0,1-2.82,2.4,9.81,9.81,0,0,1-4.22.85h-8A.37.37,0,0,1,60.25,126.43Zm4.58-3.78h3.89a3.08,3.08,0,0,0,2.39-1,3.89,3.89,0,0,0,1-2.67v-7.39a3.75,3.75,0,0,0-.92-2.67,3.19,3.19,0,0,0-2.45-1H64.83a.14.14,0,0,0-.16.16v14.41A.14.14,0,0,0,64.83,122.65Z"/><path class="cls-1" d="M91.9,126.25l-4-8.91a.22.22,0,0,0-.19-.13h-3a.15.15,0,0,0-.17.17v8.77a.38.38,0,0,1-.38.39H80.39a.37.37,0,0,1-.27-.11.38.38,0,0,1-.12-.28V104.42a.41.41,0,0,1,.39-.39h9.19a7.53,7.53,0,0,1,3.62.84,5.88,5.88,0,0,1,2.41,2.38,7.25,7.25,0,0,1,.85,3.57,6.35,6.35,0,0,1-1.09,3.74,5.79,5.79,0,0,1-3.05,2.2.16.16,0,0,0-.1.23l4.37,9.1a.56.56,0,0,1,.07.19c0,.17-.12.26-.36.26h-4A.45.45,0,0,1,91.9,126.25Zm-7.37-18.17v5.5c0,.11.06.16.17.16h4.21a3.1,3.1,0,0,0,2.2-.8,2.74,2.74,0,0,0,.85-2.09,2.8,2.8,0,0,0-.85-2.11,3.07,3.07,0,0,0-2.2-.82H84.7A.15.15,0,0,0,84.53,108.08Z"/><path class="cls-1" d="M99.86,126.43a.38.38,0,0,1-.12-.28V104.42a.41.41,0,0,1,.39-.39h3.76a.41.41,0,0,1,.39.39v21.73a.38.38,0,0,1-.12.28.37.37,0,0,1-.27.11h-3.76A.37.37,0,0,1,99.86,126.43Z"/><path class="cls-1" d="M121.24,104.15a.34.34,0,0,1,.27-.12h3.76a.41.41,0,0,1,.39.39v21.73a.38.38,0,0,1-.12.28.37.37,0,0,1-.27.11h-3.63a.45.45,0,0,1-.45-.26l-8.33-13.76c0-.06-.09-.09-.13-.08s-.06.06-.06.15l.06,13.56a.41.41,0,0,1-.11.28.4.4,0,0,1-.27.11h-3.77a.4.4,0,0,1-.27-.11.41.41,0,0,1-.11-.28V104.42a.37.37,0,0,1,.11-.27.37.37,0,0,1,.27-.12h3.64a.47.47,0,0,1,.45.26L121,118c0,.06.09.09.13.08s.07-.06.07-.15l0-13.5A.34.34,0,0,1,121.24,104.15Z"/><path class="cls-1" d="M129.69,126.43a.41.41,0,0,1-.11-.28V104.42a.37.37,0,0,1,.11-.27A.37.37,0,0,1,130,104h3.77a.37.37,0,0,1,.27.12.37.37,0,0,1,.11.27v9c0,.07,0,.1.07.11s.08,0,.12,0l7.43-9.23a.62.62,0,0,1,.48-.23h4.25c.17,0,.28,0,.32.15a.35.35,0,0,1-.07.34l-7.17,9.16a.19.19,0,0,0,0,.22l7.59,12.19a1.53,1.53,0,0,1,.06.22c0,.15-.1.23-.32.23H142.6a.46.46,0,0,1-.45-.26L136.43,117a.11.11,0,0,0-.1-.06.19.19,0,0,0-.13.06l-2,2.54a.43.43,0,0,0-.07.2v6.39a.41.41,0,0,1-.11.28.4.4,0,0,1-.27.11H130A.4.4,0,0,1,129.69,126.43Z"/><path class="cls-1" d="M78.38,152.72c0,.05.06.07.13.07h8.71a.37.37,0,0,1,.27.11.37.37,0,0,1,.12.27v3.12a.38.38,0,0,1-.12.28.37.37,0,0,1-.27.11H72.75a.38.38,0,0,1-.38-.39v-3a.65.65,0,0,1,.19-.48q1.57-1.54,3.21-3.36l2.06-2.26c.6-.71,1.21-1.39,1.83-2q2.93-3.24,2.93-4.82a2.39,2.39,0,0,0-.8-1.85,3,3,0,0,0-2.09-.72,3,3,0,0,0-2.09.72,2.44,2.44,0,0,0-.81,1.91v.81a.38.38,0,0,1-.38.38h-3.8a.39.39,0,0,1-.27-.11.36.36,0,0,1-.11-.27v-1.52a5.54,5.54,0,0,1,1.09-3.07,6.31,6.31,0,0,1,2.65-2,9.42,9.42,0,0,1,3.72-.7,8.7,8.7,0,0,1,4,.85,6.42,6.42,0,0,1,2.6,2.3,5.87,5.87,0,0,1,.92,3.21,6.45,6.45,0,0,1-.68,2.77,15.22,15.22,0,0,1-2,3c-.67.84-1.39,1.66-2.16,2.48s-1.92,2-3.44,3.53l-.48.48S78.36,152.68,78.38,152.72Z"/><path class="cls-1" d="M100.85,155.94a7.3,7.3,0,0,1-2.94-2.78,8,8,0,0,1-1-4.13v-7.21a8.06,8.06,0,0,1,1-4.14,7.1,7.1,0,0,1,2.94-2.78,9.32,9.32,0,0,1,4.37-1,9.42,9.42,0,0,1,4.33,1,7.29,7.29,0,0,1,2.92,2.62,6.72,6.72,0,0,1,1,3.68v.23a.4.4,0,0,1-.11.27.37.37,0,0,1-.28.11h-3.76a.33.33,0,0,1-.27-.11.36.36,0,0,1-.11-.27v-.1a3.36,3.36,0,0,0-1-2.49,4.18,4.18,0,0,0-5.52.06,3.91,3.91,0,0,0-1,2.82v7.45a3.73,3.73,0,0,0,1.12,2.82,4,4,0,0,0,2.86,1.08,3.86,3.86,0,0,0,2.67-.89,3.1,3.1,0,0,0,1-2.46v-1.45a.14.14,0,0,0-.16-.16h-3.6a.38.38,0,0,1-.39-.38v-3a.37.37,0,0,1,.11-.27.38.38,0,0,1,.28-.12h7.84a.38.38,0,0,1,.28.12.37.37,0,0,1,.11.27V149a8.39,8.39,0,0,1-1,4.25,6.9,6.9,0,0,1-2.91,2.75,9.59,9.59,0,0,1-4.36.95A9.32,9.32,0,0,1,100.85,155.94Z"/><path class="cls-1" d="M120.58,156a7.36,7.36,0,0,1-3-2.87,8.52,8.52,0,0,1-1.06-4.26V142a8.37,8.37,0,0,1,1.06-4.22,7.29,7.29,0,0,1,3-2.84,9.21,9.21,0,0,1,4.42-1,9.33,9.33,0,0,1,4.45,1,7.26,7.26,0,0,1,3,2.84,8.27,8.27,0,0,1,1.07,4.22v6.88a8.46,8.46,0,0,1-1.07,4.27,7.29,7.29,0,0,1-3,2.88,9.45,9.45,0,0,1-4.45,1A9.1,9.1,0,0,1,120.58,156Zm7.28-4a4.11,4.11,0,0,0,1.09-3V142a4.18,4.18,0,0,0-1.08-3,4.16,4.16,0,0,0-5.72,0,4.18,4.18,0,0,0-1.08,3V149a4.14,4.14,0,0,0,1.08,3,4.2,4.2,0,0,0,5.71,0Z"/><path class="cls-1" d="M88.4,24.08l-.55,4,.41,40.5a.83.83,0,0,1-1.17.77,12.41,12.41,0,0,1-2.22-1.29,1.65,1.65,0,0,1-.68-1.31c-.08-5.58-.51-38.66,0-39.48.32-.51,1.77-2.3,2.94-3.73a.71.71,0,0,1,1.26.55m31.75,3.29c-.28-1.56-2.73-4.54-3.34-5.72a4.06,4.06,0,0,1-.1-3.41c.38-.57.76-.81.47-1S113.84,15.79,101,16C88.08,15.79,85,17.05,84.73,17.24s.1.43.48,1a4.1,4.1,0,0,1-.1,3.41c-.62,1.18-3.06,4.16-3.34,5.72s0,40.95,0,40.95,0,2.16,5.63,4.15L89.85,74a24.09,24.09,0,0,0,10.69,2.3h.83a24.17,24.17,0,0,0,10.7-2.3l2.45-1.54c5.6-2,5.63-4.15,5.63-4.15s.28-39.39,0-40.95"/><path class="cls-1" d="M88.4,24.08l-.55,4,.41,40.5a.83.83,0,0,1-1.17.77,12.41,12.41,0,0,1-2.22-1.29,1.65,1.65,0,0,1-.68-1.31c-.08-5.58-.51-38.66,0-39.48.32-.51,1.77-2.3,2.94-3.73A.71.71,0,0,1,88.4,24.08Zm31.75,3.29c-.28-1.56-2.73-4.54-3.34-5.72a4.06,4.06,0,0,1-.1-3.41c.38-.57.76-.81.47-1S113.84,15.79,101,16C88.08,15.79,85,17.05,84.73,17.24s.1.43.48,1a4.1,4.1,0,0,1-.1,3.41c-.62,1.18-3.06,4.16-3.34,5.72s0,40.95,0,40.95,0,2.16,5.63,4.15L89.85,74a24.09,24.09,0,0,0,10.69,2.3h.83a24.17,24.17,0,0,0,10.7-2.3l2.45-1.54c5.6-2,5.63-4.15,5.63-4.15S120.43,28.93,120.15,27.37Z"/><path class="cls-1" d="M141.69,28.4c-.25-1.37-2.4-4-2.94-5a3.61,3.61,0,0,1-.08-3c.33-.5.67-.71.42-.88s-3-1.27-14.27-1.11c-3.17,0-4.44,0-6.4.12l-.2.26a2.92,2.92,0,0,0-.21.28,2.86,2.86,0,0,0,.15,1.89c.16.31.58.92,1,1.51,1.28,1.86,2.28,3.38,2.5,4.65.06.33.2,1.11.13,21.33,0,9.93-.1,19.8-.1,19.9h0a3.72,3.72,0,0,1-1.11,2.33l-.15.17a13.44,13.44,0,0,0,4,.59h.73a21.16,21.16,0,0,0,9.4-2l2.15-1.35c4.92-1.75,4.95-3.65,4.95-3.65s.24-34.62,0-36"/><path class="cls-1" d="M141.69,28.4c-.25-1.37-2.4-4-2.94-5a3.61,3.61,0,0,1-.08-3c.33-.5.67-.71.42-.88s-3-1.27-14.27-1.11c-3.17,0-4.44,0-6.4.12l-.2.26a2.92,2.92,0,0,0-.21.28,2.86,2.86,0,0,0,.15,1.89c.16.31.58.92,1,1.51,1.28,1.86,2.28,3.38,2.5,4.65.06.33.2,1.11.13,21.33,0,9.93-.1,19.8-.1,19.9h0a3.72,3.72,0,0,1-1.11,2.33l-.15.17a13.44,13.44,0,0,0,4,.59h.73a21.16,21.16,0,0,0,9.4-2l2.15-1.35c4.92-1.75,4.95-3.65,4.95-3.65S141.93,29.78,141.69,28.4Z"/><path class="cls-1" d="M67.82,25.51,67.33,29l.36,35.6a.74.74,0,0,1-1,.68,11.16,11.16,0,0,1-2-1.14,1.44,1.44,0,0,1-.6-1.14c-.06-4.91-.44-34,0-34.71.29-.45,1.56-2,2.59-3.28a.63.63,0,0,1,1.11.48M81.34,70.67a3.68,3.68,0,0,1-1.1-2.33h0c0-.1-.07-10-.1-19.9-.07-20.22.06-21,.12-21.33.23-1.27,1.23-2.79,2.51-4.65.4-.59.82-1.2,1-1.51a2.88,2.88,0,0,0,.16-1.89,3,3,0,0,0-.22-.28,4.5,4.5,0,0,1-.27-.37c-1.34,0-2.85,0-4.57,0-11.32-.16-14,.95-14.26,1.11s.08.38.42.88a3.58,3.58,0,0,1-.09,3c-.54,1-2.69,3.65-2.93,5s0,36,0,36,0,1.9,4.95,3.65l2.15,1.35a21.11,21.11,0,0,0,9.4,2h.73A23.2,23.2,0,0,0,82,71.27c-.22-.2-.42-.4-.61-.6"/><path class="cls-1" d="M67.82,25.51,67.33,29l.36,35.6a.74.74,0,0,1-1,.68,11.16,11.16,0,0,1-2-1.14,1.44,1.44,0,0,1-.6-1.14c-.06-4.91-.44-34,0-34.71.29-.45,1.56-2,2.59-3.28A.63.63,0,0,1,67.82,25.51ZM81.34,70.67a3.68,3.68,0,0,1-1.1-2.33h0c0-.1-.07-10-.1-19.9-.07-20.22.06-21,.12-21.33.23-1.27,1.23-2.79,2.51-4.65.4-.59.82-1.2,1-1.51a2.88,2.88,0,0,0,.16-1.89,3,3,0,0,0-.22-.28,4.5,4.5,0,0,1-.27-.37c-1.34,0-2.85,0-4.57,0-11.32-.16-14,.95-14.26,1.11s.08.38.42.88a3.58,3.58,0,0,1-.09,3c-.54,1-2.69,3.65-2.93,5s0,36,0,36,0,1.9,4.95,3.65l2.15,1.35a21.11,21.11,0,0,0,9.4,2h.73A23.2,23.2,0,0,0,82,71.27C81.73,71.07,81.53,70.87,81.34,70.67Z"/></svg>