<svg id="Vrstva_1" data-name="Vrstva 1" xmlns="http://www.w3.org/2000/svg" viewBox="0 0 121.18 140.11"><defs><style>.cls-1{fill:#fff;}</style></defs><title>ikony</title><path class="cls-1" d="M4,108.94a7.36,7.36,0,0,1-3-2.87A8.42,8.42,0,0,1,0,101.81V94.93a8.27,8.27,0,0,1,1.06-4.22,7.29,7.29,0,0,1,3-2.84,9.21,9.21,0,0,1,4.42-1,9.33,9.33,0,0,1,4.45,1,7.26,7.26,0,0,1,3,2.84,8.27,8.27,0,0,1,1.06,4.22v6.88a8.45,8.45,0,0,1-1.06,4.27,7.23,7.23,0,0,1-3,2.88,9.45,9.45,0,0,1-4.45,1A9.1,9.1,0,0,1,4,108.94Zm7.28-4a4.15,4.15,0,0,0,1.09-3V94.89a4.18,4.18,0,0,0-1.08-3,3.74,3.74,0,0,0-2.87-1.14,3.74,3.74,0,0,0-2.85,1.14,4.18,4.18,0,0,0-1.08,3V102a4.14,4.14,0,0,0,1.08,3,3.77,3.77,0,0,0,2.85,1.12A3.82,3.82,0,0,0,11.32,105Z"/><path class="cls-1" d="M20.53,109.51a.37.37,0,0,1-.11-.28V87.5a.33.33,0,0,1,.11-.27.34.34,0,0,1,.27-.12h3.76a.38.38,0,0,1,.28.12.37.37,0,0,1,.11.27v18.07a.14.14,0,0,0,.16.16H35.62a.41.41,0,0,1,.28.11.4.4,0,0,1,.11.27v3.12a.38.38,0,0,1-.39.39H20.8A.37.37,0,0,1,20.53,109.51Z"/><path class="cls-1" d="M38.92,109.51a.38.38,0,0,1-.12-.28V87.5a.41.41,0,0,1,.39-.39H43a.38.38,0,0,1,.28.12.37.37,0,0,1,.11.27v21.73a.38.38,0,0,1-.39.39H39.19A.37.37,0,0,1,38.92,109.51Z"/><path class="cls-1" d="M52.82,109.3,46.2,87.56l0-.13c0-.21.12-.32.35-.32h4a.42.42,0,0,1,.45.32l4.28,15.69c0,.07.05.1.09.1s.08,0,.1-.1L59.7,87.43a.43.43,0,0,1,.45-.32h4a.36.36,0,0,1,.29.13.35.35,0,0,1,0,.32L57.71,109.3a.41.41,0,0,1-.42.32h-4A.42.42,0,0,1,52.82,109.3Z"/><path class="cls-1" d="M69.81,108.94a7.39,7.39,0,0,1-3-2.87,8.42,8.42,0,0,1-1.06-4.26V94.93a8.27,8.27,0,0,1,1.06-4.22,7.32,7.32,0,0,1,3-2.84,10.26,10.26,0,0,1,8.88,0,7.26,7.26,0,0,1,3,2.84,8.27,8.27,0,0,1,1.06,4.22v6.88a8.45,8.45,0,0,1-1.06,4.27,7.23,7.23,0,0,1-3,2.88,9.45,9.45,0,0,1-4.45,1A9.17,9.17,0,0,1,69.81,108.94Zm7.29-4a4.11,4.11,0,0,0,1.09-3V94.89a4.18,4.18,0,0,0-1.08-3,4.16,4.16,0,0,0-5.72,0,4.18,4.18,0,0,0-1.08,3V102a4.14,4.14,0,0,0,1.08,3,3.77,3.77,0,0,0,2.85,1.12A3.82,3.82,0,0,0,77.1,105Z"/><path class="cls-1" d="M91.31,109.3,84.68,87.56l0-.13c0-.21.12-.32.36-.32h4a.43.43,0,0,1,.45.32l4.27,15.69c0,.07.06.1.1.1s.07,0,.1-.1l4.21-15.69a.42.42,0,0,1,.45-.32h4a.35.35,0,0,1,.29.13.3.3,0,0,1,0,.32L96.19,109.3a.4.4,0,0,1-.41.32H91.72A.4.4,0,0,1,91.31,109.3Z"/><path class="cls-1" d="M121.06,90.89a.33.33,0,0,1-.27.11H110.24a.15.15,0,0,0-.16.16v5a.15.15,0,0,0,.16.16h6.92a.38.38,0,0,1,.38.38v3.12a.41.41,0,0,1-.11.28.4.4,0,0,1-.27.11h-6.92a.14.14,0,0,0-.16.16v5.21a.14.14,0,0,0,.16.16h10.55a.37.37,0,0,1,.27.11.37.37,0,0,1,.12.27v3.12a.38.38,0,0,1-.12.28.37.37,0,0,1-.27.11H105.94a.38.38,0,0,1-.39-.39V87.5a.37.37,0,0,1,.11-.27.38.38,0,0,1,.28-.12h14.85a.41.41,0,0,1,.39.39v3.12A.36.36,0,0,1,121.06,90.89ZM111.21,85a.34.34,0,0,1,0-.32L113,81.42a.47.47,0,0,1,.48-.29h3.24a.29.29,0,0,1,.26.49l-2.28,3.24a.52.52,0,0,1-.45.26h-2.7C111.35,85.12,111.25,85.08,111.21,85Z"/><path class="cls-1" d="M18.61,139.08a7.39,7.39,0,0,1-3-2.87A8.42,8.42,0,0,1,14.58,132v-6.89a8.23,8.23,0,0,1,1.06-4.21,7.32,7.32,0,0,1,3-2.84A9.28,9.28,0,0,1,23,117a9.34,9.34,0,0,1,4.45,1,7.32,7.32,0,0,1,3,2.84,8.23,8.23,0,0,1,1.06,4.21V132a8.45,8.45,0,0,1-1.06,4.27,7.35,7.35,0,0,1-3,2.88,9.45,9.45,0,0,1-4.45,1A9.17,9.17,0,0,1,18.61,139.08Zm7.29-4a4.15,4.15,0,0,0,1.09-3V125a4.18,4.18,0,0,0-1.08-3A3.77,3.77,0,0,0,23,120.89,3.74,3.74,0,0,0,20.19,122a4.18,4.18,0,0,0-1.08,3v7.08a4.14,4.14,0,0,0,1.08,3A3.77,3.77,0,0,0,23,136.22,3.82,3.82,0,0,0,25.9,135.1Z"/><path class="cls-1" d="M35.11,139.65a.38.38,0,0,1-.12-.28V117.64a.38.38,0,0,1,.12-.28.37.37,0,0,1,.27-.11h3.76a.38.38,0,0,1,.39.39v18.07a.14.14,0,0,0,.16.16H50.2a.41.41,0,0,1,.28.11.4.4,0,0,1,.11.27v3.12a.38.38,0,0,1-.39.39H35.38A.37.37,0,0,1,35.11,139.65Z"/><path class="cls-1" d="M68.9,121a.37.37,0,0,1-.28.11H58.08a.14.14,0,0,0-.16.16v5a.14.14,0,0,0,.16.16H65a.33.33,0,0,1,.27.11.37.37,0,0,1,.12.27V130a.38.38,0,0,1-.12.28.37.37,0,0,1-.27.11H58.08a.14.14,0,0,0-.16.16v5.21a.14.14,0,0,0,.16.16H68.62a.41.41,0,0,1,.28.11.4.4,0,0,1,.11.27v3.12a.38.38,0,0,1-.39.39H53.77a.37.37,0,0,1-.27-.11.38.38,0,0,1-.12-.28V117.64a.38.38,0,0,1,.12-.28.37.37,0,0,1,.27-.11H68.62a.38.38,0,0,1,.39.39v3.12A.39.39,0,0,1,68.9,121Z"/><path class="cls-1" d="M74.62,139.1a6.73,6.73,0,0,1-2.81-2.57,7.29,7.29,0,0,1-1-3.85v-2a.37.37,0,0,1,.11-.27.38.38,0,0,1,.28-.12H75a.36.36,0,0,1,.27.12.33.33,0,0,1,.11.27v2a3.41,3.41,0,0,0,1,2.5,3.51,3.51,0,0,0,2.59.94,3.65,3.65,0,0,0,2.59-.94,3.3,3.3,0,0,0,1-2.5v-15a.38.38,0,0,1,.39-.39H86.6a.4.4,0,0,1,.27.11.37.37,0,0,1,.11.28v15a7.13,7.13,0,0,1-1,3.85,6.93,6.93,0,0,1-2.86,2.57,10.21,10.21,0,0,1-8.47,0Z"/><path class="cls-1" d="M106.42,121a.37.37,0,0,1-.28.11H95.6a.14.14,0,0,0-.16.16v5a.14.14,0,0,0,.16.16h6.91a.37.37,0,0,1,.28.11.4.4,0,0,1,.11.27V130a.38.38,0,0,1-.39.39H95.6a.14.14,0,0,0-.16.16v5.21a.14.14,0,0,0,.16.16h10.54a.41.41,0,0,1,.28.11.4.4,0,0,1,.11.27v3.12a.38.38,0,0,1-.39.39H91.29a.37.37,0,0,1-.27-.11.38.38,0,0,1-.12-.28V117.64a.38.38,0,0,1,.12-.28.37.37,0,0,1,.27-.11h14.85a.38.38,0,0,1,.39.39v3.12A.39.39,0,0,1,106.42,121Z"/><path class="cls-1" d="M70.34,23.29A1.15,1.15,0,0,1,71,25.5a3.57,3.57,0,0,0-.46.16.92.92,0,0,1-.29.16l-.12,0a6.68,6.68,0,0,0-2.61,3.19,11.88,11.88,0,0,0-.67,5.88c.14,1.47-2.15,1.45-2.29,0-.41-4.33,1-10.32,5.83-11.64m-20.18,9.5a6,6,0,0,0-2.8-.27,7.42,7.42,0,0,0-2.16.94,9,9,0,0,0-3.29,3.24,1.15,1.15,0,0,1-2-1.16,11.45,11.45,0,0,1,4.37-4.2,8.93,8.93,0,0,1,2.89-1.11,8.87,8.87,0,0,1,3.58.35,1.15,1.15,0,0,1-.61,2.21M76.59,9.65c2.59-1.12,5.24-2.11,7.84-3.19A12.58,12.58,0,0,0,86,5.55L85.72,5a9.07,9.07,0,0,0-1.82.25c-1.92.66-3.84,1.35-5.72,2.13a3.93,3.93,0,0,1-5.37-1.88A8.35,8.35,0,0,0,68,1c-5.31-1.75-10.66-1-16.15,0a97.68,97.68,0,0,0,10.9,7.78,7.63,7.63,0,0,0,6.58.76.81.81,0,0,0,.06-1.51c-2-.86-4-1.55-6-2.29h0a.88.88,0,0,1,0-1.64,1.4,1.4,0,0,1,.29-.09,2.84,2.84,0,0,1,1.54.24c3.08,1.38,6.14,2.81,9.2,4.23a25.91,25.91,0,0,1-11.66,3.14,5.55,5.55,0,0,1-2.83-.34c-5.09-2.72-10-2.35-14.43,1.12-3.38,2.66-6.3,5.91-9.41,8.92a7.13,7.13,0,0,0-.88,1.36c5.57.41,10.88.57,16.13-.67,3.57-.85,6.47-2.59,8.26-6a.64.64,0,0,0-.57-.94,1.28,1.28,0,0,0-.34.06c-2.79.89-5.55,1.84-8.35,2.72A1.44,1.44,0,0,1,50,18a.83.83,0,0,1-.82-1.21.8.8,0,0,1,.2-.24A7.11,7.11,0,0,1,52.05,15c5.73-1.12,11.49-2.08,17.23-3.1-.4.68-1.12,1-1.67,1.5-4.44,4-9,7.91-13.24,12.06-1.53,1.49-2.11,2-5.85,2C40,27.31,32.54,37.93,35.47,46a7.47,7.47,0,0,0,8.22,5C53.75,49.83,59,37.75,53.32,28.88A79,79,0,0,1,70.18,13.46,49.13,49.13,0,0,0,69,19.19,2.9,2.9,0,0,1,67.05,22a7.12,7.12,0,0,0-2.53,2.11c-4.66,5.83-3.06,16.44,3.06,20.68a7.89,7.89,0,0,0,10.81-1.42c5.62-6.9,2.24-21.71-8.2-22.5.38-4.85,1.55-9.08,6.4-11.19"/><path class="cls-1" d="M70.34,23.29A1.15,1.15,0,0,1,71,25.5a3.57,3.57,0,0,0-.46.16.92.92,0,0,1-.29.16l-.12,0a6.68,6.68,0,0,0-2.61,3.19,11.88,11.88,0,0,0-.67,5.88c.14,1.47-2.15,1.45-2.29,0C64.1,30.6,65.49,24.61,70.34,23.29Zm-20.18,9.5a6,6,0,0,0-2.8-.27,7.42,7.42,0,0,0-2.16.94,9,9,0,0,0-3.29,3.24,1.15,1.15,0,0,1-2-1.16,11.45,11.45,0,0,1,4.37-4.2,8.93,8.93,0,0,1,2.89-1.11,8.87,8.87,0,0,1,3.58.35A1.15,1.15,0,0,1,50.16,32.79ZM76.59,9.65c2.59-1.12,5.24-2.11,7.84-3.19A12.58,12.58,0,0,0,86,5.55L85.72,5a9.07,9.07,0,0,0-1.82.25c-1.92.66-3.84,1.35-5.72,2.13a3.93,3.93,0,0,1-5.37-1.88A8.35,8.35,0,0,0,68,1c-5.31-1.75-10.66-1-16.15,0a97.68,97.68,0,0,0,10.9,7.78,7.63,7.63,0,0,0,6.58.76.81.81,0,0,0,.06-1.51c-2-.86-4-1.55-6-2.29h0a.88.88,0,0,1,0-1.64,1.4,1.4,0,0,1,.29-.09,2.84,2.84,0,0,1,1.54.24c3.08,1.38,6.14,2.81,9.2,4.23a25.91,25.91,0,0,1-11.66,3.14,5.55,5.55,0,0,1-2.83-.34c-5.09-2.72-10-2.35-14.43,1.12-3.38,2.66-6.3,5.91-9.41,8.92a7.13,7.13,0,0,0-.88,1.36c5.57.41,10.88.57,16.13-.67,3.57-.85,6.47-2.59,8.26-6a.64.64,0,0,0-.57-.94,1.28,1.28,0,0,0-.34.06c-2.79.89-5.55,1.84-8.35,2.72A1.44,1.44,0,0,1,50,18a.83.83,0,0,1-.82-1.21.8.8,0,0,1,.2-.24A7.11,7.11,0,0,1,52.05,15c5.73-1.12,11.49-2.08,17.23-3.1-.4.68-1.12,1-1.67,1.5-4.44,4-9,7.91-13.24,12.06-1.53,1.49-2.11,2-5.85,2C40,27.31,32.54,37.93,35.47,46a7.47,7.47,0,0,0,8.22,5C53.75,49.83,59,37.75,53.32,28.88A79,79,0,0,1,70.18,13.46,49.13,49.13,0,0,0,69,19.19,2.9,2.9,0,0,1,67.05,22a7.12,7.12,0,0,0-2.53,2.11c-4.66,5.83-3.06,16.44,3.06,20.68a7.89,7.89,0,0,0,10.81-1.42c5.62-6.9,2.24-21.71-8.2-22.5C70.57,16,71.74,11.76,76.59,9.65Z"/></svg>