<svg id="Vrstva_1" data-name="Vrstva 1" xmlns="http://www.w3.org/2000/svg" viewBox="0 0 198.95 175.91"><defs><style>.cls-1{fill:#fff;}</style></defs><title>desktop_zobrazeni_02</title><path class="cls-1" d="M51.92,155.25a7.45,7.45,0,0,1-3.31-2.61,6.86,6.86,0,0,1-1.16-3.95v-.78a.42.42,0,0,1,.13-.31.41.41,0,0,1,.3-.12H52a.41.41,0,0,1,.43.43v.53a2.89,2.89,0,0,0,1.33,2.41,5.82,5.82,0,0,0,3.57,1A4.2,4.2,0,0,0,60.1,151a2.5,2.5,0,0,0,.93-2,2,2,0,0,0-.57-1.45,5.09,5.09,0,0,0-1.56-1q-1-.45-3.12-1.23a31.12,31.12,0,0,1-4.06-1.68,8.38,8.38,0,0,1-2.78-2.34,5.9,5.9,0,0,1-1.13-3.67,6.43,6.43,0,0,1,1.11-3.75A7,7,0,0,1,52,131.44a11.28,11.28,0,0,1,4.54-.86,11.49,11.49,0,0,1,4.84,1,7.88,7.88,0,0,1,3.32,2.69,6.91,6.91,0,0,1,1.2,4v.54a.38.38,0,0,1-.13.3.42.42,0,0,1-.3.13H61.35a.42.42,0,0,1-.3-.13.38.38,0,0,1-.13-.3v-.29A3.24,3.24,0,0,0,59.69,136a5,5,0,0,0-3.38-1.06,4.23,4.23,0,0,0-2.62.72,2.32,2.32,0,0,0-.95,2,2.12,2.12,0,0,0,.55,1.5,4.77,4.77,0,0,0,1.65,1.09c.72.32,1.85.76,3.37,1.31a41.26,41.26,0,0,1,4,1.64,8,8,0,0,1,2.61,2.13,5.59,5.59,0,0,1,1.16,3.66,6.39,6.39,0,0,1-2.47,5.3,10.47,10.47,0,0,1-6.68,1.95A12.64,12.64,0,0,1,51.92,155.25Zm-.61-30.74c0-.19.12-.29.36-.29h3.21a.56.56,0,0,1,.5.29l1.43,2.18c.07.14.15.14.22,0l1.43-2.18a.56.56,0,0,1,.5-.29h3.21a.37.37,0,0,1,.36.16.4.4,0,0,1-.07.38l-2.72,3.78a.57.57,0,0,1-.5.25H54.49a.56.56,0,0,1-.5-.28l-2.61-3.75A.52.52,0,0,1,51.31,124.51Z"/><path class="cls-1" d="M84.07,131.8a6.81,6.81,0,0,1,2.77,2.73,8.26,8.26,0,0,1,1,4.05,7.62,7.62,0,0,1-1,4A6.91,6.91,0,0,1,84,145.21a9.16,9.16,0,0,1-4.24.95H74.64a.16.16,0,0,0-.18.18v9.11a.42.42,0,0,1-.12.3.45.45,0,0,1-.31.12H69.85a.41.41,0,0,1-.3-.12.43.43,0,0,1-.13-.3V131.26a.42.42,0,0,1,.13-.3.38.38,0,0,1,.3-.13H79.93A8.5,8.5,0,0,1,84.07,131.8Zm-2.25,9.37a3.25,3.25,0,0,0,1-2.48,3.37,3.37,0,0,0-1-2.54,3.66,3.66,0,0,0-2.64-1H74.64a.16.16,0,0,0-.18.18v6.57a.16.16,0,0,0,.18.18h4.54A3.7,3.7,0,0,0,81.82,141.17Z"/><path class="cls-1" d="M108.17,135.06a.42.42,0,0,1-.31.13H96.15a.16.16,0,0,0-.18.18v5.54c0,.11.06.17.18.17h7.68a.44.44,0,0,1,.43.43V145a.42.42,0,0,1-.13.3.38.38,0,0,1-.3.13H96.15a.16.16,0,0,0-.18.18v5.78a.16.16,0,0,0,.18.18h11.71a.42.42,0,0,1,.31.13.41.41,0,0,1,.12.3v3.47a.42.42,0,0,1-.12.3.45.45,0,0,1-.31.12H91.36a.41.41,0,0,1-.3-.12.39.39,0,0,1-.13-.3V131.3a.4.4,0,0,1,.13-.31.41.41,0,0,1,.3-.12h16.5a.45.45,0,0,1,.31.12.43.43,0,0,1,.12.31v3.46A.41.41,0,0,1,108.17,135.06Z"/><path class="cls-1" d="M114.53,155.14a7.48,7.48,0,0,1-3.13-2.86,8.09,8.09,0,0,1-1.11-4.27v-2.25a.38.38,0,0,1,.13-.3.41.41,0,0,1,.3-.12h4.18a.45.45,0,0,1,.31.12.41.41,0,0,1,.12.3V148a3.74,3.74,0,0,0,1,2.77,3.89,3.89,0,0,0,2.88,1.06,4,4,0,0,0,2.88-1.06,3.6,3.6,0,0,0,1.12-2.77V131.3a.4.4,0,0,1,.13-.31.41.41,0,0,1,.3-.12h4.14a.45.45,0,0,1,.31.12.43.43,0,0,1,.12.31V148a7.92,7.92,0,0,1-1.14,4.27,7.68,7.68,0,0,1-3.18,2.86,11.36,11.36,0,0,1-9.41,0Z"/><path class="cls-1" d="M132.75,155.75a.39.39,0,0,1-.13-.3V131.3a.4.4,0,0,1,.13-.31.41.41,0,0,1,.3-.12h4.18a.41.41,0,0,1,.3.12.4.4,0,0,1,.13.31v20.07a.16.16,0,0,0,.18.18h11.68a.44.44,0,0,1,.43.43v3.47a.39.39,0,0,1-.13.3.41.41,0,0,1-.3.12H133.05A.41.41,0,0,1,132.75,155.75Z"/><path class="cls-1" d="M170.29,135.06a.38.38,0,0,1-.3.13H158.27a.16.16,0,0,0-.18.18v5.54c0,.11.06.17.18.17H166a.46.46,0,0,1,.31.13.41.41,0,0,1,.12.3V145a.41.41,0,0,1-.12.3.42.42,0,0,1-.31.13h-7.68a.16.16,0,0,0-.18.18v5.78a.16.16,0,0,0,.18.18H170a.44.44,0,0,1,.43.43v3.47a.39.39,0,0,1-.13.3.41.41,0,0,1-.3.12h-16.5a.43.43,0,0,1-.31-.12.42.42,0,0,1-.12-.3V131.3a.41.41,0,0,1,.43-.43H170a.41.41,0,0,1,.3.12.4.4,0,0,1,.13.31v3.46A.38.38,0,0,1,170.29,135.06Z"/><path class="cls-1" d="M94,33.33l-1.54.88c-.4-.39-.77-.79-1.17-1.16A10.08,10.08,0,0,0,85,30.45a11.51,11.51,0,0,0-7.73,2.15,7.73,7.73,0,0,0-3.39,5.6,6.84,6.84,0,0,0,2,5.67,14.27,14.27,0,0,0,5.28,3.29c2,.77,4,1.48,5.91,2.28a20.35,20.35,0,0,1,5.53,3.16,10.14,10.14,0,0,1,3.71,6.73,12.82,12.82,0,0,1-1.09,7.37,12.5,12.5,0,0,1-8.93,6.88A14.27,14.27,0,0,1,77.36,73a13,13,0,0,1-7.12-7.25c-.19-.47-.33-1-.49-1.43a.31.31,0,0,1,0-.14l2.13-.43c0,.19.09.36.14.52a11.59,11.59,0,0,0,18.9,4.9,10.57,10.57,0,0,0,3.21-6.58,9.55,9.55,0,0,0-.72-5.19A10.61,10.61,0,0,0,89.49,53a28.11,28.11,0,0,0-4.88-2.43c-2.1-.87-4.21-1.73-6.28-2.67a13.84,13.84,0,0,1-4.47-3.13,8.1,8.1,0,0,1-2.21-6.62c.43-4.13,2.89-6.84,6.77-8.41a14.42,14.42,0,0,1,10.11-.38A11.62,11.62,0,0,1,94,33.2a1.05,1.05,0,0,1,.08.13"/><path class="cls-1" d="M94,33.33l-1.54.88c-.4-.39-.77-.79-1.17-1.16A10.08,10.08,0,0,0,85,30.45a11.51,11.51,0,0,0-7.73,2.15,7.73,7.73,0,0,0-3.39,5.6,6.84,6.84,0,0,0,2,5.67,14.27,14.27,0,0,0,5.28,3.29c2,.77,4,1.48,5.91,2.28a20.35,20.35,0,0,1,5.53,3.16,10.14,10.14,0,0,1,3.71,6.73,12.82,12.82,0,0,1-1.09,7.37,12.5,12.5,0,0,1-8.93,6.88A14.27,14.27,0,0,1,77.36,73a13,13,0,0,1-7.12-7.25c-.19-.47-.33-1-.49-1.43a.31.31,0,0,1,0-.14l2.13-.43c0,.19.09.36.14.52a11.59,11.59,0,0,0,18.9,4.9,10.57,10.57,0,0,0,3.21-6.58,9.55,9.55,0,0,0-.72-5.19A10.61,10.61,0,0,0,89.49,53a28.11,28.11,0,0,0-4.88-2.43c-2.1-.87-4.21-1.73-6.28-2.67a13.84,13.84,0,0,1-4.47-3.13,8.1,8.1,0,0,1-2.21-6.62c.43-4.13,2.89-6.84,6.77-8.41a14.42,14.42,0,0,1,10.11-.38A11.62,11.62,0,0,1,94,33.2,1.05,1.05,0,0,1,94,33.33Z"/><path class="cls-1" d="M107.76,67.79a3.48,3.48,0,0,0-.38-1.73,3.12,3.12,0,0,0-2.86-1.8,3,3,0,0,0-2.79,1.4,3.88,3.88,0,0,0-.1,4.25,3,3,0,0,0,2.89,1.54,3.12,3.12,0,0,0,2.78-1.69,4.25,4.25,0,0,0,.46-2m-6.57,3.56v.36q0,16.13,0,32.26a20.87,20.87,0,0,1-.31,4.1c-.28,1.35-.48,2.72-.76,4.09a1.8,1.8,0,0,1-.06-.22c-.3-1.89-.59-3.77-.89-5.65a2.93,2.93,0,0,1,0-.41v-43h2v1.67l.44-.54a4.62,4.62,0,0,1,6.93.26,5.84,5.84,0,0,1-.32,7.61,4.62,4.62,0,0,1-6.79-.29c-.06-.08-.13-.15-.19-.22l-.06,0"/><path class="cls-1" d="M107.76,67.79a3.48,3.48,0,0,0-.38-1.73,3.12,3.12,0,0,0-2.86-1.8,3,3,0,0,0-2.79,1.4,3.88,3.88,0,0,0-.1,4.25,3,3,0,0,0,2.89,1.54,3.12,3.12,0,0,0,2.78-1.69A4.25,4.25,0,0,0,107.76,67.79Zm-6.57,3.56v.36q0,16.13,0,32.26a20.87,20.87,0,0,1-.31,4.1c-.28,1.35-.48,2.72-.76,4.09a1.8,1.8,0,0,1-.06-.22c-.3-1.89-.59-3.77-.89-5.65a2.93,2.93,0,0,1,0-.41v-43h2v1.67l.44-.54a4.62,4.62,0,0,1,6.93.26,5.84,5.84,0,0,1-.32,7.61,4.62,4.62,0,0,1-6.79-.29c-.06-.08-.13-.15-.19-.22Z"/><path class="cls-1" d="M132.19,72.84h-2v-.32q0-21.55,0-43.11a14.21,14.21,0,0,1,.36-2.4c.2-1.2.4-2.39.61-3.59a2.07,2.07,0,0,1,.09-.31c.2,1.29.39,2.49.58,3.7q.18,1.05.33,2.1a5.19,5.19,0,0,1,.05.68V72.84Z"/><path class="cls-1" d="M132.19,72.84h-2v-.32q0-21.55,0-43.11a14.21,14.21,0,0,1,.36-2.4c.2-1.2.4-2.39.61-3.59a2.07,2.07,0,0,1,.09-.31c.2,1.29.39,2.49.58,3.7q.18,1.05.33,2.1a5.19,5.19,0,0,1,.05.68V72.84Z"/><path class="cls-1" d="M125.09,62.84h2v.36q0,21.36,0,42.72a13.08,13.08,0,0,1-.33,2.22c-.22,1.35-.46,2.71-.74,4.06l-.24-1.51c-.23-1.39-.45-2.79-.67-4.18a4.21,4.21,0,0,1,0-.62v-43Z"/><path class="cls-1" d="M125.09,62.84h2v.36q0,21.36,0,42.72a13.08,13.08,0,0,1-.33,2.22c-.22,1.35-.46,2.71-.74,4.06l-.24-1.51c-.23-1.39-.45-2.79-.67-4.18a4.21,4.21,0,0,1,0-.62v-43Z"/><path class="cls-1" d="M142.41,66.68a2.73,2.73,0,0,0-2.94-2.47,2.89,2.89,0,0,0-2.81,2.47Zm2.11,1.48h-8a3.16,3.16,0,0,0,1.87,3.06c1.54.65,2.94.11,4.34-1.71l1.76.94c-.31.38-.58.77-.9,1.11a5.65,5.65,0,0,1-7.4.45,4.9,4.9,0,0,1-1.73-3.43,6.21,6.21,0,0,1,.64-3.63,4.47,4.47,0,0,1,3.61-2.37,5.41,5.41,0,0,1,3.2.47,4.44,4.44,0,0,1,2.38,3.32c.11.57.13,1.16.19,1.79"/><path class="cls-1" d="M142.41,66.68a2.73,2.73,0,0,0-2.94-2.47,2.89,2.89,0,0,0-2.81,2.47Zm2.11,1.48h-8a3.16,3.16,0,0,0,1.87,3.06c1.54.65,2.94.11,4.34-1.71l1.76.94c-.31.38-.58.77-.9,1.11a5.65,5.65,0,0,1-7.4.45,4.9,4.9,0,0,1-1.73-3.43,6.21,6.21,0,0,1,.64-3.63,4.47,4.47,0,0,1,3.61-2.37,5.41,5.41,0,0,1,3.2.47,4.44,4.44,0,0,1,2.38,3.32C144.44,66.94,144.46,67.53,144.52,68.16Z"/><path class="cls-1" d="M120.27,66.68a2.75,2.75,0,0,0-3-2.46,2.93,2.93,0,0,0-2.78,2.46Zm2.1,1.48h-8a3.13,3.13,0,0,0,2,3.08c1.92.65,3.27-.15,4.24-1.73l1.74.92a5,5,0,0,1-2.28,2.14,5.5,5.5,0,0,1-5.81-.42,4.51,4.51,0,0,1-1.78-2.86A6.26,6.26,0,0,1,113,65a4.4,4.4,0,0,1,3.6-2.38,5.48,5.48,0,0,1,3.31.52,4.51,4.51,0,0,1,2.31,3.4c.09.53.11,1.07.17,1.66"/><path class="cls-1" d="M120.27,66.68a2.75,2.75,0,0,0-3-2.46,2.93,2.93,0,0,0-2.78,2.46Zm2.1,1.48h-8a3.13,3.13,0,0,0,2,3.08c1.92.65,3.27-.15,4.24-1.73l1.74.92a5,5,0,0,1-2.28,2.14,5.5,5.5,0,0,1-5.81-.42,4.51,4.51,0,0,1-1.78-2.86A6.26,6.26,0,0,1,113,65a4.4,4.4,0,0,1,3.6-2.38,5.48,5.48,0,0,1,3.31.52,4.51,4.51,0,0,1,2.31,3.4C122.29,67,122.31,67.57,122.37,68.16Z"/><path class="cls-1" d="M82.67,20.29H86.2c-.58,2-1.15,4-1.73,5.94H84.4c-.58-2-1.15-3.94-1.73-5.94"/><path class="cls-1" d="M82.67,20.29H86.2c-.58,2-1.15,4-1.73,5.94H84.4C83.82,24.26,83.25,22.29,82.67,20.29Z"/><path class="cls-1" d="M126.12,60.13A1.12,1.12,0,1,1,127.28,59a1.16,1.16,0,0,1-1.16,1.11"/><path class="cls-1" d="M126.12,60.13A1.12,1.12,0,1,1,127.28,59,1.16,1.16,0,0,1,126.12,60.13Z"/></svg>