<svg id="Vrstva_1" data-name="Vrstva 1" xmlns="http://www.w3.org/2000/svg" viewBox="0 0 87.03 141.07"><defs><style>.cls-1{fill:#fff;}</style></defs><title>ikony</title><path class="cls-1" d="M.11,110.47a.41.41,0,0,1-.11-.28V88.46a.41.41,0,0,1,.11-.28.41.41,0,0,1,.28-.11h8a10,10,0,0,1,4.23.85,6.57,6.57,0,0,1,2.81,2.4,6.4,6.4,0,0,1,1,3.57v8.87a6.4,6.4,0,0,1-1,3.57,6.57,6.57,0,0,1-2.81,2.4,10,10,0,0,1-4.23.85h-8A.41.41,0,0,1,.11,110.47Zm4.59-3.78H8.59a3.08,3.08,0,0,0,2.39-1,3.89,3.89,0,0,0,.95-2.67V95.63A3.78,3.78,0,0,0,11,93a3.16,3.16,0,0,0-2.46-1H4.7a.15.15,0,0,0-.17.16v14.41A.15.15,0,0,0,4.7,106.69Z"/><path class="cls-1" d="M31.77,110.29l-4-8.91a.23.23,0,0,0-.2-.13h-3a.15.15,0,0,0-.16.16v8.78a.37.37,0,0,1-.11.28.4.4,0,0,1-.27.11H20.26a.38.38,0,0,1-.39-.39V88.46a.38.38,0,0,1,.39-.39h9.19a7.53,7.53,0,0,1,3.62.84,5.88,5.88,0,0,1,2.41,2.38,7.25,7.25,0,0,1,.85,3.57,6.35,6.35,0,0,1-1.09,3.74,5.78,5.78,0,0,1-3.06,2.2.16.16,0,0,0-.09.23l4.37,9.1a.49.49,0,0,1,.06.19c0,.17-.11.26-.35.26h-4A.45.45,0,0,1,31.77,110.29ZM24.4,92.12v5.5a.14.14,0,0,0,.16.16h4.22A3.1,3.1,0,0,0,31,97a2.77,2.77,0,0,0,.85-2.09A2.83,2.83,0,0,0,31,92.78a3.07,3.07,0,0,0-2.2-.82H24.56A.15.15,0,0,0,24.4,92.12Z"/><path class="cls-1" d="M39.72,110.47a.41.41,0,0,1-.11-.28V88.46a.38.38,0,0,1,.39-.39h3.76a.38.38,0,0,1,.38.39v21.73a.38.38,0,0,1-.38.39H40A.41.41,0,0,1,39.72,110.47Z"/><path class="cls-1" d="M61.1,88.18a.41.41,0,0,1,.28-.11h3.76a.38.38,0,0,1,.38.39v21.73a.38.38,0,0,1-.38.39H61.51a.48.48,0,0,1-.46-.26L52.73,96.56c0-.06-.09-.09-.13-.08s-.06.06-.06.14l.06,13.57a.38.38,0,0,1-.39.39H48.45a.38.38,0,0,1-.38-.39V88.46a.38.38,0,0,1,.38-.39h3.64a.47.47,0,0,1,.45.26L60.83,102c0,.06.09.09.13.08s.06-.06.06-.15l0-13.5A.41.41,0,0,1,61.1,88.18Z"/><path class="cls-1" d="M69.56,110.47a.37.37,0,0,1-.11-.28V88.46a.38.38,0,0,1,.38-.39h3.76a.38.38,0,0,1,.39.39v9c0,.06,0,.1.06.11a.12.12,0,0,0,.13,0L81.6,88.3a.62.62,0,0,1,.48-.23h4.25c.17,0,.27.05.32.15a.33.33,0,0,1-.07.33l-7.17,9.17a.19.19,0,0,0,0,.22L87,110.13a1.53,1.53,0,0,1,.06.22c0,.15-.1.23-.32.23H82.47a.45.45,0,0,1-.45-.26l-5.73-9.26a.1.1,0,0,0-.09-.06.18.18,0,0,0-.13.06l-2,2.54a.55.55,0,0,0-.06.19v6.4a.38.38,0,0,1-.39.39H69.83A.37.37,0,0,1,69.56,110.47Z"/><path class="cls-1" d="M18.25,136.76c0,.05.06.07.13.07h8.71a.38.38,0,0,1,.38.38v3.12a.33.33,0,0,1-.11.27.36.36,0,0,1-.27.12H12.62a.41.41,0,0,1-.39-.39v-3a.66.66,0,0,1,.2-.48q1.58-1.54,3.21-3.36l2.06-2.27c.6-.7,1.21-1.38,1.83-2,1.95-2.17,2.93-3.77,2.93-4.82a2.37,2.37,0,0,0-.81-1.85,3,3,0,0,0-2.09-.73,3,3,0,0,0-2.09.73,2.46,2.46,0,0,0-.8,1.91v.8a.41.41,0,0,1-.11.28.4.4,0,0,1-.27.11h-3.8a.38.38,0,0,1-.38-.39v-1.51a5.47,5.47,0,0,1,1.09-3.07,6.31,6.31,0,0,1,2.65-2,9.4,9.4,0,0,1,3.71-.71,8.71,8.71,0,0,1,4,.86,6.39,6.39,0,0,1,2.6,2.29,5.91,5.91,0,0,1,.91,3.22,6.36,6.36,0,0,1-.67,2.76,15.08,15.08,0,0,1-2,3.06c-.66.84-1.38,1.66-2.15,2.47s-1.92,2-3.44,3.54l-.48.48C18.23,136.68,18.22,136.72,18.25,136.76Z"/><path class="cls-1" d="M40.72,140a7.17,7.17,0,0,1-2.94-2.78,8,8,0,0,1-1.05-4.14v-7.2a8.06,8.06,0,0,1,1.05-4.14,7.07,7.07,0,0,1,2.94-2.79,10.19,10.19,0,0,1,8.7,0,7.36,7.36,0,0,1,2.92,2.62,6.72,6.72,0,0,1,1,3.68v.22a.38.38,0,0,1-.12.28.37.37,0,0,1-.27.11H49.24a.38.38,0,0,1-.39-.39v-.09a3.33,3.33,0,0,0-1-2.49,4.14,4.14,0,0,0-5.51.06,3.86,3.86,0,0,0-1,2.81v7.46A3.73,3.73,0,0,0,42.39,136a4,4,0,0,0,2.86,1.07,3.86,3.86,0,0,0,2.67-.88,3.1,3.1,0,0,0,1-2.46v-1.45a.15.15,0,0,0-.16-.16h-3.6a.37.37,0,0,1-.28-.11.4.4,0,0,1-.11-.27v-3a.37.37,0,0,1,.11-.27.38.38,0,0,1,.28-.12H53a.41.41,0,0,1,.39.39V133a8.49,8.49,0,0,1-1,4.25A6.9,6.9,0,0,1,49.45,140a9.61,9.61,0,0,1-4.36.94A9.29,9.29,0,0,1,40.72,140Z"/><path class="cls-1" d="M60.44,140a7.35,7.35,0,0,1-3-2.88,8.37,8.37,0,0,1-1.06-4.26V126a8.23,8.23,0,0,1,1.06-4.21,7.32,7.32,0,0,1,3-2.84,10.17,10.17,0,0,1,8.88,0,7.32,7.32,0,0,1,3,2.84A8.23,8.23,0,0,1,73.35,126v6.88a8.47,8.47,0,0,1-1.06,4.28,7.35,7.35,0,0,1-3,2.88,9.45,9.45,0,0,1-4.45,1A9.17,9.17,0,0,1,60.44,140Zm7.29-4a4.09,4.09,0,0,0,1.09-3V126a4.18,4.18,0,0,0-1.08-3A4.13,4.13,0,0,0,62,123a4.18,4.18,0,0,0-1.08,3v7.07a4.13,4.13,0,0,0,1.08,3,3.74,3.74,0,0,0,2.85,1.13A3.79,3.79,0,0,0,67.73,136.05Z"/><path class="cls-1" d="M28.27,8.12l-.55,4,.4,40.5a.83.83,0,0,1-1.17.77,12.66,12.66,0,0,1-2.21-1.29,1.62,1.62,0,0,1-.68-1.31c-.08-5.58-.51-38.66,0-39.48.32-.51,1.76-2.3,2.94-3.73a.71.71,0,0,1,1.26.55M60,11.41c-.27-1.56-2.72-4.54-3.34-5.72a4.12,4.12,0,0,1-.09-3.42c.38-.56.76-.8.47-1S53.71-.17,40.83,0C28-.17,24.88,1.09,24.6,1.28s.09.43.47,1A4.12,4.12,0,0,1,25,5.69c-.62,1.18-3.06,4.16-3.34,5.72s0,41,0,41,0,2.16,5.63,4.15l2.45,1.54a24.09,24.09,0,0,0,10.69,2.3h.83a24.17,24.17,0,0,0,10.7-2.3l2.44-1.54C60,54.52,60,52.36,60,52.36S60.29,13,60,11.41"/><path class="cls-1" d="M28.27,8.12l-.55,4,.4,40.5a.83.83,0,0,1-1.17.77,12.66,12.66,0,0,1-2.21-1.29,1.62,1.62,0,0,1-.68-1.31c-.08-5.58-.51-38.66,0-39.48.32-.51,1.76-2.3,2.94-3.73A.71.71,0,0,1,28.27,8.12ZM60,11.41c-.27-1.56-2.72-4.54-3.34-5.72a4.12,4.12,0,0,1-.09-3.42c.38-.56.76-.8.47-1S53.71-.17,40.83,0C28-.17,24.88,1.09,24.6,1.28s.09.43.47,1A4.12,4.12,0,0,1,25,5.69c-.62,1.18-3.06,4.16-3.34,5.72s0,41,0,41,0,2.16,5.63,4.15l2.45,1.54a24.09,24.09,0,0,0,10.69,2.3h.83a24.17,24.17,0,0,0,10.7-2.3l2.44-1.54C60,54.52,60,52.36,60,52.36S60.29,13,60,11.41Z"/><path class="cls-1" d="M81.56,12.44c-.25-1.37-2.4-4-2.94-5a3.55,3.55,0,0,1-.08-3c.33-.5.66-.71.41-.88S76,2.27,64.69,2.43c-3.17,0-4.44,0-6.4.12l-.2.26c-.07.09-.15.18-.22.28A2.94,2.94,0,0,0,58,5c.16.31.58.92,1,1.5,1.29,1.87,2.28,3.39,2.51,4.66.06.33.2,1.11.13,21.33,0,9.93-.1,19.8-.11,19.9h0a3.68,3.68,0,0,1-1.1,2.33s-.1.11-.16.16a13.2,13.2,0,0,0,4,.59h.72a21.27,21.27,0,0,0,9.41-2l2.15-1.35c4.92-1.75,5-3.65,5-3.65s.24-34.63,0-36"/><path class="cls-1" d="M81.56,12.44c-.25-1.37-2.4-4-2.94-5a3.55,3.55,0,0,1-.08-3c.33-.5.66-.71.41-.88S76,2.27,64.69,2.43c-3.17,0-4.44,0-6.4.12l-.2.26c-.07.09-.15.18-.22.28A2.94,2.94,0,0,0,58,5c.16.31.58.92,1,1.5,1.29,1.87,2.28,3.39,2.51,4.66.06.33.2,1.11.13,21.33,0,9.93-.1,19.8-.11,19.9h0a3.68,3.68,0,0,1-1.1,2.33s-.1.11-.16.16a13.2,13.2,0,0,0,4,.59h.72a21.27,21.27,0,0,0,9.41-2l2.15-1.35c4.92-1.75,5-3.65,5-3.65S81.8,13.81,81.56,12.44Z"/><path class="cls-1" d="M7.68,9.55,7.2,13.06l.36,35.6a.74.74,0,0,1-1,.68A10.46,10.46,0,0,1,4.58,48.2,1.44,1.44,0,0,1,4,47.05c-.07-4.9-.45-34,0-34.7.29-.45,1.55-2,2.59-3.28a.62.62,0,0,1,1.1.48M21.21,54.71a3.68,3.68,0,0,1-1.1-2.33h0c0-.1-.07-10-.11-19.9-.07-20.22.07-21,.13-21.33.23-1.27,1.23-2.79,2.51-4.66.4-.58.82-1.19,1-1.5a2.94,2.94,0,0,0,.16-1.89,3,3,0,0,0-.22-.28,4.5,4.5,0,0,1-.27-.37c-1.34,0-2.86,0-4.57,0C7.4,2.27,4.71,3.37,4.46,3.54s.08.38.41.88a3.55,3.55,0,0,1-.08,3c-.54,1.05-2.69,3.66-2.94,5s0,36,0,36,0,1.9,4.95,3.65L9,53.44a21.2,21.2,0,0,0,9.4,2h.72a23.46,23.46,0,0,0,2.74-.15c-.22-.2-.42-.4-.61-.6"/><path class="cls-1" d="M7.68,9.55,7.2,13.06l.36,35.6a.74.74,0,0,1-1,.68A10.46,10.46,0,0,1,4.58,48.2,1.44,1.44,0,0,1,4,47.05c-.07-4.9-.45-34,0-34.7.29-.45,1.55-2,2.59-3.28A.62.62,0,0,1,7.68,9.55ZM21.21,54.71a3.68,3.68,0,0,1-1.1-2.33h0c0-.1-.07-10-.11-19.9-.07-20.22.07-21,.13-21.33.23-1.27,1.23-2.79,2.51-4.66.4-.58.82-1.19,1-1.5a2.94,2.94,0,0,0,.16-1.89,3,3,0,0,0-.22-.28,4.5,4.5,0,0,1-.27-.37c-1.34,0-2.86,0-4.57,0C7.4,2.27,4.71,3.37,4.46,3.54s.08.38.41.88a3.55,3.55,0,0,1-.08,3c-.54,1.05-2.69,3.66-2.94,5s0,36,0,36,0,1.9,4.95,3.65L9,53.44a21.2,21.2,0,0,0,9.4,2h.72a23.46,23.46,0,0,0,2.74-.15C21.6,55.11,21.4,54.91,21.21,54.71Z"/></svg>