<svg id="Vrstva_1" data-name="Vrstva 1" xmlns="http://www.w3.org/2000/svg" viewBox="0 0 146.69 129.86"><defs><style>.cls-1{fill:#fff;}</style></defs><title>ikony</title><path class="cls-1" d="M7.38,129.5,0,105.42l0-.14q0-.36.39-.36H4.88a.47.47,0,0,1,.5.36l4.74,17.38c0,.07.06.11.11.11s.08,0,.1-.11L15,105.28a.47.47,0,0,1,.5-.36h4.38a.36.36,0,0,1,.36.5L12.79,129.5a.44.44,0,0,1-.46.36H7.84A.44.44,0,0,1,7.38,129.5Z"/><path class="cls-1" d="M23.5,129.74a.42.42,0,0,1-.13-.31V105.35a.42.42,0,0,1,.13-.31.41.41,0,0,1,.3-.12H28a.41.41,0,0,1,.3.12.42.42,0,0,1,.13.31v24.08a.42.42,0,0,1-.13.31.41.41,0,0,1-.3.12H23.8A.41.41,0,0,1,23.5,129.74Z"/><path class="cls-1" d="M47.19,105a.42.42,0,0,1,.3-.12h4.17a.41.41,0,0,1,.3.12.42.42,0,0,1,.13.31v24.08a.42.42,0,0,1-.13.31.41.41,0,0,1-.3.12h-4a.5.5,0,0,1-.5-.28l-9.23-15.25c0-.08-.1-.1-.14-.09s-.07.06-.07.16l.07,15a.46.46,0,0,1-.13.31.41.41,0,0,1-.3.12H33.17a.41.41,0,0,1-.3-.12.46.46,0,0,1-.13-.31V105.35a.46.46,0,0,1,.13-.31.41.41,0,0,1,.3-.12h4a.52.52,0,0,1,.5.28l9.19,15.18c0,.07.09.1.14.09s.07-.06.07-.16l0-15A.45.45,0,0,1,47.19,105Z"/><path class="cls-1" d="M71.83,129.5,70.76,126c-.05-.09-.11-.14-.18-.14H61.82c-.07,0-.13,0-.18.14l-1,3.49a.45.45,0,0,1-.47.36H55.62a.39.39,0,0,1-.32-.12.4.4,0,0,1,0-.38L63,105.28a.44.44,0,0,1,.46-.36H69a.45.45,0,0,1,.46.36l7.69,24.08a.34.34,0,0,1,0,.18c0,.21-.13.32-.39.32H72.29A.44.44,0,0,1,71.83,129.5ZM63.06,122h6.28c.14,0,.19-.07.14-.22l-3.21-10.58c0-.09-.06-.14-.11-.12a.16.16,0,0,0-.1.12l-3.14,10.58C62.9,121.92,63,122,63.06,122Zm.79-19.42a.39.39,0,0,1,0-.36l1.89-3.6a.54.54,0,0,1,.54-.32h3.6a.36.36,0,0,1,.33.16.34.34,0,0,1,0,.38l-2.53,3.6a.55.55,0,0,1-.5.28h-3A.33.33,0,0,1,63.85,102.57Z"/><path class="cls-1" d="M93.53,129.54l-4.46-9.87a.22.22,0,0,0-.21-.14H85.55a.16.16,0,0,0-.18.18v9.72a.42.42,0,0,1-.13.31.41.41,0,0,1-.3.12H80.77a.41.41,0,0,1-.3-.12.45.45,0,0,1-.12-.31V105.35a.45.45,0,0,1,.12-.31.41.41,0,0,1,.3-.12H91a8.33,8.33,0,0,1,4,.93,6.44,6.44,0,0,1,2.67,2.63,8.06,8.06,0,0,1,1,4,7.1,7.1,0,0,1-1.21,4.15A6.51,6.51,0,0,1,94,119a.18.18,0,0,0-.11.25l4.85,10.08a.53.53,0,0,1,.07.22c0,.19-.13.28-.39.28H94A.5.5,0,0,1,93.53,129.54Zm-8.16-20.13v6.09a.16.16,0,0,0,.18.18h4.66a3.41,3.41,0,0,0,2.44-.89,3,3,0,0,0,.95-2.32,3.1,3.1,0,0,0-.95-2.33,3.34,3.34,0,0,0-2.44-.91H85.55A.16.16,0,0,0,85.37,109.41Z"/><path class="cls-1" d="M116.67,105a.41.41,0,0,1,.3-.12h4.17a.41.41,0,0,1,.3.12.42.42,0,0,1,.13.31v24.08a.42.42,0,0,1-.13.31.41.41,0,0,1-.3.12h-4a.5.5,0,0,1-.49-.28l-9.23-15.25c0-.08-.1-.1-.15-.09s-.07.06-.07.16l.07,15a.45.45,0,0,1-.12.31.41.41,0,0,1-.3.12h-4.17a.41.41,0,0,1-.3-.12.42.42,0,0,1-.13-.31V105.35a.42.42,0,0,1,.13-.31.41.41,0,0,1,.3-.12h4a.5.5,0,0,1,.5.28l9.2,15.18c0,.07.09.1.14.09s.07-.06.07-.16l0-15A.46.46,0,0,1,116.67,105Z"/><path class="cls-1" d="M141.31,129.5,140.24,126c-.05-.09-.11-.14-.18-.14h-8.77a.2.2,0,0,0-.17.14l-1,3.49a.44.44,0,0,1-.46.36H125.1a.39.39,0,0,1-.32-.12.37.37,0,0,1,0-.38l7.7-24.08a.44.44,0,0,1,.46-.36h5.59a.46.46,0,0,1,.47.36l7.69,24.08a.34.34,0,0,1,0,.18c0,.21-.13.32-.4.32h-4.52A.44.44,0,0,1,141.31,129.5ZM132.54,122h6.27c.15,0,.19-.07.15-.22l-3.21-10.58c0-.09-.06-.14-.11-.12s-.08.05-.1.12l-3.14,10.58C132.38,121.92,132.42,122,132.54,122Z"/><path class="cls-1" d="M46,34.44c-3.58-4.16-4.53-9-3.41-14.29A33,33,0,0,1,48.3,7.85c1.51-2.14,3.26-4.13,4.89-6.19a.86.86,0,0,1,1.08-.29c2.8.86,5.6,1.69,8.4,2.53s5.6,1.7,8.41,2.52a.82.82,0,0,1,.68.76A50.84,50.84,0,0,1,72.08,22a24.57,24.57,0,0,1-3.19,9.59,15.14,15.14,0,0,1-10.18,7.2A12.51,12.51,0,0,1,46,34.44m9,6.09c.74-.07,1.47-.13,2.2-.25A17.15,17.15,0,0,0,68.63,34a23.65,23.65,0,0,0,4.54-11.44,50.72,50.72,0,0,0-.38-16.17A1,1,0,0,0,72,5.49Q63,2.81,54,.07a1,1,0,0,0-1.14.3,55.83,55.83,0,0,0-6.55,8.39,33.28,33.28,0,0,0-4.94,11.93,17.21,17.21,0,0,0,1.41,10.92,20.57,20.57,0,0,0,6.1,7.07,3.49,3.49,0,0,1,1.22,4.06c-1.58,4.9-3,9.85-4.51,14.76L43,65.91a7.81,7.81,0,0,1-8.09,5.7,30.84,30.84,0,0,1-3.47-.77,7.61,7.61,0,0,0-1.65-.13c-.2,0-.39.25-.59.38.18.14.34.35.54.41,4.39,1.33,8.78,2.64,13.17,4,3.37,1,6.74,2,10.12,3,.17.05.38,0,.58-.07-.06-.19-.07-.47-.2-.56A7.63,7.63,0,0,0,52,77c-.7-.28-1.45-.44-2.17-.69a7.85,7.85,0,0,1-5.06-9l2.64-9.42c1.38-4.9,3-9.72,4.39-14.62A3.5,3.5,0,0,1,55,40.53"/><path class="cls-1" d="M46,34.44c-3.58-4.16-4.53-9-3.41-14.29A33,33,0,0,1,48.3,7.85c1.51-2.14,3.26-4.13,4.89-6.19a.86.86,0,0,1,1.08-.29c2.8.86,5.6,1.69,8.4,2.53s5.6,1.7,8.41,2.52a.82.82,0,0,1,.68.76A50.84,50.84,0,0,1,72.08,22a24.57,24.57,0,0,1-3.19,9.59,15.14,15.14,0,0,1-10.18,7.2A12.51,12.51,0,0,1,46,34.44Zm9,6.09c.74-.07,1.47-.13,2.2-.25A17.15,17.15,0,0,0,68.63,34a23.65,23.65,0,0,0,4.54-11.44,50.72,50.72,0,0,0-.38-16.17A1,1,0,0,0,72,5.49Q63,2.81,54,.07a1,1,0,0,0-1.14.3,55.83,55.83,0,0,0-6.55,8.39,33.28,33.28,0,0,0-4.94,11.93,17.21,17.21,0,0,0,1.41,10.92,20.57,20.57,0,0,0,6.1,7.07,3.49,3.49,0,0,1,1.22,4.06c-1.58,4.9-3,9.85-4.51,14.76L43,65.91a7.81,7.81,0,0,1-8.09,5.7,30.84,30.84,0,0,1-3.47-.77,7.61,7.61,0,0,0-1.65-.13c-.2,0-.39.25-.59.38.18.14.34.35.54.41,4.39,1.33,8.78,2.64,13.17,4,3.37,1,6.74,2,10.12,3,.17.05.38,0,.58-.07-.06-.19-.07-.47-.2-.56A7.63,7.63,0,0,0,52,77c-.7-.28-1.45-.44-2.17-.69a7.85,7.85,0,0,1-5.06-9l2.64-9.42c1.38-4.9,3-9.72,4.39-14.62A3.5,3.5,0,0,1,55,40.53Z"/><path class="cls-1" d="M67.46,32.3A18.36,18.36,0,0,0,70.12,27,16,16,0,0,1,65,26.36,26,26,0,0,1,58.16,23a20.29,20.29,0,0,0-14.37-2.88.63.63,0,0,0-.44.4A15.21,15.21,0,0,0,45.8,32.91a12,12,0,0,0,11.32,5.35,14.1,14.1,0,0,0,10.34-6"/><path class="cls-1" d="M67.46,32.3A18.36,18.36,0,0,0,70.12,27,16,16,0,0,1,65,26.36,26,26,0,0,1,58.16,23a20.29,20.29,0,0,0-14.37-2.88.63.63,0,0,0-.44.4A15.21,15.21,0,0,0,45.8,32.91a12,12,0,0,0,11.32,5.35A14.1,14.1,0,0,0,67.46,32.3Z"/><path class="cls-1" d="M70.12,27a18.36,18.36,0,0,1-2.66,5.33,14.1,14.1,0,0,1-10.34,6A12,12,0,0,1,45.8,32.91a15.21,15.21,0,0,1-2.45-12.36.63.63,0,0,1,.44-.4A20.29,20.29,0,0,1,58.16,23,26,26,0,0,0,65,26.36a16,16,0,0,0,5.12.61"/><path class="cls-1" d="M70.12,27a18.36,18.36,0,0,1-2.66,5.33,14.1,14.1,0,0,1-10.34,6A12,12,0,0,1,45.8,32.91a15.21,15.21,0,0,1-2.45-12.36.63.63,0,0,1,.44-.4A20.29,20.29,0,0,1,58.16,23,26,26,0,0,0,65,26.36,16,16,0,0,0,70.12,27Z"/><path class="cls-1" d="M90,48.28A13.89,13.89,0,0,1,80.09,40a29,29,0,0,1-2.42-11.65c0-2.3.15-4.62.22-6.93a.75.75,0,0,1,.62-.76c2.42-.85,4.83-1.73,7.25-2.6L93,15.41a.71.71,0,0,1,.88.18,44.27,44.27,0,0,1,8,10.3,21.39,21.39,0,0,1,2.76,8.43,13.28,13.28,0,0,1-3.42,10.4A11,11,0,0,1,90,48.28m9.52-.41c.49-.43,1-.86,1.43-1.32a15.11,15.11,0,0,0,4.76-10.42,20.85,20.85,0,0,0-2.78-10.45,44.48,44.48,0,0,0-8.71-11.2.83.83,0,0,0-1-.21q-7.77,2.82-15.57,5.6a.84.84,0,0,0-.64.81A48.6,48.6,0,0,0,76.72,30a29.15,29.15,0,0,0,2.75,11,15.08,15.08,0,0,0,6.7,7,18,18,0,0,0,8,1.8,3.06,3.06,0,0,1,3,2.23c1.45,4.28,3.07,8.5,4.53,12.77l2.58,7.28a6.86,6.86,0,0,1-2.73,8.25,25.19,25.19,0,0,1-2.85,1.27,6.56,6.56,0,0,0-1.23.78c-.14.1-.15.37-.22.57a1.73,1.73,0,0,0,.6,0c3.79-1.35,7.57-2.72,11.36-4.08l8.72-3.15c.14,0,.25-.23.37-.35-.14-.1-.29-.29-.43-.29a5.85,5.85,0,0,0-1.45.14c-.64.17-1.25.45-1.89.65a6.88,6.88,0,0,1-8.28-3.73l-3.06-8c-1.59-4.18-3-8.43-4.54-12.61a3.08,3.08,0,0,1,.86-3.62"/><path class="cls-1" d="M90,48.28A13.89,13.89,0,0,1,80.09,40a29,29,0,0,1-2.42-11.65c0-2.3.15-4.62.22-6.93a.75.75,0,0,1,.62-.76c2.42-.85,4.83-1.73,7.25-2.6L93,15.41a.71.71,0,0,1,.88.18,44.27,44.27,0,0,1,8,10.3,21.39,21.39,0,0,1,2.76,8.43,13.28,13.28,0,0,1-3.42,10.4A11,11,0,0,1,90,48.28Zm9.52-.41c.49-.43,1-.86,1.43-1.32a15.11,15.11,0,0,0,4.76-10.42,20.85,20.85,0,0,0-2.78-10.45,44.48,44.48,0,0,0-8.71-11.2.83.83,0,0,0-1-.21q-7.77,2.82-15.57,5.6a.84.84,0,0,0-.64.81A48.6,48.6,0,0,0,76.72,30a29.15,29.15,0,0,0,2.75,11,15.08,15.08,0,0,0,6.7,7,18,18,0,0,0,8,1.8,3.06,3.06,0,0,1,3,2.23c1.45,4.28,3.07,8.5,4.53,12.77l2.58,7.28a6.86,6.86,0,0,1-2.73,8.25,25.19,25.19,0,0,1-2.85,1.27,6.56,6.56,0,0,0-1.23.78c-.14.1-.15.37-.22.57a1.73,1.73,0,0,0,.6,0c3.79-1.35,7.57-2.72,11.36-4.08l8.72-3.15c.14,0,.25-.23.37-.35-.14-.1-.29-.29-.43-.29a5.85,5.85,0,0,0-1.45.14c-.64.17-1.25.45-1.89.65a6.88,6.88,0,0,1-8.28-3.73l-3.06-8c-1.59-4.18-3-8.43-4.54-12.61A3.08,3.08,0,0,1,99.48,47.87Z"/><path class="cls-1" d="M104,35.56a15.71,15.71,0,0,0-.91-5.15,13.94,13.94,0,0,1-3.93,2.24,22.65,22.65,0,0,1-6.56,1.23,17.84,17.84,0,0,0-11.65,5.47.58.58,0,0,0-.1.52A13.37,13.37,0,0,0,89,47.31a10.48,10.48,0,0,0,10.79-2.15,12.36,12.36,0,0,0,4.18-9.6"/><path class="cls-1" d="M104,35.56a15.71,15.71,0,0,0-.91-5.15,13.94,13.94,0,0,1-3.93,2.24,22.65,22.65,0,0,1-6.56,1.23,17.84,17.84,0,0,0-11.65,5.47.58.58,0,0,0-.1.52A13.37,13.37,0,0,0,89,47.31a10.48,10.48,0,0,0,10.79-2.15A12.36,12.36,0,0,0,104,35.56Z"/><path class="cls-1" d="M103.06,30.41a15.71,15.71,0,0,1,.91,5.15,12.36,12.36,0,0,1-4.18,9.6A10.48,10.48,0,0,1,89,47.31a13.37,13.37,0,0,1-8.18-7.44.58.58,0,0,1,.1-.52,17.84,17.84,0,0,1,11.65-5.47,22.65,22.65,0,0,0,6.56-1.23,13.94,13.94,0,0,0,3.93-2.24"/><path class="cls-1" d="M103.06,30.41a15.71,15.71,0,0,1,.91,5.15,12.36,12.36,0,0,1-4.18,9.6A10.48,10.48,0,0,1,89,47.31a13.37,13.37,0,0,1-8.18-7.44.58.58,0,0,1,.1-.52,17.84,17.84,0,0,1,11.65-5.47,22.65,22.65,0,0,0,6.56-1.23A13.94,13.94,0,0,0,103.06,30.41Z"/></svg>