<svg id="Vrstva_1" data-name="Vrstva 1" xmlns="http://www.w3.org/2000/svg" viewBox="0 0 198.95 175.91"><defs><style>.cls-1{fill:#fff;}</style></defs><title>desktop_zobrazeni_02</title><path class="cls-1" d="M40,155.54l-7.34-24.09,0-.14c0-.24.13-.36.4-.36h4.49a.46.46,0,0,1,.49.36l4.74,17.39c0,.07.06.1.11.1s.08,0,.11-.1l4.66-17.39a.47.47,0,0,1,.5-.36h4.39a.38.38,0,0,1,.32.15.35.35,0,0,1,0,.35l-7.45,24.09a.43.43,0,0,1-.46.35H40.49A.43.43,0,0,1,40,155.54Z"/><path class="cls-1" d="M56.15,155.77a.41.41,0,0,1-.12-.3V131.38a.41.41,0,0,1,.12-.3.42.42,0,0,1,.3-.13h4.17a.46.46,0,0,1,.31.13.41.41,0,0,1,.12.3v24.09a.41.41,0,0,1-.12.3.45.45,0,0,1-.31.12H56.45A.41.41,0,0,1,56.15,155.77Z"/><path class="cls-1" d="M79.84,131.08a.46.46,0,0,1,.31-.13h4.17a.43.43,0,0,1,.3.13.41.41,0,0,1,.12.3v24.09a.41.41,0,0,1-.12.3.42.42,0,0,1-.3.12h-4a.51.51,0,0,1-.5-.28l-9.23-15.25c0-.07-.09-.1-.14-.09s-.07.07-.07.16l.07,15a.41.41,0,0,1-.12.3.45.45,0,0,1-.31.12H65.82a.41.41,0,0,1-.42-.42V131.38a.41.41,0,0,1,.12-.3.42.42,0,0,1,.3-.13h4a.52.52,0,0,1,.5.29l9.19,15.18c0,.07.1.1.14.09s.08-.07.08-.16l0-15A.41.41,0,0,1,79.84,131.08Z"/><path class="cls-1" d="M104.48,155.54l-1.07-3.49c0-.1-.1-.15-.17-.15H94.47q-.1,0-.18.15l-1,3.49a.44.44,0,0,1-.46.35H88.27a.41.41,0,0,1-.32-.12.38.38,0,0,1,0-.37l7.69-24.09a.45.45,0,0,1,.46-.36h5.6a.44.44,0,0,1,.46.36l7.7,24.09a.4.4,0,0,1,0,.17c0,.22-.13.32-.39.32H105A.44.44,0,0,1,104.48,155.54ZM95.72,148H102c.14,0,.19-.07.14-.21l-3.21-10.59c0-.09-.06-.13-.1-.12a.15.15,0,0,0-.11.12l-3.13,10.59C95.55,148,95.6,148,95.72,148Zm.78-19.42a.38.38,0,0,1,0-.35l1.89-3.6a.51.51,0,0,1,.53-.32h3.6a.36.36,0,0,1,.34.16.33.33,0,0,1-.06.37l-2.53,3.6a.56.56,0,0,1-.49.29h-3A.33.33,0,0,1,96.5,128.6Z"/><path class="cls-1" d="M126.18,155.57l-4.45-9.86a.23.23,0,0,0-.22-.15H118.2a.16.16,0,0,0-.18.18v9.73a.41.41,0,0,1-.12.3.45.45,0,0,1-.31.12h-4.16a.45.45,0,0,1-.31-.12.41.41,0,0,1-.12-.3V131.38a.41.41,0,0,1,.12-.3.46.46,0,0,1,.31-.13h10.19a8.29,8.29,0,0,1,4,.93,6.49,6.49,0,0,1,2.68,2.64,8,8,0,0,1,.94,3.95,7,7,0,0,1-1.21,4.15,6.4,6.4,0,0,1-3.39,2.44.17.17,0,0,0-.1.25l4.84,10.09a.46.46,0,0,1,.07.21c0,.19-.13.28-.39.28h-4.38A.5.5,0,0,1,126.18,155.57ZM118,135.44v6.1c0,.12.06.17.18.17h4.67a3.4,3.4,0,0,0,2.44-.89,3,3,0,0,0,.94-2.31,3.11,3.11,0,0,0-.94-2.34,3.4,3.4,0,0,0-2.44-.9H118.2C118.08,135.27,118,135.32,118,135.44Z"/><path class="cls-1" d="M149.32,131.08a.43.43,0,0,1,.3-.13h4.17a.46.46,0,0,1,.31.13.41.41,0,0,1,.12.3v24.09a.41.41,0,0,1-.12.3.45.45,0,0,1-.31.12h-4a.5.5,0,0,1-.5-.28L140,140.36c0-.07-.1-.1-.14-.09s-.07.07-.07.16l.07,15a.38.38,0,0,1-.13.3.41.41,0,0,1-.3.12H135.3a.41.41,0,0,1-.3-.12.42.42,0,0,1-.13-.3V131.38a.44.44,0,0,1,.43-.43h4a.53.53,0,0,1,.5.29L149,146.42c0,.07.09.1.14.09s.07-.07.07-.16l0-15A.41.41,0,0,1,149.32,131.08Z"/><path class="cls-1" d="M174,155.54l-1.07-3.49q-.07-.15-.18-.15H164q-.1,0-.18.15l-1,3.49a.44.44,0,0,1-.47.35h-4.52a.34.34,0,0,1-.36-.49l7.7-24.09a.44.44,0,0,1,.46-.36h5.6a.45.45,0,0,1,.46.36l7.69,24.09a.29.29,0,0,1,0,.17c0,.22-.13.32-.39.32h-4.53A.44.44,0,0,1,174,155.54ZM165.2,148h6.27c.14,0,.19-.07.14-.21l-3.21-10.59c0-.09-.06-.13-.1-.12a.15.15,0,0,0-.11.12l-3.14,10.59Q165,148,165.2,148Z"/><path class="cls-1" d="M78.67,60.48c-3.58-4.16-4.53-9-3.41-14.3A33.05,33.05,0,0,1,81,33.89c1.52-2.15,3.26-4.13,4.89-6.2a.86.86,0,0,1,1.08-.28c2.8.86,5.6,1.69,8.4,2.53s5.6,1.69,8.41,2.51a.82.82,0,0,1,.68.77,50.5,50.5,0,0,1,.32,14.83,24.47,24.47,0,0,1-3.19,9.58,15.08,15.08,0,0,1-10.18,7.2,12.49,12.49,0,0,1-12.69-4.35m9,6.08c.74-.06,1.48-.13,2.21-.24A17.21,17.21,0,0,0,101.28,60a23.68,23.68,0,0,0,4.54-11.45,50.38,50.38,0,0,0-.38-16.16,1,1,0,0,0-.78-.88q-9-2.68-18-5.42a1,1,0,0,0-1.14.31,54.78,54.78,0,0,0-6.54,8.39A32.85,32.85,0,0,0,74,46.73,17.1,17.1,0,0,0,75.4,57.65a20.55,20.55,0,0,0,6.1,7.07,3.48,3.48,0,0,1,1.21,4c-1.58,4.9-2.95,9.86-4.51,14.76l-2.58,8.41a7.81,7.81,0,0,1-8.08,5.71,31.06,31.06,0,0,1-3.48-.78,7,7,0,0,0-1.65-.12c-.2,0-.39.24-.59.37.18.14.34.35.55.41l13.17,4,10.11,3a1.49,1.49,0,0,0,.58-.07c-.06-.19-.07-.46-.2-.56a6.8,6.8,0,0,0-1.42-.84c-.7-.29-1.45-.44-2.17-.69a7.84,7.84,0,0,1-5-9L80,83.91c1.39-4.9,3-9.72,4.4-14.63a3.5,3.5,0,0,1,3.24-2.72"/><path class="cls-1" d="M78.67,60.48c-3.58-4.16-4.53-9-3.41-14.3A33.05,33.05,0,0,1,81,33.89c1.52-2.15,3.26-4.13,4.89-6.2a.86.86,0,0,1,1.08-.28c2.8.86,5.6,1.69,8.4,2.53s5.6,1.69,8.41,2.51a.82.82,0,0,1,.68.77,50.5,50.5,0,0,1,.32,14.83,24.47,24.47,0,0,1-3.19,9.58,15.08,15.08,0,0,1-10.18,7.2A12.49,12.49,0,0,1,78.67,60.48Zm9,6.08c.74-.06,1.48-.13,2.21-.24A17.21,17.21,0,0,0,101.28,60a23.68,23.68,0,0,0,4.54-11.45,50.38,50.38,0,0,0-.38-16.16,1,1,0,0,0-.78-.88q-9-2.68-18-5.42a1,1,0,0,0-1.14.31,54.78,54.78,0,0,0-6.54,8.39A32.85,32.85,0,0,0,74,46.73,17.1,17.1,0,0,0,75.4,57.65a20.55,20.55,0,0,0,6.1,7.07,3.48,3.48,0,0,1,1.21,4c-1.58,4.9-2.95,9.86-4.51,14.76l-2.58,8.41a7.81,7.81,0,0,1-8.08,5.71,31.06,31.06,0,0,1-3.48-.78,7,7,0,0,0-1.65-.12c-.2,0-.39.24-.59.37.18.14.34.35.55.41l13.17,4,10.11,3a1.49,1.49,0,0,0,.58-.07c-.06-.19-.07-.46-.2-.56a6.8,6.8,0,0,0-1.42-.84c-.7-.29-1.45-.44-2.17-.69a7.84,7.84,0,0,1-5-9L80,83.91c1.39-4.9,3-9.72,4.4-14.63A3.5,3.5,0,0,1,87.66,66.56Z"/><path class="cls-1" d="M100.11,58.33A17.94,17.94,0,0,0,102.77,53a16,16,0,0,1-5.12-.62,26.41,26.41,0,0,1-6.84-3.32,20.35,20.35,0,0,0-14.37-2.89.65.65,0,0,0-.44.4,15.19,15.19,0,0,0,2.45,12.36,11.93,11.93,0,0,0,11.33,5.35,14.08,14.08,0,0,0,10.33-6"/><path class="cls-1" d="M100.11,58.33A17.94,17.94,0,0,0,102.77,53a16,16,0,0,1-5.12-.62,26.41,26.41,0,0,1-6.84-3.32,20.35,20.35,0,0,0-14.37-2.89.65.65,0,0,0-.44.4,15.19,15.19,0,0,0,2.45,12.36,11.93,11.93,0,0,0,11.33,5.35A14.08,14.08,0,0,0,100.11,58.33Z"/><path class="cls-1" d="M102.77,53a17.94,17.94,0,0,1-2.66,5.32,14.08,14.08,0,0,1-10.33,6,11.93,11.93,0,0,1-11.33-5.35A15.19,15.19,0,0,1,76,46.58a.65.65,0,0,1,.44-.4,20.35,20.35,0,0,1,14.37,2.89,26.41,26.41,0,0,0,6.84,3.32,16,16,0,0,0,5.12.62"/><path class="cls-1" d="M102.77,53a17.94,17.94,0,0,1-2.66,5.32,14.08,14.08,0,0,1-10.33,6,11.93,11.93,0,0,1-11.33-5.35A15.19,15.19,0,0,1,76,46.58a.65.65,0,0,1,.44-.4,20.35,20.35,0,0,1,14.37,2.89,26.41,26.41,0,0,0,6.84,3.32A16,16,0,0,0,102.77,53Z"/><path class="cls-1" d="M122.61,74.31a13.85,13.85,0,0,1-9.87-8.3,29,29,0,0,1-2.41-11.65c0-2.31.14-4.62.22-6.93a.75.75,0,0,1,.61-.77c2.42-.85,4.83-1.73,7.25-2.6s4.83-1.73,7.24-2.62a.75.75,0,0,1,.89.18,45,45,0,0,1,8,10.3,21.42,21.42,0,0,1,2.75,8.44,13.28,13.28,0,0,1-3.42,10.4,11,11,0,0,1-11.23,3.55m9.53-.4c.48-.43,1-.87,1.43-1.33a15.1,15.1,0,0,0,4.75-10.41,20.69,20.69,0,0,0-2.77-10.45,44.34,44.34,0,0,0-8.72-11.21.86.86,0,0,0-1-.21q-7.77,2.82-15.57,5.61a.84.84,0,0,0-.64.8,47.91,47.91,0,0,0-.23,9.35,29.14,29.14,0,0,0,2.74,11,15.13,15.13,0,0,0,6.7,7,18.31,18.31,0,0,0,8,1.8,3.05,3.05,0,0,1,3,2.23c1.44,4.27,3.07,8.49,4.53,12.76l2.57,7.29a6.87,6.87,0,0,1-2.72,8.25,29.52,29.52,0,0,1-2.86,1.27,6,6,0,0,0-1.23.77c-.14.11-.15.38-.22.57a1.74,1.74,0,0,0,.6,0l11.36-4.09q4.36-1.56,8.72-3.15c.15,0,.25-.23.37-.35-.14-.1-.29-.29-.43-.29a6.43,6.43,0,0,0-1.45.15c-.64.16-1.25.44-1.88.64a6.88,6.88,0,0,1-8.29-3.73l-3.06-8c-1.58-4.18-2.95-8.44-4.54-12.62a3.07,3.07,0,0,1,.87-3.61"/><path class="cls-1" d="M122.61,74.31a13.85,13.85,0,0,1-9.87-8.3,29,29,0,0,1-2.41-11.65c0-2.31.14-4.62.22-6.93a.75.75,0,0,1,.61-.77c2.42-.85,4.83-1.73,7.25-2.6s4.83-1.73,7.24-2.62a.75.75,0,0,1,.89.18,45,45,0,0,1,8,10.3,21.42,21.42,0,0,1,2.75,8.44,13.28,13.28,0,0,1-3.42,10.4A11,11,0,0,1,122.61,74.31Zm9.53-.4c.48-.43,1-.87,1.43-1.33a15.1,15.1,0,0,0,4.75-10.41,20.69,20.69,0,0,0-2.77-10.45,44.34,44.34,0,0,0-8.72-11.21.86.86,0,0,0-1-.21q-7.77,2.82-15.57,5.61a.84.84,0,0,0-.64.8,47.91,47.91,0,0,0-.23,9.35,29.14,29.14,0,0,0,2.74,11,15.13,15.13,0,0,0,6.7,7,18.31,18.31,0,0,0,8,1.8,3.05,3.05,0,0,1,3,2.23c1.44,4.27,3.07,8.49,4.53,12.76l2.57,7.29a6.87,6.87,0,0,1-2.72,8.25,29.52,29.52,0,0,1-2.86,1.27,6,6,0,0,0-1.23.77c-.14.11-.15.38-.22.57a1.74,1.74,0,0,0,.6,0l11.36-4.09q4.36-1.56,8.72-3.15c.15,0,.25-.23.37-.35-.14-.1-.29-.29-.43-.29a6.43,6.43,0,0,0-1.45.15c-.64.16-1.25.44-1.88.64a6.88,6.88,0,0,1-8.29-3.73l-3.06-8c-1.58-4.18-2.95-8.44-4.54-12.62A3.07,3.07,0,0,1,132.14,73.91Z"/><path class="cls-1" d="M136.62,61.59a15.94,15.94,0,0,0-.9-5.14,14.13,14.13,0,0,1-3.94,2.24,23.27,23.27,0,0,1-6.56,1.23,17.84,17.84,0,0,0-11.65,5.47.58.58,0,0,0-.1.51,13.37,13.37,0,0,0,8.18,7.44,10.47,10.47,0,0,0,10.79-2.14,12.34,12.34,0,0,0,4.18-9.61"/><path class="cls-1" d="M136.62,61.59a15.94,15.94,0,0,0-.9-5.14,14.13,14.13,0,0,1-3.94,2.24,23.27,23.27,0,0,1-6.56,1.23,17.84,17.84,0,0,0-11.65,5.47.58.58,0,0,0-.1.51,13.37,13.37,0,0,0,8.18,7.44,10.47,10.47,0,0,0,10.79-2.14A12.34,12.34,0,0,0,136.62,61.59Z"/><path class="cls-1" d="M135.72,56.45a15.94,15.94,0,0,1,.9,5.14,12.34,12.34,0,0,1-4.18,9.61,10.47,10.47,0,0,1-10.79,2.14,13.37,13.37,0,0,1-8.18-7.44.58.58,0,0,1,.1-.51,17.84,17.84,0,0,1,11.65-5.47,23.27,23.27,0,0,0,6.56-1.23,14.13,14.13,0,0,0,3.94-2.24"/><path class="cls-1" d="M135.72,56.45a15.94,15.94,0,0,1,.9,5.14,12.34,12.34,0,0,1-4.18,9.61,10.47,10.47,0,0,1-10.79,2.14,13.37,13.37,0,0,1-8.18-7.44.58.58,0,0,1,.1-.51,17.84,17.84,0,0,1,11.65-5.47,23.27,23.27,0,0,0,6.56-1.23A14.13,14.13,0,0,0,135.72,56.45Z"/></svg>